<?xml version="1.0" encoding="iso-8859-1"?>
<!-- Generator: Adobe Illustrator 16.0.0, SVG Export Plug-In . SVG Version: 6.00 Build 0)  -->
<!DOCTYPE svg PUBLIC "-//W3C//DTD SVG 1.1//EN" "http://www.w3.org/Graphics/SVG/1.1/DTD/svg11.dtd">
<svg version="1.1" id="Capa_1" xmlns="http://www.w3.org/2000/svg" xmlns:xlink="http://www.w3.org/1999/xlink" x="0px" y="0px"
	 width="490.146px" height="490.146px" viewBox="0 0 490.146 490.146" style="enable-background:new 0 0 490.146 490.146;"
	 xml:space="preserve">
<g>
	<g>
		<path d="M294.636,81.562V66.539h15.023h23.697L313.089,0H156.242L6.935,490.146h132.714l24.131-104.062h137.243l24.131,104.062
			h137.242l-83.771-275.01h-13.961h-15.021v-15.023v-39.978h-39.98h-15.022v-15.023v-63.55H294.636z M187.159,285.795l8.296-33.933
			c12.064-46.756,24.128-105.57,34.687-155.34h3.017c12.063,49.013,24.129,108.583,36.195,155.34l8.296,33.933H187.159z"/>
		<polygon points="483.212,81.562 428.212,81.562 428.212,26.557 364.661,26.557 364.661,81.562 337.933,81.562 309.659,81.562 
			309.659,145.112 357.29,145.112 364.661,145.112 364.661,169.305 364.661,200.113 374.046,200.113 428.212,200.113 
			428.212,145.112 483.212,145.112 		"/>
	</g>
</g>
<g>
</g>
<g>
</g>
<g>
</g>
<g>
</g>
<g>
</g>
<g>
</g>
<g>
</g>
<g>
</g>
<g>
</g>
<g>
</g>
<g>
</g>
<g>
</g>
<g>
</g>
<g>
</g>
<g>
</g>
</svg>
