<?xml version="1.0" encoding="iso-8859-1"?>
<!-- Generator: Adobe Illustrator 16.0.0, SVG Export Plug-In . SVG Version: 6.00 Build 0)  -->
<!DOCTYPE svg PUBLIC "-//W3C//DTD SVG 1.1//EN" "http://www.w3.org/Graphics/SVG/1.1/DTD/svg11.dtd">
<svg version="1.1" id="Capa_1" xmlns="http://www.w3.org/2000/svg" xmlns:xlink="http://www.w3.org/1999/xlink" x="0px" y="0px"
	 width="491.616px" height="491.617px" viewBox="0 0 491.616 491.617" style="enable-background:new 0 0 491.616 491.617;"
	 xml:space="preserve">
<g>
	<g>
		<polygon points="257.702,389.537 261.168,347.121 165.144,347.121 168.612,389.537 		"/>
		<polygon points="275.826,333.866 363.219,333.866 381.555,262.288 281.596,262.288 		"/>
		<polygon points="66.631,347.121 77.648,389.537 155.068,389.537 151.6,347.121 		"/>
		<polygon points="359.682,347.121 274.712,347.121 271.244,389.537 348.664,389.537 		"/>
		<path d="M428.965,135.042c-4.439,0-8.109,1.559-11.039,3.505c-1.717,0.933-3.4,2.346-5.006,3.949
			c-18.283,18.308-36.566,36.735-54.854,55.043c-2.004,2.007-3.422,3.777-4.393,6.428h-67.199l-3.769,45.065h102.382l7.727-28.605
			c14.596-14.614,29.191-29.715,43.789-42.97h35.129c26.512,0,26.512-42.416,0-42.416L428.965,135.042L428.965,135.042z"/>
		<polygon points="157.146,249.034 269.166,249.034 272.936,203.967 153.376,203.967 		"/>
		<polygon points="150.486,333.866 144.715,262.288 44.757,262.288 63.094,333.866 		"/>
		<polygon points="29.252,203.967 41.221,249.034 143.602,249.034 139.835,203.967 		"/>
		<polygon points="268.055,262.288 158.257,262.288 164.03,333.866 262.282,333.866 		"/>
		<circle cx="118.539" cy="437.209" r="35.682"/>
		<circle cx="307.773" cy="437.209" r="35.682"/>
		<path d="M122.59,132.926l-18.565,18.069l132.438,28.936L211.115,46.764L192.55,64.833C101.942-28.256,0,48.405,0,48.405
			S48.975,57.296,122.59,132.926z"/>
	</g>
</g>
<g>
</g>
<g>
</g>
<g>
</g>
<g>
</g>
<g>
</g>
<g>
</g>
<g>
</g>
<g>
</g>
<g>
</g>
<g>
</g>
<g>
</g>
<g>
</g>
<g>
</g>
<g>
</g>
<g>
</g>
</svg>
