<?xml version="1.0" encoding="iso-8859-1"?>
<!-- Generator: Adobe Illustrator 16.0.0, SVG Export Plug-In . SVG Version: 6.00 Build 0)  -->
<!DOCTYPE svg PUBLIC "-//W3C//DTD SVG 1.1//EN" "http://www.w3.org/Graphics/SVG/1.1/DTD/svg11.dtd">
<svg version="1.1" id="Capa_1" xmlns="http://www.w3.org/2000/svg" xmlns:xlink="http://www.w3.org/1999/xlink" x="0px" y="0px"
	 width="495.525px" height="495.525px" viewBox="0 0 495.525 495.525" style="enable-background:new 0 0 495.525 495.525;"
	 xml:space="preserve">
<g>
	<g>
		<path d="M281.799,288.831h-44.908l-3.347,39.076h67.941C292.111,317.489,285.549,301.858,281.799,288.831z"/>
		<path d="M311.873,177.148c16.598-16.598,37.352-27.144,59.914-31.447c7.113-7.123,14.229-15.785,21.344-20.995h34.113
			c26.053,0,26.053-39.077,0-39.077h-41.48c-4.287,0-7.826,0.61-10.656,2.485c-1.658,0.899-3.281,1.816-4.83,3.363
			c-17.646,17.668-35.291,35.43-52.938,53.098c-1.936,1.936-3.305,3.577-4.24,6.182h-64.853l-3.637,44.287h52.853
			C301.609,187.23,306.402,182.62,311.873,177.148z"/>
		<polygon points="130.073,275.806 224.897,275.806 230.47,208.072 124.503,208.072 		"/>
		<polygon points="119.793,150.759 123.43,195.046 231.543,195.046 235.18,150.759 		"/>
		<path d="M289.967,208.072h-46.43l-5.573,67.734h41.208C275.952,252.36,279.567,228.913,289.967,208.072z"/>
		<polygon points="111.435,208.072 14.964,208.072 32.661,275.806 117.006,275.806 		"/>
		<polygon points="106.725,150.759 0,150.759 11.552,195.046 110.359,195.046 		"/>
		<polygon points="134.493,327.909 220.477,327.909 223.824,288.831 131.146,288.831 		"/>
		<polygon points="36.074,288.831 46.708,327.909 121.426,327.909 118.078,288.831 		"/>
		<circle cx="86.171" cy="375.458" r="34.438"/>
		<circle cx="268.799" cy="375.458" r="34.438"/>
		<path d="M393.734,156.934c-56.129,0-101.793,45.664-101.793,101.792c0,56.129,45.664,101.792,101.793,101.792
			s101.791-45.663,101.791-101.792C495.525,202.598,449.863,156.934,393.734,156.934z M453.297,278.411h-41.684v39.076h-36.473
			v-39.076h-20.842h-20.84v-2.605v-36.472h41.682v-39.077h36.473v39.077h41.684V278.411L453.297,278.411z"/>
	</g>
</g>
<g>
</g>
<g>
</g>
<g>
</g>
<g>
</g>
<g>
</g>
<g>
</g>
<g>
</g>
<g>
</g>
<g>
</g>
<g>
</g>
<g>
</g>
<g>
</g>
<g>
</g>
<g>
</g>
<g>
</g>
</svg>
