<?xml version="1.0" encoding="iso-8859-1"?>
<!-- Generator: Adobe Illustrator 16.0.0, SVG Export Plug-In . SVG Version: 6.00 Build 0)  -->
<!DOCTYPE svg PUBLIC "-//W3C//DTD SVG 1.1//EN" "http://www.w3.org/Graphics/SVG/1.1/DTD/svg11.dtd">
<svg version="1.1" id="Capa_1" xmlns="http://www.w3.org/2000/svg" xmlns:xlink="http://www.w3.org/1999/xlink" x="0px" y="0px"
	 width="487.234px" height="487.233px" viewBox="0 0 487.234 487.233" style="enable-background:new 0 0 487.234 487.233;"
	 xml:space="preserve">
<g>
	<g>
		<path d="M438.851,194.691v159.652c-7.92-3.17-16.556-4.935-25.605-4.935c-38.059,0-68.912,30.854-68.912,68.912
			s30.854,68.911,68.912,68.911s68.912-30.854,68.912-68.911c0-0.021,0-0.038,0-0.058l0,0V194.691v-86.613h-43.307H264.222
			c0.562,5.025,0.879,10.121,0.879,15.295c0,26.118-7.379,50.544-20.139,71.318H438.851z"/>
		<path d="M217.511,226.886c-12.645,10.894-27.283,19.524-43.306,25.236v102.224c-7.92-3.172-16.554-4.936-25.605-4.936
			c-38.059,0-68.912,30.854-68.912,68.912c0,38.058,30.853,68.911,68.912,68.911s68.912-30.854,68.912-68.911
			c0-0.021,0-0.038,0-0.057l0,0L217.511,226.886L217.511,226.886z"/>
		<path d="M128.449,246.746c16.172,0,31.603-3.145,45.756-8.801c16.493-6.592,31.22-16.636,43.306-29.247
			c4.191-4.374,8.061-9.054,11.578-14.007c14.299-20.139,22.733-44.738,22.733-71.318c0-5.182-0.355-10.278-0.979-15.295
			C243.308,47.163,191.404,0,128.449,0C60.312,0,5.076,55.237,5.076,123.373C5.076,191.51,60.31,246.746,128.449,246.746z
			 M51.744,95.287h48.616V46.669h56.172v48.616h48.618v12.793v43.378h-30.946h-17.67v48.618h-56.172v-48.616H51.744V95.287z"/>
	</g>
</g>
<g>
</g>
<g>
</g>
<g>
</g>
<g>
</g>
<g>
</g>
<g>
</g>
<g>
</g>
<g>
</g>
<g>
</g>
<g>
</g>
<g>
</g>
<g>
</g>
<g>
</g>
<g>
</g>
<g>
</g>
</svg>
