<?xml version="1.0" encoding="iso-8859-1"?>
<!-- Generator: Adobe Illustrator 16.0.0, SVG Export Plug-In . SVG Version: 6.00 Build 0)  -->
<!DOCTYPE svg PUBLIC "-//W3C//DTD SVG 1.1//EN" "http://www.w3.org/Graphics/SVG/1.1/DTD/svg11.dtd">
<svg version="1.1" id="Capa_1" xmlns="http://www.w3.org/2000/svg" xmlns:xlink="http://www.w3.org/1999/xlink" x="0px" y="0px"
	 width="487.08px" height="487.08px" viewBox="0 0 487.08 487.08" style="enable-background:new 0 0 487.08 487.08;"
	 xml:space="preserve">
<g>
	<g>
		<path d="M261.406,100.169C271.548,46.574,231.112-4.999,174.54,0.388c-27.594,2.628-27.849,46.029,0,43.377
			c26.301-2.504,50.379,16.651,45.041,44.87C214.407,115.969,256.21,127.632,261.406,100.169z"/>
		<path d="M45.273,179.978c-12.2,34.96-8.287,76.465-2.067,112.146c11.538,66.192,44.702,171.209,118.669,192.177
			c6.709,1.904,13.386,2.779,19.962,2.779c21.981,0,42.881-9.797,60.483-23.877c20.196,16.156,39.962,23.241,58.747,23.241
			c110.861,0,188.241-246.362,127.231-328.021c-2.861-3.832-6.003-7.372-9.384-10.633c-22.881-22.062-56.854-31.333-91.131-31.333
			c-30.858,0-61.967,7.51-85.468,19.965c-0.104,0.055-0.249,0.081-0.434,0.081c-3.238,0-18.314-7.956-20.543-8.722
			c-18.008-6.188-37.039-9.959-56.079-10.65c-2.116-0.079-4.262-0.116-6.417-0.116C113.714,117.01,61.264,134.162,45.273,179.978z"
			/>
	</g>
</g>
<g>
</g>
<g>
</g>
<g>
</g>
<g>
</g>
<g>
</g>
<g>
</g>
<g>
</g>
<g>
</g>
<g>
</g>
<g>
</g>
<g>
</g>
<g>
</g>
<g>
</g>
<g>
</g>
<g>
</g>
</svg>
