<?xml version="1.0" encoding="iso-8859-1"?>
<!-- Generator: Adobe Illustrator 16.0.0, SVG Export Plug-In . SVG Version: 6.00 Build 0)  -->
<!DOCTYPE svg PUBLIC "-//W3C//DTD SVG 1.1//EN" "http://www.w3.org/Graphics/SVG/1.1/DTD/svg11.dtd">
<svg version="1.1" id="Capa_1" xmlns="http://www.w3.org/2000/svg" xmlns:xlink="http://www.w3.org/1999/xlink" x="0px" y="0px"
	 width="483.297px" height="483.298px" viewBox="0 0 483.297 483.298" style="enable-background:new 0 0 483.297 483.298;"
	 xml:space="preserve">
<g>
	<g>
		<path d="M77.273,150.705c-21.494,20.822-33.567,46.752-38.825,75.96c-1.313,7.296-1.778,14.745-2.646,22.124
			c-0.094,0.803-0.268,1.597-0.407,2.395c0,7.197,0,14.393,0,21.588c0.46,4.944,0.891,9.89,1.385,14.83
			c2.331,23.281,8.067,45.762,15.78,67.807c10.486,29.969,25.457,57.268,44.502,82.08c0.591,0.789,1.186,1.578,1.782,2.363
			c8.184,10.756,16.684,21.211,27.421,29.582c2.444,1.906,4.938,3.619,7.483,5.139c13.797,9.543,29.115,10.855,45.055,5.893
			c0.436-0.137,0.87-0.281,1.306-0.422c7.148-1.852,14.081-4.385,20.932-7.209c4.79-1.973,9.635-3.719,14.548-5.143
			c8.058-2.256,25.646-3.881,26.059-3.883c0.413,0,0.825-0.006,1.239,0.002c8.525,0.164,16.762,1.625,24.818,3.881
			c4.914,1.424,9.758,3.17,14.549,5.143c6.852,2.824,13.783,5.357,20.932,7.211c0.437,0.135,0.87,0.283,1.307,0.42
			c15.939,4.963,31.258,3.65,45.056-5.893c2.545-1.518,5.041-3.232,7.483-5.139c10.739-8.371,19.238-18.826,27.423-29.582
			c0.6-0.785,1.192-1.574,1.78-2.363c19.049-24.812,34.019-52.111,44.504-82.08c7.714-22.045,13.449-44.521,15.779-67.807
			c0.494-4.938,0.925-9.886,1.385-14.83c0-7.195,0-14.391,0-21.588c-0.137-0.797-0.312-1.592-0.407-2.395
			c-0.865-7.379-1.331-14.828-2.646-22.124c-5.258-29.208-17.33-55.139-38.825-75.96c-2.897-2.806-5.875-5.436-8.931-7.897
			c-16.712-14.104-36.623-21.511-58.44-25.131c-22.176-3.681-42.987,1.164-63.571,8.573c-10.595,3.813-32.914,11.537-33.435,11.687
			c-0.521-0.149-22.84-7.874-33.434-11.687c-20.586-7.409-41.395-12.254-63.572-8.573c-21.821,3.624-41.73,11.03-58.441,25.131
			C83.148,145.269,80.169,147.899,77.273,150.705z"/>
		<path d="M174.413,83.121c11.172,12.094,24.207,21.392,40.299,25.866c7.938,2.208,16.017,3.021,24.248,2.585
			c1.957-0.102,2.346-0.883,2.467-2.659c1.674-24.658-6.109-46.287-20.802-65.766c-17.44-23.129-40.703-36.752-68.887-42.401
			c-1.349-0.271-2.704-0.497-4.057-0.746c-1.146,0-2.289,0-3.434,0c-0.672,9.246-0.437,18.452,1.276,27.585
			C149.545,49.012,159.754,67.252,174.413,83.121z"/>
	</g>
</g>
<g>
</g>
<g>
</g>
<g>
</g>
<g>
</g>
<g>
</g>
<g>
</g>
<g>
</g>
<g>
</g>
<g>
</g>
<g>
</g>
<g>
</g>
<g>
</g>
<g>
</g>
<g>
</g>
<g>
</g>
</svg>
