<?xml version="1.0" encoding="iso-8859-1"?>
<!-- Generator: Adobe Illustrator 16.0.0, SVG Export Plug-In . SVG Version: 6.00 Build 0)  -->
<!DOCTYPE svg PUBLIC "-//W3C//DTD SVG 1.1//EN" "http://www.w3.org/Graphics/SVG/1.1/DTD/svg11.dtd">
<svg version="1.1" id="Capa_1" xmlns="http://www.w3.org/2000/svg" xmlns:xlink="http://www.w3.org/1999/xlink" x="0px" y="0px"
	 width="495.91px" height="495.91px" viewBox="0 0 495.91 495.91" style="enable-background:new 0 0 495.91 495.91;"
	 xml:space="preserve">
<g>
	<g>
		<path d="M347.733,255.137l20.752-102.304l3.411-16.815l-17.15-0.509c-9.23-0.271-18.18-0.413-26.601-0.413
			c-96.688,0-133.728,17.93-159.596,44.852c-28.795,30.107-48.891,78.563-48.891,117.858c0,43.73,37.878,75.475,90.069,75.475
			c34.194,0,53.75-9.34,75.667-24.119c19.209,15.498,35.205,24.119,69.735,24.119c46.132,0,84.131-21.012,109.89-60.764
			c19.344-29.85,30.891-70.335,30.891-108.307c0-82.026-43.151-130.293-79.354-156.342C375.978,18.67,320.714,1.238,268.729,1.238
			c-104.458,0-167.811,51.128-202.562,94.018C24.12,147.155,0,216.533,0,285.6c0,66.912,25.985,122.203,75.145,159.896
			c41.36,31.716,96.834,49.176,156.201,49.176c72.455,0,145.499-18.646,211.24-53.929l12.051-6.464l-5.787-12.39l-19.962-42.738
			l-6.426-13.761l-13.426,7.092c-49.711,26.262-105.144,50.564-173.564,50.564c-45.121,0-82.73-12.587-108.753-36.398
			c-25.94-23.732-39.651-58.209-39.651-99.699c0-140.553,88.869-214.094,176.651-214.094c43.181,0,79.745,12.843,105.742,37.138
			c25.741,24.059,39.348,57.808,39.348,97.606c0,15.09-3.265,40.083-12.464,60.853c-9.754,22.026-23.337,33.194-40.366,33.194
			c-9.926,0-13.791-3.555-13.791-12.682c0-5.769,2.762-19.701,4.412-28.027C347.032,258.754,347.422,256.779,347.733,255.137z
			 M271.35,210.183c-18.295,75.491-41.292,91.473-57.464,91.473c-2.324,0-7.16,0-7.16-7.246c0-21.578,14.837-53.768,33.081-71.765
			C247.016,215.444,258.78,212.321,271.35,210.183z"/>
	</g>
</g>
<g>
</g>
<g>
</g>
<g>
</g>
<g>
</g>
<g>
</g>
<g>
</g>
<g>
</g>
<g>
</g>
<g>
</g>
<g>
</g>
<g>
</g>
<g>
</g>
<g>
</g>
<g>
</g>
<g>
</g>
</svg>
