<?xml version="1.0" encoding="iso-8859-1"?>
<!-- Generator: Adobe Illustrator 16.0.0, SVG Export Plug-In . SVG Version: 6.00 Build 0)  -->
<!DOCTYPE svg PUBLIC "-//W3C//DTD SVG 1.1//EN" "http://www.w3.org/Graphics/SVG/1.1/DTD/svg11.dtd">
<svg version="1.1" id="Capa_1" xmlns="http://www.w3.org/2000/svg" xmlns:xlink="http://www.w3.org/1999/xlink" x="0px" y="0px"
	 width="483.656px" height="483.656px" viewBox="0 0 483.656 483.656" style="enable-background:new 0 0 483.656 483.656;"
	 xml:space="preserve">
<g>
	<g>
		<path d="M24.571,481.212c22.561-17.467,48.235-29.765,75.693-37.311c30.281-8.321,60.881-6.636,91.903-6.199
			c44.822,0.627,102.792-13.085,113.821-63.873l22.293,15.93c2.579-11.788,1.448-26.71-2.915-39.163
			c-8.831-0.063-17.675-1.033-26.305-2.92c-8.72-1.91-17.097-4.742-25.113-8.344c-9.169,9.49-16.437,22.577-19.018,34.369
			l30.414-5.831c-12.436,57.41-90.147,47.536-133.304,47.705c-52.032,0.204-101.716,18.787-142.638,50.467
			C-1.524,474.499,13.778,489.568,24.571,481.212z"/>
		<path d="M374.594,2.636C366.471,0.858,358.335,0,350.236,0C284.053,0.005,221.228,57.401,203.35,139.074
			c-18.589,84.92,17.945,166.247,82.666,190.73c5.14,1.944,10.436,3.575,15.913,4.773c5.486,1.2,10.981,1.945,16.466,2.327
			c2.634,0.183,5.268,0.309,7.893,0.309c66.184,0,129.007-57.399,146.886-139.071C493.238,106.475,449.104,18.946,374.594,2.636z"/>
	</g>
</g>
<g>
</g>
<g>
</g>
<g>
</g>
<g>
</g>
<g>
</g>
<g>
</g>
<g>
</g>
<g>
</g>
<g>
</g>
<g>
</g>
<g>
</g>
<g>
</g>
<g>
</g>
<g>
</g>
<g>
</g>
</svg>
