<?xml version="1.0" encoding="iso-8859-1"?>
<!-- Generator: Adobe Illustrator 16.0.0, SVG Export Plug-In . SVG Version: 6.00 Build 0)  -->
<!DOCTYPE svg PUBLIC "-//W3C//DTD SVG 1.1//EN" "http://www.w3.org/Graphics/SVG/1.1/DTD/svg11.dtd">
<svg version="1.1" id="Capa_1" xmlns="http://www.w3.org/2000/svg" xmlns:xlink="http://www.w3.org/1999/xlink" x="0px" y="0px"
	 width="498.924px" height="498.924px" viewBox="0 0 498.924 498.924" style="enable-background:new 0 0 498.924 498.924;"
	 xml:space="preserve">
<g>
	<g>
		<path d="M209.396,177.75l40.636,42.295L414.288,62.234c-32.289-28.491-70.243-47.259-110.031-56.18
			C290.396,66.51,256.683,127.497,209.396,177.75z"/>
		<path d="M0.023,252.822c51.508-10.54,105.681-38.044,150.484-76.345L62.233,84.6C20.047,132.41-0.781,192.676,0.023,252.822z"/>
		<path d="M220.044,248.858l-40.636-42.299C127.359,251.732,65.01,283.025,4.056,294.479c7.321,40.111,24.557,78.788,51.733,112.189
			L220.044,248.858z"/>
		<path d="M316.43,349.178c-40.607,43.811-70.457,97.607-82.771,149.248c60.849,3.842,122.884-14.539,173.009-55.322L316.43,349.178
			z"/>
		<path d="M443.101,92.222L278.844,250.035l38.718,40.297c52.417-45.482,115.406-76.947,176.826-88.184
			C486.833,162.846,469.765,124.995,443.101,92.222z"/>
		<path d="M92.22,55.79l88.315,91.923C220.65,104.438,250.277,51.42,262.864,0.36C202.775-2.863,141.699,15.533,92.22,55.79z"/>
		<path d="M287.571,319.145l-38.718-40.299L84.596,436.658c31.676,27.951,68.811,46.52,107.775,55.639
			C206.025,431.365,239.907,369.799,287.571,319.145z"/>
		<path d="M498.856,243.62c-52.664,10.25-106.743,37.558-152.417,76.772l90.217,93.899
			C479.415,365.834,500.265,304.578,498.856,243.62z"/>
	</g>
</g>
<g>
</g>
<g>
</g>
<g>
</g>
<g>
</g>
<g>
</g>
<g>
</g>
<g>
</g>
<g>
</g>
<g>
</g>
<g>
</g>
<g>
</g>
<g>
</g>
<g>
</g>
<g>
</g>
<g>
</g>
</svg>
