<?xml version="1.0" encoding="iso-8859-1"?>
<!-- Generator: Adobe Illustrator 16.0.0, SVG Export Plug-In . SVG Version: 6.00 Build 0)  -->
<!DOCTYPE svg PUBLIC "-//W3C//DTD SVG 1.1//EN" "http://www.w3.org/Graphics/SVG/1.1/DTD/svg11.dtd">
<svg version="1.1" id="Capa_1" xmlns="http://www.w3.org/2000/svg" xmlns:xlink="http://www.w3.org/1999/xlink" x="0px" y="0px"
	 width="493.434px" height="493.434px" viewBox="0 0 493.434 493.434" style="enable-background:new 0 0 493.434 493.434;"
	 xml:space="preserve">
<g>
	<g>
		<path d="M364.105,267.349c3.584,65.017,23.759,121.563,49.809,161.952c44.651-40.912,74.239-97.98,79.52-161.952H364.105z"/>
		<path d="M413.909,64.133c-26.049,40.389-46.223,96.938-49.805,161.953h129.327C488.153,162.113,458.561,105.044,413.909,64.133z"
			/>
		<path d="M267.345,0.002v226.083h55.461c3.698-75.11,27.226-140.188,58.462-187.211C347.954,17.264,309.124,3.449,267.345,0.002z"
			/>
		<path d="M226.083,493.432V267.349h-58.214c-3.667,74.443-26.813,139.021-57.636,185.942
			C143.972,475.628,183.496,489.919,226.083,493.432z"/>
		<path d="M167.872,226.086h58.211V0.002c-42.586,3.513-82.108,17.804-115.848,40.141
			C141.059,87.064,164.205,151.644,167.872,226.086z"/>
		<path d="M77.805,427.705c25.547-40.272,45.232-96.201,48.77-160.356H0C5.21,330.494,34.113,386.912,77.805,427.705z"/>
		<path d="M77.808,65.726C34.116,106.521,5.21,162.939,0,226.086h126.576C123.038,161.932,103.355,106.002,77.808,65.726z"/>
		<path d="M267.345,493.432c41.779-3.447,80.611-17.264,113.926-38.876c-31.234-47.021-54.765-112.098-58.465-187.209h-55.461
			V493.432z"/>
	</g>
</g>
<g>
</g>
<g>
</g>
<g>
</g>
<g>
</g>
<g>
</g>
<g>
</g>
<g>
</g>
<g>
</g>
<g>
</g>
<g>
</g>
<g>
</g>
<g>
</g>
<g>
</g>
<g>
</g>
<g>
</g>
</svg>
