<?xml version="1.0" encoding="iso-8859-1"?>
<!-- Generator: Adobe Illustrator 16.0.0, SVG Export Plug-In . SVG Version: 6.00 Build 0)  -->
<!DOCTYPE svg PUBLIC "-//W3C//DTD SVG 1.1//EN" "http://www.w3.org/Graphics/SVG/1.1/DTD/svg11.dtd">
<svg version="1.1" id="Capa_1" xmlns="http://www.w3.org/2000/svg" xmlns:xlink="http://www.w3.org/1999/xlink" x="0px" y="0px"
	 width="499.992px" height="499.993px" viewBox="0 0 499.992 499.993" style="enable-background:new 0 0 499.992 499.993;"
	 xml:space="preserve">
<g>
	<g>
		<path d="M158.893,83.304l-96.477,126.79h62.024l73.693-97.014C180.758,110.384,166.068,99.264,158.893,83.304z"/>
		<path d="M206.217,97.009c1.373,0,2.756-0.087,4.143-0.249c1.317-0.154,2.641-0.38,3.963-0.688
			c16.479-3.844,27.557-18.577,27.461-34.813c0-0.42-0.035-0.833-0.023-1.253c-0.09-2.196-0.365-4.416-0.884-6.635
			c-3.828-16.407-18.444-27.49-34.598-27.49c-2.675,0-5.391,0.305-8.107,0.938c-18.226,4.25-29.846,21.817-27.037,40.015
			c0.139,0.896,0.275,1.793,0.484,2.689C175.445,85.929,190.062,97.009,206.217,97.009z"/>
		<path d="M375.552,210.094h62.024l-96.479-126.79c-7.174,15.96-21.865,27.081-39.242,29.776L375.552,210.094z"/>
		<path d="M301.82,26.817c-2.715-0.633-5.432-0.938-8.106-0.938c-16.153,0-30.771,11.083-34.598,27.49
			c-0.517,2.22-0.791,4.439-0.884,6.635c0.011,0.421-0.024,0.836-0.024,1.256c-0.096,16.236,10.979,30.969,27.462,34.813
			c1.322,0.308,2.646,0.534,3.963,0.688c1.387,0.163,2.771,0.25,4.144,0.25c16.153,0,30.771-11.083,34.598-27.49
			c0.21-0.896,0.349-1.793,0.485-2.689C331.667,48.632,320.047,31.067,301.82,26.817z"/>
		<polygon points="0,224.601 65.788,474.113 434.204,474.113 499.992,224.601 448.627,224.601 386.6,224.601 113.392,224.601 
			51.365,224.601 		"/>
	</g>
</g>
<g>
</g>
<g>
</g>
<g>
</g>
<g>
</g>
<g>
</g>
<g>
</g>
<g>
</g>
<g>
</g>
<g>
</g>
<g>
</g>
<g>
</g>
<g>
</g>
<g>
</g>
<g>
</g>
<g>
</g>
</svg>
