<?xml version="1.0" encoding="iso-8859-1"?>
<!-- Generator: Adobe Illustrator 16.0.0, SVG Export Plug-In . SVG Version: 6.00 Build 0)  -->
<!DOCTYPE svg PUBLIC "-//W3C//DTD SVG 1.1//EN" "http://www.w3.org/Graphics/SVG/1.1/DTD/svg11.dtd">
<svg version="1.1" id="Capa_1" xmlns="http://www.w3.org/2000/svg" xmlns:xlink="http://www.w3.org/1999/xlink" x="0px" y="0px"
	 width="493.404px" height="493.404px" viewBox="0 0 493.404 493.404" style="enable-background:new 0 0 493.404 493.404;"
	 xml:space="preserve">
<g>
	<g>
		<path d="M439.111,287.973c-10.51,7.355-23.279,11.688-37.052,11.688c-21.146,0-39.953-10.183-51.787-25.897
			c-11.833,15.719-30.643,25.897-51.786,25.897c-21.145,0-39.954-10.183-51.787-25.897c-11.833,15.719-30.643,25.897-51.787,25.897
			c-21.145,0-39.954-10.183-51.787-25.897c-11.833,15.719-30.643,25.897-51.787,25.897c-13.773,0-26.542-4.332-37.052-11.688v52.248
			c7.676-3.722,15.835-6.299,24.043-7.259c23.69-2.772,42.879,2.661,64.221,12.761c9.002,4.26,19.272,9.879,29.514,9.697
			c9.004-0.16,17.369-3.445,25.427-7.254c17.444-8.252,35.658-18.111,55.497-18.117c21.303-0.006,39.893,9.014,58.516,18.355
			c17.183,8.619,34.15,16.29,52.772,6.922c19.909-10.018,37.903-24.376,60.488-27.928c4.729-0.743,9.559-0.957,14.343-0.643v-38.783
			H439.111L439.111,287.973z"/>
		<path d="M404.946,377.119c-17.15,10.223-35.006,21.017-55.55,21.792c-18.489,0.696-35.397-5.946-51.697-14
			c-13.903-6.866-29.568-17.035-45.745-15.878c-17.863,1.275-34.249,13.536-50.708,19.645c-17.951,6.66-37.343,7.75-55.455,0.736
			c-16.586-6.419-33.846-18.896-52.203-18.725c-15.751,0.147-28.826,6.521-39.298,17.729v37.744h384.818v-60.243
			C427.946,363.506,414.368,371.503,404.946,377.119z"/>
		<path d="M440.411,269.585c0.432-0.477,0.884-0.936,1.301-1.43c7.563-9.001,12.135-20.603,12.135-33.279v-86.672H267.503v-6.5v-6.5
			v-34.5c-6.137,3.853-13.226,6.092-20.801,6.092c-7.574,0-14.665-2.239-20.801-6.092v34.5v6.5v6.5H39.558v86.67
			c0,12.679,4.571,24.277,12.135,33.279c0.416,0.493,0.868,0.95,1.3,1.43s0.85,0.972,1.3,1.431
			c9.404,9.642,22.52,15.646,37.052,15.646c28.601,0,51.787-23.188,51.787-51.788c0,28.601,23.185,51.788,51.787,51.788
			c28.602,0,51.787-23.188,51.787-51.788c0,28.601,23.185,51.788,51.787,51.788c28.602,0,51.787-23.188,51.787-51.788
			c0,28.601,23.185,51.788,51.786,51.788c14.532,0,27.646-6.005,37.052-15.646C439.562,270.557,439.979,270.064,440.411,269.585z"/>
		<path d="M246.702,493.404c127.805,0,231.411-24.283,231.411-54.236h-36.401h-1.301h-1.3H54.293h-1.3h-1.3H15.291
			C15.291,469.121,118.898,493.404,246.702,493.404z"/>
		<path d="M233.462,90.136c3.968,2.324,8.463,3.659,13.24,3.659c4.774,0,9.272-1.334,13.24-3.659
			c9.259-5.423,15.598-16.334,15.598-28.938c0-9.134-14.849-61.201-29.48-61.198c-0.021,0-0.042,0-0.063,0
			c-14.181,0.143-28.133,52.346-28.133,61.198C217.864,73.799,224.203,84.709,233.462,90.136z"/>
	</g>
</g>
<g>
</g>
<g>
</g>
<g>
</g>
<g>
</g>
<g>
</g>
<g>
</g>
<g>
</g>
<g>
</g>
<g>
</g>
<g>
</g>
<g>
</g>
<g>
</g>
<g>
</g>
<g>
</g>
<g>
</g>
</svg>
