<?xml version="1.0" encoding="iso-8859-1"?>
<!-- Generator: Adobe Illustrator 16.0.0, SVG Export Plug-In . SVG Version: 6.00 Build 0)  -->
<!DOCTYPE svg PUBLIC "-//W3C//DTD SVG 1.1//EN" "http://www.w3.org/Graphics/SVG/1.1/DTD/svg11.dtd">
<svg version="1.1" id="Capa_1" xmlns="http://www.w3.org/2000/svg" xmlns:xlink="http://www.w3.org/1999/xlink" x="0px" y="0px"
	 width="491.335px" height="491.335px" viewBox="0 0 491.335 491.335" style="enable-background:new 0 0 491.335 491.335;"
	 xml:space="preserve">
<g>
	<g>
		<path d="M327.535,48.35c-25.779,43.158-127.997,43.158-153.777,0c0,0-148.734,84.102-173.758,144.965l46.252,69.717
			c0,0,43.976-46.479,63.691-63.079l-0.641,261.16h272.732l-0.643-261.16c19.714,16.6,63.691,63.079,63.691,63.079l46.252-69.717
			C466.312,132.451,327.535,48.35,327.535,48.35z"/>
		<path d="M250.671,69c30.913,0,57.973-11.244,67.336-27.976c1.956-3.497,0.708-7.919-2.788-9.872
			c-3.499-1.956-7.918-0.711-9.871,2.789c-5.713,10.213-26.33,20.551-54.677,20.551c-28.353,0-48.965-10.341-54.678-20.555
			c-1.956-3.497-6.375-4.745-9.872-2.792c-3.496,1.956-4.747,6.375-2.791,9.871C192.69,57.756,219.751,69,250.671,69z"/>
	</g>
</g>
<g>
</g>
<g>
</g>
<g>
</g>
<g>
</g>
<g>
</g>
<g>
</g>
<g>
</g>
<g>
</g>
<g>
</g>
<g>
</g>
<g>
</g>
<g>
</g>
<g>
</g>
<g>
</g>
<g>
</g>
</svg>
