<?xml version="1.0" encoding="iso-8859-1"?>
<!-- Generator: Adobe Illustrator 16.0.0, SVG Export Plug-In . SVG Version: 6.00 Build 0)  -->
<!DOCTYPE svg PUBLIC "-//W3C//DTD SVG 1.1//EN" "http://www.w3.org/Graphics/SVG/1.1/DTD/svg11.dtd">
<svg version="1.1" id="Capa_1" xmlns="http://www.w3.org/2000/svg" xmlns:xlink="http://www.w3.org/1999/xlink" x="0px" y="0px"
	 width="485.032px" height="485.032px" viewBox="0 0 485.032 485.032" style="enable-background:new 0 0 485.032 485.032;"
	 xml:space="preserve">
<g>
	<g>
		<path d="M4.495,474.232c12.852-42.275,58.068-55.064,111.88-55.064s99.028,12.793,111.879,55.064
			c4.349,14.309,3.659,14.607,3.659-0.35c0-76.23-0.008-292.044-0.049-368.275c-0.008-14.956,0.333-39.535-4.533-53.676
			C213.391,11.436,169.004,0,116.372,0S19.355,11.436,5.417,51.932c-4.866,14.141-4.524,38.72-4.533,53.676
			c-0.04,76.23-0.048,292.044-0.048,368.275C0.836,488.84,0.143,488.541,4.495,474.232z M36.914,80.747
			c19.453-9.691,45.444-14.4,79.46-14.4c34.02,0,60.015,4.711,79.469,14.406c3.347,1.668,4.709,5.732,3.041,9.08
			c-1.186,2.375-3.579,3.75-6.068,3.75c-1.015,0-2.044-0.228-3.014-0.712c-4.707-2.345-9.897-4.357-15.568-6.061
			c-15.448-4.642-34.544-6.924-57.865-6.924c-23.315,0-42.408,2.282-57.854,6.921c-5.67,1.703-10.861,3.712-15.568,6.06
			c-3.344,1.668-7.409,0.309-9.079-3.041C32.205,86.477,33.566,82.412,36.914,80.747z M36.914,146.433
			c19.453-9.691,45.444-14.4,79.46-14.4c34.02,0,60.015,4.712,79.469,14.406c3.347,1.668,4.709,5.732,3.041,9.08
			c-1.186,2.377-3.577,3.753-6.065,3.753c-1.016,0-2.045-0.228-3.014-0.712c-4.709-2.345-9.9-4.357-15.568-6.06
			c-15.446-4.642-34.545-6.924-57.862-6.924c-23.315,0-42.408,2.283-57.852,6.921c-5.67,1.703-10.861,3.715-15.57,6.06
			c-3.344,1.668-7.409,0.306-9.08-3.041C32.205,152.165,33.566,148.1,36.914,146.433z M36.914,212.118
			c19.456-9.692,45.446-14.4,79.46-14.4c34.02,0,60.015,4.712,79.469,14.406c3.347,1.668,4.709,5.733,3.041,9.08
			c-1.186,2.378-3.577,3.753-6.065,3.753c-1.016,0-2.045-0.228-3.014-0.712c-4.706-2.345-9.897-4.357-15.565-6.06
			c-15.448-4.642-34.544-6.927-57.865-6.927c-23.313,0-42.408,2.283-57.854,6.921c-5.667,1.704-10.861,3.713-15.568,6.061
			c-3.344,1.668-7.409,0.309-9.08-3.041C32.205,217.851,33.566,213.787,36.914,212.118z"/>
		<path d="M480.539,474.232c4.348,14.309,3.657,14.607,3.657-0.35c0-76.23-0.009-292.044-0.049-368.275
			c-0.009-14.956,0.332-39.535-4.534-53.676C465.678,11.436,421.293,0,368.663,0c-52.633,0-97.018,11.436-110.954,51.932
			c-4.865,14.141-4.524,38.72-4.533,53.676c-0.04,76.23-0.049,292.044-0.049,368.275c0,14.957-0.689,14.658,3.658,0.35
			c12.852-42.275,58.068-55.064,111.881-55.064C422.476,419.168,467.688,431.957,480.539,474.232z M451.163,221.2
			c-1.184,2.378-3.578,3.754-6.063,3.754c-1.016,0-2.044-0.228-3.013-0.712c-4.707-2.345-9.898-4.357-15.566-6.06
			c-15.447-4.642-34.545-6.927-57.864-6.927c-23.312,0-42.405,2.283-57.854,6.921c-5.672,1.704-10.861,3.713-15.571,6.061
			c-3.345,1.668-7.411,0.303-9.076-3.041c-1.667-3.347-0.308-7.412,3.042-9.08c19.453-9.692,45.443-14.4,79.457-14.4
			c34.017,0,60.013,4.711,79.472,14.406C451.47,213.789,452.832,217.853,451.163,221.2z M451.163,155.515
			c-1.184,2.377-3.578,3.753-6.063,3.753c-1.016,0-2.044-0.227-3.013-0.712c-4.707-2.345-9.9-4.357-15.568-6.06
			c-15.445-4.641-34.545-6.924-57.862-6.924c-23.312,0-42.405,2.283-57.852,6.921c-5.67,1.703-10.861,3.715-15.57,6.06
			c-3.35,1.666-7.414,0.306-9.079-3.041c-1.667-3.347-0.308-7.412,3.037-9.08c19.456-9.691,45.443-14.4,79.462-14.4
			c34.017,0,60.013,4.712,79.472,14.406C451.47,148.103,452.832,152.168,451.163,155.515z M451.163,89.829
			c-1.184,2.377-3.578,3.753-6.063,3.753c-1.016,0-2.044-0.228-3.013-0.712c-4.707-2.345-9.898-4.357-15.566-6.061
			c-15.445-4.642-34.545-6.924-57.864-6.924c-23.312,0-42.407,2.282-57.852,6.921c-5.668,1.703-10.861,3.712-15.567,6.06
			c-3.351,1.668-7.413,0.303-9.08-3.041c-1.667-3.347-0.306-7.412,3.04-9.08c19.453-9.691,45.443-14.4,79.459-14.4
			c34.017,0,60.013,4.711,79.472,14.406C451.47,82.418,452.832,86.482,451.163,89.829z"/>
	</g>
</g>
<g>
</g>
<g>
</g>
<g>
</g>
<g>
</g>
<g>
</g>
<g>
</g>
<g>
</g>
<g>
</g>
<g>
</g>
<g>
</g>
<g>
</g>
<g>
</g>
<g>
</g>
<g>
</g>
<g>
</g>
</svg>
