<?xml version="1.0" encoding="iso-8859-1"?>
<!-- Generator: Adobe Illustrator 16.0.0, SVG Export Plug-In . SVG Version: 6.00 Build 0)  -->
<!DOCTYPE svg PUBLIC "-//W3C//DTD SVG 1.1//EN" "http://www.w3.org/Graphics/SVG/1.1/DTD/svg11.dtd">
<svg version="1.1" id="Capa_1" xmlns="http://www.w3.org/2000/svg" xmlns:xlink="http://www.w3.org/1999/xlink" x="0px" y="0px"
	 width="490.648px" height="490.648px" viewBox="0 0 490.648 490.648" style="enable-background:new 0 0 490.648 490.648;"
	 xml:space="preserve">
<g>
	<g>
		<path d="M21.058,480.354c12.249-40.29,55.341-52.479,106.626-52.479c51.285,0,94.378,12.189,106.627,52.479
			c4.143,13.637,3.484,13.921,3.484-0.333c0-72.651-0.008-278.333-0.046-350.983c-0.008-14.253,0.317-37.679-4.32-51.156
			c-5.569-16.184-16.256-27.485-30.471-35.165V12.904V0h-12.904H65.316H52.412v12.904v29.81
			C38.197,50.397,27.51,61.696,21.941,77.88c-4.64,13.479-4.314,36.905-4.323,51.159c-0.039,72.651-0.046,278.332-0.046,350.983
			C17.572,494.275,16.911,493.991,21.058,480.354z M65.316,37.024v-24.12h124.736v24.12v170.728l-60.648-64.519l-64.091,64.519
			V37.024H65.316z"/>
		<path d="M256.337,480.354c12.248-40.29,55.341-52.479,106.626-52.479c51.282,0,94.379,12.189,106.627,52.479
			c4.145,13.637,3.486,13.923,3.486-0.33c-0.002-72.651-0.008-278.333-0.047-350.984c-0.008-14.253,0.316-37.679-4.32-51.156
			c-13.285-38.6-55.587-49.497-105.746-49.497c-50.16,0-92.46,10.896-105.745,49.494c-4.637,13.477-4.311,36.903-4.317,51.156
			c-0.041,72.651-0.048,278.332-0.048,350.983C252.848,494.275,252.192,493.991,256.337,480.354z"/>
	</g>
</g>
<g>
</g>
<g>
</g>
<g>
</g>
<g>
</g>
<g>
</g>
<g>
</g>
<g>
</g>
<g>
</g>
<g>
</g>
<g>
</g>
<g>
</g>
<g>
</g>
<g>
</g>
<g>
</g>
<g>
</g>
</svg>
