<?xml version="1.0" encoding="iso-8859-1"?>
<!-- Generator: Adobe Illustrator 16.0.0, SVG Export Plug-In . SVG Version: 6.00 Build 0)  -->
<!DOCTYPE svg PUBLIC "-//W3C//DTD SVG 1.1//EN" "http://www.w3.org/Graphics/SVG/1.1/DTD/svg11.dtd">
<svg version="1.1" id="Capa_1" xmlns="http://www.w3.org/2000/svg" xmlns:xlink="http://www.w3.org/1999/xlink" x="0px" y="0px"
	 width="494.789px" height="494.789px" viewBox="0 0 494.789 494.789" style="enable-background:new 0 0 494.789 494.789;"
	 xml:space="preserve">
<g>
	<g>
		<path d="M166.37,262.311c-21.187,0-38.635,15.879-41.173,36.379h82.344C205.003,278.189,187.557,262.311,166.37,262.311z"/>
		<path d="M82.309,494.789h55.457c8.39,0,15.193-6.801,15.193-15.191v-44.105h188.87v44.105c0,8.389,6.803,15.191,15.193,15.191
			h55.457c8.389,0,15.193-6.801,15.193-15.191v-44.105v-31.953V0H67.116v403.545v31.949V479.6
			C67.116,487.988,73.92,494.789,82.309,494.789z M395.257,387.559h-71.93v-37.814h71.932v37.814H395.257z M395.257,312.948H261.062
			V90.896h134.195V312.948z M152.957,28.358h188.87v26.331h-188.87V28.358z M99.527,90.896h134.194v222.052h-26.862h-80.978H99.527
			V90.896z M99.527,349.744h71.927v37.814H99.527V349.744z"/>
	</g>
</g>
<g>
</g>
<g>
</g>
<g>
</g>
<g>
</g>
<g>
</g>
<g>
</g>
<g>
</g>
<g>
</g>
<g>
</g>
<g>
</g>
<g>
</g>
<g>
</g>
<g>
</g>
<g>
</g>
<g>
</g>
</svg>
