<?xml version="1.0" encoding="iso-8859-1"?>
<!-- Generator: Adobe Illustrator 16.0.0, SVG Export Plug-In . SVG Version: 6.00 Build 0)  -->
<!DOCTYPE svg PUBLIC "-//W3C//DTD SVG 1.1//EN" "http://www.w3.org/Graphics/SVG/1.1/DTD/svg11.dtd">
<svg version="1.1" id="Capa_1" xmlns="http://www.w3.org/2000/svg" xmlns:xlink="http://www.w3.org/1999/xlink" x="0px" y="0px"
	 width="491.547px" height="491.546px" viewBox="0 0 491.547 491.546" style="enable-background:new 0 0 491.547 491.546;"
	 xml:space="preserve">
<g>
	<g>
		<path d="M194.61,291.662c-16.104,12.152-36.547,18.758-58.772,18.758c-6.348,0-12.734-0.543-19.111-1.547
			c-0.36,0.349-0.725,0.684-1.083,1.041c-27.461,27.459-32.507,66.935-11.273,88.169c21.234,21.234,60.709,16.188,88.17-11.272
			c27.46-27.461,32.507-66.936,11.272-88.17C201.04,295.863,197.942,293.548,194.61,291.662z"/>
		<path d="M42.121,255.159c26.428,26.429,59.295,40.792,89.565,42.003c1.388,0.057,2.778,0.118,4.155,0.118
			c15.678,0,30.526-3.626,43.262-11.021c5.483-3.184,10.584-7.051,15.179-11.648c36.647-36.646,27.937-104.772-19.452-152.162
			c-27.64-27.642-62.331-42.124-93.718-42.122c-22.428,0-43.17,7.396-58.443,22.669C-13.979,139.641-5.269,207.768,42.121,255.159z"
			/>
		<path d="M387.173,398.085c21.232-21.233,16.188-60.709-11.273-88.17c-0.355-0.355-0.723-0.691-1.083-1.041
			c-6.376,1.004-12.763,1.547-19.11,1.547c-22.226,0-42.666-6.604-58.771-18.758c-3.333,1.889-6.431,4.203-9.203,6.98
			c-21.235,21.234-16.189,60.71,11.271,88.17C326.463,414.276,365.938,419.319,387.173,398.085z"/>
		<path d="M468.88,102.995c-15.274-15.273-36.018-22.669-58.444-22.669c-31.388,0-66.079,14.482-93.718,42.122
			c-47.393,47.392-56.101,115.515-19.453,152.162c4.597,4.597,9.695,8.466,15.179,11.647c12.737,7.392,27.584,11.021,43.263,11.021
			c1.377,0,2.767-0.062,4.155-0.119c30.271-1.211,63.136-15.574,89.565-42.003C496.815,207.768,505.526,139.641,468.88,102.995z"/>
		<path d="M282.32,112.005c6.191-5.809-3.12-15.084-9.294-9.292c-8.854,8.309-15.99,18.128-21.085,29.114
			c-1.933-0.689-4.002-1.083-6.168-1.083s-4.24,0.394-6.169,1.083c-5.091-10.986-12.229-20.806-21.084-29.114
			c-6.174-5.792-15.483,3.482-9.294,9.292c8.769,8.227,15.395,17.838,20.128,28.867c-1.256,2.489-1.979,5.293-1.979,8.271v41.63
			v49.775v144.526c0,10.161,8.237,18.398,18.398,18.398s18.397-8.237,18.397-18.398V240.548v-49.775v-41.63
			c0-2.978-0.723-5.783-1.979-8.271C266.922,129.843,273.551,120.231,282.32,112.005z"/>
	</g>
</g>
<g>
</g>
<g>
</g>
<g>
</g>
<g>
</g>
<g>
</g>
<g>
</g>
<g>
</g>
<g>
</g>
<g>
</g>
<g>
</g>
<g>
</g>
<g>
</g>
<g>
</g>
<g>
</g>
<g>
</g>
</svg>
