<?xml version="1.0" encoding="iso-8859-1"?>
<!-- Generator: Adobe Illustrator 16.0.0, SVG Export Plug-In . SVG Version: 6.00 Build 0)  -->
<!DOCTYPE svg PUBLIC "-//W3C//DTD SVG 1.1//EN" "http://www.w3.org/Graphics/SVG/1.1/DTD/svg11.dtd">
<svg version="1.1" id="Capa_1" xmlns="http://www.w3.org/2000/svg" xmlns:xlink="http://www.w3.org/1999/xlink" x="0px" y="0px"
	 width="490.253px" height="490.253px" viewBox="0 0 490.253 490.253" style="enable-background:new 0 0 490.253 490.253;"
	 xml:space="preserve">
<g>
	<g>
		<path d="M306.274,0.002v9.796H92.535v480.455h305.183V9.795h-32.736V0h-58.706L306.274,0.002L306.274,0.002z M183.975,458.155
			h-58.706v-39.138h58.706V458.155L183.975,458.155z M183.975,390.881h-58.706v-39.137h58.706V390.881L183.975,390.881z
			 M274.479,458.155h-58.708v-39.138h58.708V458.155z M274.479,390.881h-58.708v-39.137h58.708V390.881z M364.979,458.155h-58.705
			v-39.138h58.705V458.155z M364.979,390.881h-58.705v-39.137h58.705V390.881z M364.979,317.223h-239.71V40.469h239.71V317.223z"/>
	</g>
</g>
<g>
</g>
<g>
</g>
<g>
</g>
<g>
</g>
<g>
</g>
<g>
</g>
<g>
</g>
<g>
</g>
<g>
</g>
<g>
</g>
<g>
</g>
<g>
</g>
<g>
</g>
<g>
</g>
<g>
</g>
</svg>
