<?xml version="1.0" encoding="iso-8859-1"?>
<!-- Generator: Adobe Illustrator 16.0.0, SVG Export Plug-In . SVG Version: 6.00 Build 0)  -->
<!DOCTYPE svg PUBLIC "-//W3C//DTD SVG 1.1//EN" "http://www.w3.org/Graphics/SVG/1.1/DTD/svg11.dtd">
<svg version="1.1" id="Capa_1" xmlns="http://www.w3.org/2000/svg" xmlns:xlink="http://www.w3.org/1999/xlink" x="0px" y="0px"
	 width="494.441px" height="494.441px" viewBox="0 0 494.441 494.441" style="enable-background:new 0 0 494.441 494.441;"
	 xml:space="preserve">
<g>
	<path d="M158.475,39.983V0h-55.588v494.441h288.668V39.983H158.475z M189.38,464.078h-55.53v-37.018h55.53V464.078z
		 M189.38,400.445h-55.53v-37.02h55.53V400.445z M189.38,336.812h-55.53v-37.02h55.53V336.812z M274.984,464.078h-55.53v-37.018
		h55.53V464.078z M274.984,400.445h-55.53v-37.02h55.53V400.445z M274.984,336.812h-55.53v-37.02h55.53V336.812z M360.59,464.078
		h-55.53v-37.018h55.53V464.078z M360.59,400.445h-55.53v-37.02h55.53V400.445z M360.59,336.812h-55.53v-37.02h55.53V336.812z
		 M360.59,266.262H133.85V68.996h226.74V266.262z"/>
</g>
<g>
</g>
<g>
</g>
<g>
</g>
<g>
</g>
<g>
</g>
<g>
</g>
<g>
</g>
<g>
</g>
<g>
</g>
<g>
</g>
<g>
</g>
<g>
</g>
<g>
</g>
<g>
</g>
<g>
</g>
</svg>
