<?xml version="1.0" encoding="iso-8859-1"?>
<!-- Generator: Adobe Illustrator 16.0.0, SVG Export Plug-In . SVG Version: 6.00 Build 0)  -->
<!DOCTYPE svg PUBLIC "-//W3C//DTD SVG 1.1//EN" "http://www.w3.org/Graphics/SVG/1.1/DTD/svg11.dtd">
<svg version="1.1" id="Capa_1" xmlns="http://www.w3.org/2000/svg" xmlns:xlink="http://www.w3.org/1999/xlink" x="0px" y="0px"
	 width="484.332px" height="484.332px" viewBox="0 0 484.332 484.332" style="enable-background:new 0 0 484.332 484.332;"
	 xml:space="preserve">
<g>
	<g>
		<path d="M381.344,59.818V0H93.828v484.332H381.34V165.945h7.236h1.928v-48.059h-1.928h-7.236v-10.01h7.236h1.928V59.818h-1.928
			H381.344z M214.431,25.569h46.311v14.472h-46.311V25.569L214.431,25.569z M237.586,468.895c-10.657,0-19.298-8.64-19.298-19.297
			c0-10.656,8.641-19.297,19.298-19.297c10.657,0,19.298,8.641,19.298,19.297C256.884,460.259,248.243,468.895,237.586,468.895z
			 M353.362,416.796H121.809V67.539h231.553V416.796L353.362,416.796z"/>
	</g>
</g>
<g>
</g>
<g>
</g>
<g>
</g>
<g>
</g>
<g>
</g>
<g>
</g>
<g>
</g>
<g>
</g>
<g>
</g>
<g>
</g>
<g>
</g>
<g>
</g>
<g>
</g>
<g>
</g>
<g>
</g>
</svg>
