<?xml version="1.0" encoding="iso-8859-1"?>
<!-- Generator: Adobe Illustrator 16.0.0, SVG Export Plug-In . SVG Version: 6.00 Build 0)  -->
<!DOCTYPE svg PUBLIC "-//W3C//DTD SVG 1.1//EN" "http://www.w3.org/Graphics/SVG/1.1/DTD/svg11.dtd">
<svg version="1.1" id="Capa_1" xmlns="http://www.w3.org/2000/svg" xmlns:xlink="http://www.w3.org/1999/xlink" x="0px" y="0px"
	 width="489px" height="489px" viewBox="0 0 489 489" style="enable-background:new 0 0 489 489;" xml:space="preserve">
<g>
	<g>
		<path d="M0,369.747h351.638L437.935,469v-99.253H489V20H0V369.747z M389.824,152.863c21.691,0,39.275,18.81,39.275,42.01
			s-17.586,42.01-39.275,42.01s-39.276-18.807-39.276-42.01S368.135,152.863,389.824,152.863z M244.5,152.863
			c21.693,0,39.275,18.81,39.275,42.01s-17.586,42.01-39.275,42.01c-21.69,0-39.276-18.807-39.276-42.01
			S222.807,152.863,244.5,152.863z M99.176,152.863c21.69,0,39.276,18.807,39.276,42.01c0,23.204-17.586,42.01-39.276,42.01
			c-21.693,0-39.276-18.807-39.276-42.01C59.899,171.67,77.483,152.863,99.176,152.863z"/>
	</g>
</g>
<g>
</g>
<g>
</g>
<g>
</g>
<g>
</g>
<g>
</g>
<g>
</g>
<g>
</g>
<g>
</g>
<g>
</g>
<g>
</g>
<g>
</g>
<g>
</g>
<g>
</g>
<g>
</g>
<g>
</g>
</svg>
