<?xml version="1.0" encoding="iso-8859-1"?>
<!-- Generator: Adobe Illustrator 16.0.0, SVG Export Plug-In . SVG Version: 6.00 Build 0)  -->
<!DOCTYPE svg PUBLIC "-//W3C//DTD SVG 1.1//EN" "http://www.w3.org/Graphics/SVG/1.1/DTD/svg11.dtd">
<svg version="1.1" id="Capa_1" xmlns="http://www.w3.org/2000/svg" xmlns:xlink="http://www.w3.org/1999/xlink" x="0px" y="0px"
	 width="485.336px" height="485.336px" viewBox="0 0 485.336 485.336" style="enable-background:new 0 0 485.336 485.336;"
	 xml:space="preserve">
<g>
	<g>
		<path d="M242.668,0C108.646,0,0,108.646,0,242.668c0,134.021,108.646,242.668,242.668,242.668
			c134.021,0,242.668-108.646,242.668-242.668C485.336,108.646,376.689,0,242.668,0z M242.668,443.403
			c-110.686,0-200.735-90.05-200.735-200.735c0-110.685,90.049-200.735,200.735-200.735c110.686,0,200.735,90.049,200.735,200.735
			C443.403,353.354,353.354,443.403,242.668,443.403z"/>
		<path d="M242.668,55.315c-103.473,0-187.353,83.88-187.353,187.353c0,103.473,83.88,187.353,187.353,187.353
			c103.473,0,187.353-83.88,187.353-187.353C430.021,139.195,346.141,55.315,242.668,55.315z M229.286,82.971h26.765v46.395h-26.765
			V82.971z M129.364,256.051H82.971v-26.765h46.392L129.364,256.051L129.364,256.051z M256.051,402.365h-26.765V355.97h26.765
			V402.365z M258.986,239.769l-11.26,88.348l-23.929-106.71l-0.036-0.019l0.027-0.019l-0.027-0.12l0.214-0.011l94.525-66.308
			L258.986,239.769z M355.971,256.051v-26.765h46.393v26.765H355.971z"/>
	</g>
</g>
<g>
</g>
<g>
</g>
<g>
</g>
<g>
</g>
<g>
</g>
<g>
</g>
<g>
</g>
<g>
</g>
<g>
</g>
<g>
</g>
<g>
</g>
<g>
</g>
<g>
</g>
<g>
</g>
<g>
</g>
</svg>
