<?xml version="1.0" encoding="iso-8859-1"?>
<!-- Generator: Adobe Illustrator 16.0.0, SVG Export Plug-In . SVG Version: 6.00 Build 0)  -->
<!DOCTYPE svg PUBLIC "-//W3C//DTD SVG 1.1//EN" "http://www.w3.org/Graphics/SVG/1.1/DTD/svg11.dtd">
<svg version="1.1" id="Capa_1" xmlns="http://www.w3.org/2000/svg" xmlns:xlink="http://www.w3.org/1999/xlink" x="0px" y="0px"
	 width="493.336px" height="493.336px" viewBox="0 0 493.336 493.336" style="enable-background:new 0 0 493.336 493.336;"
	 xml:space="preserve">
<g>
	<g>
		<path d="M493.336,246.668C493.336,110.436,382.898,0,246.668,0C110.436,0,0,110.436,0,246.668
			c0,136.23,110.436,246.668,246.668,246.668C382.898,493.336,493.336,382.898,493.336,246.668z M406.869,232.437h65.592v28.461
			h-65.592V232.437z M232.437,20.874h28.461V86.47h-28.461V20.874L232.437,20.874z M86.466,260.898H20.874v-28.461h65.593
			L86.466,260.898L86.466,260.898z M218.933,232.452c-1.552-4.01-3.083-8.035-4.495-12.122c-1.397-4.096-2.888-8.138-4.152-12.304
			l-1.967-6.21l-1.81-6.292c-0.623-2.089-1.184-4.207-1.724-6.339c-0.535-2.135-1.142-4.231-1.617-6.397
			c-1.027-4.292-1.972-8.627-2.801-13.028c-0.823-4.399-1.552-8.851-2.01-13.448c3.566,2.935,6.865,6.011,10.067,9.142
			c3.196,3.131,6.278,6.327,9.276,9.563c1.536,1.599,2.946,3.264,4.422,4.895c1.472,1.633,2.923,3.279,4.315,4.955l4.229,5.001
			l4.074,5.083c2.764,3.364,5.296,6.851,7.926,10.286c2.616,3.441,5.111,6.95,7.585,10.469c0.886,1.261,1.726,2.547,2.597,3.813
			c7.408-4.267,14.899-8.374,22.479-12.315c13.002-6.703,26.251-12.944,39.827-18.574c6.791-2.809,13.646-5.496,20.604-7.989
			l10.496-3.631c3.553-1.113,7.073-2.282,10.648-3.35c3.605-1.011,7.148-2.138,10.81-3.046c3.623-0.979,7.286-1.883,10.986-2.717
			c3.7-0.837,7.422-1.628,11.211-2.297c3.778-0.689,7.6-1.298,11.538-1.686c-2.511,3.06-5.141,5.897-7.811,8.659
			c-2.661,2.781-5.385,5.436-8.138,8.046c-2.749,2.615-5.535,5.158-8.361,7.625c-2.786,2.542-5.691,4.862-8.535,7.3
			c-2.875,2.38-5.802,4.659-8.7,6.993l-8.853,6.712c-5.938,4.403-11.979,8.612-18.088,12.7
			c-12.221,8.163-24.77,15.713-37.563,22.803c-12.817,7.044-25.861,13.671-39.229,19.682l-19.568,8.799l-7.701-17.066
			C225.382,248.367,222.045,240.466,218.933,232.452z M232.437,406.868h28.461v65.593h-28.461V406.868L232.437,406.868z"/>
	</g>
</g>
<g>
</g>
<g>
</g>
<g>
</g>
<g>
</g>
<g>
</g>
<g>
</g>
<g>
</g>
<g>
</g>
<g>
</g>
<g>
</g>
<g>
</g>
<g>
</g>
<g>
</g>
<g>
</g>
<g>
</g>
</svg>
