<?xml version="1.0" encoding="iso-8859-1"?>
<!-- Generator: Adobe Illustrator 16.0.0, SVG Export Plug-In . SVG Version: 6.00 Build 0)  -->
<!DOCTYPE svg PUBLIC "-//W3C//DTD SVG 1.1//EN" "http://www.w3.org/Graphics/SVG/1.1/DTD/svg11.dtd">
<svg version="1.1" id="Capa_1" xmlns="http://www.w3.org/2000/svg" xmlns:xlink="http://www.w3.org/1999/xlink" x="0px" y="0px"
	 width="490.668px" height="490.668px" viewBox="0 0 490.668 490.668" style="enable-background:new 0 0 490.668 490.668;"
	 xml:space="preserve">
<g>
	<g>
		<path d="M245.334,490.668c135.494,0,245.334-109.84,245.334-245.334C490.668,109.839,380.828,0,245.334,0
			C109.839,0,0,109.839,0,245.334C0,380.828,109.839,490.668,245.334,490.668z M96.543,414.141L76.53,394.124l46.13-46.13
			l20.013,20.016L96.543,414.141z M259.488,469.906h-28.309v-65.24h28.309V469.906z M469.906,231.18v28.309H404.67V231.18H469.906z
			 M394.125,76.526l20.013,20.017l-46.13,46.13l-20.014-20.017L394.125,76.526z M368.008,347.991l46.13,46.131l-20.013,20.016
			l-46.131-46.13L368.008,347.991z M231.18,20.76h28.308v65.241H231.18V20.76z M205.978,187.991l42.114,40.774l76.896-75.54
			l19.838,20.196l-96.589,94.883l-61.946-59.978L205.978,187.991z M96.543,76.526l46.13,46.13l-20.013,20.017l-46.13-46.13
			L96.543,76.526z M85.999,231.18v28.309H20.76V231.18H85.999z"/>
	</g>
</g>
<g>
</g>
<g>
</g>
<g>
</g>
<g>
</g>
<g>
</g>
<g>
</g>
<g>
</g>
<g>
</g>
<g>
</g>
<g>
</g>
<g>
</g>
<g>
</g>
<g>
</g>
<g>
</g>
<g>
</g>
</svg>
