<?xml version="1.0" encoding="iso-8859-1"?>
<!-- Generator: Adobe Illustrator 16.0.0, SVG Export Plug-In . SVG Version: 6.00 Build 0)  -->
<!DOCTYPE svg PUBLIC "-//W3C//DTD SVG 1.1//EN" "http://www.w3.org/Graphics/SVG/1.1/DTD/svg11.dtd">
<svg version="1.1" id="Capa_1" xmlns="http://www.w3.org/2000/svg" xmlns:xlink="http://www.w3.org/1999/xlink" x="0px" y="0px"
	 width="481.336px" height="481.336px" viewBox="0 0 481.336 481.336" style="enable-background:new 0 0 481.336 481.336;"
	 xml:space="preserve">
<g>
	<g>
		<path d="M240.668,0C107.751,0,0,107.751,0,240.668c0,132.918,107.751,240.668,240.668,240.668
			c132.918,0,240.668-107.75,240.668-240.668C481.336,107.751,373.586,0,240.668,0z M240.668,439.749
			c-109.773,0-199.081-89.308-199.081-199.081c0-109.773,89.308-199.081,199.081-199.081c109.773,0,199.081,89.308,199.081,199.081
			C439.749,350.441,350.441,439.749,240.668,439.749z"/>
		<path d="M240.668,54.859c-102.62,0-185.809,83.189-185.809,185.809s83.189,185.809,185.809,185.809
			s185.809-83.188,185.809-185.809S343.288,54.859,240.668,54.859z M242.773,82.287c9.772,0,17.696,7.924,17.696,17.698
			c0,9.773-7.924,17.696-17.696,17.696c-9.774,0-17.695-7.923-17.695-17.696C225.079,90.21,232.999,82.287,242.773,82.287z
			 M101.922,258.532c-9.773,0-17.697-7.925-17.697-17.697c0-9.773,7.924-17.696,17.697-17.696c9.774,0,17.697,7.923,17.697,17.696
			C119.619,250.607,111.696,258.532,101.922,258.532z M240.668,397.278c-9.773,0-17.697-7.925-17.697-17.697
			s7.924-17.696,17.697-17.696c9.773,0,17.695,7.924,17.695,17.696S250.441,397.278,240.668,397.278z M263.48,222.211l-0.037,0.014
			l-36.977,101.96l0.051-88.329l-47.864-90.953l84.636,77.131l0.21,0.038l-0.043,0.114L263.48,222.211z M381.519,256.427
			c-9.771,0-17.695-7.923-17.695-17.697c0-9.773,7.924-17.697,17.695-17.697c9.773,0,17.697,7.924,17.697,17.697
			C399.216,248.504,391.292,256.427,381.519,256.427z"/>
	</g>
</g>
<g>
</g>
<g>
</g>
<g>
</g>
<g>
</g>
<g>
</g>
<g>
</g>
<g>
</g>
<g>
</g>
<g>
</g>
<g>
</g>
<g>
</g>
<g>
</g>
<g>
</g>
<g>
</g>
<g>
</g>
</svg>
