<?xml version="1.0" encoding="iso-8859-1"?>
<!-- Generator: Adobe Illustrator 16.0.0, SVG Export Plug-In . SVG Version: 6.00 Build 0)  -->
<!DOCTYPE svg PUBLIC "-//W3C//DTD SVG 1.1//EN" "http://www.w3.org/Graphics/SVG/1.1/DTD/svg11.dtd">
<svg version="1.1" id="Capa_1" xmlns="http://www.w3.org/2000/svg" xmlns:xlink="http://www.w3.org/1999/xlink" x="0px" y="0px"
	 width="496.725px" height="496.725px" viewBox="0 0 496.725 496.725" style="enable-background:new 0 0 496.725 496.725;"
	 xml:space="preserve">
<g>
	<g>
		<path d="M39.049,264.217h90.359c23.111-44.337,69.491-74.699,122.854-74.699c36.504,0,70.947,14.084,96.984,39.659
			c0.656,0.643,1.283,1.309,1.924,1.961c5.021-9.118,7.885-19.589,7.885-30.734c0-35.242-28.568-63.811-63.811-63.811
			c-15.616,0-29.918,5.62-41.01,14.935c-1.183-59.993-50.149-108.271-110.422-108.271c-61.016,0-110.479,49.462-110.479,110.479
			c0,11.286,1.701,22.17,4.847,32.425C17.019,186.628,0,203.893,0,225.165C0.001,246.732,17.482,264.217,39.049,264.217z"/>
		<path d="M424.248,308.526c-17.734,0-33.977,6.383-46.574,16.963c-0.635-32.291-13.473-61.574-34.072-83.468
			c-22.873-24.305-55.318-39.496-91.332-39.496c-46.006,0-86.204,24.774-108.046,61.691c-11.059,18.693-17.427,40.486-17.427,63.781
			c0,12.816,1.933,25.179,5.502,36.824c-24.032,0.531-43.361,20.14-43.361,44.299c0,24.492,19.854,44.348,44.348,44.348H252.27
			h5.407H424.25c40.025,0,72.475-32.445,72.475-72.473C496.721,340.972,464.271,308.526,424.248,308.526z"/>
	</g>
</g>
<g>
</g>
<g>
</g>
<g>
</g>
<g>
</g>
<g>
</g>
<g>
</g>
<g>
</g>
<g>
</g>
<g>
</g>
<g>
</g>
<g>
</g>
<g>
</g>
<g>
</g>
<g>
</g>
<g>
</g>
</svg>
