<?xml version="1.0" encoding="iso-8859-1"?>
<!-- Generator: Adobe Illustrator 16.0.0, SVG Export Plug-In . SVG Version: 6.00 Build 0)  -->
<!DOCTYPE svg PUBLIC "-//W3C//DTD SVG 1.1//EN" "http://www.w3.org/Graphics/SVG/1.1/DTD/svg11.dtd">
<svg version="1.1" id="Capa_1" xmlns="http://www.w3.org/2000/svg" xmlns:xlink="http://www.w3.org/1999/xlink" x="0px" y="0px"
	 width="487.685px" height="487.685px" viewBox="0 0 487.685 487.685" style="enable-background:new 0 0 487.685 487.685;"
	 xml:space="preserve">
<g>
	<g>
		<path d="M205.684,431.614c62.992,0,119.053-29.533,155.208-75.467c10.687,4.974,22.59,7.768,35.151,7.768
			c46.072,0,83.419-37.347,83.419-83.419c0-44.85-35.396-81.419-79.776-83.326c-0.005-0.03-0.011-0.063-0.016-0.092H11.695
			c-2.28,12.006-3.473,24.4-3.473,37.072C8.222,343.206,96.628,431.614,205.684,431.614z M403.146,234.151
			c0-0.073-0.006-0.143-0.006-0.216c22.637,3.44,40.053,22.978,40.053,46.557c0,25.997-21.149,47.147-47.148,47.147
			c-5.289,0-10.36-0.916-15.113-2.529C395.095,297.884,403.146,266.968,403.146,234.151z"/>
		<rect x="8.222" y="452.207" width="425.716" height="35.478"/>
		<path d="M132.466,136.761c-24.513,8.382-13.986,47.429,10.745,38.972c29.188-9.983,38.692-39.422,31.83-67.638
			c-3.457-14.208-12.077-27.17-18.815-39.958c-3.963-7.525-11.246-23.956-1.331-30.091c22.107-13.685,1.83-48.656-20.399-34.898
			c-23.98,14.84-28.979,43.313-20.502,68.74C117.065,81.1,150.537,130.58,132.466,136.761z"/>
		<path d="M243.451,136.761c-24.514,8.382-13.987,47.429,10.746,38.972c29.188-9.983,38.69-39.422,31.828-67.638
			c-3.457-14.208-12.076-27.17-18.813-39.958c-3.964-7.525-11.247-23.956-1.332-30.091c22.106-13.685,1.83-48.656-20.397-34.898
			c-23.98,14.84-28.979,43.313-20.502,68.74C228.047,81.1,261.521,130.58,243.451,136.761z"/>
	</g>
</g>
<g>
</g>
<g>
</g>
<g>
</g>
<g>
</g>
<g>
</g>
<g>
</g>
<g>
</g>
<g>
</g>
<g>
</g>
<g>
</g>
<g>
</g>
<g>
</g>
<g>
</g>
<g>
</g>
<g>
</g>
</svg>
