<?xml version="1.0" encoding="iso-8859-1"?>
<!-- Generator: Adobe Illustrator 16.0.0, SVG Export Plug-In . SVG Version: 6.00 Build 0)  -->
<!DOCTYPE svg PUBLIC "-//W3C//DTD SVG 1.1//EN" "http://www.w3.org/Graphics/SVG/1.1/DTD/svg11.dtd">
<svg version="1.1" id="Capa_1" xmlns="http://www.w3.org/2000/svg" xmlns:xlink="http://www.w3.org/1999/xlink" x="0px" y="0px"
	 width="491px" height="491px" viewBox="0 0 491 491" style="enable-background:new 0 0 491 491;" xml:space="preserve">
<g>
	<g>
		<path d="M163.578,153.615c-74.987,0-135.775,25.315-135.775,56.545v140.42c0,25.038,39.092,46.262,93.234,53.698V491h342.161
			V153.615H163.578L163.578,153.615z M121.034,361.402c-26.813-4.346-45.216-12.082-52.501-17.726v-126.62
			c7.286-5.644,25.686-13.378,52.501-17.724V361.402z"/>
		<path d="M275.235,81.953c-0.997-2.988-2.157-6.036-3.485-9.086c-1.653-2.977-3.496-5.968-5.494-8.892
			c-0.553-0.854-0.867-1.207-1.231-1.665l-1.088-1.357c-0.72-0.916-1.474-1.801-2.229-2.688l-1.135-1.337l-0.281-0.333l-0.07-0.083
			l-0.936-0.969l-0.102-0.113l-0.41-0.45l-1.662-1.776c-2.095-2.347-3.896-4.549-5.422-6.644c-1.521-2.106-2.825-4.09-3.977-6.279
			c-1.145-2.18-2.121-4.611-2.841-7.354c-0.709-2.723-1.215-5.751-1.394-8.772c-0.433-6.079-0.045-12.188,0.337-16.678
			c0.229-2.222,0.319-4.173,0.514-5.431c0.147-1.335,0.227-2.042,0.227-2.042s-0.749,0.079-2.047,0.436
			c-1.255,0.387-3.243,0.899-5.476,1.95c-4.513,2.047-10.67,5.791-16.311,12.782c-2.759,3.5-5.461,7.815-7.339,13.056
			c-1.9,5.21-3.017,11.36-2.791,17.848c0.198,6.483,1.776,13.215,4.482,19.29c2.691,6.099,6.386,11.558,10.517,16.203l3.203,3.282
			l1.849,1.833c0.822,0.825,1.643,1.651,2.497,2.445l1.264,1.199c0.416,0.396,0.921,0.859,0.986,0.984
			c0.673,0.834,1.476,1.569,2.437,2.276c0.769,0.944,1.606,1.889,2.615,2.805c0.56,0.868,1.425,1.73,2.152,2.602
			c0.26,0.42,0.551,0.851,0.907,1.294l0.537,0.682c0.147,0.232,0.238,0.456,0.371,0.69c0.252,0.469,0.509,0.952,0.834,1.47
			c0.371,0.52,0.371,1.043,0.656,1.603c0.201,0.56,0.512,1.145,0.648,1.747c0.115,0.603,0.188,1.202,0.362,1.855
			c0.551,2.573,0.508,5.341,0.399,8.046c-0.152,1.388-0.293,2.689-0.425,3.89c-0.219,1.278-0.42,2.451-0.602,3.512
			c-0.47,2.137-0.814,4.054-1.188,5.27c-0.354,1.289-0.54,1.979-0.54,1.979s0.747,0.045,2.098-0.107
			c1.306-0.195,3.354-0.43,5.757-1.219c1.232-0.362,2.484-0.922,3.936-1.53c1.423-0.639,2.826-1.512,4.431-2.454
			c1.492-1.055,3.078-2.236,4.662-3.692c1.491-1.535,3.17-3.126,4.543-5.213c0.741-1.009,1.396-2.106,2.101-3.231
			c0.668-1.143,1.18-2.42,1.774-3.712c1.257-2.581,1.933-5.476,2.513-8.566c0.137-0.77,0.33-1.561,0.398-2.344
			c0.033-0.783,0.068-1.571,0.102-2.363c0.062-1.6,0.061-3.24,0.02-4.908c-0.027-1.671-0.387-3.189-0.646-4.829
			C275.949,85.247,275.635,83.59,275.235,81.953z"/>
		<path d="M327.258,2.041C327.408,0.709,327.49,0,327.49,0s-0.75,0.079-2.047,0.435c-1.258,0.388-3.242,0.899-5.479,1.951
			c-4.512,2.047-10.67,5.79-16.311,12.782c-2.763,3.5-5.463,7.814-7.34,13.056c-1.898,5.21-3.018,11.36-2.79,17.849
			c0.198,6.483,1.776,13.214,4.481,19.29c2.689,6.098,6.385,11.558,10.518,16.203l3.201,3.282l1.852,1.832
			c0.822,0.826,1.641,1.651,2.496,2.446l1.264,1.199c0.414,0.396,0.92,0.859,0.986,0.984c0.674,0.834,1.477,1.569,2.438,2.275
			c0.77,0.944,1.605,1.889,2.615,2.805c0.559,0.868,1.424,1.73,2.15,2.601c0.262,0.421,0.553,0.852,0.908,1.295l0.537,0.681
			c0.146,0.232,0.236,0.456,0.369,0.69c0.252,0.469,0.51,0.953,0.834,1.47c0.371,0.521,0.371,1.043,0.656,1.603
			c0.201,0.56,0.512,1.146,0.646,1.747c0.115,0.603,0.189,1.202,0.361,1.855c0.553,2.573,0.51,5.341,0.402,8.046
			c-0.152,1.388-0.295,2.689-0.424,3.891c-0.221,1.278-0.422,2.451-0.604,3.511c-0.469,2.137-0.812,4.054-1.188,5.27
			c-0.352,1.292-0.539,1.982-0.539,1.982s0.746,0.045,2.098-0.107c1.305-0.195,3.355-0.43,5.756-1.219
			c1.232-0.362,2.484-0.922,3.936-1.53c1.422-0.639,2.826-1.512,4.432-2.454c1.492-1.055,3.078-2.236,4.66-3.692
			c1.49-1.535,3.17-3.126,4.545-5.213c0.74-1.009,1.393-2.106,2.1-3.231c0.668-1.143,1.182-2.42,1.773-3.712
			c1.258-2.581,1.934-5.476,2.514-8.566c0.135-0.77,0.33-1.561,0.398-2.344c0.033-0.783,0.066-1.571,0.102-2.363
			c0.062-1.6,0.061-3.24,0.021-4.908c-0.029-1.671-0.389-3.189-0.648-4.829c-0.287-1.618-0.6-3.274-1-4.911
			c-0.998-2.989-2.16-6.036-3.486-9.086c-1.652-2.978-3.496-5.969-5.49-8.892c-0.555-0.854-0.867-1.207-1.232-1.666l-1.088-1.356
			c-0.719-0.917-1.473-1.801-2.23-2.689l-1.133-1.337l-0.283-0.333l-0.07-0.082l-0.934-0.97l-0.102-0.113l-0.412-0.449l-1.662-1.775
			c-2.094-2.347-3.895-4.549-5.422-6.644c-1.52-2.106-2.824-4.091-3.975-6.279c-1.146-2.18-2.121-4.611-2.842-7.354
			c-0.711-2.722-1.217-5.75-1.395-8.771c-0.434-6.079-0.045-12.188,0.334-16.678C326.973,5.25,327.062,3.299,327.258,2.041z"/>
	</g>
</g>
<g>
</g>
<g>
</g>
<g>
</g>
<g>
</g>
<g>
</g>
<g>
</g>
<g>
</g>
<g>
</g>
<g>
</g>
<g>
</g>
<g>
</g>
<g>
</g>
<g>
</g>
<g>
</g>
<g>
</g>
</svg>
