<?xml version="1.0" encoding="iso-8859-1"?>
<!-- Generator: Adobe Illustrator 16.0.0, SVG Export Plug-In . SVG Version: 6.00 Build 0)  -->
<!DOCTYPE svg PUBLIC "-//W3C//DTD SVG 1.1//EN" "http://www.w3.org/Graphics/SVG/1.1/DTD/svg11.dtd">
<svg version="1.1" id="Capa_1" xmlns="http://www.w3.org/2000/svg" xmlns:xlink="http://www.w3.org/1999/xlink" x="0px" y="0px"
	 width="483.789px" height="483.789px" viewBox="0 0 483.789 483.789" style="enable-background:new 0 0 483.789 483.789;"
	 xml:space="preserve">
<g>
	<g>
		<polygon points="434.77,405.332 465.895,405.332 465.895,122.667 329.895,122.667 329.895,280.288 329.895,293.333 
			316.073,293.333 167.228,293.333 167.228,405.332 361.895,405.332 361.895,483.789 		"/>
		<path d="M17.895,280h30.88l73.12,79.973V280h45.333h149.333V122.667V0H17.895V280z M266.138,116.6
			c6.267,0,11.989,3.4,16.407,6.067c5.43,5.333,8.885,11.845,8.885,19.549c0,13.968-11.325,25.453-25.292,25.453
			c-13.968,0-25.294-11.565-25.294-25.533c0-7.701,3.453-14.133,8.886-19.467C254.145,120,259.867,116.6,266.138,116.6z
			 M199.927,116.6c6.267,0,11.99,3.4,16.408,6.067c5.429,5.333,8.886,11.845,8.886,19.549c0,13.968-11.326,25.453-25.294,25.453
			c-13.968,0-25.293-11.565-25.293-25.533c0-7.701,3.454-14.133,8.886-19.467C187.937,120,193.66,116.6,199.927,116.6z
			 M133.715,117.243c13.971,0,25.293,11.326,25.293,25.293c0,13.968-11.325,25.293-25.293,25.293
			c-13.968,0-25.293-11.325-25.293-25.293C108.422,128.565,119.748,117.243,133.715,117.243z M67.507,117.243
			c13.968,0,25.293,11.326,25.293,25.293c0,13.968-11.326,25.293-25.293,25.293c-13.971,0-25.293-11.325-25.293-25.293
			C42.214,128.565,53.538,117.243,67.507,117.243z"/>
	</g>
</g>
<g>
</g>
<g>
</g>
<g>
</g>
<g>
</g>
<g>
</g>
<g>
</g>
<g>
</g>
<g>
</g>
<g>
</g>
<g>
</g>
<g>
</g>
<g>
</g>
<g>
</g>
<g>
</g>
<g>
</g>
</svg>
