<?xml version="1.0" encoding="iso-8859-1"?>
<!-- Generator: Adobe Illustrator 16.0.0, SVG Export Plug-In . SVG Version: 6.00 Build 0)  -->
<!DOCTYPE svg PUBLIC "-//W3C//DTD SVG 1.1//EN" "http://www.w3.org/Graphics/SVG/1.1/DTD/svg11.dtd">
<svg version="1.1" id="Capa_1" xmlns="http://www.w3.org/2000/svg" xmlns:xlink="http://www.w3.org/1999/xlink" x="0px" y="0px"
	 width="497.832px" height="497.832px" viewBox="0 0 497.832 497.832" style="enable-background:new 0 0 497.832 497.832;"
	 xml:space="preserve">
<g>
	<g>
		<path d="M158.207,79.265L62.146,206.951h61.759l73.375-97.53C179.979,106.707,165.351,95.354,158.207,79.265z"/>
		<path d="M205.326,93.497c1.367,0,2.745-0.087,4.128-0.251c1.312-0.155,2.626-0.383,3.943-0.693
			c16.408-3.875,27.438-18.729,27.343-35.097c0-0.424-0.035-0.84-0.023-1.264c-0.089-2.214-0.363-4.452-0.88-6.689
			c-3.811-16.543-18.364-27.714-34.449-27.714c-2.664,0-5.368,0.307-8.072,0.944c-18.147,4.285-29.717,21.996-26.923,40.338
			c0.139,0.904,0.274,1.808,0.481,2.715C174.687,82.324,189.241,93.497,205.326,93.497z"/>
		<path d="M373.926,206.951h61.76L339.625,79.265c-7.145,16.09-21.773,27.442-39.072,30.156L373.926,206.951z"/>
		<path d="M300.52,22.729c-2.705-0.638-5.408-0.945-8.072-0.945c-16.084,0-30.637,11.174-34.448,27.714
			c-0.508,2.211-0.778,4.42-0.875,6.608c0.019,0.518-0.024,1.036-0.022,1.553C257.1,73.949,268.1,88.693,284.438,92.551
			c1.317,0.31,2.633,0.535,3.943,0.693c1.383,0.164,2.762,0.251,4.128,0.251c16.084,0,30.64-11.173,34.448-27.714
			c0.209-0.904,0.348-1.811,0.483-2.711C330.236,44.726,318.667,27.016,300.52,22.729z"/>
		<path d="M0,221.576l65.503,254.472h366.826l65.503-254.472h-51.146h-61.759H112.905H51.146H0z M223.907,373.732
			c5.119-79.311,88.497-127.109,88.497-127.109c-29.702,40.486-28.647,129.011-28.647,129.011l32.887-0.227l-64.784,73.037
			l-62.042-75.224L223.907,373.732z"/>
	</g>
</g>
<g>
</g>
<g>
</g>
<g>
</g>
<g>
</g>
<g>
</g>
<g>
</g>
<g>
</g>
<g>
</g>
<g>
</g>
<g>
</g>
<g>
</g>
<g>
</g>
<g>
</g>
<g>
</g>
<g>
</g>
</svg>
