<?xml version="1.0" encoding="iso-8859-1"?>
<!-- Generator: Adobe Illustrator 16.0.0, SVG Export Plug-In . SVG Version: 6.00 Build 0)  -->
<!DOCTYPE svg PUBLIC "-//W3C//DTD SVG 1.1//EN" "http://www.w3.org/Graphics/SVG/1.1/DTD/svg11.dtd">
<svg version="1.1" id="Capa_1" xmlns="http://www.w3.org/2000/svg" xmlns:xlink="http://www.w3.org/1999/xlink" x="0px" y="0px"
	 width="491px" height="491px" viewBox="0 0 491 491" style="enable-background:new 0 0 491 491;" xml:space="preserve">
<g>
	<g>
		<polygon points="36.957,443.837 99.364,377.138 353.731,377.138 353.731,305.862 123.222,305.862 110.871,305.862 
			110.871,293.317 110.871,139.556 0,139.556 0,377.138 36.957,377.138 		"/>
		<path d="M387.689,292.663l63.714,70.443v-70.443H491v-245.5H124.07v92.393v153.107h229.663H387.689z M430.454,144.313
			c15.424,0,27.929,12.505,27.929,27.929c0,15.424-12.505,27.929-27.929,27.929s-27.929-12.504-27.929-27.929
			C402.525,156.818,415.03,144.313,430.454,144.313z M195.716,200.17c-15.424,0-27.929-12.504-27.929-27.929
			c0-15.424,12.505-27.929,27.929-27.929c15.424,0,27.929,12.505,27.929,27.929C223.646,187.666,211.141,200.17,195.716,200.17z
			 M273.962,200.17c-15.424,0-27.929-12.504-27.929-27.929c0-15.424,12.505-27.929,27.929-27.929
			c15.425,0,27.929,12.505,27.929,27.929C301.891,187.666,289.387,200.17,273.962,200.17z M352.208,200.17
			c-15.424,0-27.929-12.504-27.929-27.929c0-15.424,12.505-27.929,27.929-27.929c0.515,0,1.016,0.051,1.523,0.077
			c14.711,0.797,26.405,12.94,26.405,27.852c0,14.913-11.694,27.055-26.405,27.853C353.224,200.121,352.723,200.17,352.208,200.17z"
			/>
	</g>
</g>
<g>
</g>
<g>
</g>
<g>
</g>
<g>
</g>
<g>
</g>
<g>
</g>
<g>
</g>
<g>
</g>
<g>
</g>
<g>
</g>
<g>
</g>
<g>
</g>
<g>
</g>
<g>
</g>
<g>
</g>
</svg>
