<?xml version="1.0" encoding="iso-8859-1"?>
<!-- Generator: Adobe Illustrator 16.0.0, SVG Export Plug-In . SVG Version: 6.00 Build 0)  -->
<!DOCTYPE svg PUBLIC "-//W3C//DTD SVG 1.1//EN" "http://www.w3.org/Graphics/SVG/1.1/DTD/svg11.dtd">
<svg version="1.1" id="Capa_1" xmlns="http://www.w3.org/2000/svg" xmlns:xlink="http://www.w3.org/1999/xlink" x="0px" y="0px"
	 width="493.834px" height="493.834px" viewBox="0 0 493.834 493.834" style="enable-background:new 0 0 493.834 493.834;"
	 xml:space="preserve">
<g>
	<g>
		<path d="M352.737,325.302v-99.288c0-29.058,17.972-44.419,47.03-44.419h28.742V74.467c0-21.645-17.549-39.193-39.192-39.193
			H104.515c-21.645,0-39.193,17.548-39.193,39.193v107.127h31.354c29.061,0,44.418,15.361,44.418,44.419v99.289L352.737,325.302
			L352.737,325.302z M299.174,82.306c18.01,0,32.66,14.65,32.66,32.661c0,18.01-14.65,32.661-32.66,32.661
			c-18.011,0-32.66-14.65-32.66-32.661C266.514,96.957,281.163,82.306,299.174,82.306z M299.174,168.531
			c18.01,0,32.66,14.65,32.66,32.661c0,18.01-14.65,32.661-32.66,32.661c-18.011,0-32.66-14.65-32.66-32.661
			C266.514,183.181,281.163,168.531,299.174,168.531z M194.659,82.306c18.01,0,32.661,14.65,32.661,32.661
			c0,18.01-14.65,32.661-32.661,32.661c-18.011,0-32.661-14.65-32.661-32.661C161.998,96.957,176.648,82.306,194.659,82.306z
			 M194.659,168.531c18.01,0,32.661,14.65,32.661,32.661c0,18.01-14.65,32.661-32.661,32.661c-18.011,0-32.661-14.65-32.661-32.661
			C161.998,183.181,176.648,168.531,194.659,168.531z"/>
		<path d="M462.479,194.66h-33.968h-28.742c-21.645,0-33.967,9.709-33.967,31.354v112.353H128.03V226.014
			c0-21.645-9.709-31.354-31.354-31.354H65.322H33.967C12.322,194.66,0,204.369,0,226.014v164.61
			c0,21.645,25.387,47.031,47.032,47.031c0,1.809,0.253,3.555,0.684,5.227c0.75,2.906,2.093,5.568,3.915,7.838
			c3.83,4.773,9.704,7.84,16.304,7.84h7.838c6.598,0,12.472-3.064,16.305-7.84c1.824-2.27,3.167-4.932,3.914-7.838
			c0.431-1.672,0.685-3.418,0.685-5.227h300.48c0,1.809,0.253,3.555,0.685,5.227c0.749,2.906,2.093,5.568,3.914,7.838
			c3.831,4.773,9.703,7.84,16.305,7.84h7.839c6.598,0,12.472-3.064,16.304-7.84c1.824-2.27,3.167-4.932,3.914-7.838
			c0.432-1.672,0.686-3.418,0.686-5.227h15.678c21.646,0,31.354-25.387,31.354-47.031v-164.61
			C493.832,204.369,484.123,194.66,462.479,194.66z"/>
		<circle cx="194.659" cy="114.967" r="19.596"/>
		<circle cx="299.174" cy="114.967" r="19.596"/>
		<circle cx="194.659" cy="201.191" r="19.596"/>
		<circle cx="299.174" cy="201.191" r="19.596"/>
	</g>
</g>
<g>
</g>
<g>
</g>
<g>
</g>
<g>
</g>
<g>
</g>
<g>
</g>
<g>
</g>
<g>
</g>
<g>
</g>
<g>
</g>
<g>
</g>
<g>
</g>
<g>
</g>
<g>
</g>
<g>
</g>
</svg>
