<?xml version="1.0" encoding="iso-8859-1"?>
<!-- Generator: Adobe Illustrator 16.0.0, SVG Export Plug-In . SVG Version: 6.00 Build 0)  -->
<!DOCTYPE svg PUBLIC "-//W3C//DTD SVG 1.1//EN" "http://www.w3.org/Graphics/SVG/1.1/DTD/svg11.dtd">
<svg version="1.1" id="Capa_1" xmlns="http://www.w3.org/2000/svg" xmlns:xlink="http://www.w3.org/1999/xlink" x="0px" y="0px"
	 width="489.82px" height="489.82px" viewBox="0 0 489.82 489.82" style="enable-background:new 0 0 489.82 489.82;"
	 xml:space="preserve">
<g>
	<g>
		<path d="M55.994,489.82h253.104V0H55.994V489.82z M182.544,446.119c-17.095,0-30.954-13.859-30.954-30.954
			c0-17.096,13.858-30.957,30.954-30.957c17.096,0,30.955,13.859,30.955,30.953C213.499,432.258,199.639,446.119,182.544,446.119z
			 M182.544,336.866c-17.095,0-30.954-13.858-30.954-30.955c0-17.095,13.858-30.956,30.954-30.956
			c17.096,0,30.955,13.859,30.955,30.953C213.499,323.006,199.639,336.866,182.544,336.866z M81.029,26.86h203.027v93.775H81.029
			V26.86z M81.029,142.485h203.027v93.774H81.029V142.485z"/>
		<polygon points="433.826,462.507 433.826,81.939 328.214,0 328.214,489.82 		"/>
		<rect x="94.686" y="40.516" width="175.714" height="66.462"/>
		<rect x="94.686" y="156.142" width="175.714" height="66.461"/>
	</g>
</g>
<g>
</g>
<g>
</g>
<g>
</g>
<g>
</g>
<g>
</g>
<g>
</g>
<g>
</g>
<g>
</g>
<g>
</g>
<g>
</g>
<g>
</g>
<g>
</g>
<g>
</g>
<g>
</g>
<g>
</g>
</svg>
