<?xml version="1.0" encoding="iso-8859-1"?>
<!-- Generator: Adobe Illustrator 16.0.0, SVG Export Plug-In . SVG Version: 6.00 Build 0)  -->
<!DOCTYPE svg PUBLIC "-//W3C//DTD SVG 1.1//EN" "http://www.w3.org/Graphics/SVG/1.1/DTD/svg11.dtd">
<svg version="1.1" id="Capa_1" xmlns="http://www.w3.org/2000/svg" xmlns:xlink="http://www.w3.org/1999/xlink" x="0px" y="0px"
	 width="493.689px" height="493.689px" viewBox="0 0 493.689 493.689" style="enable-background:new 0 0 493.689 493.689;"
	 xml:space="preserve">
<g>
	<g>
		<polygon points="106.44,150.098 0,150.098 11.521,194.268 110.067,194.268 		"/>
		<polygon points="111.137,207.26 14.925,207.26 32.574,274.813 116.695,274.813 		"/>
		<polygon points="134.139,326.778 219.892,326.778 223.23,287.805 130.801,287.805 		"/>
		<polygon points="119.478,150.098 123.102,194.268 230.929,194.268 234.553,150.098 		"/>
		<path d="M280.971,287.805h-44.705l-3.339,38.974h67.738C291.432,316.385,284.771,300.796,280.971,287.805z"/>
		<polygon points="35.978,287.805 46.584,326.778 121.104,326.778 117.765,287.805 		"/>
		<path d="M311.047,176.419c16.553-16.554,37.252-27.072,59.752-31.364c7.098-7.104,14.191-15.743,21.287-20.939h34.025
			c25.982,0,25.982-38.974,0-38.974h-41.373c-4.273,0-7.805,0.608-10.627,2.479c-1.654,0.896-3.273,1.811-4.816,3.354
			c-17.602,17.622-35.197,35.336-52.799,52.958c-1.93,1.931-3.295,3.567-4.227,6.166h-64.68l-3.625,44.17h52.668
			C300.811,186.473,305.627,181.841,311.047,176.419z"/>
		<polygon points="129.73,274.813 224.301,274.813 229.856,207.26 124.175,207.26 		"/>
		<path d="M277.232,258.473c0-18.031,4.133-35.624,11.904-51.213h-46.243l-5.558,67.554h41.041
			C277.631,269.616,277.232,263.958,277.232,258.473z"/>
		<circle cx="85.942" cy="374.201" r="34.347"/>
		<circle cx="268.086" cy="374.201" r="34.347"/>
		<path d="M458.674,334.213c1.852-1.603,3.674-3.254,5.434-5.013c39.443-39.447,39.443-103.432-0.002-142.88
			c-2.943-2.944-6.039-5.641-9.236-8.147c-0.604-0.478-1.211-0.948-1.824-1.413c-0.326-0.244-0.65-0.493-0.979-0.733
			c-16.867-12.461-37.705-19.839-60.238-19.839c-56.018,0-101.591,45.574-101.591,101.591c0,56.019,45.573,101.592,101.591,101.592
			c24.34,0,46.703-8.606,64.221-22.934c0.459-0.371,0.91-0.76,1.365-1.141C457.834,334.938,458.256,334.577,458.674,334.213z
			 M332.574,277.411v-2.599v-36.375h119.52v38.974h-98.732H332.574z"/>
	</g>
</g>
<g>
</g>
<g>
</g>
<g>
</g>
<g>
</g>
<g>
</g>
<g>
</g>
<g>
</g>
<g>
</g>
<g>
</g>
<g>
</g>
<g>
</g>
<g>
</g>
<g>
</g>
<g>
</g>
<g>
</g>
</svg>
