<?xml version="1.0" encoding="iso-8859-1"?>
<!-- Generator: Adobe Illustrator 16.0.0, SVG Export Plug-In . SVG Version: 6.00 Build 0)  -->
<!DOCTYPE svg PUBLIC "-//W3C//DTD SVG 1.1//EN" "http://www.w3.org/Graphics/SVG/1.1/DTD/svg11.dtd">
<svg version="1.1" id="Capa_1" xmlns="http://www.w3.org/2000/svg" xmlns:xlink="http://www.w3.org/1999/xlink" x="0px" y="0px"
	 width="483.082px" height="483.082px" viewBox="0 0 483.082 483.082" style="enable-background:new 0 0 483.082 483.082;"
	 xml:space="preserve">
<g>
	<g>
		<path d="M147.071,223.457v44.871c0,29.839,24.188,54.025,54.026,54.025h81.039c29.839,0,54.026-24.188,54.026-54.025v-44.871
			h-67.533v-40.52h67.533v-61.831h-67.533v-40.52h67.533v-26.56C336.163,24.187,311.974,0,282.136,0h-81.039
			c-29.839,0-54.026,24.187-54.026,54.026v26.562h67.533v40.52h-67.533v61.831h67.533v40.52h-67.533V223.457z"/>
		<path d="M90.335,294.782c10.27,48.461,53.075,85.007,99.57,85.007h31.452v62.773h-39.169v40.52h118.857v-40.52h-39.169v-62.773
			h31.451c49.131,0,89.129-42.875,99.419-84.326l-39.329-9.76c-6.417,25.87-32.097,53.566-60.09,53.566H189.907
			c-26.867,0-53.75-23.727-59.934-52.887L90.335,294.782z"/>
	</g>
</g>
<g>
</g>
<g>
</g>
<g>
</g>
<g>
</g>
<g>
</g>
<g>
</g>
<g>
</g>
<g>
</g>
<g>
</g>
<g>
</g>
<g>
</g>
<g>
</g>
<g>
</g>
<g>
</g>
<g>
</g>
</svg>
