<?xml version="1.0" encoding="iso-8859-1"?>
<!-- Generator: Adobe Illustrator 16.0.0, SVG Export Plug-In . SVG Version: 6.00 Build 0)  -->
<!DOCTYPE svg PUBLIC "-//W3C//DTD SVG 1.1//EN" "http://www.w3.org/Graphics/SVG/1.1/DTD/svg11.dtd">
<svg version="1.1" id="Capa_1" xmlns="http://www.w3.org/2000/svg" xmlns:xlink="http://www.w3.org/1999/xlink" x="0px" y="0px"
	 width="487.5px" height="487.5px" viewBox="0 0 487.5 487.5" style="enable-background:new 0 0 487.5 487.5;" xml:space="preserve"
	>
<g>
	<g>
		<path d="M243.75,0C109.129,0,0,109.129,0,243.75C0,378.368,109.129,487.5,243.75,487.5S487.5,378.368,487.5,243.75
			C487.5,109.129,378.371,0,243.75,0z M243.75,314.104c-38.795,0-70.355-31.562-70.355-70.354c0-38.793,31.56-70.355,70.355-70.355
			c38.792,0,70.354,31.563,70.354,70.355S282.542,314.104,243.75,314.104z"/>
		<path d="M243.75,187.012c-31.288,0-56.738,25.454-56.738,56.738c0,31.283,25.454,56.736,56.738,56.736
			c31.283,0,56.736-25.453,56.736-56.736C300.486,212.466,275.033,187.012,243.75,187.012z M243.75,283.921
			c-22.186,0-40.171-17.985-40.171-40.171c0-22.186,17.985-40.171,40.171-40.171c22.186,0,40.171,17.985,40.171,40.171
			C283.921,265.936,265.936,283.921,243.75,283.921z"/>
	</g>
</g>
<g>
</g>
<g>
</g>
<g>
</g>
<g>
</g>
<g>
</g>
<g>
</g>
<g>
</g>
<g>
</g>
<g>
</g>
<g>
</g>
<g>
</g>
<g>
</g>
<g>
</g>
<g>
</g>
<g>
</g>
</svg>
