<?xml version="1.0" encoding="iso-8859-1"?>
<!-- Generator: Adobe Illustrator 16.0.0, SVG Export Plug-In . SVG Version: 6.00 Build 0)  -->
<!DOCTYPE svg PUBLIC "-//W3C//DTD SVG 1.1//EN" "http://www.w3.org/Graphics/SVG/1.1/DTD/svg11.dtd">
<svg version="1.1" id="Capa_1" xmlns="http://www.w3.org/2000/svg" xmlns:xlink="http://www.w3.org/1999/xlink" x="0px" y="0px"
	 width="494.5px" height="494.5px" viewBox="0 0 494.5 494.5" style="enable-background:new 0 0 494.5 494.5;" xml:space="preserve"
	>
<g>
	<g>
		<path d="M247.25,311.586c35.475,0,64.334-28.861,64.334-64.336c0-35.474-28.859-64.335-64.334-64.335
			c-35.474,0-64.335,28.861-64.335,64.335C182.915,282.725,211.776,311.586,247.25,311.586z M247.25,206.502
			c22.504,0,40.748,18.244,40.748,40.748s-18.244,40.748-40.748,40.748s-40.748-18.244-40.748-40.748
			S224.746,206.502,247.25,206.502z"/>
		<path d="M247.25,494.5c136.554,0,247.25-110.699,247.25-247.25S383.804,0,247.25,0C110.696,0,0,110.699,0,247.25
			S110.696,494.5,247.25,494.5z M247.25,42.82c112.724,0,204.43,91.707,204.43,204.43h-13.812
			c0-105.108-85.51-190.617-190.617-190.617V42.82z M247.25,104.771c78.564,0,142.482,63.917,142.482,142.479H375.92
			c0-70.948-57.722-128.667-128.67-128.667V104.771L247.25,104.771z M247.25,169.102c43.091,0,78.147,35.057,78.147,78.148
			s-35.057,78.146-78.147,78.146s-78.148-35.056-78.148-78.146S204.159,169.102,247.25,169.102z"/>
	</g>
</g>
<g>
</g>
<g>
</g>
<g>
</g>
<g>
</g>
<g>
</g>
<g>
</g>
<g>
</g>
<g>
</g>
<g>
</g>
<g>
</g>
<g>
</g>
<g>
</g>
<g>
</g>
<g>
</g>
<g>
</g>
</svg>
