<?xml version="1.0" encoding="iso-8859-1"?>
<!-- Generator: Adobe Illustrator 16.0.0, SVG Export Plug-In . SVG Version: 6.00 Build 0)  -->
<!DOCTYPE svg PUBLIC "-//W3C//DTD SVG 1.1//EN" "http://www.w3.org/Graphics/SVG/1.1/DTD/svg11.dtd">
<svg version="1.1" id="Capa_1" xmlns="http://www.w3.org/2000/svg" xmlns:xlink="http://www.w3.org/1999/xlink" x="0px" y="0px"
	 width="493.869px" height="493.869px" viewBox="0 0 493.869 493.869" style="enable-background:new 0 0 493.869 493.869;"
	 xml:space="preserve">
<g>
	<g>
		<polygon points="483.596,467.617 2.748,467.617 10.991,490.973 475.354,490.973 		"/>
		<path d="M0,453.879h486.344V137.893h-4.781l-4.904,4.904l-9.715,9.716l0,0l-1.33,1.33l-38.1,38.1v213.582H58.831v-219.28h266.382
			l48.352-48.352h-101c-0.308-2.377-0.444-4.652-0.489-6.869c-0.043-2.38,0.079-4.657,0.319-6.869
			c5.223-48.181,75.299-57.916,96.287-100.379c7.822-15.827-15.873-29.755-23.727-13.868
			c-14.014,28.354-48.998,38.144-72.051,57.605c-16.945,14.308-25.957,35.13-27.595,56.642c-0.174,2.286-0.259,4.575-0.264,6.869
			c-0.008,2.292,0.06,4.583,0.22,6.869H0V453.879z"/>
		<polygon points="235.995,329.461 283.701,316.326 413.783,186.245 455.898,144.126 449.662,137.893 442.793,131.023 
			435.924,124.154 421.328,109.559 406.732,124.154 399.863,131.023 392.994,137.893 344.643,186.245 249.131,281.756 		"/>
		<polygon points="459.299,71.587 432.373,98.513 458.012,124.154 464.881,131.023 466.943,133.083 469.004,131.023 
			475.873,124.154 493.869,106.16 		"/>
	</g>
</g>
<g>
</g>
<g>
</g>
<g>
</g>
<g>
</g>
<g>
</g>
<g>
</g>
<g>
</g>
<g>
</g>
<g>
</g>
<g>
</g>
<g>
</g>
<g>
</g>
<g>
</g>
<g>
</g>
<g>
</g>
</svg>
