<?xml version="1.0" encoding="iso-8859-1"?>
<!-- Generator: Adobe Illustrator 16.0.0, SVG Export Plug-In . SVG Version: 6.00 Build 0)  -->
<!DOCTYPE svg PUBLIC "-//W3C//DTD SVG 1.1//EN" "http://www.w3.org/Graphics/SVG/1.1/DTD/svg11.dtd">
<svg version="1.1" id="Capa_1" xmlns="http://www.w3.org/2000/svg" xmlns:xlink="http://www.w3.org/1999/xlink" x="0px" y="0px"
	 width="494.94px" height="494.94px" viewBox="0 0 494.94 494.94" style="enable-background:new 0 0 494.94 494.94;"
	 xml:space="preserve">
<g>
	<g>
		<path d="M119.94,83.771c0,0,42.769,95.357,40.596,199.91h173.869C332.231,179.126,375,83.771,375,83.771
			C328.307,66.267,334.989,0,334.989,0h-27.506c0,70.016-60.014,70.016-60.014,70.016s-60.014,0-60.014-70.016h-27.508
			C159.948,0,166.63,66.264,119.94,83.771z"/>
		<path d="M338.457,324.931H156.483c-7.857,41.533-26.879,92.511-42.796,113.926c-68.767,92.521,11.253,41.258,11.253,41.258
			s18.365,32.509,41.69,1.252c0,0,23.326,31.257,40.83-2.5c0,0,18.756,32.509,40.01,1.252c21.255,31.257,40.011-1.252,40.011-1.252
			c17.504,33.757,40.83,2.5,40.83,2.5c23.325,31.257,41.689-1.252,41.689-1.252s80.021,51.265,11.254-41.258
			C365.337,417.441,346.314,366.464,338.457,324.931z"/>
	</g>
</g>
<g>
</g>
<g>
</g>
<g>
</g>
<g>
</g>
<g>
</g>
<g>
</g>
<g>
</g>
<g>
</g>
<g>
</g>
<g>
</g>
<g>
</g>
<g>
</g>
<g>
</g>
<g>
</g>
<g>
</g>
</svg>
