<?xml version="1.0" encoding="iso-8859-1"?>
<!-- Generator: Adobe Illustrator 16.0.0, SVG Export Plug-In . SVG Version: 6.00 Build 0)  -->
<!DOCTYPE svg PUBLIC "-//W3C//DTD SVG 1.1//EN" "http://www.w3.org/Graphics/SVG/1.1/DTD/svg11.dtd">
<svg version="1.1" id="Capa_1" xmlns="http://www.w3.org/2000/svg" xmlns:xlink="http://www.w3.org/1999/xlink" x="0px" y="0px"
	 width="485.938px" height="485.938px" viewBox="0 0 485.938 485.938" style="enable-background:new 0 0 485.938 485.938;"
	 xml:space="preserve">
<g>
	<g>
		<path d="M111.618,430.873c-67.517,90.84,11.048,40.509,11.048,40.509s18.031,31.917,40.933,1.229c0,0,22.901,30.688,40.087-2.454
			c0,0,18.414,31.918,39.283,1.229c20.869,30.688,39.283-1.229,39.283-1.229c17.186,33.146,40.087,2.454,40.087,2.454
			c22.901,30.688,40.933-1.229,40.933-1.229s78.565,50.331,11.049-40.509c-19-25.564-42.521-94.045-45.348-136.584
			c-7.214-108.628,39.21-212.044,39.21-212.044C322.339,65.059,328.9,0,328.9,0h-27.006c0,68.743-58.923,68.743-58.923,68.743
			s-58.923,0-58.923-68.743h-27.011c0,0,6.561,65.06-39.283,82.246c0,0,46.424,103.416,39.21,212.043
			C154.141,336.828,130.615,405.309,111.618,430.873z"/>
	</g>
</g>
<g>
</g>
<g>
</g>
<g>
</g>
<g>
</g>
<g>
</g>
<g>
</g>
<g>
</g>
<g>
</g>
<g>
</g>
<g>
</g>
<g>
</g>
<g>
</g>
<g>
</g>
<g>
</g>
<g>
</g>
</svg>
