<?xml version="1.0" encoding="iso-8859-1"?>
<!-- Generator: Adobe Illustrator 16.0.0, SVG Export Plug-In . SVG Version: 6.00 Build 0)  -->
<!DOCTYPE svg PUBLIC "-//W3C//DTD SVG 1.1//EN" "http://www.w3.org/Graphics/SVG/1.1/DTD/svg11.dtd">
<svg version="1.1" id="Capa_1" xmlns="http://www.w3.org/2000/svg" xmlns:xlink="http://www.w3.org/1999/xlink" x="0px" y="0px"
	 width="496.971px" height="496.971px" viewBox="0 0 496.971 496.971" style="enable-background:new 0 0 496.971 496.971;"
	 xml:space="preserve">
<g>
	<g>
		<rect x="249.231" y="230.676" width="110.437" height="58.41"/>
		<polygon points="219.383,132.183 129.481,132.183 136.166,200.831 219.383,200.831 		"/>
		<polygon points="219.383,289.086 219.383,230.679 139.074,230.679 144.763,289.086 		"/>
		<polygon points="219.383,43.923 120.884,43.923 126.573,102.335 219.383,102.335 		"/>
		<polygon points="389.516,289.086 449.213,289.086 460.592,230.679 389.516,230.679 		"/>
		<rect x="249.231" y="43.923" width="110.437" height="58.41"/>
		<rect x="249.231" y="132.183" width="110.437" height="68.646"/>
		<polygon points="389.516,102.335 485.592,102.335 496.971,43.923 389.516,43.923 		"/>
		<polygon points="389.516,200.831 466.406,200.831 479.777,132.183 389.516,132.183 		"/>
		<polygon points="89.858,28.999 0,28.999 0,58.847 62.367,58.847 86.246,348.784 449.213,348.784 449.213,318.937 113.736,318.937 
					"/>
		<circle cx="133.57" cy="422.453" r="45.519"/>
		<circle cx="394.74" cy="422.453" r="45.519"/>
	</g>
</g>
<g>
</g>
<g>
</g>
<g>
</g>
<g>
</g>
<g>
</g>
<g>
</g>
<g>
</g>
<g>
</g>
<g>
</g>
<g>
</g>
<g>
</g>
<g>
</g>
<g>
</g>
<g>
</g>
<g>
</g>
</svg>
