<?xml version="1.0" encoding="iso-8859-1"?>
<!-- Generator: Adobe Illustrator 16.0.0, SVG Export Plug-In . SVG Version: 6.00 Build 0)  -->
<!DOCTYPE svg PUBLIC "-//W3C//DTD SVG 1.1//EN" "http://www.w3.org/Graphics/SVG/1.1/DTD/svg11.dtd">
<svg version="1.1" id="Capa_1" xmlns="http://www.w3.org/2000/svg" xmlns:xlink="http://www.w3.org/1999/xlink" x="0px" y="0px"
	 width="467.499px" height="467.499px" viewBox="0 0 467.499 467.499" style="enable-background:new 0 0 467.499 467.499;"
	 xml:space="preserve">
<g>
	<g>
		<path d="M4.75,186.637c-0.778,3.805-1.465,7.644-2.055,11.51c-0.59,3.87-1.087,7.77-1.487,11.7C0.411,217.704,0,225.677,0,233.746
			c0,8.07,0.41,16.043,1.208,23.9c0.4,3.93,0.895,7.83,1.487,11.699c0.59,3.866,1.277,7.707,2.055,11.51
			c0.777,3.803,1.65,7.576,2.61,11.309c1.922,7.467,4.203,14.792,6.825,21.952c1.31,3.579,2.708,7.12,4.185,10.614
			c1.478,3.496,3.04,6.947,4.68,10.354c0.82,1.703,1.663,3.396,2.522,5.075c1.72,3.359,3.52,6.673,5.397,9.936
			c5.63,9.791,11.948,19.133,18.888,27.965c3.47,4.415,7.095,8.702,10.867,12.854c2.515,2.768,5.095,5.475,7.74,8.117
			c2.643,2.646,5.35,5.226,8.118,7.74c12.452,11.316,26.132,21.311,40.817,29.755c3.262,1.875,6.575,3.678,9.935,5.396
			c6.72,3.442,13.627,6.567,20.705,9.36c3.537,1.395,7.12,2.707,10.74,3.933c23.533,7.965,48.748,12.282,74.97,12.282
			c17.877,0,35.282-2.015,52.01-5.815c7.809-1.773,15.47-3.932,22.96-6.465c3.62-1.225,7.2-2.537,10.74-3.933
			c7.077-2.79,13.985-5.917,20.705-9.359c3.359-1.72,6.672-3.521,9.935-5.396c14.687-8.442,28.365-18.438,40.817-29.755
			c2.768-2.517,5.476-5.099,8.118-7.74c2.642-2.643,5.225-5.352,7.739-8.117c3.771-4.15,7.396-8.438,10.867-12.855
			c5.489-6.984,10.577-14.297,15.256-21.89c1.236-2.008,2.454-4.026,3.633-6.075c1.877-3.263,3.677-6.574,5.396-9.935
			c0.859-1.681,1.699-3.373,2.522-5.076c1.643-3.403,3.202-6.856,4.68-10.354c1.479-3.494,2.875-7.033,4.185-10.613
			c2.623-7.16,4.902-14.485,6.825-21.953c0.96-3.734,1.833-7.505,2.61-11.309c0.777-3.805,1.465-7.642,2.055-11.51
			c0.59-3.869,1.088-7.771,1.487-11.699c0.798-7.857,1.208-15.83,1.208-23.899c0-8.07-0.41-16.043-1.208-23.9
			c-0.399-3.93-0.896-7.83-1.487-11.7c-0.59-3.867-1.276-7.707-2.055-11.51c-0.778-3.803-1.65-7.575-2.61-11.308
			c-1.923-7.467-4.202-14.792-6.825-21.952c-0.653-1.79-1.331-3.57-2.028-5.34c-2.093-5.308-4.375-10.521-6.838-15.63
			c-0.82-1.703-1.662-3.396-2.522-5.075c-1.72-3.36-3.521-6.673-5.396-9.936c-5.631-9.79-11.947-19.132-18.889-27.965
			c-3.47-4.415-7.095-8.702-10.867-12.854c-2.515-2.768-5.095-5.476-7.739-8.118c-2.644-2.645-5.351-5.225-8.117-7.739
			c-5.36-4.873-10.953-9.493-16.75-13.855c-7.67-5.772-15.705-11.09-24.067-15.9c-3.263-1.875-6.574-3.677-9.936-5.397
			c-1.527-0.782-3.067-1.545-4.614-2.292c-1.854-0.897-3.723-1.78-5.604-2.63c-0.787-0.355-1.585-0.692-2.375-1.04
			c-2.681-1.178-5.378-2.317-8.11-3.396c-0.037-0.015-0.077-0.027-0.114-0.045c-2.913-1.145-5.859-2.223-8.828-3.255
			c-0.6-0.207-1.193-0.43-1.797-0.633c-6.923-2.342-13.993-4.359-21.188-6.052c-2.248-0.53-4.506-1.035-6.778-1.5
			c-1.637-0.335-3.282-0.646-4.933-0.945c-12.295-2.235-24.926-3.5-37.811-3.729C236.59,0.028,235.172,0,233.746,0
			c-2.423,0-4.835,0.05-7.24,0.122c-23.625,0.72-46.373,4.933-67.73,12.16c-3.62,1.225-7.203,2.537-10.74,3.933
			c-1.095,0.433-2.175,0.885-3.262,1.332c-2.428,1-4.84,2.025-7.225,3.103c-3.453,1.563-6.857,3.203-10.217,4.926
			c-3.36,1.72-6.673,3.52-9.935,5.397c-13.127,7.55-25.45,16.337-36.815,26.202c-1.348,1.17-2.683,2.35-4.002,3.55
			c-2.768,2.516-5.475,5.098-8.118,7.74c-2.643,2.642-5.225,5.35-7.74,8.117c-3.772,4.15-7.397,8.438-10.867,12.855
			c-6.94,8.83-13.258,18.175-18.888,27.965c-1.877,3.263-3.677,6.575-5.397,9.935c-0.86,1.681-1.7,3.373-2.522,5.075
			c-2.462,5.11-4.743,10.322-6.837,15.63c-0.698,1.771-1.375,3.55-2.03,5.34c-2.623,7.16-4.902,14.485-6.825,21.953
			C6.4,179.062,5.527,182.834,4.75,186.637z M194.141,16.054c0.458,0.775,0.84,1.67,1.958,2.01c2.188-1.132,4.37,0.075,6.78,0
			c2.347-0.082,4.445-1.157,7.032-0.752c4.573,0.715,10.96,5.185,14.563,2.76c0.908-0.612,0.693-1.67,1.51-3.26
			c0.652-1.271,1.67-2.678,2.295-4.243c1.82-0.045,3.643-0.069,5.473-0.069c15.117,0,29.885,1.527,44.16,4.43
			c-0.599,1.575-2.563,0.873-4.211,1.635c-1.548,0.718-2.125,2.198-3.769,2.508c-4.565,0.86-8.352-1.146-12.305-1
			c-0.186,1.71,1.953,2.705,3.014,3.255c3.582,1.878,6.5,1.62,11.549,1.508c2.588-0.058,5.563,0.772,7.789-0.755
			c1.406-0.963,1.332-3.083,2.513-4.261c0.502-0.497,1.239-0.997,2.071-1.422c2.479,0.585,4.942,1.22,7.394,1.888
			c-0.413,1.689-3.149,1.282-3.187,3.547c1.748,1.048,5.812-0.572,7.381-2.359c0.607,0.18,1.218,0.359,1.822,0.542
			c3.553,1.08,7.067,2.245,10.542,3.495c4.955,1.785,9.825,3.742,14.61,5.862c-0.92,0.543-1.9,1.237-2.708,1.232
			c-2.074-0.012-2.962-2.785-5.277-1.76c-0.202,2.685,2.843,3.772,4.771,5.013c2.087,1.343,4.278,2.68,5.021,5.015
			c-2.043,4.33-5.303-0.228-8.538-0.247c-3.563-0.025-8.765,6.772-11.802,1.252c0.755-2.925,3.982-3.38,4.771-6.268
			c-0.692,0.118-1.362,0.343-2.03,0.61c-1.192,0.473-2.369,1.11-3.587,1.765c-1.602,0.86-3.277,1.716-5.184,2.141
			c-1.75,0.385-3.458,0.292-5.021,0.747c-3.005,0.88-5.105,3.095-8.282,4.268c-1.241,0.455-2.729,0.315-4.021,0.748
			c-3.032,1.012-6.666,2.822-9.793,4.515c-3.196,1.728-6.805,3.542-8.791,5.265c-1.071,0.926-3.86,4.215-3.768,5.261
			c0.129,1.492,2.943,1.987,3.014,3.512c-0.062,0.926-1.631,2.92-0.5,4.263c1.027,1.223,3.088,0.232,5.271,0.5
			c3.838,0.476,6.349,3.641,9.293,5.265c2.226,1.229,5.528,2.69,8.042,3.008c3.45,0.433,7.313-1.005,7.782,1.755
			c0.458,2.652-3.247,3.601-3.513,5.266c1.857,2.449-1.263,3.62-1.256,5.768c0.008,1.739,2.144,4.35,4.017,4.507
			c2.529,0.215,6.233-2.487,7.287-5.013c1.25-3.007,0.718-7.085,3.013-9.274c11.702,0.322,21.603-5.305,20.848-17.295
			c-0.075-1.186-0.748-2.71-0.5-4.013c0.367-1.938,3.705-3.564,3.261-6.015c1.263-0.388,2.018-1.408,2.662-2.556
			c0.963-1.71,1.713-3.662,3.5-4.308c0.128-0.047,0.229-0.127,0.369-0.157c1.022-0.229,2.097-0.027,3.222,0.305
			c2.005,0.593,4.18,1.613,6.571,1.45c1.219-0.082,2.797-1.172,4.021-1c2.455,0.343,3.933,3.362,5.777,4.763
			c1.631,1.245,3.351,0.848,3.768,2.505c-0.482,2.782-2.42,2.888-2.262,5.442c0.002,0.027-0.004,0.045-0.004,0.073
			c0.187,2.297,2.575,4.04,3.769,4.267c1.833,0.343,4.452-0.64,6.28-1.507c1.973-0.933,3.773-2.947,5.497-4.348
			c2.463,1.888,4.885,3.822,7.266,5.808c0.272,1.115,0.462,2.12,0.55,2.8c0.351,2.71-0.368,4.78-0.248,7.275
			c0.323,4.228,5.658,3.797,8.283,6.012c0.792,0.673,1.103,2.388,1.762,3.261c1.275,1.697,2.815,1.697,3.014,3.507
			c0.47,4.33-3.934,4.695-3.521,9.527c-0.908,1.873-3.198,1.761-3.013,4.261c0.292,3.957,5.986,0.925,7.535,4.013
			c0.837,1.659-0.142,2.895-0.755,5.26c1.946,2.317,1.935,6.015-1.504,6.02c-2.088,0-2.665-2.24-4.774-2.76
			c-1.172-0.293-2.772-0.235-4.268-0.5c-1.279-0.228-2.803-0.607-4.016-0.753c-3.1-0.367-6.457,0.533-8.29-1.252
			c2.987-3.963,6.958-7.867,10.8-11.28c1.144-1.02,3.597-1.718,3.014-3.76c-2.139-1.875-4.764,0.115-6.779,1.252
			c-2.118,1.19-4.643,2.905-7.033,3.261c-4.154,0.614-9.665-1.215-13.058,1c-0.471,1.893,3.862,1.157,3.261,4.013
			c-1.663,0.272-3.235,0.404-4.516-0.756c-1.167-1.05-0.5-2.627-1.256-3.26c-1.286-1.064-6.127-1.354-8.289-1
			c-2.639,0.43-4.974,2.008-5.277,4.26c3.17,1.482,8.396-1.524,9.545,2.261c-1.737,3.12-5.827,4.837-5.277,9.02
			c0.215,1.615,2.139,3.772,3.521,4.013c1.391,0.24,2.17-1.135,3.513-1.008c1.42,0.133,1.098,1.753,2.766,1.508
			c2.417-1.03,3.756-4.418,6.524-4.26c3.322,4.027-3,5.989-6.524,7.268c-4.021,1.455-9.247,2.228-12.311,3.515
			c-1.604,0.67-7.68,6.532-8.537,2c-0.615-3.268,3.005-2.322,3.769-5.013c-3.889-0.755-7.512,1.67-11.049,3.016
			c-5.048,1.904-13.604,3.112-14.821,8.772c-0.24,1.132,0.495,3.252-0.248,4.007c-0.604,0.607-4.205,0.718-5.777,1.253
			c-2.422,0.83-4.535,2.603-6.032,3.008c-1.13,0.31-2.798,0.222-3.513,0.507c-1.997,0.772-2.732,3.468-5.021,5.26
			c-0.938,0.733-3.021,1.266-3.769,2.006c-1.3,1.292-1.472,4.527-3.769,5.012c-1.457,0.128-2.646-1.095-4.021-0.252
			c-0.164,3.197,1.131,7.547-0.246,10.78c-2.976,2.42-6.239,4.132-10.046,6.267c-2.104,1.186-3.988,1.488-6.531,2.761
			c-1.804,0.897-3.451,3.037-5.525,4.26c-4.795,2.817-10.584,6.152-10.547,13.287c0.008,1.545,0.805,3.21,1.002,5.016
			c0.119,1.063-0.127,2.1,0,3.26c0.298,2.62,2.199,5.957,0,7.768c-3.381-1.385-7.68-1.854-10.045-4.26
			c-0.647-2.476,1.308-4.516,1.008-6.768c-0.24-1.811-2.79-5.035-4.275-5.268c-1.527-0.24-2.938,1.38-4.515,1.252
			c-1.877-0.147-3.623-2.728-6.033-3.007c-3.532-0.413-6.132,0.805-10.045,0.255c-3.788,2.02-4.895,5.614-9.538,5.26
			c-1.635-0.12-3.132-1.367-5.022-1.755c-2.047-0.423-5.155-1.146-7.288-0.998c-4.275,0.285-7.375,3.355-11.047,5.261
			c-3.24,1.685-7.828,3.779-8.79,7.272c-0.527,1.88-0.083,4.527-0.755,6.268c-0.445,1.145-1.415,2.165-2.01,3.252
			c-2.815,5.135-5.15,11.923-3.012,19.308c0.317,1.095,3.115,7.275,4.268,8.521c1.295,1.389,5.105,3.471,7.28,3.508
			c1.84,0.037,3.995-0.933,5.777-1.252c2.068-0.367,4.655-0.4,6.533-1c5.43-1.734,4.357-9.064,9.792-11.535
			c2.373-1.069,5.118-1.285,9.29-1.5c1.325,1.113,1.947,3.063,1.763,4.76c-0.14,1.279-1.358,2.439-2.01,4.263
			c-0.57,1.602-0.69,3.477-1.255,4.765c-0.748,1.69-2.415,2.927-3.013,4.517c-0.393,1.032-0.177,2.317-0.5,3.252
			c-0.577,1.652-2.79,2.818-1.762,4.517c5.377,2.135,11.885-0.607,16.577,0.254c1.98,0.36,6.063,2.721,6.025,5.769
			c-0.025,2.276-1.763,3.772-2.01,6.269c-0.305,3.138-1.618,6.981-1.757,9.521c-0.223,4.16,6.112,11.338,10.547,11.279
			c4.775-0.063,7.561-4.74,13.312-2.252c1.91,0.822,3.926,3.912,6.033,3.76c1.736-0.125,4.361-3.165,5.524-5.268
			c1.415-2.563,1.515-4.724,4.015-6.016c2.695-1.393,4.84-0.723,8.29-2.008c1.54-0.569,2.88-1.551,4.269-2.508
			c1.218-0.836,2.5-3.024,4.021-1.508c2.005,2-2.455,3.127-0.756,5.269c3.481,1.842,5.267-3.426,7.788-3.506
			c0.805-0.024,3.59,1.563,5.021,2.506c1.961,1.285,2.625,3.09,4.771,3.508c1.375,0.271,3.591-0.524,5.524-0.253
			c2.563,0.364,4.091,2.562,6.032,2.505c2.365-0.063,3.5-2.633,5.525-3.008c4.433-0.81,6.082,0.495,8.035,3.261
			c2.188,0.377,2.265-2.525,4.268-1.5c-1.098,2.186,0.375,3.189,1.255,5.014c0.569,1.17,0.476,2,1.007,2.507
			c1.198,1.14,3.514,1.14,5.271,2.253c1.853,1.164,2.896,3.33,5.021,5.768c2.188,2.494,5.867,5.077,8.79,5.26
			c2.761,0.179,5.005-0.779,7.287-0.5c5.195,0.638,8.423,3.229,12.059,6.021c2.029,1.558,3.861,2.642,4.516,4.508
			c0.457,1.304,0.234,3.05,0.755,4.513c1.109,3.123,5.67,4.631,4.021,10.027c0.755,1.583,2.446,2.152,4.268,3.26
			c1.458,0.887,2.69,2.756,4.268,3.008c1.021,0.166,2.131-0.31,3.014-0.252c2.854,0.196,4.812,1.303,7.287,2.26
			c1.535,0.59,3.5,0.818,4.521,1.508c1.275,0.859,1.44,3.748,3.014,4.508c1.026,0.5,3.311-0.189,5.021,0
			c2.695,0.311,6.355,1.963,8.79,2.008c1.478,0.032,2.702-0.604,4.015-0.5c3.052,0.232,5.445,2.157,7.812,4.307
			c-30.255,48.775-78.928,84.974-136.238,98.807c-0.209-2.197-0.815-4.408-0.914-6.598c-0.196-4.766,0.527-8.133-0.248-12.535
			c-0.581-3.33-1.307-8.434-2.512-10.527c-1.347-2.33-6.628-6.293-9.291-7.771c-1.757-0.976-3.86-1.317-5.776-2.255
			c-4.091-2.006-12.019-6.235-13.813-10.28c-0.521-1.165-0.449-2.707-1.007-4.008c-1.092-2.569-3.394-4.797-5.022-7.274
			c-3.103-4.728-5.606-10.66-8.79-15.542c-1.609-2.48-3.005-5.293-4.771-7.268c-1.035-1.166-4.345-2.262-4.77-4.014
			c-0.565-2.316-2.283-5.5-2.01-7.275c0.362-2.393,5.03-4.329,5.022-6.512c-0.007-1.855-2.492-2.938-3.012-4.513
			c-1.268-3.833,0.742-6.086,2.257-9.274c0.5-1.051,0.99-2.735,1.51-3.508c0.92-1.381,2.79-1.769,4.015-3.261
			c0.685-0.835,1.118-2.578,2.011-3.76c1.909-2.533,4.992-3.481,5.777-5.769c0.641-1.863,1.016-11.173,0.247-14.287
			c-0.438-1.806-2.118-3.306-2.761-5.014c-1.135-3.023-1.402-6.332-4.521-6.268c-1.928,0.041-3.285,2.166-4.523,3.508
			c-0.297,1.785-0.14,3.715-2.009,4.26c-2.855,0.844-3.95-3-7.28-4.007c-1.325-0.405-3.438-0.38-4.268-0.753
			c-2.43-1.09-3.215-4.641-5.777-6.02c-2.143-1.146-3.978-0.748-5.277-2.508c-0.54-1.211-0.115-3.394-0.248-5.013
			c-2.752-1.606-5.085-7.604-8.29-9.021c-2.125-0.942-5.377-0.854-8.035-1.756c-1.25-0.423-2.212-0.971-3.52-1.252
			c-1.61-0.361-3.267-0.381-4.515-1.006c-4.973-2.463-7.655-10.445-13.813-10.275c-2.625,0.068-5.155,2.521-7.535,2.507
			c-2.365-0.013-6.33-1.886-9.297-3.261c-3.083-1.431-6.495-2.211-9.038-3.508c-2.055-1.051-3.482-2.971-5.277-3.768
			c-1.375-0.607-3.388-0.715-4.515-1.248c-1.605-0.76-3.28-2.38-5.277-3.768c-1.895-1.311-3.945-3.311-4.02-5.008
			c-0.083-1.963,1.807-3.633,2.01-5.521c0.647-5.97-3.76-10.26-6.533-13.787c-2.055-2.62-4.465-4.843-6.525-7.268
			c0.115-1.61,0.115-1.899,0-3.508c-1.56-1.512-2.873-3.755-4.522-6.02c-1.49-2.043-4.395-4.223-4.77-6.513
			c-0.462-2.817,1.073-5.292,0-8.027c-1.788-4.537-8.1-2.487-7.288,3.513c0.228,1.652,2.563,3.875,3.268,5.515
			c0.723,1.673,0.583,3.755,1.255,5.768c0.647,1.93,2.595,3.595,3.267,5.768c1.065,3.433,1.033,7.13,2.01,9.275
			c0.862,1.904,4.04,3.707,2.257,6.015c-2.377,0.492-3.292-1.88-4.77-3.26c-0.825-0.768-3.813-2.223-4.268-4.008
			c-0.38-1.475,0.938-3.463,0.5-5.268c-0.862-3.537-8.017-3.627-8.042-7.268c-0.012-2.285,2.993-2.558,3.02-4.768
			c0.02-2.417-3.305-4.465-4.02-6.515c-0.652-1.88-0.76-4.875-1.002-7.521c-0.235-2.482,0.07-5.357-0.507-7.272
			c-0.515-1.722-3.107-4.09-4.77-5.015c-2.2-1.223-3.945-0.715-5.022-2.505c-0.938-1.563-1.555-4.83-1.758-6.515
			c-0.362-3.016-0.082-6.311-0.252-9.528c-0.165-3.222-0.495-6.313,0-9.774c1.243-2.425,3.508-3.62,4.775-6.022
			c0.882-1.67,1.007-3.735,2.005-5.513c1.84-3.275,5.847-6.3,8.542-9.527c2.905-3.478,5.58-6.808,7.28-10.782
			c0.61-1.41,2.245-4.538,2.01-6.268c-0.33-2.41-4.883-4.397-4.522-7.268c0.228-1.777,2.765-1.753,3.52-3.508
			c0.387-0.905,0.735-3.433,0.755-4.515c0.038-2.418-1.243-4.938-0.755-7.521c0.412-2.202,3.697-3.095,2.01-5.515
			c-1.675-2.396-4.68,1.292-6.532-0.253c-1.7-1.425,0.342-3.145,0.5-5.768c0.063-1.042-0.61-2.234-0.5-3.007
			c0.152-1.12,2.34-3.008,1.757-3.761c-0.908-1.147-1.9-3.465-3.32-5.314C123.862,38.469,157.436,22.716,194.141,16.054z"/>
	</g>
</g>
<g>
</g>
<g>
</g>
<g>
</g>
<g>
</g>
<g>
</g>
<g>
</g>
<g>
</g>
<g>
</g>
<g>
</g>
<g>
</g>
<g>
</g>
<g>
</g>
<g>
</g>
<g>
</g>
<g>
</g>
</svg>
