<?xml version="1.0" encoding="iso-8859-1"?>
<!-- Generator: Adobe Illustrator 16.0.0, SVG Export Plug-In . SVG Version: 6.00 Build 0)  -->
<!DOCTYPE svg PUBLIC "-//W3C//DTD SVG 1.1//EN" "http://www.w3.org/Graphics/SVG/1.1/DTD/svg11.dtd">
<svg version="1.1" id="Capa_1" xmlns="http://www.w3.org/2000/svg" xmlns:xlink="http://www.w3.org/1999/xlink" x="0px" y="0px"
	 width="491.878px" height="491.879px" viewBox="0 0 491.878 491.879" style="enable-background:new 0 0 491.878 491.879;"
	 xml:space="preserve">
<g>
	<g>
		<path d="M46.234,491.879h79.514l40.68-38.814h79.511h79.514l40.682,38.814h79.511c-63.704-34.537-106.508-123.745-134.273-210.963
			h14.225v-41.51h-26.421C275.019,150.377,266.278,73.44,266.278,73.44h-7.61L245.939,0l-12.727,73.44H225.6
			c0,0-8.741,76.934-32.896,165.966h-26.42v41.51h14.224C152.743,368.131,109.939,457.34,46.234,491.879z M215.169,338.756
			l12.549,12.551l-21.637,21.639C209.412,361.626,212.471,349.9,215.169,338.756z M245.939,416.766h-47.236l47.236-47.236
			l47.236,47.238h-47.236V416.766z M285.796,372.945l-21.637-21.639l12.549-12.552C279.408,349.9,282.464,361.626,285.796,372.945z
			 M245.939,146.143c0,0,3.93,71.159,8.089,93.261h-8.089h-8.089C242.009,217.305,245.939,146.143,245.939,146.143z
			 M245.939,280.917h18.491c0,0,2.032,11.448,5.558,28.121l-24.049,24.048l-24.05-24.049c3.525-16.672,5.559-28.121,5.559-28.121
			L245.939,280.917L245.939,280.917z"/>
	</g>
</g>
<g>
</g>
<g>
</g>
<g>
</g>
<g>
</g>
<g>
</g>
<g>
</g>
<g>
</g>
<g>
</g>
<g>
</g>
<g>
</g>
<g>
</g>
<g>
</g>
<g>
</g>
<g>
</g>
<g>
</g>
</svg>
