<?xml version="1.0" encoding="iso-8859-1"?>
<!-- Generator: Adobe Illustrator 16.0.0, SVG Export Plug-In . SVG Version: 6.00 Build 0)  -->
<!DOCTYPE svg PUBLIC "-//W3C//DTD SVG 1.1//EN" "http://www.w3.org/Graphics/SVG/1.1/DTD/svg11.dtd">
<svg version="1.1" id="Capa_1" xmlns="http://www.w3.org/2000/svg" xmlns:xlink="http://www.w3.org/1999/xlink" x="0px" y="0px"
	 width="491.115px" height="491.115px" viewBox="0 0 491.115 491.115" style="enable-background:new 0 0 491.115 491.115;"
	 xml:space="preserve">
<g>
	<g>
		<rect x="370.184" width="66.467" height="147.703"/>
		<rect x="370.184" y="228.017" width="66.467" height="263.098"/>
		<rect x="212.325" width="66.467" height="273.713"/>
		<rect x="212.325" y="354.027" width="66.467" height="137.088"/>
		<rect x="54.466" width="66.467" height="45.232"/>
		<rect x="54.466" y="125.547" width="66.467" height="365.568"/>
		<polygon points="26.771,59.08 26.771,111.7 54.466,111.7 120.933,111.7 148.626,111.7 148.626,59.08 120.933,59.08 54.466,59.08 
					"/>
		<polygon points="184.628,287.561 184.628,340.18 212.325,340.18 278.79,340.18 306.485,340.18 306.485,287.561 278.79,287.561 
			212.325,287.561 		"/>
		<polygon points="370.184,161.55 342.488,161.55 342.488,214.169 370.184,214.169 436.65,214.169 464.345,214.169 464.345,161.55 
			436.65,161.55 		"/>
	</g>
</g>
<g>
</g>
<g>
</g>
<g>
</g>
<g>
</g>
<g>
</g>
<g>
</g>
<g>
</g>
<g>
</g>
<g>
</g>
<g>
</g>
<g>
</g>
<g>
</g>
<g>
</g>
<g>
</g>
<g>
</g>
</svg>
