<?xml version="1.0" encoding="iso-8859-1"?>
<!-- Generator: Adobe Illustrator 16.0.0, SVG Export Plug-In . SVG Version: 6.00 Build 0)  -->
<!DOCTYPE svg PUBLIC "-//W3C//DTD SVG 1.1//EN" "http://www.w3.org/Graphics/SVG/1.1/DTD/svg11.dtd">
<svg version="1.1" id="Capa_1" xmlns="http://www.w3.org/2000/svg" xmlns:xlink="http://www.w3.org/1999/xlink" x="0px" y="0px"
	 width="492.041px" height="492.041px" viewBox="0 0 492.041 492.041" style="enable-background:new 0 0 492.041 492.041;"
	 xml:space="preserve">
<g>
	<g>
		<path d="M122.284,80.736c0,0,31.904,70.858,38.351,156.756c24.167,7.593,53.787,11.938,85.386,11.938
			c31.599,0,61.221-4.617,85.387-12.209c6.448-85.899,38.351-156.484,38.351-156.484C324.456,63.752,330.94,0,330.94,0h-26.688
			c0,66.706-58.23,67.933-58.23,67.933S187.792,66.705,187.792,0h-26.69C161.102,0,167.584,63.752,122.284,80.736z"/>
		<path d="M375.822,424.713c-18.775-25.262-42.021-92.938-44.812-134.975c-0.858-12.934-0.935-25.785-0.426-38.399
			c-24.347,7.179-53.251,11.296-84.563,11.296c-31.312,0-60.217-4.117-84.562-11.296c0.507,12.614,0.432,25.468-0.427,38.399
			c-2.792,42.037-26.04,109.713-44.813,134.975C49.498,514.484,442.544,514.484,375.822,424.713z"/>
	</g>
</g>
<g>
</g>
<g>
</g>
<g>
</g>
<g>
</g>
<g>
</g>
<g>
</g>
<g>
</g>
<g>
</g>
<g>
</g>
<g>
</g>
<g>
</g>
<g>
</g>
<g>
</g>
<g>
</g>
<g>
</g>
</svg>
