<?xml version="1.0" encoding="iso-8859-1"?>
<!-- Generator: Adobe Illustrator 16.0.0, SVG Export Plug-In . SVG Version: 6.00 Build 0)  -->
<!DOCTYPE svg PUBLIC "-//W3C//DTD SVG 1.1//EN" "http://www.w3.org/Graphics/SVG/1.1/DTD/svg11.dtd">
<svg version="1.1" id="Capa_1" xmlns="http://www.w3.org/2000/svg" xmlns:xlink="http://www.w3.org/1999/xlink" x="0px" y="0px"
	 width="490.037px" height="490.037px" viewBox="0 0 490.037 490.037" style="enable-background:new 0 0 490.037 490.037;"
	 xml:space="preserve">
<g>
	<g>
		<path d="M281.732,381.473c0.396,2.181,0.636,4.415,0.636,6.711c0,20.626-16.722,37.348-37.346,37.348
			c-20.626,0-37.346-16.722-37.346-37.348c0-2.293,0.238-4.528,0.634-6.711H21.3L0,463.478h490.037l-21.301-82.005H281.732z"/>
		<path d="M346.887,127.523c-0.016-1.775-0.08-3.539-0.186-5.291c-0.16-2.674-0.432-5.319-0.797-7.936
			C338.99,64.792,296.396,26.56,245.019,26.56c-51.377,0-93.972,38.233-100.886,87.737c-0.365,2.617-0.635,5.262-0.797,7.936
			c-0.105,1.751-0.168,3.515-0.185,5.291H62.528L0,368.247h24.736h188.741h63.085h188.74h24.734l-62.529-240.724H346.887z
			 M183.119,122.232c0.27-2.701,0.728-5.346,1.333-7.936c6.426-27.504,31.133-48.058,60.567-48.058
			c29.435,0,54.142,20.554,60.567,48.058c0.605,2.59,1.062,5.235,1.334,7.936c0.174,1.743,0.262,3.51,0.287,5.291H182.831
			C182.857,125.744,182.947,123.977,183.119,122.232z"/>
	</g>
</g>
<g>
</g>
<g>
</g>
<g>
</g>
<g>
</g>
<g>
</g>
<g>
</g>
<g>
</g>
<g>
</g>
<g>
</g>
<g>
</g>
<g>
</g>
<g>
</g>
<g>
</g>
<g>
</g>
<g>
</g>
</svg>
