<?xml version="1.0" encoding="iso-8859-1"?>
<!-- Generator: Adobe Illustrator 16.0.0, SVG Export Plug-In . SVG Version: 6.00 Build 0)  -->
<!DOCTYPE svg PUBLIC "-//W3C//DTD SVG 1.1//EN" "http://www.w3.org/Graphics/SVG/1.1/DTD/svg11.dtd">
<svg version="1.1" id="Capa_1" xmlns="http://www.w3.org/2000/svg" xmlns:xlink="http://www.w3.org/1999/xlink" x="0px" y="0px"
	 width="495.63px" height="495.631px" viewBox="0 0 495.63 495.631" style="enable-background:new 0 0 495.63 495.631;"
	 xml:space="preserve">
<g>
	<g>
		<path d="M268.582,306.219c-6.875,0.701-13.824,1.071-20.828,1.105c-6.961-0.034-13.867-0.404-20.703-1.102v189.408h41.533V306.219
			H268.582z"/>
		<path d="M227.051,292.285c6.825,0.75,13.75,1.166,20.766,1.197c7.017-0.031,13.94-0.447,20.765-1.197
			c98.363-10.799,174.899-94.128,174.899-195.369c0-35.239-9.272-68.314-25.51-96.916l-85.245,47.071L247.815,0l-84.91,47.071
			L77.66,0C61.423,28.602,52.15,61.676,52.15,96.916C52.15,198.154,128.687,281.486,227.051,292.285z"/>
		<path d="M315.309,331.197c-24.372,24.371-33.673,58.091-27.943,89.617c31.525,5.729,65.245-3.572,89.617-27.941
			c24.371-24.373,33.672-58.096,27.942-89.619C373.403,297.525,339.683,306.826,315.309,331.197z"/>
	</g>
</g>
<g>
</g>
<g>
</g>
<g>
</g>
<g>
</g>
<g>
</g>
<g>
</g>
<g>
</g>
<g>
</g>
<g>
</g>
<g>
</g>
<g>
</g>
<g>
</g>
<g>
</g>
<g>
</g>
<g>
</g>
</svg>
