<?xml version="1.0" encoding="iso-8859-1"?>
<!-- Generator: Adobe Illustrator 16.0.0, SVG Export Plug-In . SVG Version: 6.00 Build 0)  -->
<!DOCTYPE svg PUBLIC "-//W3C//DTD SVG 1.1//EN" "http://www.w3.org/Graphics/SVG/1.1/DTD/svg11.dtd">
<svg version="1.1" id="Capa_1" xmlns="http://www.w3.org/2000/svg" xmlns:xlink="http://www.w3.org/1999/xlink" x="0px" y="0px"
	 width="495.302px" height="495.303px" viewBox="0 0 495.302 495.303" style="enable-background:new 0 0 495.302 495.303;"
	 xml:space="preserve">
<g>
	<g>
		<path d="M313.315,493.443c14.783,8.482,28.067-14.32,13.314-22.785c-34.187-19.617-55.155-55.088-57.565-93.44
			c-5.132-6.358-9.596-13.521-13.397-21.558c-3.423,9.203-7.755,17.404-12.984,24.717
			C245.814,426.674,272.661,470.115,313.315,493.443z"/>
		<path d="M449.992,138.938c-11.037-29.947-39.217-47.456-67.788-47.456c-5.282,0-10.573,0.599-15.774,1.826
			c-21.359,4.343-40.198,17.723-57.026,35.865c5.883,4.145,11.264,8.921,16.149,14.177c9.673-6.008,19.457-10.234,29.217-11.85
			c3.425-0.662,6.823-0.984,10.146-0.984c18.012,0,33.818,9.465,39.724,25.419c7.143,18.871-2.195,40.135-21.53,51.38
			c-8.622,5.274-18.949,8.525-30.363,10.309c-0.31,7.261-1.396,14.292-3.159,21.079c6.506,0.741,12.896,1.146,19.124,1.146
			c17.652,0,34.037-3.24,48.153-11.213C447.179,212.835,463.635,174.234,449.992,138.938z"/>
		<path d="M314.943,59.29C309.47,26.757,280.464,0,243.888,0c-1.201,0-2.409,0.029-3.628,0.087
			c-38.197,1.506-66.846,31.456-69.448,65.519c-2.443,21.881,4.713,44.224,17.087,66.155c5.589-4.306,11.67-7.994,18.05-11.084
			c-2.873-11.333-3.947-22.222-2.454-32.253c2.715-22.076,18.482-39.258,38.864-39.968c0.575-0.026,1.151-0.04,1.721-0.04
			c19.574,0,35.929,15.375,40.374,36.449c2.27,9.715,2.184,20.377,0.435,31.622c6.81,2.43,13.224,5.602,19.308,9.34
			C314.349,103.194,319.309,80.598,314.943,59.29z"/>
		<path d="M251.154,183.771c-0.259-0.007-0.516-0.01-0.771-0.01c-15.815,0-28.832,12.612-29.219,28.512
			c-0.432,16.142,12.338,29.567,28.488,29.986c0.254,0.005,0.51,0.01,0.764,0.01c15.8,0,28.83-12.601,29.241-28.498
			C280.076,197.616,267.281,184.186,251.154,183.771z"/>
		<path d="M252.697,123.545c-0.779-0.021-1.565-0.029-2.345-0.029c-48.377,0-88.16,38.578-89.424,87.208
			c-1.27,49.418,37.778,90.504,87.191,91.776c0.781,0.021,1.564,0.029,2.344,0.029c48.363,0,88.162-38.578,89.4-87.209
			C341.149,165.912,302.111,124.809,252.697,123.545z M310.278,214.555c-0.837,32.546-27.486,58.354-59.847,58.354
			c-0.525,0-1.045-0.008-1.572-0.021c-33.066-0.843-59.171-28.334-58.322-61.411c0.826-32.52,27.457-58.34,59.812-58.34
			c0.525,0,1.054,0.008,1.581,0.021C284.999,154.002,311.117,181.495,310.278,214.555z"/>
		<path d="M165.419,270.255c-3.86-5.729-7.179-11.826-9.82-18.286c-22.527,12.52-40.617,28.219-50.031,48.6
			c-15.311,30.522-6.146,70.986,25.786,91.949c12.641,8.457,26.644,12.348,40.313,12.348c20.778,0,40.802-8.982,54.169-24.573
			c15.176-16.538,22.628-39.272,25.39-64.849c-1.047,0.006-2.063,0.092-3.08,0.092c-0.121,0-0.242,0-0.363-0.002
			c-5.958-0.148-11.745-0.909-17.373-2.03c-4.403,11.491-10.079,21.479-17.506,29.146c-9.446,10.139-21.894,15.723-34.04,15.723
			c-7.271,0-14.433-2.004-20.778-6.227c-17.087-11.111-21.762-33.953-12.707-54.295
			C149.443,288.013,156.487,278.834,165.419,270.255z"/>
		<path d="M382.652,381.609c29.881-23.228,35.656-64.781,17.852-93.928c-10.829-19.105-29.683-32.925-52.521-43.312
			c-2.182,6.792-4.998,13.293-8.476,19.383c9.031,7.487,16.312,15.698,21.073,24.804c10.747,19.605,7.787,42.629-8.03,55.127
			c-6.86,5.49-15.088,8.141-23.561,8.141c-10.982,0-22.385-4.449-31.771-12.914c-7.972-6.799-14.437-16.086-19.829-26.987
			c-6.662,1.83-13.606,2.96-20.751,3.378c2.197,11.139,5.259,21.645,9.414,31.219c1.118,2.582,2.312,5.096,3.598,7.534
			c4.729,8.974,10.595,16.944,17.846,23.611c13.239,12.922,31.332,19.944,49.814,19.944
			C353.056,397.607,369.089,392.505,382.652,381.609z"/>
		<path d="M84.103,243.067c11.601,5.28,24.327,7.554,37.764,7.554c10.269,0,20.958-1.327,31.881-3.654
			c-2.295-6.51-3.937-13.306-4.873-20.332c-12.264-0.66-23.504-2.969-33.04-7.736c-20.098-9.515-31.388-29.95-25.971-49.222
			c4.855-17.744,22.348-29.06,42.316-29.06c1.755,0,3.525,0.087,5.309,0.264c10.388,0.807,20.923,4.411,31.509,9.944
			c4.295-5.612,9.143-10.733,14.499-15.343c-18.606-17.105-38.801-29.161-60.765-31.657c-3.288-0.496-6.596-0.741-9.894-0.741
			c-30.673,0-60.768,20.984-69.635,53.651C32.974,192.803,52.456,229.982,84.103,243.067z"/>
	</g>
</g>
<g>
</g>
<g>
</g>
<g>
</g>
<g>
</g>
<g>
</g>
<g>
</g>
<g>
</g>
<g>
</g>
<g>
</g>
<g>
</g>
<g>
</g>
<g>
</g>
<g>
</g>
<g>
</g>
<g>
</g>
</svg>
