<?xml version="1.0" encoding="iso-8859-1"?>
<!-- Generator: Adobe Illustrator 16.0.0, SVG Export Plug-In . SVG Version: 6.00 Build 0)  -->
<!DOCTYPE svg PUBLIC "-//W3C//DTD SVG 1.1//EN" "http://www.w3.org/Graphics/SVG/1.1/DTD/svg11.dtd">
<svg version="1.1" id="Capa_1" xmlns="http://www.w3.org/2000/svg" xmlns:xlink="http://www.w3.org/1999/xlink" x="0px" y="0px"
	 width="493.061px" height="493.062px" viewBox="0 0 493.061 493.062" style="enable-background:new 0 0 493.061 493.062;"
	 xml:space="preserve">
<g>
	<g>
		<path d="M266.201,418.536V290.051c-6.512,0.664-13.095,1.02-19.73,1.047c-6.593-0.029-13.135-0.383-19.609-1.041v128.475
			c6.391-0.614,12.956-0.946,19.67-0.946S259.809,417.919,266.201,418.536z"/>
		<path d="M431.866,91.801c0-33.379-8.784-64.706-24.163-91.798l-80.743,44.585L246.531,0l-80.429,44.585L85.359,0
			C69.98,27.092,61.196,58.419,61.196,91.798c0,95.892,72.496,174.823,165.665,185.051c6.464,0.711,13.024,1.104,19.67,1.136
			c6.646-0.03,13.205-0.425,19.67-1.136C359.37,266.623,431.866,187.692,431.866,91.801z"/>
		<path d="M212.772,368.432c3.433-18.896-2.14-39.108-16.75-53.717c-14.608-14.607-34.821-20.184-53.717-16.752
			c-3.433,18.897,2.14,39.11,16.751,53.717C173.666,366.29,193.876,371.865,212.772,368.432z"/>
		<path d="M334.006,351.684c14.607-14.607,20.185-34.82,16.751-53.717c-18.896-3.434-39.108,2.141-53.717,16.75
			s-20.184,34.82-16.751,53.719C299.184,371.865,319.398,366.292,334.006,351.684z"/>
		<path d="M266.201,431.735c-6.384-0.67-12.95-1.037-19.67-1.037c-6.72,0-13.286,0.367-19.67,1.037
			c-50.717,5.309-89.17,30.736-89.17,61.326h217.68C355.371,462.472,316.917,437.044,266.201,431.735z"/>
	</g>
</g>
<g>
</g>
<g>
</g>
<g>
</g>
<g>
</g>
<g>
</g>
<g>
</g>
<g>
</g>
<g>
</g>
<g>
</g>
<g>
</g>
<g>
</g>
<g>
</g>
<g>
</g>
<g>
</g>
<g>
</g>
</svg>
