<?xml version="1.0" encoding="iso-8859-1"?>
<!-- Generator: Adobe Illustrator 16.0.0, SVG Export Plug-In . SVG Version: 6.00 Build 0)  -->
<!DOCTYPE svg PUBLIC "-//W3C//DTD SVG 1.1//EN" "http://www.w3.org/Graphics/SVG/1.1/DTD/svg11.dtd">
<svg version="1.1" id="Capa_1" xmlns="http://www.w3.org/2000/svg" xmlns:xlink="http://www.w3.org/1999/xlink" x="0px" y="0px"
	 width="488.552px" height="488.553px" viewBox="0 0 488.552 488.553" style="enable-background:new 0 0 488.552 488.553;"
	 xml:space="preserve">
<g>
	<g>
		<path d="M86.014,57.272c-7.131,19.836-15.129,39.773-17.633,60.858c-2.351,19.814,2.257,34.224,11.959,51.197
			c9.805,17.154,27.066,42.364,47.757,53.675v265.549h46.188V222.727c20.464-11.445,37.522-36.389,47.247-53.4
			c9.703-16.973,14.308-31.382,11.958-51.197c-2.503-21.084-10.501-41.022-17.632-60.858c-5.613-15.614-16.803-54.413-37.465-56.82
			l12.315,113.987h-15.395L162.999,0h-12.06h-12.061l-12.321,114.439h-15.395L123.479,0.452
			C102.817,2.859,91.627,41.658,86.014,57.272z"/>
		<path d="M311.189,136.764c0,121.937,50.479,135.206,63.399,136.605v215.184h46.188V0h-46.188C374.589,0,311.189,0,311.189,136.764
			z"/>
	</g>
</g>
<g>
</g>
<g>
</g>
<g>
</g>
<g>
</g>
<g>
</g>
<g>
</g>
<g>
</g>
<g>
</g>
<g>
</g>
<g>
</g>
<g>
</g>
<g>
</g>
<g>
</g>
<g>
</g>
<g>
</g>
</svg>
