<?xml version="1.0" encoding="iso-8859-1"?>
<!-- Generator: Adobe Illustrator 16.0.0, SVG Export Plug-In . SVG Version: 6.00 Build 0)  -->
<!DOCTYPE svg PUBLIC "-//W3C//DTD SVG 1.1//EN" "http://www.w3.org/Graphics/SVG/1.1/DTD/svg11.dtd">
<svg version="1.1" id="Capa_1" xmlns="http://www.w3.org/2000/svg" xmlns:xlink="http://www.w3.org/1999/xlink" x="0px" y="0px"
	 width="489.467px" height="489.467px" viewBox="0 0 489.467 489.467" style="enable-background:new 0 0 489.467 489.467;"
	 xml:space="preserve">
<g>
	<g>
		<path d="M61.84,66.876c-7.192,19.436-15.261,38.972-17.783,59.632c-2.373,19.415,2.276,33.534,12.061,50.165
			c9.807,16.671,27.009,41.113,47.651,52.325v260.469h46.583V229.269c20.87-11.083,38.278-35.785,48.166-52.594
			c9.786-16.631,14.431-30.75,12.062-50.165c-2.525-20.66-10.591-40.196-17.783-59.631c-5.662-15.3-16.947-53.317-37.786-55.675
			l12.421,111.689h-15.527L139.479,10.757h-12.163h-12.164l-12.421,112.134H87.204l12.421-111.69
			C78.787,13.559,67.504,51.576,61.84,66.876z"/>
		<path d="M378.723,489.467V233.169c38.729-11.978,67.298-53.427,67.298-102.734C446.021,71.766,405.579,0,355.691,0
			s-90.327,71.766-90.327,130.435c0,49.083,28.314,90.374,66.778,102.559v256.473H378.723L378.723,489.467z"/>
	</g>
</g>
<g>
</g>
<g>
</g>
<g>
</g>
<g>
</g>
<g>
</g>
<g>
</g>
<g>
</g>
<g>
</g>
<g>
</g>
<g>
</g>
<g>
</g>
<g>
</g>
<g>
</g>
<g>
</g>
<g>
</g>
</svg>
