<?xml version="1.0" encoding="iso-8859-1"?>
<!-- Generator: Adobe Illustrator 16.0.0, SVG Export Plug-In . SVG Version: 6.00 Build 0)  -->
<!DOCTYPE svg PUBLIC "-//W3C//DTD SVG 1.1//EN" "http://www.w3.org/Graphics/SVG/1.1/DTD/svg11.dtd">
<svg version="1.1" id="Capa_1" xmlns="http://www.w3.org/2000/svg" xmlns:xlink="http://www.w3.org/1999/xlink" x="0px" y="0px"
	 width="487px" height="487px" viewBox="0 0 487 487" style="enable-background:new 0 0 487 487;" xml:space="preserve">
<g>
	<g>
		<path d="M487,372.993v-2.91V116.917v-2.91h-2.91H49.816h-2.91v2.91v60.624H2.91H0v2.91v126.097v2.91h2.91h43.993v60.623v2.91h2.91
			h434.274H487V372.993L487,372.993z M461.436,138.741v209.518h-77.6V138.741H461.436L461.436,138.741z M358.615,138.741v209.518
			h-77.6V138.741H358.615L358.615,138.741z M255.797,138.741v209.518h-77.599V138.741H255.797L255.797,138.741z M152.98,138.741
			v209.518H75.379V138.741H152.98L152.98,138.741z"/>
	</g>
</g>
<g>
</g>
<g>
</g>
<g>
</g>
<g>
</g>
<g>
</g>
<g>
</g>
<g>
</g>
<g>
</g>
<g>
</g>
<g>
</g>
<g>
</g>
<g>
</g>
<g>
</g>
<g>
</g>
<g>
</g>
</svg>
