<?xml version="1.0" encoding="iso-8859-1"?>
<!-- Generator: Adobe Illustrator 16.0.0, SVG Export Plug-In . SVG Version: 6.00 Build 0)  -->
<!DOCTYPE svg PUBLIC "-//W3C//DTD SVG 1.1//EN" "http://www.w3.org/Graphics/SVG/1.1/DTD/svg11.dtd">
<svg version="1.1" id="Capa_1" xmlns="http://www.w3.org/2000/svg" xmlns:xlink="http://www.w3.org/1999/xlink" x="0px" y="0px"
	 width="496.363px" height="496.364px" viewBox="0 0 496.363 496.364" style="enable-background:new 0 0 496.363 496.364;"
	 xml:space="preserve">
<g>
	<g>
		<path d="M268.037,74.818c0-27.492-39.711-27.492-39.711,0v45.82h39.711V74.818z"/>
		<path d="M444.233,7.942c-14.21-9.454-35.642-8.672-51.729-6.685c-20.618,2.548-40.073,9.693-57.437,21.126
			c-33.365,21.97-53.048,59.09-56.641,98.254h113.088c9.311-5.016,18.275-10.799,26.795-17.39
			C446.109,81.73,487.079,36.443,444.233,7.942z M411.494,54.507c-8.366,9.259-17.979,17.112-28.358,23.982
			c-17.914,11.855-38.358,19.623-59.526,22.928c13.268-38.544,51.654-63.179,94.338-59.976c0.781,0.059,2.58,0.801,3.899,1.21
			C419.054,44.812,412.942,52.903,411.494,54.507z"/>
		<path d="M101.794,120.638h113.088c-3.593-39.164-23.277-76.284-56.64-98.254C140.88,10.95,121.422,3.805,100.806,1.257
			C84.72-0.731,63.288-1.512,49.078,7.942C6.232,36.441,47.203,81.731,75,103.248C83.519,109.839,92.481,115.622,101.794,120.638z
			 M71.466,42.652c1.32-0.409,3.118-1.151,3.901-1.21c42.683-3.203,81.068,21.432,94.337,59.976
			c-21.169-3.306-41.617-11.07-59.526-22.928c-10.377-6.871-19.99-14.724-28.359-23.982C80.367,52.903,74.253,44.812,71.466,42.652z
			"/>
		<polygon points="301.639,135.911 301.639,145.716 301.639,325.302 249.709,282.537 197.78,325.302 197.78,146.053 197.78,135.911 
			138.912,135.911 20.607,135.911 20.607,496.364 475.756,496.364 475.756,135.911 354.396,135.911 		"/>
	</g>
</g>
<g>
</g>
<g>
</g>
<g>
</g>
<g>
</g>
<g>
</g>
<g>
</g>
<g>
</g>
<g>
</g>
<g>
</g>
<g>
</g>
<g>
</g>
<g>
</g>
<g>
</g>
<g>
</g>
<g>
</g>
</svg>
