<?xml version="1.0" encoding="iso-8859-1"?>
<!-- Generator: Adobe Illustrator 16.0.0, SVG Export Plug-In . SVG Version: 6.00 Build 0)  -->
<!DOCTYPE svg PUBLIC "-//W3C//DTD SVG 1.1//EN" "http://www.w3.org/Graphics/SVG/1.1/DTD/svg11.dtd">
<svg version="1.1" id="Capa_1" xmlns="http://www.w3.org/2000/svg" xmlns:xlink="http://www.w3.org/1999/xlink" x="0px" y="0px"
	 width="490.643px" height="490.642px" viewBox="0 0 490.643 490.642" style="enable-background:new 0 0 490.643 490.642;"
	 xml:space="preserve">
<g>
	<g>
		<rect x="68.092" y="260.954" width="357.293" height="229.688"/>
		<path d="M213.236,133.348h67.009c17.52-5.578,33.498-15.381,46.747-29.071C345.5,85.15,365.67,45.587,352.66,19.014
			c-5.702-11.646-20.298-22.989-34.17-17.661c-15.557,5.975-25.748,18.712-36.185,31.243c-13.944,16.75-25.685,34.964-35.566,54.198
			c-9.882-19.234-21.622-37.448-35.568-54.198c-10.433-12.531-20.624-25.269-36.183-31.243c-13.875-5.328-28.47,6.015-34.169,17.661
			c-13.01,26.573,7.16,66.136,25.668,85.263C179.738,117.967,195.714,127.771,213.236,133.348z M287.331,73.133
			c5.518-8.459,11.666-16.453,18.124-24.208c3.097-3.72,6.379-7.282,9.658-10.84c3.811-4.134,11.725-14.408,12.748-2.518
			c1.6,18.596-11.665,39.089-23.891,51.723c-9.905,10.236-22.6,16.88-36.175,20.323C273.534,95.729,280.078,84.26,287.331,73.133z
			 M165.613,35.569c1.021-11.89,8.938-1.619,12.749,2.518c3.281,3.559,6.562,7.12,9.659,10.84
			c6.457,7.756,12.607,15.75,18.123,24.208c7.254,11.125,13.798,22.594,19.535,34.479c-13.575-3.442-26.27-10.086-36.175-20.323
			C177.282,74.658,164.017,54.162,165.613,35.569z"/>
		<polygon points="448.071,147.527 42.571,147.527 42.571,246.775 68.092,246.775 425.386,246.775 448.071,246.775 		"/>
	</g>
</g>
<g>
</g>
<g>
</g>
<g>
</g>
<g>
</g>
<g>
</g>
<g>
</g>
<g>
</g>
<g>
</g>
<g>
</g>
<g>
</g>
<g>
</g>
<g>
</g>
<g>
</g>
<g>
</g>
<g>
</g>
</svg>
