<?xml version="1.0" encoding="iso-8859-1"?>
<!-- Generator: Adobe Illustrator 16.0.0, SVG Export Plug-In . SVG Version: 6.00 Build 0)  -->
<!DOCTYPE svg PUBLIC "-//W3C//DTD SVG 1.1//EN" "http://www.w3.org/Graphics/SVG/1.1/DTD/svg11.dtd">
<svg version="1.1" id="Capa_1" xmlns="http://www.w3.org/2000/svg" xmlns:xlink="http://www.w3.org/1999/xlink" x="0px" y="0px"
	 width="488.373px" height="488.373px" viewBox="0 0 488.373 488.373" style="enable-background:new 0 0 488.373 488.373;"
	 xml:space="preserve">
<g>
	<g>
		<polygon points="467.939,242.332 377.537,242.332 449.172,364.711 378.094,355.499 351.416,421.929 248.38,262.593 
			145.346,421.929 118.672,355.499 47.592,364.711 119.225,242.332 20.44,242.332 20.44,484.954 467.939,484.954 		"/>
		<path d="M0,226.613h4.719h7.859h7.859h447.5h7.859h7.857h4.719V101.821H372.379c6.01-2.43,11.955-5.03,17.814-7.851
			c28.051-13.502,86.719-41.858,53.898-79.608c-7.318-8.416-18.477-10.943-29.93-10.943c-9.549,0-19.305,1.755-27.215,3.313
			c-18.156,3.578-35.855,9.23-52.57,17.237c-35.197,16.866-64.6,42.003-87.277,73.698c-0.515,0.724-0.934,1.443-1.301,2.16
			c-0.367-0.717-0.785-1.437-1.301-2.16c-22.677-31.691-52.076-56.832-87.273-73.695c-16.711-8.006-34.41-13.659-52.571-17.236
			c-7.91-1.56-17.668-3.313-27.215-3.313c-11.456,0-22.61,2.523-29.929,10.942C14.69,52.112,73.358,80.468,101.409,93.97
			c5.856,2.821,11.804,5.42,17.815,7.851H0V226.613z M337.502,57.08c20.107-10.768,47.559-22.83,71.691-22.83
			c2.152,0,4.279,0.097,6.373,0.298c15.369,1.478-3.867,11.988-8.514,14.86c-6.004,3.716-12.049,7.379-18.307,10.664
			c-12.896,6.771-26.096,12.905-39.906,17.595c-18.535,6.297-37.312,10.852-56.445,13.584
			C305.619,77.677,320.822,66.011,337.502,57.08z M102.855,60.073c-6.256-3.285-12.301-6.948-18.306-10.664
			c-4.646-2.873-23.879-13.383-8.513-14.86c2.09-0.201,4.222-0.295,6.372-0.298c24.138,0,51.585,12.063,71.693,22.83
			c16.68,8.931,31.883,20.597,45.1,34.172c-19.133-2.732-37.907-7.287-56.445-13.584C128.952,72.978,115.75,66.844,102.855,60.073z"
			/>
	</g>
</g>
<g>
</g>
<g>
</g>
<g>
</g>
<g>
</g>
<g>
</g>
<g>
</g>
<g>
</g>
<g>
</g>
<g>
</g>
<g>
</g>
<g>
</g>
<g>
</g>
<g>
</g>
<g>
</g>
<g>
</g>
</svg>
