<?xml version="1.0" encoding="iso-8859-1"?>
<!-- Generator: Adobe Illustrator 16.0.0, SVG Export Plug-In . SVG Version: 6.00 Build 0)  -->
<!DOCTYPE svg PUBLIC "-//W3C//DTD SVG 1.1//EN" "http://www.w3.org/Graphics/SVG/1.1/DTD/svg11.dtd">
<svg version="1.1" id="Capa_1" xmlns="http://www.w3.org/2000/svg" xmlns:xlink="http://www.w3.org/1999/xlink" x="0px" y="0px"
	 width="487px" height="487px" viewBox="0 0 487 487" style="enable-background:new 0 0 487 487;" xml:space="preserve">
<g>
	<g>
		<path d="M403.491,25.125c-13.899-9.248-34.861-8.481-50.598-6.536c-20.167,2.493-39.196,9.481-56.181,20.665
			c-26.654,17.548-44.357,44.996-51.883,75.333c-7.526-30.337-25.229-57.785-51.883-75.336
			c-16.983-11.183-36.014-18.171-56.181-20.664c-15.733-1.945-36.698-2.712-50.597,6.536c-41.906,27.878-1.836,72.174,25.356,93.219
			c10.895,8.431,22.522,15.523,34.702,21.311h94.751h7.706h94.751c12.181-5.788,23.808-12.88,34.701-21.311
			C405.328,97.3,445.397,53.001,403.491,25.125z M145.932,94.13c-10.149-6.719-19.554-14.402-27.737-23.458
			c-1.416-1.567-7.396-9.481-10.124-11.594c1.291-0.402,3.05-1.126,3.813-1.185c41.749-3.135,79.296,20.962,92.272,58.664
			C183.45,113.323,163.451,105.725,145.932,94.13z M371.467,70.671c-8.184,9.057-17.588,16.739-27.738,23.458
			c-17.519,11.598-37.52,19.196-58.225,22.426c12.977-37.702,50.523-61.798,92.272-58.664c0.764,0.059,2.524,0.782,3.812,1.185
			C378.861,61.19,372.882,69.104,371.467,70.671z"/>
		<rect x="287.41" y="349.891" width="199.59" height="119.753"/>
		<polygon points="487,152.961 305.564,152.961 287.41,152.961 287.41,156.384 287.41,272.715 487,272.715 		"/>
		<polygon points="0,272.715 199.59,272.715 199.59,155.977 199.59,152.961 184.097,152.961 0,152.961 		"/>
		<rect y="349.891" width="199.59" height="119.753"/>
	</g>
</g>
<g>
</g>
<g>
</g>
<g>
</g>
<g>
</g>
<g>
</g>
<g>
</g>
<g>
</g>
<g>
</g>
<g>
</g>
<g>
</g>
<g>
</g>
<g>
</g>
<g>
</g>
<g>
</g>
<g>
</g>
</svg>
