<?xml version="1.0" encoding="iso-8859-1"?>
<!-- Generator: Adobe Illustrator 16.0.0, SVG Export Plug-In . SVG Version: 6.00 Build 0)  -->
<!DOCTYPE svg PUBLIC "-//W3C//DTD SVG 1.1//EN" "http://www.w3.org/Graphics/SVG/1.1/DTD/svg11.dtd">
<svg version="1.1" id="Capa_1" xmlns="http://www.w3.org/2000/svg" xmlns:xlink="http://www.w3.org/1999/xlink" x="0px" y="0px"
	 width="489.561px" height="489.561px" viewBox="0 0 489.561 489.561" style="enable-background:new 0 0 489.561 489.561;"
	 xml:space="preserve">
<g>
	<g>
		<polygon points="451.971,259.459 303.054,259.459 303.054,387.268 247.764,349.611 192.366,387.268 192.366,259.459 
			37.592,259.459 37.592,489.561 451.971,489.561 		"/>
		<path d="M18.664,244.518h18.925h414.381h18.926v-153.4H363.483c5.563-2.25,11.072-4.656,16.496-7.268
			c0.135-0.065,0.284-0.137,0.422-0.203c4.389-2.113,9.55-4.614,14.962-7.471c26.809-14.146,59.678-37.112,34.524-66.042
			c-12.426-14.29-36.802-10.238-52.915-7.064c-16.814,3.314-33.203,8.547-48.68,15.961c-28.367,13.594-52.664,32.994-72.332,57.143
			c-1.988,2.438-3.914,4.937-5.808,7.471c-0.899,1.204-1.802,2.402-2.679,3.627c-0.478,0.67-0.861,1.336-1.207,2
			c-0.34-0.664-0.725-1.33-1.207-2c-0.875-1.225-1.782-2.423-2.678-3.627c-1.891-2.534-3.819-5.032-5.806-7.471
			c-19.669-24.152-43.964-43.552-72.333-57.143c-15.477-7.417-31.864-12.647-48.68-15.961C99.451-0.107,75.075-4.16,62.65,10.133
			c-25.153,28.933,7.718,51.896,34.524,66.042c5.412,2.857,10.572,5.358,14.962,7.471c0.137,0.066,0.284,0.138,0.421,0.203
			c5.423,2.612,10.931,5.018,16.496,7.268H18.664V244.518z M331.187,49.688c20.277-10.86,48.625-23.142,72.287-20.865
			c14.229,1.369-3.58,11.099-7.881,13.761c-5.562,3.439-11.157,6.835-16.949,9.874c-11.941,6.269-24.164,11.95-36.95,16.295
			c-8.451,2.872-16.959,5.343-25.533,7.423c-8.836,2.143-17.74,3.874-26.732,5.155c1.709-1.757,3.467-3.469,5.248-5.155
			C305.636,65.8,317.899,56.802,331.187,49.688z M150.858,68.753c-12.787-4.345-25.008-10.022-36.95-16.295
			c-5.791-3.042-11.388-6.434-16.949-9.874c-4.3-2.66-22.114-12.392-7.881-13.761c23.662-2.277,52.009,10.005,72.288,20.865
			c13.286,7.115,25.554,16.113,36.515,26.488c1.781,1.686,3.536,3.398,5.247,5.155c-8.992-1.285-17.896-3.012-26.733-5.155
			C167.82,74.095,159.313,71.624,150.858,68.753z"/>
	</g>
</g>
<g>
</g>
<g>
</g>
<g>
</g>
<g>
</g>
<g>
</g>
<g>
</g>
<g>
</g>
<g>
</g>
<g>
</g>
<g>
</g>
<g>
</g>
<g>
</g>
<g>
</g>
<g>
</g>
<g>
</g>
</svg>
