<?xml version="1.0" encoding="iso-8859-1"?>
<!-- Generator: Adobe Illustrator 16.0.0, SVG Export Plug-In . SVG Version: 6.00 Build 0)  -->
<!DOCTYPE svg PUBLIC "-//W3C//DTD SVG 1.1//EN" "http://www.w3.org/Graphics/SVG/1.1/DTD/svg11.dtd">
<svg version="1.1" id="Capa_1" xmlns="http://www.w3.org/2000/svg" xmlns:xlink="http://www.w3.org/1999/xlink" x="0px" y="0px"
	 width="489px" height="489px" viewBox="0 0 489 489" style="enable-background:new 0 0 489 489;" xml:space="preserve">
<g>
	<g>
		<path d="M489,378V12H0v366h27V308.22c0-15.816,6.069-30.699,18-43.171V57h399v206.198c13.113,12.837,21,28.411,21,45.021v69.78
			L489,378L489,378z"/>
		<path d="M168,477V249h-37.626c-40.635,0-74.866,17.434-85.375,42.805c-2.163,5.223-3,10.726-3,16.418V378v38.29
			c0,33.351,39.375,60.71,88.375,60.71H168z"/>
		<path d="M450,378V308.22c0-7.164-2.637-14.029-6-20.404C431.706,264.503,398.961,249,360.483,249H324v228h36.483
			c48.999,0,89.517-27.359,89.517-60.71V378z"/>
	</g>
</g>
<g>
</g>
<g>
</g>
<g>
</g>
<g>
</g>
<g>
</g>
<g>
</g>
<g>
</g>
<g>
</g>
<g>
</g>
<g>
</g>
<g>
</g>
<g>
</g>
<g>
</g>
<g>
</g>
<g>
</g>
</svg>
