<?xml version="1.0" encoding="iso-8859-1"?>
<!-- Generator: Adobe Illustrator 16.0.0, SVG Export Plug-In . SVG Version: 6.00 Build 0)  -->
<!DOCTYPE svg PUBLIC "-//W3C//DTD SVG 1.1//EN" "http://www.w3.org/Graphics/SVG/1.1/DTD/svg11.dtd">
<svg version="1.1" id="Capa_1" xmlns="http://www.w3.org/2000/svg" xmlns:xlink="http://www.w3.org/1999/xlink" x="0px" y="0px"
	 width="491.082px" height="491.081px" viewBox="0 0 491.082 491.081" style="enable-background:new 0 0 491.082 491.081;"
	 xml:space="preserve">
<g>
	<g>
		<path d="M34.215,446.537c3.521,14.174,17.723,17.368,30.993,21.687c18.613,6.065,37.858,10.272,57.147,13.69
			c43.942,7.774,89.378,11.23,133.979,7.904c20.858-1.56,39.557-5.964,54.751-21.177c11.805-11.842,11.127-38.328,12.252-53.638
			c3.139-43.041-1.098-84.332,11.294-126.214c4.617-15.632,9.624-46.428,25.235-54.771c11.303-6.035,14.914-5.72,18.594,6.226
			c2.925,9.621,4.691,19.653,6.354,29.573c7.561,45.648,16.939,204.501,16.939,209.218c0,3.957,16.043,0.632,18.215-0.454
			c7.95-4.039,2.786-32.322,2.786-39.789c0-23.175,0.399-46.302,1.396-69.437c1.922-45.891,6.192-91.812,13.021-137.264
			c3.549-23.535,7.878-46.922,13.17-70.117c2.5-10.829,5.082-21.66,7.672-32.498c3.888-16.28,1.921-37.913,1.921-37.913
			c-1.773-8.519-5.797-16.467-10.651-23.628c-13.396-19.728-30.157-36.966-48.465-52.152c-5.6-4.651-11.276-9.555-17.32-13.623
			c-9.653-3.827-7.663-3.175-13.718,6.919c-21.661,36.073-48.317,69.073-67.69,106.496c-20.796,40.149-34.692,84.137-57.399,123.249
			c-11.396,19.614-24.753,30.547-47.052,35.265c-9.625,2.062-18.622,5.093-26.973,10.409c-7.952,5.043-13.746,12.66-21.996,17.23
			c-34.225,18.871-84.092,8.47-112,40.756c-10.988,12.713-3.708,32.616-2.991,47.86C34.561,407.946,29.955,429.568,34.215,446.537z"
			/>
	</g>
</g>
<g>
</g>
<g>
</g>
<g>
</g>
<g>
</g>
<g>
</g>
<g>
</g>
<g>
</g>
<g>
</g>
<g>
</g>
<g>
</g>
<g>
</g>
<g>
</g>
<g>
</g>
<g>
</g>
<g>
</g>
</svg>
