<?xml version="1.0" encoding="iso-8859-1"?>
<!-- Generator: Adobe Illustrator 16.0.0, SVG Export Plug-In . SVG Version: 6.00 Build 0)  -->
<!DOCTYPE svg PUBLIC "-//W3C//DTD SVG 1.1//EN" "http://www.w3.org/Graphics/SVG/1.1/DTD/svg11.dtd">
<svg version="1.1" id="Capa_1" xmlns="http://www.w3.org/2000/svg" xmlns:xlink="http://www.w3.org/1999/xlink" x="0px" y="0px"
	 width="499.177px" height="499.177px" viewBox="0 0 499.177 499.177" style="enable-background:new 0 0 499.177 499.177;"
	 xml:space="preserve">
<g>
	<g>
		<path d="M427.626,139.452c0.764,22.618-18.059,40.975-40.238,42.217c4.016,10.011,6.283,20.833,6.057,31.64
			c-0.049,2.277-4.973,25.176-5.416,24.929c1.639,0.891,66.559-90.967,75.883-82.728c1.023,0.904-25.578,33.658-27.197,35.778
			c-7.09,9.305-14.098,18.675-20.834,28.238c-3.113,4.42-6.17,8.879-9.041,13.456c-0.566,0.904-4.754,10.024-2.607,7.64
			c15.84-17.889,39.777-17.172,60.127-8.105c-9.438-20.665,2.271-45.359,24.25-51.232c-16.764-12.118-9.963-37.974,1.582-50.874
			C470.16,142.48,450.244,148.595,427.626,139.452z"/>
		<path d="M378.654,342.377c2.729-3.464,12.916-7.887,14.027-11.24c1.412-4.26-31.674,6.051-34.852,7.607
			c-14.34,7.044-26.885,17.334-37.625,29.098c-10.275,11.254-19.002,23.889-26.496,37.148c-2.338,4.131-17.459,28.479-16.736,30.846
			c-2.831-9.201,8.895-31.073,12.431-39.721c4.938-12.094,10.835-23.856,18.146-34.698c6.533-9.683,14.232-18.626,23.271-26.056
			c2.631-2.154,29.74-18.973,30.209-18.117c-0.682-0.314-1.359-0.639-2.039-0.952c-13.312,1.188-27.002-10.986-33.562-21.394
			c-4.959,19.25-37.139,36.267-53.409,20.147c5.901,31.231-9.657,61.224-42.428,66.84c43.949,13.56,15.775,86.887,34.947,117.291
			c7.021-38.451,44.463-72.302,85.506-61.245c-10.898-28.692,6.24-45.093,34.084-49.947c-8.338-8.244-13.709-19.737-11.693-31.615
			C373.291,351.268,375.47,346.441,378.654,342.377z"/>
		<path d="M131.133,202.3c41.62-19.607,72.562,7.839,88.697,53.618c10.362-14.247,26.723-23.756,45.954-21.079
			c8.253,1.14,16.483,4.48,23.826,9.525c6.265,4.321,16.315,20.927,21.907,22.582c7.102,2.103-19.186-52.053-22.6-57.224
			c-15.429-23.33-35.395-43.507-57.114-60.626c-20.784-16.373-43.25-30.111-66.318-41.775c-7.188-3.635-49.968-27.308-53.454-25.978
			c13.55-5.191,51.409,12.996,66.039,18.368c20.463,7.505,40.697,16.605,59.922,28.101c17.173,10.269,33.541,22.511,47.949,37.052
			c4.187,4.233,38.839,48.143,37.642,48.962c0.283-1.142,0.586-2.282,0.871-3.425c-5.945-21.949,8.941-45.259,23.236-56.685
			c-31.68-7.139-68.198-59.427-47.928-87.228C252.632,77.97,200.88,53.889,182.045,0C174.263,73.431,50.747,30.876,8.986,64.257
			C71.376,73.752,135.882,133.81,131.133,202.3z"/>
		<path d="M166.575,291.035c3.889,0,7.798,0.441,11.621,1.305c2.667,0.604,5.23,1.46,7.729,2.447
			c7.217-8.117,17.309-13.422,28.566-14.602c-3.532-9.154-11.408-16.438-21.694-18.771c-2.265-0.515-4.531-0.761-6.759-0.761
			c-13.912,0-26.474,9.594-29.678,23.735c-0.596,2.63-0.794,5.247-0.703,7.818C159.186,291.47,162.83,291.035,166.575,291.035
			L166.575,291.035z"/>
		<path d="M219.29,355.018c13.912,0,26.475-9.593,29.678-23.734c3.372-14.877-4.793-29.643-18.576-35.047
			c-1.414-0.557-2.872-1.043-4.4-1.389c-0.856-0.193-1.712-0.314-2.566-0.435c-1.405-0.195-2.806-0.325-4.193-0.325
			c-0.972,0-1.936,0.061-2.892,0.15c-6.626,0.638-12.797,3.438-17.617,7.834c3.604,2.8,6.861,6.054,9.663,9.761
			c0.898,1.192,1.774,2.405,2.579,3.682c0.508,0.804,0.934,1.642,1.392,2.468c1.216,2.174,2.322,4.395,3.207,6.686
			c3.703,9.576,4.502,20.027,2.208,30.267C218.278,354.96,218.786,355.018,219.29,355.018z"/>
		<path d="M146.179,311.162c-8.267,5.226-14.555,13.574-16.885,23.865c-4.67,20.607,8.25,41.101,28.861,45.77
			c2.846,0.646,5.689,0.957,8.491,0.957c13.069,0,25.187-6.744,32.153-17.573c1.267-1.969,2.353-4.082,3.251-6.304
			c0.769-1.9,1.409-3.874,1.877-5.938c0.073-0.324,0.104-0.646,0.169-0.969c1.279-6.396,0.888-12.751-0.898-18.607
			c-0.694-2.273-1.585-4.471-2.679-6.562c-1.123-2.152-2.447-4.193-3.956-6.096c-1.701-2.146-3.648-4.098-5.789-5.848
			c-1.866-1.523-3.884-2.879-6.048-4.043c-2.058-1.104-4.229-2.043-6.523-2.769c-1.029-0.328-2.064-0.636-3.136-0.879
			c-2.846-0.647-5.689-0.957-8.491-0.957c-2.41,0-4.782,0.252-7.102,0.694c-2.397,0.457-4.729,1.151-6.972,2.045
			C150.293,308.824,148.178,309.898,146.179,311.162z"/>
		<path d="M407.804,416.698c-1.1,11.715-2.834,21.32-4.164,27.875c-0.688,3.263-1.277,5.792-1.703,7.403
			c-0.217,0.868-0.363,1.353-0.457,1.661c-0.119,0.43-0.182,0.647-0.182,0.647l41.77,7.988c0,0,0.031-0.293,0.098-0.854
			c0.082-0.678,0.195-1.667,0.283-2.724c0.211-2.23,0.422-5.362,0.609-9.318c0.32-7.896,0.504-19.021-0.369-32.249
			c-0.398-6.616-1.104-13.755-2.072-21.259c-1.029-7.503-2.301-15.374-4.086-23.431c-1.654-8.063-3.969-16.291-6.486-24.539
			c-2.721-8.211-5.676-16.463-9.32-24.438l-2.711-5.967l-2.975-5.832c-1.885-3.909-4.211-7.603-6.318-11.318
			c-2.162-3.696-4.637-7.181-6.893-10.692c-2.459-3.4-4.941-6.709-7.391-9.931c-2.639-3.092-5.158-6.166-7.738-9.065
			c-2.695-2.785-5.336-5.512-7.9-8.166c-2.723-2.469-5.369-4.872-7.934-7.198c-2.619-2.241-5.299-4.237-7.773-6.231
			c-2.441-2.041-5.021-3.688-7.398-5.333c-2.418-1.596-4.586-3.254-6.822-4.536c-4.467-2.557-8.215-4.958-11.502-6.595
			c-6.547-3.251-10.291-5.111-10.291-5.111s3.385,2.418,9.312,6.654c2.949,2.11,6.252,5.063,10.152,8.211
			c1.951,1.576,3.805,3.532,5.869,5.429c2.025,1.947,4.229,3.895,6.246,6.23c2.055,2.283,4.275,4.562,6.406,7.074
			c2.051,2.566,4.17,5.219,6.352,7.945c1.986,2.849,4.031,5.773,6.117,8.767c1.955,3.071,3.822,6.288,5.777,9.487
			c1.77,3.332,3.547,6.713,5.281,10.146c1.537,3.556,3.271,7.028,4.682,10.693c1.363,3.692,2.92,7.294,4.045,11.108l1.824,5.646
			l1.562,5.743c2.111,7.631,3.549,15.44,4.797,23.103c1.047,7.719,1.932,15.301,2.24,22.702c0.436,7.374,0.428,14.532,0.271,21.288
			C408.783,404.47,408.392,410.845,407.804,416.698z"/>
	</g>
</g>
<g>
</g>
<g>
</g>
<g>
</g>
<g>
</g>
<g>
</g>
<g>
</g>
<g>
</g>
<g>
</g>
<g>
</g>
<g>
</g>
<g>
</g>
<g>
</g>
<g>
</g>
<g>
</g>
<g>
</g>
</svg>
