<?xml version="1.0" encoding="iso-8859-1"?>
<!-- Generator: Adobe Illustrator 16.0.0, SVG Export Plug-In . SVG Version: 6.00 Build 0)  -->
<!DOCTYPE svg PUBLIC "-//W3C//DTD SVG 1.1//EN" "http://www.w3.org/Graphics/SVG/1.1/DTD/svg11.dtd">
<svg version="1.1" id="Capa_1" xmlns="http://www.w3.org/2000/svg" xmlns:xlink="http://www.w3.org/1999/xlink" x="0px" y="0px"
	 width="490.068px" height="490.068px" viewBox="0 0 490.068 490.068" style="enable-background:new 0 0 490.068 490.068;"
	 xml:space="preserve">
<g>
	<g>
		<path d="M245.035,0.002C109.922,0.002,0,109.923,0,245.034c0,135.11,109.922,245.032,245.033,245.032
			c135.111,0,245.035-109.922,245.035-245.032C490.068,109.923,380.146,0.002,245.035,0.002z M330.31,432.776
			c3.816-6.087,7.463-12.612,10.914-19.599c7.812-15.817,14.368-33.436,19.631-52.326c18.887-5.262,36.505-11.814,52.322-19.627
			c6.985-3.449,13.512-7.1,19.599-10.914C412.123,375.592,375.591,412.124,330.31,432.776z M57.293,330.311
			c6.086,3.817,12.612,7.465,19.597,10.914c15.817,7.812,33.438,14.369,52.324,19.627c5.262,18.892,11.816,36.509,19.631,52.326
			c3.451,6.985,7.099,13.512,10.914,19.599C114.477,412.124,77.942,375.59,57.293,330.311z M159.759,57.295
			c-3.817,6.086-7.463,12.611-10.914,19.597c-7.813,15.819-14.369,33.437-19.631,52.326c-18.886,5.262-36.504,11.816-52.324,19.628
			c-6.985,3.45-13.51,7.099-19.597,10.914C77.942,114.479,114.477,77.944,159.759,57.295z M446.211,225.651h-70.758
			c-0.724-18.003-2.45-35.618-5.132-52.589C407.622,186.249,435.336,204.854,446.211,225.651z M370.321,317.008
			c2.682-16.973,4.406-34.584,5.132-52.591h70.758C435.336,285.213,407.622,303.818,370.321,317.008z M43.857,264.417h70.758
			c0.724,18.003,2.45,35.618,5.132,52.591C82.447,303.818,54.729,285.213,43.857,264.417z M119.747,173.062
			c-2.683,16.971-4.407,34.584-5.132,52.589H43.857C54.729,204.854,82.447,186.249,119.747,173.062z M336.651,225.651h-72.233
			v-72.233c22.438,1.034,44.062,3.843,64.165,8.071C332.81,181.593,335.617,203.214,336.651,225.651z M328.583,328.582
			c-20.104,4.229-41.728,7.036-64.165,8.07v-72.235h72.233C335.617,286.854,332.81,308.475,328.583,328.582z M153.417,264.417
			h72.235v72.233c-22.438-1.034-44.061-3.844-64.165-8.071C157.259,308.475,154.451,286.854,153.417,264.417z M161.485,161.487
			c20.104-4.229,41.728-7.038,64.165-8.071v72.236h-72.233C154.451,203.214,157.259,181.593,161.485,161.487z M264.418,114.616
			v-70.76c20.797,10.875,39.404,38.59,52.59,75.893C300.036,117.066,282.422,115.34,264.418,114.616z M225.652,43.856v70.76
			c-18.005,0.724-35.618,2.45-52.589,5.133C186.248,82.446,204.856,54.731,225.652,43.856z M225.652,375.452v70.761
			c-20.796-10.876-39.404-38.59-52.589-75.893C190.032,373.002,207.647,374.729,225.652,375.452z M264.418,446.213v-70.761
			c18.006-0.724,35.618-2.45,52.59-5.132C303.819,407.623,285.215,435.337,264.418,446.213z M413.178,148.844
			c-15.815-7.813-33.437-14.37-52.322-19.628c-5.263-18.889-11.816-36.507-19.631-52.326c-3.451-6.985-7.101-13.511-10.914-19.597
			c45.28,20.648,81.812,57.184,102.463,102.465C426.687,155.943,420.161,152.294,413.178,148.844z"/>
	</g>
</g>
<g>
</g>
<g>
</g>
<g>
</g>
<g>
</g>
<g>
</g>
<g>
</g>
<g>
</g>
<g>
</g>
<g>
</g>
<g>
</g>
<g>
</g>
<g>
</g>
<g>
</g>
<g>
</g>
<g>
</g>
</svg>
