<?xml version="1.0" encoding="iso-8859-1"?>
<!-- Generator: Adobe Illustrator 16.0.0, SVG Export Plug-In . SVG Version: 6.00 Build 0)  -->
<!DOCTYPE svg PUBLIC "-//W3C//DTD SVG 1.1//EN" "http://www.w3.org/Graphics/SVG/1.1/DTD/svg11.dtd">
<svg version="1.1" id="Capa_1" xmlns="http://www.w3.org/2000/svg" xmlns:xlink="http://www.w3.org/1999/xlink" x="0px" y="0px"
	 width="487.5px" height="487.5px" viewBox="0 0 487.5 487.5" style="enable-background:new 0 0 487.5 487.5;" xml:space="preserve"
	>
<g>
	<g>
		<path d="M487.5,185.803H265.803c-31.947-63.506-102.014-89.04-165.521-109.811c-16.375-5.354-23.333,20.374-7.081,25.689
			c52.437,17.147,110.279,36.86,141.788,84.122H0v226.435h487.5V185.803z M350.712,217.57h42.139v42.139h-42.139V217.57z
			 M360.84,282.837v42.139h-42.135v-42.139H360.84z M286.697,217.57h42.139v42.139h-42.139V217.57z M296.827,282.837v42.139h-42.14
			v-42.139H296.827z M222.681,217.57h42.137v42.139h-42.137V217.57z M232.812,282.837v42.139h-42.138v-42.139H232.812z
			 M158.667,217.57h42.138v42.139h-42.138V217.57z M168.795,282.837v42.139H126.66v-42.139H168.795z M94.65,217.57h42.138v42.139
			H94.65V217.57z M30.635,217.57h42.138v42.139H30.635V217.57z M62.643,282.837h42.138v42.139H62.643V282.837z M403.789,391.571
			H83.711v-42.138h320.078V391.571z M424.858,324.974H382.72v-42.137h42.14L424.858,324.974L424.858,324.974z M456.865,259.706
			h-42.14V217.57h42.14V259.706z"/>
	</g>
</g>
<g>
</g>
<g>
</g>
<g>
</g>
<g>
</g>
<g>
</g>
<g>
</g>
<g>
</g>
<g>
</g>
<g>
</g>
<g>
</g>
<g>
</g>
<g>
</g>
<g>
</g>
<g>
</g>
<g>
</g>
</svg>
