<?xml version="1.0" encoding="iso-8859-1"?>
<!-- Generator: Adobe Illustrator 16.0.0, SVG Export Plug-In . SVG Version: 6.00 Build 0)  -->
<!DOCTYPE svg PUBLIC "-//W3C//DTD SVG 1.1//EN" "http://www.w3.org/Graphics/SVG/1.1/DTD/svg11.dtd">
<svg version="1.1" id="Capa_1" xmlns="http://www.w3.org/2000/svg" xmlns:xlink="http://www.w3.org/1999/xlink" x="0px" y="0px"
	 width="489.001px" height="489.001px" viewBox="0 0 489.001 489.001" style="enable-background:new 0 0 489.001 489.001;"
	 xml:space="preserve">
<g>
	<g>
		<path d="M37.726,451.272l16.605,16.604l87.939-87.938c18.437,81.93,106.608,133.991,185.22,96.879
			c56.292-26.579,70.817-80.983,85.245-136.103c29.408-112.363,55.229-226.468,76.267-340.714
			C374.755,21.037,260.646,46.855,148.287,76.267c-55.12,14.426-109.524,28.956-136.103,85.244
			c-37.113,78.61,14.95,166.784,96.878,185.221l-87.941,87.936L37.726,451.272z M71.481,167.462
			c24.309-29.863,63.957-35.812,99.206-44.94c83.983-21.763,169.159-44.63,254.81-59.019
			c-14.392,85.646-37.256,170.826-59.02,254.809c-9.129,35.25-15.076,74.897-44.938,99.206
			c-48.683,39.641-120.631,8.578-126.07-54.114c31.912,0.111,63.825,0.222,95.742,0.324c9.793,0.043,21.587,4.453,24.58-5.729
			c4.252-14.475,8.505-28.949,12.754-43.423l-121.343,0.433c13.006-13.006,26.012-26.013,39.01-39.01
			c5.333-5.333,37.135-0.691,44.497-0.727c6.675-0.03,42.783,3.975,44.729-2.735c4.774-16.463,9.551-32.929,14.321-49.389
			l-51.114,0.424c19.265-19.266,38.524-38.525,57.793-57.793c13.817-13.819,14.255-32.314,18.029-51.242
			c-18.927,3.775-37.423,4.212-51.241,18.031c-19.266,19.265-38.524,38.525-57.792,57.793l0.425-51.115
			c-16.46,4.771-32.931,9.55-49.391,14.321c-6.713,1.947-2.708,38.055-2.735,44.729c-0.035,7.364,4.606,39.165-0.726,44.497
			c-12.999,12.998-26.005,26.005-39.011,39.013l0.429-121.348c-14.472,4.252-28.947,8.505-43.422,12.755
			c-10.179,2.991-5.768,14.785-5.727,24.578c0.102,31.921,0.213,63.832,0.324,95.742C62.903,288.094,31.841,216.145,71.481,167.462z
			"/>
	</g>
</g>
<g>
</g>
<g>
</g>
<g>
</g>
<g>
</g>
<g>
</g>
<g>
</g>
<g>
</g>
<g>
</g>
<g>
</g>
<g>
</g>
<g>
</g>
<g>
</g>
<g>
</g>
<g>
</g>
<g>
</g>
</svg>
