<?xml version="1.0" encoding="iso-8859-1"?>
<!-- Generator: Adobe Illustrator 16.0.0, SVG Export Plug-In . SVG Version: 6.00 Build 0)  -->
<!DOCTYPE svg PUBLIC "-//W3C//DTD SVG 1.1//EN" "http://www.w3.org/Graphics/SVG/1.1/DTD/svg11.dtd">
<svg version="1.1" id="Capa_1" xmlns="http://www.w3.org/2000/svg" xmlns:xlink="http://www.w3.org/1999/xlink" x="0px" y="0px"
	 width="489.333px" height="489.333px" viewBox="0 0 489.333 489.333" style="enable-background:new 0 0 489.333 489.333;"
	 xml:space="preserve">
<g>
	<g>
		<path d="M340.748,131.005L470.439,1.313c-22.806,3.485-46.841,3.832-68.584,6.519c-18.531,2.277-37.273,4.879-55.223,10.201
			c-1.635,1.808-0.604,11.626-0.723,13.912C344.189,64.971,342.468,97.985,340.748,131.005z"/>
		<path d="M231.867,52.525c-0.543,21.943-1.099,43.892-1.663,65.844c-0.812,31.453-1.648,62.905-2.568,94.369
			c-0.122,4.139-2.812,21.94-3.294,34.672l88.276-88.277c1.782-45.008,3.562-90.025,5.346-135.034
			C305.439,25.938,232.223,38.1,231.867,52.525z"/>
		<path d="M198.959,63.188c-21.778,11.41-74.101,29.399-75.33,57.731c-1.229,28.141-2.091,56.305-3.031,84.461
			c-1.663,50.186-3.243,100.371-4.792,150.563l80.053-80.053c0.451-6.912-0.315-14.718-0.176-24.712
			C196.544,188.514,197.745,125.852,198.959,63.188z"/>
		<path d="M21.381,450.37L90.652,381.1c1.582-15.988-1.402-43.646-1.217-50.683c1.772-64.752,3.528-129.502,5.284-194.255
			C11.134,216.981-27.199,341.247,21.381,450.37z"/>
		<path d="M489.333,20.208L359.641,149.899c33.021-1.72,66.035-3.441,99.062-5.162c2.284-0.119,12.104,0.911,13.912-0.723
			c5.32-17.949,7.924-36.691,10.2-55.224C485.499,67.047,485.846,43.014,489.333,20.208z"/>
		<path d="M243.236,266.305c12.734-0.484,30.532-3.175,34.673-3.296c31.462-0.916,62.916-1.756,94.369-2.568
			c21.95-0.562,43.897-1.117,65.844-1.663c14.426-0.353,26.588-73.572,28.425-86.098c-45.009,1.784-90.023,3.563-135.034,5.345
			L243.236,266.305z"/>
		<path d="M214.753,294.784L134.7,374.839c50.191-1.551,100.377-3.131,150.562-4.793c28.158-0.939,56.32-1.801,84.461-3.03
			c28.331-1.229,46.322-53.554,57.731-75.33c-62.66,1.215-125.322,2.415-187.994,3.276
			C229.469,295.101,221.669,294.335,214.753,294.784z"/>
		<path d="M102.953,404.876L39.42,468.409c100.084,44.557,214.057,9.398,288.184-67.264c-59.388,1.609-118.777,3.223-178.166,4.848
			C142.984,406.161,117.619,403.425,102.953,404.876z"/>
	</g>
</g>
<g>
</g>
<g>
</g>
<g>
</g>
<g>
</g>
<g>
</g>
<g>
</g>
<g>
</g>
<g>
</g>
<g>
</g>
<g>
</g>
<g>
</g>
<g>
</g>
<g>
</g>
<g>
</g>
<g>
</g>
</svg>
