<?xml version="1.0" encoding="iso-8859-1"?>
<!-- Generator: Adobe Illustrator 16.0.0, SVG Export Plug-In . SVG Version: 6.00 Build 0)  -->
<!DOCTYPE svg PUBLIC "-//W3C//DTD SVG 1.1//EN" "http://www.w3.org/Graphics/SVG/1.1/DTD/svg11.dtd">
<svg version="1.1" id="Capa_1" xmlns="http://www.w3.org/2000/svg" xmlns:xlink="http://www.w3.org/1999/xlink" x="0px" y="0px"
	 width="493.082px" height="493.082px" viewBox="0 0 493.082 493.082" style="enable-background:new 0 0 493.082 493.082;"
	 xml:space="preserve">
<g>
	<g>
		<path d="M260.782,256.914c8.573,38.156,74.295,80.795,92.163,25.469c3.925-12.162,10.372-22.949,20.824-30.614
			c9.513-6.979,20.222-10.3,26.646-20.933c13.713-22.711-1.2-45.885-19.985-59.68c-19.325-14.192-43.295-15.984-65.743-8.856
			c-10.394,3.302-22.171,11.37-33.096,5.027c-10.03-5.814-7.867-19.601,2.214-23.905c10.729-4.577,23.088,1.618,33.972,2.788
			c10.442,1.126,21.128,0.547,31.209-2.518c20.417-6.216,41.388-25.251,46.265-46.613c5.575-24.471-11.661-38.439-31.829-46.461
			c-25.33-10.074-28.904-42.064-54.533-49.257c-22.646-6.354-42.53,10.619-53.745,28.771c-14.04,22.726-11.404,49.767-0.86,73.303
			c6.296,14.057-6.843,39.881-21.05,22.156c-10.948-13.656,2.7-42.243,0.145-59.234c-4.983-33.229-47.958-76.348-81.325-48.246
			c-17.418,14.676-16.233,38.971-37.749,51.789C96.99,80.22,82.978,93.915,88.587,116.09c4.906,19.375,25.906,35.556,44.25,41.235
			c24.065,7.445,41.365-3.065,64.046-8.094c17.01-3.778,31.445,17.345,12.469,25.577c-9.265,4.025-18.967-0.444-28.227-1.972
			c-10.591-1.739-21.519-1.894-32.021,0.465c-32.957,7.411-73.136,54.023-39.69,84.085c8.331,7.486,31.284,11.587,38.786,22.359
			c-6.558,11.836-13.955,28.396-18.396,48.726c-8.425,38.563-7.47,98.429,44.924,164.61l20.915-16.559
			c-58.466-73.857-45.783-137.201-30.303-171.852c0.043,0.049,0.086,0.076,0.128,0.125c18.088,20.556,44.074,14.828,61.491-2.678
			c18.444-18.531,24.776-43.607,18.466-68.857c-2.779-11.108-11.479-23.137-8.515-34.937c2.203-8.809,11.942-13.954,19.971-8.544
			c10.111,6.805,6.688,19.608,4.558,29.326C258.723,231.492,257.993,244.476,260.782,256.914z"/>
	</g>
</g>
<g>
</g>
<g>
</g>
<g>
</g>
<g>
</g>
<g>
</g>
<g>
</g>
<g>
</g>
<g>
</g>
<g>
</g>
<g>
</g>
<g>
</g>
<g>
</g>
<g>
</g>
<g>
</g>
<g>
</g>
</svg>
