<?xml version="1.0" encoding="iso-8859-1"?>
<!-- Generator: Adobe Illustrator 16.0.0, SVG Export Plug-In . SVG Version: 6.00 Build 0)  -->
<!DOCTYPE svg PUBLIC "-//W3C//DTD SVG 1.1//EN" "http://www.w3.org/Graphics/SVG/1.1/DTD/svg11.dtd">
<svg version="1.1" id="Capa_1" xmlns="http://www.w3.org/2000/svg" xmlns:xlink="http://www.w3.org/1999/xlink" x="0px" y="0px"
	 width="489px" height="489px" viewBox="0 0 489 489" style="enable-background:new 0 0 489 489;" xml:space="preserve">
<g>
	<g>
		<path d="M103.028,400.693c-6.403-1.592-12.804-3.285-19.186-5.208l-7.098-2.138l-2.169-6.996
			c-1.619-5.225-3.082-10.461-4.466-15.705C31.797,420.599,13,459.664,13,489h44.662C57.662,468.4,75.781,436.562,103.028,400.693z"
			/>
		<path d="M476,0c-27.951,1.241-87.413,15.784-101.529,22.857l-30.294,15.179L354.9,6.258c0.117-0.347,0.231-0.688,0.341-1.029
			c-23.319,6.426-59.439,22.857-81.386,39.577l-32.232,24.555l10.18-38.873c0.059-0.229,0.117-0.451,0.172-0.674
			c-29.68,18.404-60.792,53.266-72.631,66.531c-1.667,1.868-3.074,3.441-4.188,4.66l-25.837,28.29l1.474-36.986
			c-47.789,55.307-79.39,146.673-58.488,250.761c1.868,9.304,4.114,18.697,6.848,28.188c7.587,2.123,15.188,3.979,22.794,5.597
			c24.062,5.119,48.174,7.719,72.003,7.719c82.038,0,147.595-30.61,188.098-64.223l-36.928,1.056l28.252-25.058
			c1.236-1.099,2.836-2.484,4.73-4.127c13.457-11.664,48.837-42.328,67.511-71.579c-0.227,0.058-0.455,0.116-0.685,0.17
			l-39.445,10.033l24.917-31.765c16.933-21.586,33.631-57.282,40.159-80.205c-0.344,0.107-0.691,0.22-1.042,0.336l-32.242,10.566
			l15.396-29.853C461.481,82.862,474.763,23.663,476,0z"/>
	</g>
</g>
<g>
</g>
<g>
</g>
<g>
</g>
<g>
</g>
<g>
</g>
<g>
</g>
<g>
</g>
<g>
</g>
<g>
</g>
<g>
</g>
<g>
</g>
<g>
</g>
<g>
</g>
<g>
</g>
<g>
</g>
</svg>
