<?xml version="1.0" encoding="iso-8859-1"?>
<!-- Generator: Adobe Illustrator 16.0.0, SVG Export Plug-In . SVG Version: 6.00 Build 0)  -->
<!DOCTYPE svg PUBLIC "-//W3C//DTD SVG 1.1//EN" "http://www.w3.org/Graphics/SVG/1.1/DTD/svg11.dtd">
<svg version="1.1" id="Capa_1" xmlns="http://www.w3.org/2000/svg" xmlns:xlink="http://www.w3.org/1999/xlink" x="0px" y="0px"
	 width="498.802px" height="498.803px" viewBox="0 0 498.802 498.803" style="enable-background:new 0 0 498.802 498.803;"
	 xml:space="preserve">
<g>
	<g>
		<path d="M372.652,277.016c8.148-6.175,18.42-9.564,27.954-12.925c10.511-3.711,22.473-6.592,31.746-13.03
			c4.359-16,6.638-32.131,4.83-48.703c-3.089-28.266-8.489-55.636-9.758-84.161c-34.049,19.514-73.927,31.082-85.055,73.241
			c-2.427,9.163-14.446,35.843-28.557,27.31c-10.742-6.515-4.466-22.411,0.932-30.052c12.545-17.728,27.979-32.359,28.587-55.726
			c0.516-20.101-13.075-37.181-24.813-52.261c-21.592-27.729-48.313-50.785-68.693-79.533V0c-0.138,0.199-0.283,0.391-0.424,0.59
			c-0.141-0.199-0.287-0.391-0.425-0.59v1.179c-20.38,28.749-47.103,51.802-68.693,79.533
			c-11.737,15.078-25.332,32.161-24.813,52.261c0.608,23.368,16.042,37.999,28.587,55.727c5.397,7.641,11.673,23.537,0.932,30.052
			c-14.109,8.533-26.131-18.145-28.558-27.31c-11.127-42.156-51.005-53.724-85.053-73.241c-1.272,28.525-6.669,55.896-9.757,84.161
			c-1.809,16.573,0.47,32.699,4.829,48.705c9.271,6.438,21.232,9.317,31.746,13.031c9.534,3.355,19.806,6.748,27.955,12.924
			c8.889,6.746,8.217,22.162-5.759,20.424c-20.016-2.527-38.067-21.871-58.729-20.178c9.972,51.074,34.57,97.975,84.514,119.646
			c18.498,8.025,26.47,4.654,41.864-7.561c12.752-10.121,22.276-20.779,38.585-24.535c6.483-1.494,12.898,1.832,13.147-5.328
			c0.199-5.789,0.393-11.568,0.592-17.357c2.143-62.771,6.895-99.455,9.037-162.222c2.142,62.767,6.894,99.451,9.038,162.222
			c0.198,5.789,0.394,11.568,0.593,17.357c0.248,7.164,6.661,3.834,13.146,5.328c16.313,3.756,25.833,14.418,38.587,24.535
			c15.396,12.215,23.366,15.586,41.863,7.561c49.943-21.668,74.543-68.568,84.516-119.646
			c-20.662-1.693-38.713,17.649-58.729,20.178C364.434,299.181,363.765,283.763,372.652,277.016z"/>
		<rect x="236.125" y="374.484" width="26.55" height="124.318"/>
	</g>
</g>
<g>
</g>
<g>
</g>
<g>
</g>
<g>
</g>
<g>
</g>
<g>
</g>
<g>
</g>
<g>
</g>
<g>
</g>
<g>
</g>
<g>
</g>
<g>
</g>
<g>
</g>
<g>
</g>
<g>
</g>
</svg>
