<?xml version="1.0" encoding="iso-8859-1"?>
<!-- Generator: Adobe Illustrator 16.0.0, SVG Export Plug-In . SVG Version: 6.00 Build 0)  -->
<!DOCTYPE svg PUBLIC "-//W3C//DTD SVG 1.1//EN" "http://www.w3.org/Graphics/SVG/1.1/DTD/svg11.dtd">
<svg version="1.1" id="Capa_1" xmlns="http://www.w3.org/2000/svg" xmlns:xlink="http://www.w3.org/1999/xlink" x="0px" y="0px"
	 width="494.226px" height="494.226px" viewBox="0 0 494.226 494.226" style="enable-background:new 0 0 494.226 494.226;"
	 xml:space="preserve">
<g>
	<g>
		<path d="M42.583,438.242c23.865-27.094,50.913-57.802,56.1-62.932l2.175-2.149l-0.002,3.054c0,2.025-0.087,4.189-0.173,6.317
			c-0.158,3.894-0.303,7.578,0.086,9.957c4.659,28.448,32.229,60.776,61.458,72.063c12.205,4.717,20.17,3.951,23.692-2.438
			c7.091-12.873-4.891-44.975-13.033-57.857c-5.309-8.409-19.678-28.779-38.38-36.337c-2.297-0.926-5.421-1.356-9.828-1.356
			c-2.84,0-5.895,0.179-8.848,0.354c-1.93,0.113-3.843,0.226-5.684,0.289l-3.315,0.114l2.384-2.306
			c14.663-14.184,30.455-28.838,46.94-43.559l1.591-1.425l0.498,2.076c0.788,3.293,1.041,7.135,1.308,11.205
			c0.398,6.084,0.811,12.374,3.116,16.632c15.716,29.006,36.335,49.882,66.853,67.701c5.062,2.95,14.762,7.902,22.866,7.902
			c8.319,0,12.396-5.163,12.471-15.784c0.152-16.718-9.014-30.71-17.881-44.239c-0.961-1.471-1.92-2.934-2.866-4.398
			c-10.944-18.584-28.221-34.268-47.43-43.068c-4.039-1.848-8.426-2.707-13.809-2.707c-2.961,0-5.937,0.253-8.813,0.494
			c-2.782,0.237-5.658,0.479-8.425,0.479l-3.688-0.028l2.499-2.205c13.566-11.961,27.512-23.895,40.331-34.496l0.77-0.641
			l7.787,5.803l0.115,0.428c0.385,1.445,0.711,2.881,1.004,4.177c0.373,1.637,0.691,3.05,1.005,3.881
			c3.262,8.729,9.157,15.867,15.953,23.631c13.263,15.138,29.041,32.188,48.485,42.957c5.639,3.12,25.137,13.286,39.343,13.286
			c7.086,0,11.515-2.488,13.54-7.604c4.721-11.912-8.434-32.641-37.028-58.369c-13.001-11.684-29.175-26.221-46.099-31.778
			c-1.379-0.435-3.902-0.66-7.495-0.66c-4.539,0-10.213,0.347-15.695,0.683c-2.198,0.134-4.371,0.267-6.437,0.373l-0.461,0.026
			l-5.304-3.961l1.275-1.028c3.953-3.194,7.441-5.972,10.358-8.237c3.578-2.79,10.96-8.054,20.306-14.716
			c4.623-3.297,9.721-6.932,15.078-10.782l0.775-0.556l7.25,5.618l0.131,0.265c1.07,2.169,1.996,4.577,2.896,6.905
			c1.31,3.393,2.542,6.598,4.062,8.736c4.125,5.809,9.354,11.393,15.979,17.066c31.92,28.953,59.017,43.615,80.566,43.615
			c5.509,0,10.689-0.988,15.4-2.941c3.866-1.604,5.855-3.979,6.083-7.26c1.193-17.404-45.631-53.864-56.82-60.416l-2.009-1.175
			c-12.957-7.583-26.354-15.424-41.278-17.671c-3.186-0.466-9.756,1.118-16.102,2.626l-3.333,0.788l-3.598-2.779l1.358-1.015
			c17.979-13.049,32.872-24.279,45.527-34.325l0.728-0.579l1.206,0.839c2.52,2.604,4.476,6.411,6.544,10.439
			c1.728,3.367,3.516,6.847,5.628,9.497c10.264,12.852,25.211,23.993,45.696,34.053c15.695,7.728,34.093,15.623,51.52,15.623
			c4.835,0,9.444-0.615,13.698-1.835c3.246-1.13,5.093-2.852,5.567-5.241c1.281-6.398-6.681-17.34-23.663-32.509l-0.979-0.879
			c-19.845-17.881-37.305-28.188-54.945-32.437c-10.062-2.434-18.899-3.621-27.02-3.621l-1.269,0.01
			c-2.303,0.034-5.2,0.817-7.971,1.617l-0.564,0.162l-4.34-2.856l1.173-1.204c12.482-10.297,24.803-21.52,36.615-33.354l0.813-0.813
			l0.896,0.726c3.662,2.989,7.798,7.571,11.799,12.003c4.941,5.478,10.053,11.143,13.904,13.347
			c34.173,19.561,53.571,23.667,63.825,23.667c8.626,0,14.715-2.839,18.108-8.436c1.617-22.013-43.955-39.542-61.158-46.16
			l-1.994-0.767c-12.062-4.649-22.463-6.241-32.017-4.948l-3.562,0.485l2.463-2.62c4.649-4.952,9.262-10.034,13.707-15.098
			l0.527-0.6l0.771,0.214c2.19,0.606,4.355,1.265,6.52,1.92c6.561,1.994,13.349,4.054,20.721,4.562
			c18.098,1.27,38.153-6.656,51.704-20.046c0.556-0.551,1.226-1.195,1.986-1.927c6.39-6.146,19.689-18.939,19.418-28.045
			c-0.064-2.274-0.984-4.134-2.807-5.689c-5.646-4.827-14.917-5.84-21.693-5.84c-3.302,0-6.735,0.23-10.208,0.681
			c-12.378,1.607-26.226,6.225-38.989,13.013c-17.996,9.564-31.839,25.709-45.231,41.317c-4.629,5.401-9.421,10.983-14.293,16.19
			l-2.003,2.14l-0.496-7.261l0.218-0.352c1.161-1.876,2.47-3.938,3.815-6.061c4.591-7.227,10.3-16.221,11.044-19.546
			c0.307-2.539,0.653-5.204,1-7.871c1.578-12.167,3.211-24.748,2.833-37.182c-0.426-14.264-11.383-45.663-22.088-45.663
			c-4.08,0-8.211,4.733-11.954,13.689c-11.27,26.963-11.84,62.818-1.39,87.187c1.642,3.832,3.422,6.946,4.961,9.56l0.154,0.26
			l1.517,22.015c0.144,2.073-2.608,4.847-7.736,9.241c-0.611,0.525-1.104,0.943-1.377,1.207c-7.35,6.986-14.429,13.234-21.64,19.097
			l-1.733,1.409l-1.331-8.873l0.423-0.452c1.021-1.091,2.092-2.16,3.132-3.195c2.253-2.249,4.379-4.375,5.31-6.031
			c3.447-8.08,5.381-17.816,5.85-29.636c0.783-20.194-1.702-40.385-7.184-58.39l-0.494-1.647
			c-2.909-9.713-10.639-35.511-23.039-35.511c-1.603,0-3.271,0.431-4.973,1.277c-11.227,10.799-12.65,26.071-13.141,40.788
			c-0.734,22.179-0.266,47.973,8.811,71.099c1.662,4.248,5.133,8.672,8.807,13.357c1.728,2.2,3.516,4.48,5.104,6.748l0.172,0.247
			l2.71,18.054l-0.587,0.458c-12.578,9.833-27.188,20.748-44.663,33.362l-1.956,1.413l-0.209-7.559l0.354-0.379
			c1.248-1.352,2.619-2.721,3.998-4.093c3.668-3.653,7.465-7.431,8.666-10.837c2.936-8.277,4.56-17.61,4.965-28.534
			c0.755-20.446-1.777-39.767-7.326-55.873c-3.705-10.78-15.21-30.029-24.944-30.029c-3.626,0-6.826,2.82-9.509,8.389
			c-6.854,14.229-7.086,30.585-7.315,46.4c-0.043,2.901-0.082,5.786-0.164,8.632c-1.091,18.788,4.945,52.154,19.113,66.032
			c0.219,0.214,0.413,0.418,0.604,0.623l0.59,0.612l0.396,14.354l-8.834,6.307c-9.483,6.762-16.938,12.076-20.704,15.009
			c-0.411,0.315-6.841,5.427-17.103,13.902l-2.009,1.66l-0.15-4.949l0.396-0.392c2.068-2.042,4.61-4.002,7.298-6.081
			c5.215-4.023,10.603-8.186,12.013-12.704c4.613-14.793,4.746-33.293,4.202-51.08c-0.49-16.33-10.909-56.62-24.809-56.62
			c-4.517,0-9.29,4.176-14.191,12.411c-0.265,0.461-27.201,48.529-2.953,96.849c0.809,1.617,1.55,3.144,2.254,4.59
			c1.622,3.34,3.024,6.22,4.488,8.588l0.179,0.288l0.553,18.054l-0.472,0.397c-9.82,8.271-19.661,16.729-29.249,25.136
			c-3.851,2.69-7.561,5.133-11.141,7.353l-2.21,1.368l0.271-2.586c0.257-2.457,0.479-4.919,0.632-7.384l0.031-0.495l0.357-0.345
			c1.685-1.633,3.825-3.408,6.089-5.293c8.29-6.898,18.607-15.481,18.115-25.566c-0.91-18.671-2.367-38.546-6.811-57.38
			c-2.221-9.417-4.898-19.163-10.96-25.745c-4.172-4.528-7.408-7.734-11.077-7.734c-3.282,0-7.094,2.547-11.998,8.02
			c-4.289,4.787-7.908,11.328-9.588,15.686c-6.829,17.692-6.109,49.577-4.691,62.249c1.42,12.685,4.603,21.963,10.021,29.209
			c2.015,2.695,4.149,4.201,6.215,5.66c0.979,0.689,1.904,1.346,2.738,2.069l0.482,0.418l-0.046,0.636
			c-0.517,7.277-1.448,14.092-2.843,20.828l-0.069,0.348l-0.242,0.26c-5.236,5.671-12.592,11.373-18.506,15.951
			c-3.346,2.596-6.232,4.834-8.038,6.514l-4.195,3.913l2.142-5.319c7.709-19.156,10.572-60.896-2.282-85.352
			c-5.342-10.17-12.855-16.404-22.33-18.529c-6.357-1.428-11.559,0.543-15.555,5.898c-13.694,18.364-9.448,67.99-5.546,81.096
			c2.147,7.236,8.063,12.923,13.782,18.427c6.146,5.911,11.955,11.493,12.08,18.37c0.064,3.557-2.28,8.389-7.16,14.773
			c-2.4,2.465-24.473,27.856-43.944,50.262C18.05,448.136,3.92,464.393,0,468.77l8.604,7.847
			C13.186,471.619,26.887,456.063,42.583,438.242z"/>
	</g>
</g>
<g>
</g>
<g>
</g>
<g>
</g>
<g>
</g>
<g>
</g>
<g>
</g>
<g>
</g>
<g>
</g>
<g>
</g>
<g>
</g>
<g>
</g>
<g>
</g>
<g>
</g>
<g>
</g>
<g>
</g>
</svg>
