<?xml version="1.0" encoding="iso-8859-1"?>
<!-- Generator: Adobe Illustrator 16.0.0, SVG Export Plug-In . SVG Version: 6.00 Build 0)  -->
<!DOCTYPE svg PUBLIC "-//W3C//DTD SVG 1.1//EN" "http://www.w3.org/Graphics/SVG/1.1/DTD/svg11.dtd">
<svg version="1.1" id="Capa_1" xmlns="http://www.w3.org/2000/svg" xmlns:xlink="http://www.w3.org/1999/xlink" x="0px" y="0px"
	 width="491.277px" height="491.277px" viewBox="0 0 491.277 491.277" style="enable-background:new 0 0 491.277 491.277;"
	 xml:space="preserve">
<g>
	<g>
		<path d="M365.357,342.949c10.828-11.556,24.953-19.777,39.383-26.006c5.012-2.16,14.438-7.693,20.137-7.285
			c-23-1.879-47.396-3.166-69.342,5.313c-19.17,7.399-34.711,22.08-46.74,38.408c-7.945,10.791-13.664,22.64-20.029,34.378
			c-7.805,14.394-18.084,35.635-34.885,41.457c21.262-2.372,42.03-11.665,58.613-24.996
			C333.795,387.1,346.857,362.701,365.357,342.949z"/>
		<path d="M412.115,325.927c-23.885,12.72-39.061,28.859-55.406,49.869c-11.891,15.273-25.311,32.773-41.949,43.232
			c-13.164,8.274-32.138,18.12-47.951,19.566c37.631,22.785,85.082,22.107,122.438-0.749c34.471-21.097,47.23-55.99,66.723-89.035
			c6.162-10.44,14.021-19.901,23.16-27.87c2.143-1.869,8.91-9.084,12.148-8.957C464.186,309.781,436.332,313.027,412.115,325.927z"
			/>
		<path d="M301.938,219.472c-6.801,9.233-11.693,19.371-17.139,29.415c-6.679,12.315-15.476,30.493-29.851,35.474
			c18.194-2.027,35.964-9.982,50.153-21.39c18.227-14.644,29.402-35.521,45.232-52.421c9.266-9.887,21.352-16.924,33.695-22.255
			c4.287-1.85,12.355-6.582,17.23-6.232c-19.682-1.608-40.557-2.708-59.33,4.545C325.529,192.938,312.229,205.5,301.938,219.472z"/>
		<path d="M448.053,192.094c1.836-1.6,7.625-7.771,10.395-7.665c-23.18-1.886-47.012,0.892-67.732,11.931
			c-20.436,10.884-33.42,24.694-47.408,42.672c-10.174,13.071-21.656,28.045-35.895,36.992
			c-11.266,7.082-27.498,15.505-41.031,16.743c32.198,19.495,72.805,18.916,104.766-0.643
			c29.494-18.049,40.412-47.906,57.092-76.182C433.506,207.006,440.236,198.91,448.053,192.094z"/>
		<path d="M125.916,342.949c18.502,19.752,31.565,44.151,52.864,61.266c16.58,13.333,37.349,22.625,58.614,24.997
			c-16.803-5.821-27.082-27.063-34.886-41.457c-6.365-11.737-12.084-23.587-20.03-34.377c-12.029-16.33-27.573-31.009-46.739-38.409
			c-21.945-8.479-46.339-7.189-69.341-5.312c5.698-0.41,15.125,5.121,20.136,7.285C100.963,323.17,115.086,331.393,125.916,342.949z
			"/>
		<path d="M35.307,348.815c19.492,33.046,32.253,67.94,66.723,89.034c37.354,22.858,84.807,23.534,122.438,0.75
			c-15.817-1.447-34.788-11.292-47.951-19.566c-16.64-10.459-30.059-27.959-41.949-43.233
			c-16.348-21.009-31.524-37.149-55.407-49.868C54.942,313.029,27.09,309.783,0,311.988c3.238-0.125,10.005,7.088,12.148,8.959
			C21.286,328.912,29.147,338.373,35.307,348.815z"/>
		<path d="M149.342,186.607c-18.776-7.254-39.652-6.153-59.333-4.545c4.876-0.349,12.941,4.382,17.229,6.232
			c12.347,5.332,24.433,12.365,33.697,22.255c15.831,16.9,27.01,37.778,45.233,52.421c14.188,11.406,31.958,19.359,50.154,21.391
			c-14.378-4.98-23.172-23.158-29.85-35.475c-5.445-10.043-10.339-20.181-17.138-29.415
			C179.044,205.5,165.743,192.938,149.342,186.607z"/>
		<path d="M32.824,184.429c2.771-0.106,8.562,6.065,10.396,7.665c7.817,6.816,14.546,14.913,19.815,23.849
			c16.678,28.276,27.596,58.132,57.092,76.183c31.961,19.561,72.566,20.137,104.765,0.643c-13.533-1.238-29.767-9.666-41.031-16.744
			c-14.236-8.947-25.72-23.921-35.894-36.992c-13.986-17.978-26.971-31.79-47.407-42.674
			C79.838,185.318,56.004,182.539,32.824,184.429z"/>
		<path d="M295.538,145.18c-13.04,19.136-30.979,34.597-41.298,55.575c-8.039,16.334-11.926,35.411-9.939,53.609
			c1.726-15.117,17.546-27.663,28.111-36.868c8.615-7.504,17.441-14.492,24.971-23.141c11.393-13.092,20.748-28.811,23.354-46.198
			c2.984-19.905-2.641-40.039-8.502-58.895c1.404,4.682-1.455,13.587-2.326,18.174C307.4,120.651,303.166,133.981,295.538,145.18z"
			/>
		<path d="M231.523,247c-1.742-13.478,2.941-31.155,7.394-43.694c5.628-15.846,17.737-30.317,28.275-43.096
			c14.495-17.571,25.141-33.255,31.307-55.571c6.257-22.632,3.771-46.497-3.126-68.705c0.707,2.683-4.052,9.677-5.215,11.817
			c-4.949,9.117-11.382,17.448-18.953,24.539c-23.958,22.443-50.716,39.61-61.901,72.331
			C197.187,180.074,205.474,219.829,231.523,247z"/>
	</g>
</g>
<g>
</g>
<g>
</g>
<g>
</g>
<g>
</g>
<g>
</g>
<g>
</g>
<g>
</g>
<g>
</g>
<g>
</g>
<g>
</g>
<g>
</g>
<g>
</g>
<g>
</g>
<g>
</g>
<g>
</g>
</svg>
