<?xml version="1.0" encoding="iso-8859-1"?>
<!-- Generator: Adobe Illustrator 16.0.0, SVG Export Plug-In . SVG Version: 6.00 Build 0)  -->
<!DOCTYPE svg PUBLIC "-//W3C//DTD SVG 1.1//EN" "http://www.w3.org/Graphics/SVG/1.1/DTD/svg11.dtd">
<svg version="1.1" id="Capa_1" xmlns="http://www.w3.org/2000/svg" xmlns:xlink="http://www.w3.org/1999/xlink" x="0px" y="0px"
	 width="494.913px" height="494.913px" viewBox="0 0 494.913 494.913" style="enable-background:new 0 0 494.913 494.913;"
	 xml:space="preserve">
<g>
	<path d="M439.715,343.79L339.377,444.128c-8.123,8.122-21.295,8.122-29.417,0l-7.442-7.443
		c-8.089-8.09-24.068-14.709-35.509-14.709H105.21c-11.441,0-23.976-8.806-27.853-19.567L8.843,212.247
		c-9.027-25.056,5.377-45.557,32.008-45.557h134.655c5.872-19.495,2.619-35.183-3.021-43.645
		c-8.34-12.507-31.007-33.025-26.851-67.686c1.369-11.404,8.214-29.112,15.184-38.244c19.985-26.181,49.128-20.142,49.128,3.381
		c0,27.924-14.78,53.274,37.777,87.769c52.56,34.493,88.458,101.999,88.458,102.204s6.585,6.955,14.709,15.078l88.825,88.827
		C447.839,322.498,447.839,335.669,439.715,343.79z M461.536,348.727L342.58,467.682l27.229,27.23l118.955-118.956L461.536,348.727z
		"/>
</g>
<g>
</g>
<g>
</g>
<g>
</g>
<g>
</g>
<g>
</g>
<g>
</g>
<g>
</g>
<g>
</g>
<g>
</g>
<g>
</g>
<g>
</g>
<g>
</g>
<g>
</g>
<g>
</g>
<g>
</g>
</svg>
