<?xml version="1.0" encoding="iso-8859-1"?>
<!-- Generator: Adobe Illustrator 16.0.0, SVG Export Plug-In . SVG Version: 6.00 Build 0)  -->
<!DOCTYPE svg PUBLIC "-//W3C//DTD SVG 1.1//EN" "http://www.w3.org/Graphics/SVG/1.1/DTD/svg11.dtd">
<svg version="1.1" id="Capa_1" xmlns="http://www.w3.org/2000/svg" xmlns:xlink="http://www.w3.org/1999/xlink" x="0px" y="0px"
	 width="487.061px" height="487.061px" viewBox="0 0 487.061 487.061" style="enable-background:new 0 0 487.061 487.061;"
	 xml:space="preserve">
<g>
	<g>
		<path d="M437.752,89.933c0-40.106-32.629-72.733-72.73-72.733H122.042c-40.104,0-72.731,32.627-72.731,72.733v121.488H0V469.86
			h487.061V211.422H437.75V89.933H437.752z M262.781,418.398h-38.503v-12.755v-53.883c-2.225-1.074-4.332-2.344-6.332-3.758
			c-11.384-8.037-18.846-21.244-18.846-36.24c0-24.536,19.892-44.431,44.429-44.431c24.538,0,44.429,19.892,44.429,44.431
			c0,14.996-7.462,28.203-18.847,36.24c-2,1.411-4.105,2.684-6.33,3.758v53.883V418.398L262.781,418.398z M106.948,211.422V89.933
			c0-8.323,6.77-15.093,15.09-15.093h242.98c8.322,0,15.09,6.773,15.09,15.093v121.488L106.948,211.422L106.948,211.422z"/>
	</g>
</g>
<g>
</g>
<g>
</g>
<g>
</g>
<g>
</g>
<g>
</g>
<g>
</g>
<g>
</g>
<g>
</g>
<g>
</g>
<g>
</g>
<g>
</g>
<g>
</g>
<g>
</g>
<g>
</g>
<g>
</g>
</svg>
