<?xml version="1.0" encoding="iso-8859-1"?>
<!-- Generator: Adobe Illustrator 16.0.0, SVG Export Plug-In . SVG Version: 6.00 Build 0)  -->
<!DOCTYPE svg PUBLIC "-//W3C//DTD SVG 1.1//EN" "http://www.w3.org/Graphics/SVG/1.1/DTD/svg11.dtd">
<svg version="1.1" id="Capa_1" xmlns="http://www.w3.org/2000/svg" xmlns:xlink="http://www.w3.org/1999/xlink" x="0px" y="0px"
	 width="489.154px" height="489.154px" viewBox="0 0 489.154 489.154" style="enable-background:new 0 0 489.154 489.154;"
	 xml:space="preserve">
<g>
	<g>
		<polygon points="0,386.634 143.542,214.88 0,99.551 		"/>
		<polygon points="489.154,386.634 489.154,99.551 345.611,214.88 		"/>
		<polygon points="487.937,398.675 489.154,398.675 489.154,397.657 		"/>
		<polygon points="0,398.675 1.219,398.675 0,397.657 		"/>
		<polygon points="480.793,398.675 479.939,397.657 334.587,223.736 244.577,296.058 154.567,223.736 9.215,397.657 8.361,398.675 
					"/>
		<polygon points="152.61,204.029 158.121,208.459 163.635,212.888 244.577,277.923 325.52,212.888 331.033,208.459 
			336.544,204.029 477.866,90.479 11.287,90.479 		"/>
	</g>
</g>
<g>
</g>
<g>
</g>
<g>
</g>
<g>
</g>
<g>
</g>
<g>
</g>
<g>
</g>
<g>
</g>
<g>
</g>
<g>
</g>
<g>
</g>
<g>
</g>
<g>
</g>
<g>
</g>
<g>
</g>
</svg>
