<?xml version="1.0" encoding="iso-8859-1"?>
<!-- Generator: Adobe Illustrator 16.0.0, SVG Export Plug-In . SVG Version: 6.00 Build 0)  -->
<!DOCTYPE svg PUBLIC "-//W3C//DTD SVG 1.1//EN" "http://www.w3.org/Graphics/SVG/1.1/DTD/svg11.dtd">
<svg version="1.1" id="Capa_1" xmlns="http://www.w3.org/2000/svg" xmlns:xlink="http://www.w3.org/1999/xlink" x="0px" y="0px"
	 width="493.645px" height="493.645px" viewBox="0 0 493.645 493.645" style="enable-background:new 0 0 493.645 493.645;"
	 xml:space="preserve">
<g>
	<g>
		<circle cx="154.873" cy="49.931" r="49.931"/>
		<polygon points="29.34,297.321 70.966,297.321 70.966,188.033 87.989,188.033 87.989,309.844 87.917,309.844 87.917,493.645 
			146.36,493.645 146.36,297.321 163.382,297.321 163.382,493.645 221.825,493.645 221.825,297.321 222.113,297.321 
			222.113,188.033 239.136,188.033 239.136,263.375 287.312,306.229 314.891,277.939 277.959,240.743 277.959,119.155 
			29.34,119.155 		"/>
		<path d="M314.773,493.645h135.57V341.971h-135.57V493.645z M411.15,362.682h13.426v110.249H411.15V362.682z M375.844,362.682
			h13.428v110.249h-13.428V362.682z M340.541,362.682h13.426v110.249h-13.426V362.682z"/>
		<path d="M391.328,232.444l-14.545,25.01l-29.67-17.255l-13.963,24.008l117.189,68.159l13.965-24.009l-27.902-16.227l14.545-25.014
			L391.328,232.444z M388.387,264.205l7.797-13.404l36.41,21.174l-7.799,13.406L388.387,264.205z"/>
	</g>
</g>
<g>
</g>
<g>
</g>
<g>
</g>
<g>
</g>
<g>
</g>
<g>
</g>
<g>
</g>
<g>
</g>
<g>
</g>
<g>
</g>
<g>
</g>
<g>
</g>
<g>
</g>
<g>
</g>
<g>
</g>
</svg>
