<?xml version="1.0" encoding="iso-8859-1"?>
<!-- Generator: Adobe Illustrator 16.0.0, SVG Export Plug-In . SVG Version: 6.00 Build 0)  -->
<!DOCTYPE svg PUBLIC "-//W3C//DTD SVG 1.1//EN" "http://www.w3.org/Graphics/SVG/1.1/DTD/svg11.dtd">
<svg version="1.1" id="Capa_1" xmlns="http://www.w3.org/2000/svg" xmlns:xlink="http://www.w3.org/1999/xlink" x="0px" y="0px"
	 width="489.203px" height="489.203px" viewBox="0 0 489.203 489.203" style="enable-background:new 0 0 489.203 489.203;"
	 xml:space="preserve">
<g>
	<g>
		<circle cx="168.81" cy="88.995" r="36.244"/>
		<circle cx="389.172" cy="336.421" r="100.031"/>
		<circle cx="100.032" cy="336.421" r="100.031"/>
		<path d="M66.99,159.994c-4.702,8.377-1.722,18.982,6.661,23.684l68.597,35.548c2.614,1.402,6.478,0.881,8.627-1.166l45.723-38.278
			c2.149-2.047,5.505-1.918,7.494,0.285l43.818,48.539c1.988,2.203,1.713,5.478-0.585,7.354
			c-11.172,9.111-34.198,28.536-43.569,36.453c-2.268,1.917-3.313,5.743-2.335,8.545l31.424,90.096
			c0.978,2.803,0.228,6.922-1.677,9.198l-9.468,11.332c-8.21,9.833-6.896,24.462,2.934,32.675c4.344,3.619,9.616,5.391,14.86,5.391
			c6.636,0,13.229-2.834,17.814-8.328l26.787-32.076c1.901-2.277,2.6-6.376,1.557-9.154l-31.512-83.908
			c-1.041-2.777,0-6.521,2.352-8.332c16.121-12.418,62.752-47.537,77.16-58.379c2.373-1.784,2.666-5.002,0.658-7.19L233.874,106.966
			c-2.007-2.188-5.397-2.324-7.571-0.304l-82.544,71.594c-2.176,2.018-6.018,2.444-8.584,0.953l-44.5-25.875
			C82.305,148.624,71.687,151.609,66.99,159.994z"/>
	</g>
</g>
<g>
</g>
<g>
</g>
<g>
</g>
<g>
</g>
<g>
</g>
<g>
</g>
<g>
</g>
<g>
</g>
<g>
</g>
<g>
</g>
<g>
</g>
<g>
</g>
<g>
</g>
<g>
</g>
<g>
</g>
</svg>
