<?xml version="1.0" encoding="iso-8859-1"?>
<!-- Generator: Adobe Illustrator 16.0.0, SVG Export Plug-In . SVG Version: 6.00 Build 0)  -->
<!DOCTYPE svg PUBLIC "-//W3C//DTD SVG 1.1//EN" "http://www.w3.org/Graphics/SVG/1.1/DTD/svg11.dtd">
<svg version="1.1" id="Capa_1" xmlns="http://www.w3.org/2000/svg" xmlns:xlink="http://www.w3.org/1999/xlink" x="0px" y="0px"
	 width="498.031px" height="498.031px" viewBox="0 0 498.031 498.031" style="enable-background:new 0 0 498.031 498.031;"
	 xml:space="preserve">
<g>
	<g>
		<path d="M347.518,191.021c15.275,9.957,33.51,15.765,53.104,15.765c53.799,0,97.41-43.612,97.41-97.411
			c0-53.799-43.611-97.411-97.41-97.411c-48.912,0-89.395,36.055-96.346,83.034h96.346h31.938l-21.174,23.908L347.518,191.021z"/>
		<path d="M178.746,311.21v10.844v10.843v120.747c-26.887,4.172-46.49,17.105-46.49,32.424h130.36
			c0-14.201-16.855-26.354-40.74-31.374V332.899v-10.842v-10.843l114.177-128.927l64.566-72.911h-97.41H0L178.746,311.21z"/>
	</g>
</g>
<g>
</g>
<g>
</g>
<g>
</g>
<g>
</g>
<g>
</g>
<g>
</g>
<g>
</g>
<g>
</g>
<g>
</g>
<g>
</g>
<g>
</g>
<g>
</g>
<g>
</g>
<g>
</g>
<g>
</g>
</svg>
