<?xml version="1.0" encoding="iso-8859-1"?>
<!-- Generator: Adobe Illustrator 16.0.0, SVG Export Plug-In . SVG Version: 6.00 Build 0)  -->
<!DOCTYPE svg PUBLIC "-//W3C//DTD SVG 1.1//EN" "http://www.w3.org/Graphics/SVG/1.1/DTD/svg11.dtd">
<svg version="1.1" id="Capa_1" xmlns="http://www.w3.org/2000/svg" xmlns:xlink="http://www.w3.org/1999/xlink" x="0px" y="0px"
	 width="494.032px" height="494.032px" viewBox="0 0 494.032 494.032" style="enable-background:new 0 0 494.032 494.032;"
	 xml:space="preserve">
<g>
	<g>
		<path d="M289.911,127.785c0,0.046,0.016,0.089,0.021,0.133c-0.046,0.472,0.529,274.273,1.538,276.021
			c0,31.498-29.134,54.418-59.093,62.477c-27.613,7.428-85.918-5.346-80.241-44.176h13.429v-22.984h-54.484v22.984h15.741
			c-2.567,49.217,52.532,75.23,96.609,71.426c50.862-4.391,94.449-46.734,94.449-95.064c0-3.854-2.427-269.685-2.427-270.815
			c0-29.05,17.996-57.414,49.571-58.643c33.447-1.3,50.751,29.593,50.751,60.939c0,3.41,0.083,305.781,0.083,305.781
			c0,16.471,27.243,16.471,27.243,0c0,0-0.488-308.948-1.307-310.581c0-42.72-30.333-78.394-72.941-81.61
			C322.755,40.192,289.911,83.838,289.911,127.785z"/>
		<path d="M111.08,386.484h54.484h18.729l24.028-237.875c-20.355,12.625-44.334,19.937-69.997,19.937s-49.642-7.312-70-19.937
			l24.028,237.875H111.08L111.08,386.484z"/>
		<path d="M50.93,87.393c0,13.222,2.952,24.316,8.208,33.478c1.288,2.242,2.703,4.375,4.258,6.385
			c1.762,2.277,3.698,4.396,5.78,6.384h-0.312c0.435,0.307,0.861,0.623,1.3,0.924c19.017,13.103,41.962,20.872,66.68,21.174
			c0.496,0.007,0.984,0.038,1.481,0.038c0.496,0,0.983-0.03,1.479-0.038c24.72-0.302,47.667-8.073,66.685-21.176
			c0.437-0.301,0.863-0.615,1.297-0.922h-0.312c2.082-1.987,4.021-4.109,5.78-6.384c1.556-2.011,2.97-4.144,4.257-6.385
			c5.256-9.162,8.208-20.256,8.208-33.478C225.719,39.127,186.592,0,138.326,0C90.057,0,50.93,39.127,50.93,87.393z"/>
	</g>
</g>
<g>
</g>
<g>
</g>
<g>
</g>
<g>
</g>
<g>
</g>
<g>
</g>
<g>
</g>
<g>
</g>
<g>
</g>
<g>
</g>
<g>
</g>
<g>
</g>
<g>
</g>
<g>
</g>
<g>
</g>
</svg>
