<?xml version="1.0" encoding="iso-8859-1"?>
<!-- Generator: Adobe Illustrator 16.0.0, SVG Export Plug-In . SVG Version: 6.00 Build 0)  -->
<!DOCTYPE svg PUBLIC "-//W3C//DTD SVG 1.1//EN" "http://www.w3.org/Graphics/SVG/1.1/DTD/svg11.dtd">
<svg version="1.1" id="Capa_1" xmlns="http://www.w3.org/2000/svg" xmlns:xlink="http://www.w3.org/1999/xlink" x="0px" y="0px"
	 width="491.883px" height="491.883px" viewBox="0 0 491.883 491.883" style="enable-background:new 0 0 491.883 491.883;"
	 xml:space="preserve">
<g>
	<g>
		<path d="M210.125,456.069c92.4,0,170.867-59.642,199.014-142.527c-22.863,37.619-64.232,62.75-111.471,62.75
			c-71.99,0-130.35-58.358-130.35-130.35c0-71.989,58.359-130.349,130.35-130.349c47.236,0,88.607,25.128,111.473,62.748
			C380.994,95.456,302.527,35.813,210.127,35.813C94.078,35.813,0,129.892,0,245.94S94.076,456.069,210.125,456.069z"/>
		<path d="M367.664,179.058c-0.896-3.746-2.973-5.726-5.445-5.726c-1.686,0-3.555,0.918-5.359,2.819l-28.152,29.598l-40.387-3.329
			c-0.381-0.032-0.746-0.046-1.102-0.046c-5.633,0-7.695,3.917-4.566,9.147l21.049,35.21l-17.377,38.468
			c-2.412,5.336-0.158,9.15,5.033,9.15c0.551,0,1.131-0.045,1.744-0.133l39.312-5.637l31.182,24.6
			c1.777,1.402,3.477,2.072,4.949,2.072c2.736,0,4.695-2.311,4.939-6.515l2.496-42.563l37.973-19.604
			c5.752-2.969,5.676-7.63-0.176-10.405l-36.609-17.379L367.664,179.058z"/>
		<path d="M441.012,320.843l-4.869,18.529c-0.605,2.303,0.369,3.774,2.252,3.774c0.441,0,0.932-0.081,1.463-0.251l17.17-5.496
			l15.814,8.65c0.729,0.396,1.395,0.586,1.969,0.586c1.469,0,2.352-1.223,2.123-3.32l-2.102-19.236l15.514-11.645
			c2.35-1.764,1.963-3.844-0.863-4.645l-17.697-5.013l-7.256-17.06c-0.617-1.443-1.549-2.18-2.531-2.18
			c-0.859,0-1.76,0.557-2.523,1.693l-10.363,15.374l-18.326,1.563c-2.928,0.25-3.756,2.265-1.85,4.5L441.012,320.843z"/>
	</g>
</g>
<g>
</g>
<g>
</g>
<g>
</g>
<g>
</g>
<g>
</g>
<g>
</g>
<g>
</g>
<g>
</g>
<g>
</g>
<g>
</g>
<g>
</g>
<g>
</g>
<g>
</g>
<g>
</g>
<g>
</g>
</svg>
