<?xml version="1.0" encoding="iso-8859-1"?>
<!-- Generator: Adobe Illustrator 16.0.0, SVG Export Plug-In . SVG Version: 6.00 Build 0)  -->
<!DOCTYPE svg PUBLIC "-//W3C//DTD SVG 1.1//EN" "http://www.w3.org/Graphics/SVG/1.1/DTD/svg11.dtd">
<svg version="1.1" id="Capa_1" xmlns="http://www.w3.org/2000/svg" xmlns:xlink="http://www.w3.org/1999/xlink" x="0px" y="0px"
	 width="486.736px" height="486.736px" viewBox="0 0 486.736 486.736" style="enable-background:new 0 0 486.736 486.736;"
	 xml:space="preserve">
<g>
	<g>
		<path d="M128.406,6.792c-13.524,25.604,2.161,52.338,26.631,63.435c14.209,6.443,29.815,7.739,44.971,10.586
			c13.58,2.552,31.334,8.813,32.08,24.723h27.146c-0.219-25.368-20.56-41.587-43.208-48.759c-13.87-4.393-28.771-4.871-42.829-8.645
			c-11.066-2.972-28.706-13.772-21.374-27.651C159.98,5.029,136.576-8.676,128.406,6.792z"/>
		<path d="M384.377,204.554c0-47.197-38.263-85.459-85.459-85.459h-47.732h-1.037v0.382v135.984h134.229V204.554z"/>
		<path d="M102.359,255.461h134.229V119.095h-48.77c-47.197,0-85.459,38.262-85.459,85.459V255.461z"/>
		<rect x="102.359" y="269.019" width="282.018" height="217.718"/>
	</g>
</g>
<g>
</g>
<g>
</g>
<g>
</g>
<g>
</g>
<g>
</g>
<g>
</g>
<g>
</g>
<g>
</g>
<g>
</g>
<g>
</g>
<g>
</g>
<g>
</g>
<g>
</g>
<g>
</g>
<g>
</g>
</svg>
