<?xml version="1.0" encoding="iso-8859-1"?>
<!-- Generator: Adobe Illustrator 16.0.0, SVG Export Plug-In . SVG Version: 6.00 Build 0)  -->
<!DOCTYPE svg PUBLIC "-//W3C//DTD SVG 1.1//EN" "http://www.w3.org/Graphics/SVG/1.1/DTD/svg11.dtd">
<svg version="1.1" id="Capa_1" xmlns="http://www.w3.org/2000/svg" xmlns:xlink="http://www.w3.org/1999/xlink" x="0px" y="0px"
	 width="491.023px" height="491.023px" viewBox="0 0 491.023 491.023" style="enable-background:new 0 0 491.023 491.023;"
	 xml:space="preserve">
<g>
	<g>
		<rect y="175.02" width="52.948" height="140.98"/>
		<polygon points="266.762,175.02 78.031,175.02 78.031,316 125.785,316 		"/>
		<polygon points="463.93,175.02 386.053,175.02 245.072,316 463.93,316 		"/>
		<path d="M90.415,111.907c1.259,0.105,2.295,0.329,3.449,0.458c0.639,0.093,0.961,0.096,1.859,0.247l2.506,0.398l2.513,0.397
			l2.244,0.319l6.193,0.79c8.408,0.687,17.244,0.301,25.92-1.614c8.667-1.883,17.093-5.42,24.236-10.204
			c7.172-4.759,13.002-10.667,17.316-16.731c4.359-6.064,7.178-12.318,9.1-18.072c3.757-11.608,3.76-21.407,3.052-28.077
			c-0.72-6.696-2.226-10.357-2.226-10.357s-2.437,3.1-6.448,7.845c-4.021,4.717-9.735,11.119-16.604,16.969
			c-3.395,2.943-7.176,5.643-11.048,7.89c-3.885,2.25-7.893,3.995-11.983,5.211c-8.137,2.419-16.985,3.007-27.348,2.133
			l-3.926-0.442l-5.341-0.561l-2.526-0.247c-0.778-0.087-2.145-0.111-3.188-0.16c-2.208-0.048-4.519-0.229-6.606-0.112
			c-8.288,0.139-16.897,1.534-25.076,4.483c-8.174,2.943-15.813,7.673-21.634,13.451c-5.898,5.735-9.796,12.421-12.095,18.581
			c-2.286,6.218-3.115,11.963-3.217,16.9c-0.079,4.952,0.518,9.113,1.298,12.448c0.759,3.332,1.711,5.838,2.443,7.51
			c0.735,1.672,1.257,2.506,1.257,2.506s1.885-3.491,5.271-8.594c3.371-5.05,8.498-11.81,14.969-16.584
			c3.157-2.446,6.697-4.185,10.258-5.335c3.585-1.153,7.284-1.777,11.463-2.006C80.688,111.136,85.33,111.329,90.415,111.907z"/>
		<polygon points="475.049,26.375 459.074,10.4 459.074,10.4 294.453,175.02 153.473,316 20.81,448.666 36.786,464.645 
			52.762,480.623 52.762,480.621 217.381,316 358.361,175.02 491.023,42.354 		"/>
	</g>
</g>
<g>
</g>
<g>
</g>
<g>
</g>
<g>
</g>
<g>
</g>
<g>
</g>
<g>
</g>
<g>
</g>
<g>
</g>
<g>
</g>
<g>
</g>
<g>
</g>
<g>
</g>
<g>
</g>
<g>
</g>
</svg>
