<?xml version="1.0" encoding="iso-8859-1"?>
<!-- Generator: Adobe Illustrator 16.0.0, SVG Export Plug-In . SVG Version: 6.00 Build 0)  -->
<!DOCTYPE svg PUBLIC "-//W3C//DTD SVG 1.1//EN" "http://www.w3.org/Graphics/SVG/1.1/DTD/svg11.dtd">
<svg version="1.1" id="Capa_1" xmlns="http://www.w3.org/2000/svg" xmlns:xlink="http://www.w3.org/1999/xlink" x="0px" y="0px"
	 width="495px" height="495px" viewBox="0 0 495 495" style="enable-background:new 0 0 495 495;" xml:space="preserve">
<g>
	<g>
		<rect x="92.125" y="200.285" width="35.467" height="94.433"/>
		<polygon points="402.875,294.714 402.875,200.285 343.329,200.285 248.896,294.714 		"/>
		<polygon points="246.103,200.285 144.392,200.285 144.392,294.714 151.67,294.714 		"/>
		<path d="M247.5,495C384.191,495,495,384.191,495,247.5C495,110.809,384.191,0,247.5,0C110.808,0,0,110.809,0,247.5
			C0,384.191,110.808,495,247.5,495z M453.75,247.5c0,113.727-92.523,206.25-206.25,206.25c-49.451,0-94.88-17.507-130.452-46.632
			l290.07-290.07C436.24,152.62,453.75,198.049,453.75,247.5z M247.5,41.25c49.45,0,94.881,17.506,130.452,46.632L87.882,377.951
			C58.759,342.381,41.25,296.95,41.25,247.5C41.25,133.773,133.773,41.25,247.5,41.25z"/>
	</g>
</g>
<g>
</g>
<g>
</g>
<g>
</g>
<g>
</g>
<g>
</g>
<g>
</g>
<g>
</g>
<g>
</g>
<g>
</g>
<g>
</g>
<g>
</g>
<g>
</g>
<g>
</g>
<g>
</g>
<g>
</g>
</svg>
