<?xml version="1.0" encoding="iso-8859-1"?>
<!-- Generator: Adobe Illustrator 16.0.0, SVG Export Plug-In . SVG Version: 6.00 Build 0)  -->
<!DOCTYPE svg PUBLIC "-//W3C//DTD SVG 1.1//EN" "http://www.w3.org/Graphics/SVG/1.1/DTD/svg11.dtd">
<svg version="1.1" id="Capa_1" xmlns="http://www.w3.org/2000/svg" xmlns:xlink="http://www.w3.org/1999/xlink" x="0px" y="0px"
	 width="487px" height="487px" viewBox="0 0 487 487" style="enable-background:new 0 0 487 487;" xml:space="preserve">
<g>
	<g>
		<path d="M45.993,413.391c-17.091,16.201-18.516,38.457-17.374,60.7c0.881,17.17,27.647,17.256,26.761,0
			c-0.719-14.013-2.691-32.66,10.168-42.151c6.037-4.456,13.638-5.813,21.412-5.927v53.955h371.719V0H86.958v0.024
			C72.025,0.258,57.061,3.251,45.993,13.745C28.901,29.948,27.477,52.202,28.619,74.446c0.881,17.172,27.647,17.255,26.761,0
			c-0.719-14.012-2.691-32.66,10.168-42.152c6.037-4.455,13.638-5.813,21.412-5.926v73.568
			c-14.933,0.234-29.899,3.227-40.967,13.721c-17.091,16.202-18.516,38.457-17.374,60.7c0.881,17.169,27.647,17.256,26.761,0
			c-0.719-14.012-2.691-32.66,10.168-42.152c6.037-4.455,13.638-5.813,21.412-5.926v73.568
			c-14.933,0.234-29.899,3.227-40.967,13.721c-17.091,16.202-18.516,38.458-17.374,60.704c0.881,17.17,27.647,17.256,26.761,0
			c-0.719-14.016-2.691-32.661,10.168-42.151c6.037-4.456,13.638-5.813,21.412-5.926v73.57
			c-14.933,0.232-29.899,3.227-40.967,13.721c-17.091,16.201-18.516,38.457-17.374,60.701c0.881,17.172,27.647,17.255,26.761,0
			c-0.719-14.014-2.691-32.66,10.168-42.153c6.037-4.455,13.638-5.812,21.412-5.927v73.568
			C72.028,399.905,57.061,402.896,45.993,413.391z M171.809,50.085H373.83V157.83H171.809V50.085z"/>
	</g>
</g>
<g>
</g>
<g>
</g>
<g>
</g>
<g>
</g>
<g>
</g>
<g>
</g>
<g>
</g>
<g>
</g>
<g>
</g>
<g>
</g>
<g>
</g>
<g>
</g>
<g>
</g>
<g>
</g>
<g>
</g>
</svg>
