<?xml version="1.0" encoding="iso-8859-1"?>
<!-- Generator: Adobe Illustrator 16.0.0, SVG Export Plug-In . SVG Version: 6.00 Build 0)  -->
<!DOCTYPE svg PUBLIC "-//W3C//DTD SVG 1.1//EN" "http://www.w3.org/Graphics/SVG/1.1/DTD/svg11.dtd">
<svg version="1.1" id="Capa_1" xmlns="http://www.w3.org/2000/svg" xmlns:xlink="http://www.w3.org/1999/xlink" x="0px" y="0px"
	 width="490.353px" height="490.352px" viewBox="0 0 490.353 490.352" style="enable-background:new 0 0 490.353 490.352;"
	 xml:space="preserve">
<g>
	<g>
		<path d="M321.523,95.278V65.319H0v359.715h321.522V242.35l-33.015-124.804l-3.348-12.647l12.647-3.346L321.523,95.278z
			 M90.114,375.911H63.949V114.438h26.164L90.114,375.911L90.114,375.911z M173.843,375.911h-26.164V114.438h26.164V375.911z
			 M257.574,375.911H231.41V114.438h26.165V375.911z"/>
		<path d="M399.021,175.445l-6.324,1.672l-6.322,1.671l-21.543-81.435l-43.308,11.458l-20.369,5.389l20.369,77l61.861,233.832
			l63.678-16.848l-20.303-76.75l6.324-1.672l6.323-1.672l50.945-13.477l-40.384-152.647L399.021,175.445z M432.712,302.799
			l-6.323,1.672l-6.324,1.672L393.063,204.08l6.323-1.672l6.324-1.672l25.649-6.786l27.001,102.061L432.712,302.799z"/>
	</g>
</g>
<g>
</g>
<g>
</g>
<g>
</g>
<g>
</g>
<g>
</g>
<g>
</g>
<g>
</g>
<g>
</g>
<g>
</g>
<g>
</g>
<g>
</g>
<g>
</g>
<g>
</g>
<g>
</g>
<g>
</g>
</svg>
