<?xml version="1.0" encoding="iso-8859-1"?>
<!-- Generator: Adobe Illustrator 16.0.0, SVG Export Plug-In . SVG Version: 6.00 Build 0)  -->
<!DOCTYPE svg PUBLIC "-//W3C//DTD SVG 1.1//EN" "http://www.w3.org/Graphics/SVG/1.1/DTD/svg11.dtd">
<svg version="1.1" id="Capa_1" xmlns="http://www.w3.org/2000/svg" xmlns:xlink="http://www.w3.org/1999/xlink" x="0px" y="0px"
	 width="493.72px" height="493.721px" viewBox="0 0 493.72 493.721" style="enable-background:new 0 0 493.72 493.721;"
	 xml:space="preserve">
<g>
	<g>
		<polygon points="83.964,264.421 83.964,493.721 368.703,493.721 368.703,264.421 326.125,264.421 326.125,379.068 
			286.208,379.068 286.208,264.421 246.292,264.421 246.292,379.068 206.375,379.068 206.375,264.421 166.458,264.421 
			166.458,379.068 126.542,379.068 126.542,264.421 		"/>
		<path d="M349.782,140.04l2.648-6.102l2.646-6.105l23.295-53.709L207.477,0l-23.296,53.708l-2.647,6.105l-2.647,6.102
			l-62.254-27.002l-34.946,80.565l295.405,128.127l34.941-80.565L349.782,140.04z M218.152,75.698l2.648-6.105l7.412-17.089
			l97.652,42.356l-7.411,17.087l-2.647,6.105l-2.647,6.102L215.506,81.8L218.152,75.698z"/>
	</g>
</g>
<g>
</g>
<g>
</g>
<g>
</g>
<g>
</g>
<g>
</g>
<g>
</g>
<g>
</g>
<g>
</g>
<g>
</g>
<g>
</g>
<g>
</g>
<g>
</g>
<g>
</g>
<g>
</g>
<g>
</g>
</svg>
