<?xml version="1.0" encoding="iso-8859-1"?>
<!-- Generator: Adobe Illustrator 16.0.0, SVG Export Plug-In . SVG Version: 6.00 Build 0)  -->
<!DOCTYPE svg PUBLIC "-//W3C//DTD SVG 1.1//EN" "http://www.w3.org/Graphics/SVG/1.1/DTD/svg11.dtd">
<svg version="1.1" id="Capa_1" xmlns="http://www.w3.org/2000/svg" xmlns:xlink="http://www.w3.org/1999/xlink" x="0px" y="0px"
	 width="493.783px" height="493.783px" viewBox="0 0 493.783 493.783" style="enable-background:new 0 0 493.783 493.783;"
	 xml:space="preserve">
<g>
	<g>
		<polygon points="259.652,212.294 134.508,212.294 138.452,259.467 255.708,259.467 		"/>
		<polygon points="131.48,348.262 125.439,273.342 20.812,273.342 40.005,348.262 		"/>
		<polygon points="132.646,362.137 43.707,362.137 55.24,406.533 136.279,406.533 		"/>
		<path d="M385.13,229.523c15.277-15.297,30.555-31.103,45.832-44.977h39.51c24.973,0,24.973-44.397,0-44.397h-47.5
			c-4.648,0-8.488,1.632-11.555,3.668c-1.801,0.977-3.561,2.456-5.24,4.134c-19.137,19.164-38.275,38.451-57.416,57.614
			c-2.098,2.101-3.582,3.954-4.594,6.729h-70.341l-3.942,47.173h107.164L385.13,229.523z"/>
		<polygon points="17.109,259.467 124.273,259.467 120.331,212.294 4.582,212.294 		"/>
		<polygon points="243.704,406.533 247.335,362.137 146.823,362.137 150.453,406.533 		"/>
		<polygon points="373.345,273.342 268.72,273.342 262.675,348.262 354.152,348.262 		"/>
		<polygon points="350.451,362.137 261.509,362.137 257.879,406.533 338.919,406.533 		"/>
		<polygon points="254.542,273.342 139.617,273.342 145.658,348.262 248.498,348.262 		"/>
		<circle cx="98.041" cy="456.434" r="37.35"/>
		<circle cx="296.115" cy="456.434" r="37.35"/>
		<path d="M113.668,155.396l3.1-26.938c109.75,12.629,148.439,47.522,148.439,47.522S263.532,42.48,128.45,26.938L131.55,0
			L4.993,64.165L113.668,155.396z"/>
	</g>
</g>
<g>
</g>
<g>
</g>
<g>
</g>
<g>
</g>
<g>
</g>
<g>
</g>
<g>
</g>
<g>
</g>
<g>
</g>
<g>
</g>
<g>
</g>
<g>
</g>
<g>
</g>
<g>
</g>
<g>
</g>
</svg>
