<?xml version="1.0" encoding="iso-8859-1"?>
<!-- Generator: Adobe Illustrator 16.0.0, SVG Export Plug-In . SVG Version: 6.00 Build 0)  -->
<!DOCTYPE svg PUBLIC "-//W3C//DTD SVG 1.1//EN" "http://www.w3.org/Graphics/SVG/1.1/DTD/svg11.dtd">
<svg version="1.1" id="Capa_1" xmlns="http://www.w3.org/2000/svg" xmlns:xlink="http://www.w3.org/1999/xlink" x="0px" y="0px"
	 width="492.979px" height="492.979px" viewBox="0 0 492.979 492.979" style="enable-background:new 0 0 492.979 492.979;"
	 xml:space="preserve">
<g>
	<g>
		<path d="M156.662,80.572l-95.12,124.875h61.156l72.659-95.383C178.223,107.406,163.737,96.307,156.662,80.572z"/>
		<path d="M207.406,94.245c1.298-0.151,2.604-0.375,3.907-0.678c16.251-3.791,27.172-18.317,27.075-34.327
			c0.003-0.412-0.034-0.818-0.022-1.233c-0.088-2.166-0.361-4.354-0.873-6.542c-3.773-16.18-18.185-27.104-34.112-27.104
			c-2.637,0-5.314,0.3-7.993,0.923c-17.969,4.191-29.426,21.512-26.66,39.451c0.137,0.884,0.271,1.768,0.48,2.655
			c3.773,16.179,18.185,27.104,34.112,27.104C204.674,94.491,206.036,94.405,207.406,94.245z"/>
		<path d="M431.434,205.447L336.311,80.572c-7.074,15.736-21.562,26.834-38.691,29.492l72.66,95.383H431.434z"/>
		<path d="M281.662,93.567c1.304,0.303,2.607,0.526,3.906,0.678c1.367,0.16,2.732,0.246,4.086,0.246
			c15.926,0,30.34-10.928,34.111-27.104c0.207-0.887,0.344-1.771,0.48-2.655c2.768-17.939-8.688-35.26-26.659-39.45
			c-2.679-0.624-5.356-0.924-7.994-0.924c-15.929,0-30.338,10.928-34.112,27.104c-0.509,2.188-0.779,4.377-0.871,6.542
			c0.012,0.415-0.022,0.821-0.022,1.232C254.488,75.247,265.41,89.777,281.662,93.567z"/>
		<path d="M442.328,219.75h-61.156h-269.37H50.646H0l64.867,248.87h363.247l64.865-248.87H442.328z M304.42,446.41
			c0,0-84.052-47.588-89.209-126.549l-34.365,0.512l62.542-74.892l65.304,72.712l-33.149-0.224
			C275.541,317.97,274.479,406.099,304.42,446.41z"/>
	</g>
</g>
<g>
</g>
<g>
</g>
<g>
</g>
<g>
</g>
<g>
</g>
<g>
</g>
<g>
</g>
<g>
</g>
<g>
</g>
<g>
</g>
<g>
</g>
<g>
</g>
<g>
</g>
<g>
</g>
<g>
</g>
</svg>
