<?xml version="1.0" encoding="iso-8859-1"?>
<!-- Generator: Adobe Illustrator 16.0.0, SVG Export Plug-In . SVG Version: 6.00 Build 0)  -->
<!DOCTYPE svg PUBLIC "-//W3C//DTD SVG 1.1//EN" "http://www.w3.org/Graphics/SVG/1.1/DTD/svg11.dtd">
<svg version="1.1" id="Capa_1" xmlns="http://www.w3.org/2000/svg" xmlns:xlink="http://www.w3.org/1999/xlink" x="0px" y="0px"
	 width="489.277px" height="489.277px" viewBox="0 0 489.277 489.277" style="enable-background:new 0 0 489.277 489.277;"
	 xml:space="preserve">
<g>
	<g>
		<path d="M361.396,480.93l16.149,0.295l9.672-12.938c159.028-212.766,86.724-362.602,79.019-377.167
			c-25.35-51.256-76.567-83.068-133.821-83.068c-22.847,0-44.894,5.124-65.529,15.229c-34.28,16.784-60.47,46.16-73.802,81.081
			c-14.145-4.353-28.927-6.588-43.932-6.588c-22.831,0-44.86,5.121-65.482,15.219C47.877,130.518,21.048,160.939,8.13,198.64
			c-12.851,37.512-10.403,77.77,6.881,113.426C21.804,327.098,95.83,476.079,361.396,480.93z M294.443,86.72
			c11.433-5.6,23.617-8.437,36.217-8.437c31.805,0,60.246,17.727,74.221,46.269l0.789,1.507
			c0.147,0.263,14.758,28.577,14.866,76.684c0.104,46.276-13.457,119.34-76.908,209.202
			c-85.612-3.913-157.649-26.254-209.103-64.986c-39.187-29.502-53.664-58.981-54.821-61.43l-0.661-1.427
			C59.029,243.223,76,193.684,116.878,173.666c11.417-5.592,23.584-8.426,36.168-8.426c16.225,0,31.983,4.728,45.631,13.706
			c5.315,3.481,11.459,5.32,17.765,5.32c16.934,0,30.696-12.804,32.014-29.76C250.736,125.465,268.357,99.493,294.443,86.72z"/>
	</g>
</g>
<g>
</g>
<g>
</g>
<g>
</g>
<g>
</g>
<g>
</g>
<g>
</g>
<g>
</g>
<g>
</g>
<g>
</g>
<g>
</g>
<g>
</g>
<g>
</g>
<g>
</g>
<g>
</g>
<g>
</g>
</svg>
