<?xml version="1.0" encoding="iso-8859-1"?>
<!-- Generator: Adobe Illustrator 16.0.0, SVG Export Plug-In . SVG Version: 6.00 Build 0)  -->
<!DOCTYPE svg PUBLIC "-//W3C//DTD SVG 1.1//EN" "http://www.w3.org/Graphics/SVG/1.1/DTD/svg11.dtd">
<svg version="1.1" id="Capa_1" xmlns="http://www.w3.org/2000/svg" xmlns:xlink="http://www.w3.org/1999/xlink" x="0px" y="0px"
	 width="485.561px" height="485.561px" viewBox="0 0 485.561 485.561" style="enable-background:new 0 0 485.561 485.561;"
	 xml:space="preserve">
<g>
	<g>
		<path d="M369.697,359.053V116.682C369.697,47.982,326.765,0,265.297,0h-47.493C156.83,0,115.862,46.89,115.862,116.682
			c0,0,0,269.708,0,269.8c0,53.341,43.439,99.078,97.031,99.025c0.684,0.014,1.36,0.053,2.047,0.053
			c53.809,0,97.703-43.125,99.078-96.62V200.612c0-39.487-29.852-70.419-67.963-70.419h-7.368
			c-37.345,0-65.508,30.274-65.508,70.419v156.394h36.847V200.612c0-16.711,8.861-33.573,28.658-33.573h7.37
			c17.738,0,31.115,14.433,31.115,33.573v185.87c0,34.313-27.916,62.23-62.23,62.23c-18.405,0-34.962-8.038-46.367-20.781
			c-9.177-11.877-15.862-30.354-15.862-59.053v-252.2c0-58.863,33.627-79.833,65.097-79.833h47.492
			c46.663,0,67.553,40.096,67.553,79.833v242.372h36.849v0.002H369.697z"/>
	</g>
</g>
<g>
</g>
<g>
</g>
<g>
</g>
<g>
</g>
<g>
</g>
<g>
</g>
<g>
</g>
<g>
</g>
<g>
</g>
<g>
</g>
<g>
</g>
<g>
</g>
<g>
</g>
<g>
</g>
<g>
</g>
</svg>
