<?xml version="1.0" encoding="iso-8859-1"?>
<!-- Generator: Adobe Illustrator 16.0.0, SVG Export Plug-In . SVG Version: 6.00 Build 0)  -->
<!DOCTYPE svg PUBLIC "-//W3C//DTD SVG 1.1//EN" "http://www.w3.org/Graphics/SVG/1.1/DTD/svg11.dtd">
<svg version="1.1" id="Capa_1" xmlns="http://www.w3.org/2000/svg" xmlns:xlink="http://www.w3.org/1999/xlink" x="0px" y="0px"
	 width="487.961px" height="487.961px" viewBox="0 0 487.961 487.961" style="enable-background:new 0 0 487.961 487.961;"
	 xml:space="preserve">
<g>
	<g>
		<circle cx="178.058" cy="49.439" r="49.439"/>
		<polygon points="325.843,226.53 325.843,219.118 325.843,208.045 299.436,208.045 299.436,118.261 53.85,118.261 53.85,295.189 
			96.102,295.189 96.102,186.919 111.945,186.919 111.945,306.686 111.945,487.961 167.399,487.961 167.399,295.189 
			185.884,295.189 185.884,487.961 243.98,487.961 243.98,295.484 243.98,186.919 259.824,186.919 259.824,208.655 259.824,242.375 
			354.89,242.375 354.89,226.53 334.67,226.53 		"/>
		<polygon points="394.502,196.809 382.631,188.098 370.734,196.809 370.734,171.075 333.765,171.075 333.765,208.045 
			333.765,218.608 354.89,218.608 431.471,218.608 431.471,171.075 394.502,171.075 		"/>
		<path d="M385.887,131.552c-1.539,0.048-2.509-0.407-2.942-1.492c-0.058-0.145-0.102-0.328-0.143-0.523
			c0.043,0.177,0.077,0.357,0.143,0.523c0.018-0.042,0.021-0.087,0.037-0.13c0.443,1.041,1.397,1.572,2.905,1.527
			c8.277-0.256,16.482-2.633,24.154-5.273c1.293,0,2.576-0.415,3.837-1.022c1.28-0.615,2.861-1.619,4.483-1.619
			c2.033-2.641,4.116-2.641,5.794-5.281c3.268-2.641,4.924-6.227,1.269-10.431c-2.874-3.306-8.516-2.179-12.24-1.445
			c-3.89,0.766-7.682,1.693-11.262,3.407c-4.709,2.255-8.936,5.828-12.626,8.469c-1.294,2.641-2.51,2.641-3.671,5.281
			c-0.796,0-1.565,1.574-2.298,2.641h-0.215c-0.021,0-0.047,0.058-0.073,0.103c0.046,0.045,0.097,0.097,0.151,0.063
			c0.07,0.264,0.092,0.824,0.061,1.275c-0.02-0.222-0.059-0.449-0.139-0.681c-0.044-0.135-0.097-0.272-0.169-0.41
			c-0.067,0.137-0.12,0.275-0.168,0.41c-0.079,0.232-0.12,0.459-0.139,0.681c-0.041-0.592,0-1.442,0.139-1.442
			c0.044,0,0.097,0.108,0.168-0.029c-0.055-0.111-0.115,0.003-0.185,0.029h-0.029c-0.021,0-0.042-0.005-0.065-0.04
			c-0.758-1.062-1.565-2.601-2.396-2.601c-1.162-2.641-2.377-2.641-3.671-5.281c-3.692-2.641-7.917-6.116-12.625-8.374
			c-3.581-1.716-7.373-2.735-11.265-3.501c-3.726-0.734-9.365-1.957-12.237,1.35c-3.658,4.204-1.997,7.885,1.268,10.525
			c1.676,2.641,3.76,2.641,5.793,5.281c1.625,0,3.204,1.004,4.484,1.619c1.259,0.607,2.542,1.022,3.837,1.022h-24.729v13.203v2.641
			v21.125h2.642h97.706h2.641v-21.125v-2.641v-13.203h-24.068C402.37,128.824,394.165,131.298,385.887,131.552z M399.801,118.261
			c0.907,0,1.835-0.771,2.788-1.281c4.691-2.511,11.25-5.163,16.724-4.637c3.293,0.317-0.829,2.665-1.822,3.277
			c-1.285,0.795-2.58,1.249-3.921,1.952c-0.687,0.359-1.395,0.687-2.089,0.687c-2.103,2.641-4.235,2.653-6.459,3.409
			c-1.384,0.472-2.781,1.875-4.178,1.875c-2.614,0-5.244,1.315-7.914,1.698c0.569-0.586,1.172-1.698,1.776-1.698
			C396.299,120.902,397.996,120.902,399.801,118.261z M360.874,121.67c-2.224-0.755-4.356-0.769-6.46-3.409
			c-0.696,0-1.4-0.28-2.088-0.639c-1.34-0.702-2.636-1.299-3.921-2.094c-0.996-0.615-5.116-2.773-1.823-3.09
			c5.476-0.525,12.032,1.98,16.726,4.495c0.955,0.512,1.882,1.328,2.788,1.328c1.804,2.641,3.502,2.641,5.094,5.281
			c0.605,0,1.207,1.109,1.777,1.698c-2.672-0.383-5.304-1.698-7.914-1.698C363.655,123.543,362.255,122.14,360.874,121.67z
			 M382.687,128.362c0.005,0.019,0,0.037,0.005,0.056c-0.011,0.145,0.011,0.285,0.02,0.43
			C382.697,128.676,382.688,128.518,382.687,128.362z"/>
		<path d="M382.947,126.294c0.037,0.071,0.069,0.04,0.097-0.008C383.009,126.254,382.977,126.233,382.947,126.294z"/>
	</g>
</g>
<g>
</g>
<g>
</g>
<g>
</g>
<g>
</g>
<g>
</g>
<g>
</g>
<g>
</g>
<g>
</g>
<g>
</g>
<g>
</g>
<g>
</g>
<g>
</g>
<g>
</g>
<g>
</g>
<g>
</g>
</svg>
