<?xml version="1.0" encoding="iso-8859-1"?>
<!-- Generator: Adobe Illustrator 16.0.0, SVG Export Plug-In . SVG Version: 6.00 Build 0)  -->
<!DOCTYPE svg PUBLIC "-//W3C//DTD SVG 1.1//EN" "http://www.w3.org/Graphics/SVG/1.1/DTD/svg11.dtd">
<svg version="1.1" id="Capa_1" xmlns="http://www.w3.org/2000/svg" xmlns:xlink="http://www.w3.org/1999/xlink" x="0px" y="0px"
	 width="492.676px" height="492.676px" viewBox="0 0 492.676 492.676" style="enable-background:new 0 0 492.676 492.676;"
	 xml:space="preserve">
<g>
	<g>
		<path d="M492.676,121.6H346.715l-23.494-74.789h-40.795H210.25h-40.794L145.961,121.6H0v324.266h492.676V121.6L492.676,121.6z
			 M246.338,415.533c-72.791,0-131.799-59.009-131.799-131.799c0-72.792,59.008-131.8,131.799-131.8s131.799,59.008,131.799,131.8
			C378.137,356.525,319.129,415.533,246.338,415.533z"/>
		<path d="M246.338,199.006c-46.72,0-84.728,38.008-84.728,84.729c0,46.72,38.008,84.728,84.728,84.728
			c46.721,0,84.728-38.008,84.728-84.728C331.065,237.014,293.059,199.006,246.338,199.006z"/>
	</g>
</g>
<g>
</g>
<g>
</g>
<g>
</g>
<g>
</g>
<g>
</g>
<g>
</g>
<g>
</g>
<g>
</g>
<g>
</g>
<g>
</g>
<g>
</g>
<g>
</g>
<g>
</g>
<g>
</g>
<g>
</g>
</svg>
