<?xml version="1.0" encoding="iso-8859-1"?>
<!-- Generator: Adobe Illustrator 16.0.0, SVG Export Plug-In . SVG Version: 6.00 Build 0)  -->
<!DOCTYPE svg PUBLIC "-//W3C//DTD SVG 1.1//EN" "http://www.w3.org/Graphics/SVG/1.1/DTD/svg11.dtd">
<svg version="1.1" id="Capa_1" xmlns="http://www.w3.org/2000/svg" xmlns:xlink="http://www.w3.org/1999/xlink" x="0px" y="0px"
	 width="488.979px" height="488.979px" viewBox="0 0 488.979 488.979" style="enable-background:new 0 0 488.979 488.979;"
	 xml:space="preserve">
<g>
	<g>
		<rect x="340.074" y="38.364" width="92.332" height="40.314"/>
		<path d="M0,450.614h488.979V91.683H0V450.614z M335.521,132.159h101.438v60.238H335.521V132.159z M41.971,271.146
			c0-4.835,0.245-9.613,0.723-14.323s1.189-9.351,2.123-13.909c1.865-9.12,4.619-17.918,8.164-26.299
			c1.771-4.19,3.743-8.275,5.899-12.245c2.156-3.969,4.499-7.824,7.017-11.55c2.518-3.727,5.21-7.324,8.066-10.786
			c2.159-2.614,4.437-5.125,6.778-7.574c25.513-26.728,61.461-43.407,101.325-43.407c41.105,0,78.075,17.702,103.703,45.899
			c4.522,4.976,8.692,10.279,12.468,15.869c2.519,3.727,4.861,7.582,7.018,11.55c2.158,3.97,4.129,8.055,5.898,12.245
			c3.547,8.381,6.299,17.177,8.166,26.299c0.934,4.56,1.643,9.199,2.121,13.909s0.725,9.488,0.725,14.323l0,0
			c0,16.925-3.002,33.149-8.5,48.171c-3.928,10.729-9.133,20.843-15.428,30.158c-3.775,5.591-7.944,10.894-12.467,15.869
			c-25.629,28.196-62.599,45.898-103.704,45.898c-14.508,0-28.499-2.205-41.659-6.299c-10.968-3.41-21.356-8.133-30.985-13.982
			c-3.852-2.342-7.582-4.861-11.176-7.551c-1.797-1.345-3.564-2.73-5.293-4.158c-3.459-2.856-6.781-5.873-9.949-9.041
			c-2.435-2.436-4.75-4.984-6.999-7.59c-1.832-2.123-3.61-4.29-5.311-6.52c-1.655-2.165-3.27-4.364-4.797-6.623
			c-2.518-3.729-4.861-7.582-7.017-11.551c-3.236-5.957-6.05-12.172-8.409-18.608C44.973,304.298,41.971,288.072,41.971,271.146
			L41.971,271.146z"/>
		<path d="M182.066,372.229c55.735,0,101.081-45.346,101.081-101.082c0-55.734-45.346-101.082-101.081-101.082
			c-55.735,0-101.08,45.345-101.08,101.082C80.986,326.886,126.331,372.229,182.066,372.229z"/>
	</g>
</g>
<g>
</g>
<g>
</g>
<g>
</g>
<g>
</g>
<g>
</g>
<g>
</g>
<g>
</g>
<g>
</g>
<g>
</g>
<g>
</g>
<g>
</g>
<g>
</g>
<g>
</g>
<g>
</g>
<g>
</g>
</svg>
