<?xml version="1.0" encoding="iso-8859-1"?>
<!-- Generator: Adobe Illustrator 16.0.0, SVG Export Plug-In . SVG Version: 6.00 Build 0)  -->
<!DOCTYPE svg PUBLIC "-//W3C//DTD SVG 1.1//EN" "http://www.w3.org/Graphics/SVG/1.1/DTD/svg11.dtd">
<svg version="1.1" id="Capa_1" xmlns="http://www.w3.org/2000/svg" xmlns:xlink="http://www.w3.org/1999/xlink" x="0px" y="0px"
	 width="498.391px" height="498.391px" viewBox="0 0 498.391 498.391" style="enable-background:new 0 0 498.391 498.391;"
	 xml:space="preserve">
<g>
	<g>
		<rect x="344.135" y="44.455" width="91.715" height="37.795"/>
		<path d="M0,453.936h498.391V97.414H0V453.936z M249.195,136.521c76.852,0,139.155,62.303,139.155,139.155
			c0,76.854-62.303,139.155-139.155,139.155c-76.854,0-139.156-62.302-139.156-139.155
			C110.039,198.82,172.342,136.521,249.195,136.521z"/>
		<path d="M249.195,369.328c51.641,0,93.655-42.012,93.655-93.654c0-51.644-42.015-93.652-93.655-93.652
			s-93.655,42.012-93.655,93.656C155.54,327.321,197.554,369.328,249.195,369.328z"/>
	</g>
</g>
<g>
</g>
<g>
</g>
<g>
</g>
<g>
</g>
<g>
</g>
<g>
</g>
<g>
</g>
<g>
</g>
<g>
</g>
<g>
</g>
<g>
</g>
<g>
</g>
<g>
</g>
<g>
</g>
<g>
</g>
</svg>
