<?xml version="1.0" encoding="iso-8859-1"?>
<!-- Generator: Adobe Illustrator 16.0.0, SVG Export Plug-In . SVG Version: 6.00 Build 0)  -->
<!DOCTYPE svg PUBLIC "-//W3C//DTD SVG 1.1//EN" "http://www.w3.org/Graphics/SVG/1.1/DTD/svg11.dtd">
<svg version="1.1" id="Capa_1" xmlns="http://www.w3.org/2000/svg" xmlns:xlink="http://www.w3.org/1999/xlink" x="0px" y="0px"
	 width="494.484px" height="494.485px" viewBox="0 0 494.484 494.485" style="enable-background:new 0 0 494.484 494.485;"
	 xml:space="preserve">
<g>
	<g>
		<path d="M436.5,110.03H57.983v274.427h378.521V110.03H436.5z M404.655,352.244H253.611l28.896-40.175l46.625-64.827
			L404.655,352.244z M352.428,145.698c16.482,0,29.846,13.361,29.846,29.845c0,16.484-13.362,29.845-29.846,29.845
			c-16.482,0-29.845-13.362-29.845-29.845C322.583,159.06,335.944,145.698,352.428,145.698z M202.111,200.291l72.311,100.539
			l-31.468,43.749l-5.514,7.665H92.822L202.111,200.291z"/>
		<path d="M494.484,52.409H0v389.667h494.484V52.409L494.484,52.409z M455.101,402.692H39.383v-310.9h415.717V402.692
			L455.101,402.692z"/>
	</g>
</g>
<g>
</g>
<g>
</g>
<g>
</g>
<g>
</g>
<g>
</g>
<g>
</g>
<g>
</g>
<g>
</g>
<g>
</g>
<g>
</g>
<g>
</g>
<g>
</g>
<g>
</g>
<g>
</g>
<g>
</g>
</svg>
