<?xml version="1.0" encoding="iso-8859-1"?>
<!-- Generator: Adobe Illustrator 16.0.0, SVG Export Plug-In . SVG Version: 6.00 Build 0)  -->
<!DOCTYPE svg PUBLIC "-//W3C//DTD SVG 1.1//EN" "http://www.w3.org/Graphics/SVG/1.1/DTD/svg11.dtd">
<svg version="1.1" id="Capa_1" xmlns="http://www.w3.org/2000/svg" xmlns:xlink="http://www.w3.org/1999/xlink" x="0px" y="0px"
	 width="491.695px" height="491.695px" viewBox="0 0 491.695 491.695" style="enable-background:new 0 0 491.695 491.695;"
	 xml:space="preserve">
<g>
	<g>
		<path d="M0,395.158h491.695V153.172H0V395.158z M245.848,177.798c53.453,0,96.787,43.334,96.787,96.788
			c0,53.451-43.334,96.785-96.787,96.785c-53.454,0-96.787-43.334-96.787-96.787C149.061,221.132,192.394,177.798,245.848,177.798z"
			/>
		<rect y="408.03" width="491.695" height="28.317"/>
		<polygon points="0,140.301 491.695,140.301 491.695,111.982 346.996,111.982 323.32,55.348 282.213,55.348 209.483,55.348 
			168.376,55.348 144.7,111.982 0,111.982 		"/>
		<path d="M245.848,332.757c32.076,0,58.171-26.097,58.171-58.173c0-32.075-26.096-58.171-58.171-58.171
			c-32.076,0-58.172,26.096-58.172,58.173C187.676,306.66,213.772,332.757,245.848,332.757z"/>
	</g>
</g>
<g>
</g>
<g>
</g>
<g>
</g>
<g>
</g>
<g>
</g>
<g>
</g>
<g>
</g>
<g>
</g>
<g>
</g>
<g>
</g>
<g>
</g>
<g>
</g>
<g>
</g>
<g>
</g>
<g>
</g>
</svg>
