<?xml version="1.0" encoding="iso-8859-1"?>
<!-- Generator: Adobe Illustrator 16.0.0, SVG Export Plug-In . SVG Version: 6.00 Build 0)  -->
<!DOCTYPE svg PUBLIC "-//W3C//DTD SVG 1.1//EN" "http://www.w3.org/Graphics/SVG/1.1/DTD/svg11.dtd">
<svg version="1.1" id="Capa_1" xmlns="http://www.w3.org/2000/svg" xmlns:xlink="http://www.w3.org/1999/xlink" x="0px" y="0px"
	 width="490.098px" height="490.098px" viewBox="0 0 490.098 490.098" style="enable-background:new 0 0 490.098 490.098;"
	 xml:space="preserve">
<g>
	<g>
		<path d="M443.976,158.56c-13.393-21.372-29.392-40.98-48.511-57.466c-14.43-12.423-50.278-37.937-46.843,0.063
			c-12.486-11.313-26.01-21.657-40.315-30.558c-22.608-14.09-60.535-25.925-49.921,15.867c-42.551-3.062-86.77,0.89-128.028,11.55
			c23.871,9.599,50.636,12.472,75.688,17.278c42.165,8.091,84.336,21.435,121.064,44.091
			c54.183,33.429,98.773,86.722,128.262,142.442c3.107,5.873,19.842,50.629,27.449,43.078c12.24-12.185,5.633-43.853,4.322-59.067
			C483.203,240.696,468.014,196.905,443.976,158.56z"/>
		<path d="M448.564,394.047c3.85,6.868,14.723,49.787,19.826,49.628c26.43-0.874-25.371-126.087-31.051-136.146
			c-36.626-64.75-91.143-122.311-159.923-152.458C188.42,116.076,66.974,128.483,0.002,46.423
			c-0.277,33.571,23.337,65.668,46.209,87.819c13.216,12.804,27.979,23.958,43.48,33.827c6.949,4.427,21.989,7.347,20.775,16.501
			c-2.087,15.82,4.513,31.668,14.09,43.948c46.162,59.147,134.59,60.814,201.148,78.142c31.896,8.297,63.558,21.955,88.118,44.346
			C427.479,363.442,439.544,377.896,448.564,394.047z"/>
	</g>
</g>
<g>
</g>
<g>
</g>
<g>
</g>
<g>
</g>
<g>
</g>
<g>
</g>
<g>
</g>
<g>
</g>
<g>
</g>
<g>
</g>
<g>
</g>
<g>
</g>
<g>
</g>
<g>
</g>
<g>
</g>
</svg>
