<?xml version="1.0" encoding="iso-8859-1"?>
<!-- Generator: Adobe Illustrator 16.0.0, SVG Export Plug-In . SVG Version: 6.00 Build 0)  -->
<!DOCTYPE svg PUBLIC "-//W3C//DTD SVG 1.1//EN" "http://www.w3.org/Graphics/SVG/1.1/DTD/svg11.dtd">
<svg version="1.1" id="Capa_1" xmlns="http://www.w3.org/2000/svg" xmlns:xlink="http://www.w3.org/1999/xlink" x="0px" y="0px"
	 width="495.566px" height="495.566px" viewBox="0 0 495.566 495.566" style="enable-background:new 0 0 495.566 495.566;"
	 xml:space="preserve">
<g>
	<g>
		<path d="M310.131,109.138c0-38.601-24.127-93.899-62.347-109.138c-38.219,15.239-62.348,70.537-62.348,109.138
			c0,38.602,24.129,93.896,62.348,109.151C286.004,203.037,310.131,147.742,310.131,109.138z"/>
		<path d="M277.914,271.922c32.011,25.879,92.06,19.823,125.711,0.92c33.648-18.887,70.044-67.007,64.616-107.787
			c-31.995-25.848-92.027-19.822-125.679-0.936C308.913,183.022,272.488,231.129,277.914,271.922z"/>
		<path d="M403.625,431.375c33.648-18.887,70.044-67.025,64.616-107.802c-31.995-25.849-92.027-19.823-125.679-0.92
			c-33.665,18.903-70.076,67.008-64.648,107.803C309.908,456.333,369.96,450.261,403.625,431.375z"/>
		<path d="M91.958,272.842c33.635,18.903,93.7,24.959,125.678-0.92c5.442-40.777-30.983-88.884-64.616-107.803
			c-33.652-18.886-93.7-24.928-125.695,0.936C21.9,205.835,58.325,253.955,91.958,272.842z"/>
		<path d="M91.958,431.375c33.635,18.89,93.7,24.958,125.678-0.919c5.442-40.78-30.983-88.899-64.616-107.803
			c-33.636-18.903-93.7-24.943-125.695,0.92C21.9,364.35,58.309,412.488,91.958,431.375z"/>
		<path d="M235.681,249.467v238.071c0,4.434,5.418,8.028,12.103,8.028c6.684,0,12.102-3.596,12.102-8.028V249.467
			c0-4.433-5.418-8.025-12.102-8.025C241.099,241.44,235.681,245.033,235.681,249.467z"/>
	</g>
</g>
<g>
</g>
<g>
</g>
<g>
</g>
<g>
</g>
<g>
</g>
<g>
</g>
<g>
</g>
<g>
</g>
<g>
</g>
<g>
</g>
<g>
</g>
<g>
</g>
<g>
</g>
<g>
</g>
<g>
</g>
</svg>
