<?xml version="1.0" encoding="iso-8859-1"?>
<!-- Generator: Adobe Illustrator 16.0.0, SVG Export Plug-In . SVG Version: 6.00 Build 0)  -->
<!DOCTYPE svg PUBLIC "-//W3C//DTD SVG 1.1//EN" "http://www.w3.org/Graphics/SVG/1.1/DTD/svg11.dtd">
<svg version="1.1" id="Capa_1" xmlns="http://www.w3.org/2000/svg" xmlns:xlink="http://www.w3.org/1999/xlink" x="0px" y="0px"
	 width="497.741px" height="497.74px" viewBox="0 0 497.741 497.74" style="enable-background:new 0 0 497.741 497.74;"
	 xml:space="preserve">
<g>
	<g>
		<path d="M264.832,191.984c5.433,3.444,12.141,4.85,18.461,5.338c13.14,1.043,26.225-2.587,38.046-8.114
			c11.608-5.415,22.353-12.701,32.122-20.942c0.741-0.629,14.059-13.102,11.733-13.555c-8.039-1.569-17.623-0.818-26.13-2.237
			c-10.101-1.672-20.378-2.475-30.591-2.75c-13.266-0.338-25.415,0.79-36.728,8.367c-1.163,0.78-8.677,8.321-13.411,13.35
			c0.499-13.902,1.051-26.697,1.613-38.214c2.722,2.319,6.054,5.829,7.516,6.511c4.434,2.073,9.537,2.373,14.34,1.846
			c9.804-1.094,19.422-5.415,27.225-11.369c8.934-6.808,13.354-16.545,19.106-25.915c2.285-3.743,11.908-12.691,12.649-16.709
			c0.226-1.268-17.325,5.691-20.313,6.634c-9.41,2.963-19.386,4.195-29.188,4.798c-8.934,0.565-17.4,3.996-23.913,10.175
			c-2.854,2.7-4.645,6.435-6.691,9.799c0.395-7.33,0.782-13.997,1.15-19.933c0.947-0.729,1.979-1.475,3.078-2.377
			c7.795-6.407,12.198-15.779,14.189-25.527c3.113-15.262,1.161-30.64-4.164-45.176c-0.841-2.288-11.123-26.207-11.351-25.982
			c-1.967,1.974-2.493,9.674-3.729,12.264c-2.803,5.842-7.351,10.916-11.132,16.131c-8.001,11.029-13.549,22.664-12.951,36.622
			c0.328,7.764,2.427,15.49,5.938,22.41c1.705,3.362,4.883,6.353,7.455,9.457c-0.422,6.777-0.877,14.531-1.334,23.175
			c-2.272-5.144-5.072-12.273-5.812-13.182c-6.562-8.04-16.728-11.808-26.104-15.464c-3.957-1.532-54.842-18.003-55.023-15.956
			c-0.414,4.725,16.771,23.052,20.007,26.997c7.079,8.631,14.559,16.947,23.542,23.643c8.579,6.407,19.643,13.154,30.854,12.072
			c3.358-0.333,8.47-4.955,11.975-7.084c-0.631,12.836-1.255,27.293-1.807,43.124c-2.753-3.503-5.215-10.206-7.686-12.946
			c-3.562-3.945-7.759-7.45-12.493-9.912c-10.165-5.29-23.581-4.221-34.635-3.28c-4.108,0.353-51.299,9.648-50.859,10.64
			c1.426,3.242,18.185,9.786,22.413,12.386c7.373,4.523,15.125,8.48,23.034,11.998c14.774,6.557,32.688,14.032,48.568,7.045
			c1.971-0.861,7.646-6.394,11.404-8.339c-0.509,15.656-0.938,32.567-1.235,50.521c-5.506-1.455-16.967-15.081-22.066-17.772
			c-11.2-5.931-23.215-7.613-35.74-6.772c-11.949,0.806-23.832,3.129-35.372,6.269c-0.872,0.228-21.042,6.972-18.253,8.769
			c8.135,5.264,19.289,7.976,27.953,13.429c10.584,6.673,20.835,13.696,32.913,17.452c10.897,3.391,22.727,3.807,33.159-1.346
			c2.052-1.012,12.763-10.177,17.307-13.578c-0.243,16.697-0.366,34.255-0.328,52.521c-4.405-2.574-9.799-12.238-14.893-14.723
			c-10.57-5.151-23.686-5.668-35.031-3.216c-21.677,4.686-36.859,21.066-56.143,30.626c-7.156,3.62,18.693,3.959,22.129,5.001
			c10.472,3.178,21.111,5.991,31.977,7.438c10.521,1.393,21.577,1.598,31.79-1.683c5.561-1.771,10.743-4.636,15.045-8.594
			c0.946-0.865,3.157-4.262,5.15-6.611c0.077,15.868,0.279,32.244,0.633,49.023c-5.396-4.273-14.744-9.731-16.275-10.261
			c-10.093-3.53-19.71-1.433-29.238,2.827c-11.717,5.238-21.93,13.493-30.729,22.737c-1.025,1.082-17.896,18.604-17.908,18.581
			c0.314,0.6,30.005,1.97,32.963,2.336c11.783,1.47,24.103,0.956,35.376-3.026c10.579-3.746,19.736-10.743,25.308-20.58
			c0.269-0.475,0.521-0.858,0.764-1.209c1.1,43.918,3.263,90.402,6.989,137.777l12.741-1.003
			c-3.797-48.271-5.964-95.62-7.032-140.243c6.182,3.344,13.213,15.924,19.717,19.539c9.039,5.013,19.879,6.332,30.013,7.247
			c8.993,0.806,18.606-0.24,27.374,2.146c6.619,1.785,15.854,9.563,22.286,9.736c1.104,0.038-14.146-21.006-15.854-22.979
			c-8.354-9.698-17.589-18.97-28.366-26.005c-10.468-6.819-23.933-11.873-36.603-9.95c-2.113,0.314-13.271,6.417-18.779,10.663
			c-0.344-16.63-0.537-32.854-0.606-48.578c4.582,4.432,13.164,16.23,16.523,18.417c9.265,6.044,20.11,7.286,30.983,7.073
			c4.497-0.086,51.582-7.851,51.695-9.195c0.199-2.437-23.064-16.959-25.642-19.171c-5.867-5.039-12.813-8.78-20.025-11.482
			c-14.283-5.377-33.394-8.442-47.385-0.554c-1.859,1.049-4.217,3.609-6.181,4.99c-0.018-16.062,0.09-31.551,0.292-46.383
			c4.721,5.036,12.638,13.859,14.795,15.088c9.446,5.365,19.537,6.633,30.265,6.271c22.939-0.768,36.744-16.496,57.675-21.383
			c0.828-0.314,1.646-0.616,2.476-0.931c-0.932,0.967-52.226-21.546-58.945-22.637c-11.051-1.798-21.974-1.13-32.492,2.812
			c-1.026,0.386-8.729,4.924-13.576,8.061c0.276-15.715,0.654-30.591,1.094-44.509C260.573,187.602,263.862,191.373,264.832,191.984
			z"/>
	</g>
</g>
<g>
</g>
<g>
</g>
<g>
</g>
<g>
</g>
<g>
</g>
<g>
</g>
<g>
</g>
<g>
</g>
<g>
</g>
<g>
</g>
<g>
</g>
<g>
</g>
<g>
</g>
<g>
</g>
<g>
</g>
</svg>
