<?xml version="1.0" encoding="iso-8859-1"?>
<!-- Generator: Adobe Illustrator 16.0.0, SVG Export Plug-In . SVG Version: 6.00 Build 0)  -->
<!DOCTYPE svg PUBLIC "-//W3C//DTD SVG 1.1//EN" "http://www.w3.org/Graphics/SVG/1.1/DTD/svg11.dtd">
<svg version="1.1" id="Capa_1" xmlns="http://www.w3.org/2000/svg" xmlns:xlink="http://www.w3.org/1999/xlink" x="0px" y="0px"
	 width="483.336px" height="483.336px" viewBox="0 0 483.336 483.336" style="enable-background:new 0 0 483.336 483.336;"
	 xml:space="preserve">
<g>
	<g>
		<path d="M241.668,0C108.198,0,0,108.198,0,241.668c0,133.471,108.198,241.668,241.668,241.668
			c133.469,0,241.668-108.197,241.668-241.668C483.336,108.198,375.137,0,241.668,0z M221.677,28.424h39.982v212.355h-39.982V28.424
			z M241.668,434.912c-106.556,0-193.245-86.688-193.245-193.244c0-73.207,40.583-139.277,105.911-172.428l18.091,35.655
			c-51.824,26.297-84.02,78.706-84.02,136.772c0,84.511,68.751,153.263,153.263,153.263c84.51,0,153.263-68.752,153.263-153.263
			c0-58.064-32.192-110.472-84.018-136.77l18.091-35.655c65.324,33.152,105.908,99.219,105.908,172.426
			C434.912,348.225,348.225,434.912,241.668,434.912z"/>
	</g>
</g>
<g>
</g>
<g>
</g>
<g>
</g>
<g>
</g>
<g>
</g>
<g>
</g>
<g>
</g>
<g>
</g>
<g>
</g>
<g>
</g>
<g>
</g>
<g>
</g>
<g>
</g>
<g>
</g>
<g>
</g>
</svg>
