<?xml version="1.0" encoding="iso-8859-1"?>
<!-- Generator: Adobe Illustrator 16.0.0, SVG Export Plug-In . SVG Version: 6.00 Build 0)  -->
<!DOCTYPE svg PUBLIC "-//W3C//DTD SVG 1.1//EN" "http://www.w3.org/Graphics/SVG/1.1/DTD/svg11.dtd">
<svg version="1.1" id="Capa_1" xmlns="http://www.w3.org/2000/svg" xmlns:xlink="http://www.w3.org/1999/xlink" x="0px" y="0px"
	 width="491.494px" height="491.494px" viewBox="0 0 491.494 491.494" style="enable-background:new 0 0 491.494 491.494;"
	 xml:space="preserve">
<g>
	<g>
		<rect x="99.633" width="292.229" height="124.338"/>
		<path d="M85.717,296.186V282.27h13.916h292.229h13.916v13.916v83.276h76.535V138.257h-76.537h-6.957h-6.959H99.633h-6.958h-6.958
			H9.181v241.205h76.536V296.186z M134.421,170.263c11.528,0,20.874,9.345,20.874,20.874c0,1.431-0.145,2.825-0.42,4.175
			c-0.512,2.516-1.491,4.859-2.819,6.958c-1.814,2.869-4.302,5.26-7.25,6.958c-3.061,1.761-6.599,2.783-10.384,2.783
			c-3.785,0-7.323-1.022-10.384-2.783c-2.947-1.695-5.436-4.089-7.25-6.958c-1.328-2.099-2.308-4.442-2.819-6.958
			c-0.273-1.35-0.42-2.744-0.42-4.175C113.547,179.608,122.894,170.263,134.421,170.263z M62.06,212.01
			c-11.528,0-20.874-9.346-20.874-20.874c0-11.528,9.346-20.874,20.874-20.874s20.874,9.345,20.874,20.874
			C82.934,202.664,73.587,212.01,62.06,212.01z"/>
		<path d="M99.633,379.459v6.958v6.958v98.119h292.229v-98.119v-6.958v-6.958v-83.275H99.633V379.459z M336.198,448.111H155.294
			v-13.916h180.904V448.111L336.198,448.111z M155.294,372.967h180.904v6.492v6.958v0.465H155.294v-0.465v-6.958V372.967z"/>
	</g>
</g>
<g>
</g>
<g>
</g>
<g>
</g>
<g>
</g>
<g>
</g>
<g>
</g>
<g>
</g>
<g>
</g>
<g>
</g>
<g>
</g>
<g>
</g>
<g>
</g>
<g>
</g>
<g>
</g>
<g>
</g>
</svg>
