<?xml version="1.0" encoding="iso-8859-1"?>
<!-- Generator: Adobe Illustrator 16.0.0, SVG Export Plug-In . SVG Version: 6.00 Build 0)  -->
<!DOCTYPE svg PUBLIC "-//W3C//DTD SVG 1.1//EN" "http://www.w3.org/Graphics/SVG/1.1/DTD/svg11.dtd">
<svg version="1.1" id="Capa_1" xmlns="http://www.w3.org/2000/svg" xmlns:xlink="http://www.w3.org/1999/xlink" x="0px" y="0px"
	 width="489.5px" height="489.5px" viewBox="0 0 489.5 489.5" style="enable-background:new 0 0 489.5 489.5;" xml:space="preserve"
	>
<g>
	<g>
		<polygon points="67.866,331.388 79.068,331.388 411.876,331.388 420.19,331.388 489.5,201.432 488.056,201.432 415.858,201.432 
			358.101,201.432 132.844,201.432 75.085,201.432 1.444,201.432 		"/>
		<path d="M0,461.343h488.056V231.688L432.21,337.461l-3.356,8.366h-8.662h-16.58H282.221c0.918,1.762,1.465,3.314,1.465,5.414
			c0,7.566-2.396,14.801-6.504,20.576c-6.863,11.552-18.502,17.277-31.709,17.277c-13.207,0-24.848-5.727-31.709-17.277
			c-4.104-5.775-6.503-13.01-6.503-20.576c0-2.104,0.546-3.652,1.464-5.414H87.333H67.866h-8.837l-4.742-8.229L0,232.505V461.343z"
			/>
		<path d="M415.858,186.992V96.257c0-36.807-28.815-68.1-65.618-68.1H140.705c-36.804,0-65.619,31.293-65.619,68.1v90.735h57.758
			V96.257c0-4.958,2.905-10.342,7.861-10.342h209.538c4.955,0,7.86,5.383,7.86,10.342v90.735H415.858z"/>
	</g>
</g>
<g>
</g>
<g>
</g>
<g>
</g>
<g>
</g>
<g>
</g>
<g>
</g>
<g>
</g>
<g>
</g>
<g>
</g>
<g>
</g>
<g>
</g>
<g>
</g>
<g>
</g>
<g>
</g>
<g>
</g>
</svg>
