<?xml version="1.0" encoding="iso-8859-1"?>
<!-- Generator: Adobe Illustrator 16.0.0, SVG Export Plug-In . SVG Version: 6.00 Build 0)  -->
<!DOCTYPE svg PUBLIC "-//W3C//DTD SVG 1.1//EN" "http://www.w3.org/Graphics/SVG/1.1/DTD/svg11.dtd">
<svg version="1.1" id="Capa_1" xmlns="http://www.w3.org/2000/svg" xmlns:xlink="http://www.w3.org/1999/xlink" x="0px" y="0px"
	 width="489.168px" height="489.168px" viewBox="0 0 489.168 489.168" style="enable-background:new 0 0 489.168 489.168;"
	 xml:space="preserve">
<g>
	<path d="M244.584,0C109.504,0,0,109.504,0,244.584c0,135.081,109.504,244.584,244.584,244.584s244.584-109.503,244.584-244.584
		C489.168,109.504,379.664,0,244.584,0z M244.584,32.737c27.771,0,54.514,4.402,79.567,12.547l-44.681,136.82
		c-10.93-3.793-19.02-8.659-34.887-8.659c-17.049,0-23.943,4.863-34.867,8.651L165.011,45.288
		C190.068,37.142,216.811,32.737,244.584,32.737z M196.085,244.584c0-26.743,21.756-48.499,48.499-48.499
		s48.498,21.756,48.498,48.499c0,26.742-21.756,48.498-48.498,48.498S196.085,271.326,196.085,244.584z M113.553,414.533
		c-19.766-17.417-37.17-38.193-51.309-62.096c-14.137-23.904-23.963-49.162-29.707-74.875l140.512-31.176
		c2.301,11.331,1.625,19.742,10.303,34.414c8.079,13.659,16.387,18.145,25.215,25.62L113.553,414.533z M369.366,419.171
		l-91.033-111.483c9.095-7.148,17.558-11.332,26.127-24.687c9.205-14.351,8.835-22.783,11.546-34.021l139.292,36.244
		c-6.673,25.488-17.408,50.373-32.406,73.75C407.896,382.352,389.751,402.482,369.366,419.171z"/>
</g>
<g>
</g>
<g>
</g>
<g>
</g>
<g>
</g>
<g>
</g>
<g>
</g>
<g>
</g>
<g>
</g>
<g>
</g>
<g>
</g>
<g>
</g>
<g>
</g>
<g>
</g>
<g>
</g>
<g>
</g>
</svg>
