<?xml version="1.0" encoding="iso-8859-1"?>
<!-- Generator: Adobe Illustrator 16.0.0, SVG Export Plug-In . SVG Version: 6.00 Build 0)  -->
<!DOCTYPE svg PUBLIC "-//W3C//DTD SVG 1.1//EN" "http://www.w3.org/Graphics/SVG/1.1/DTD/svg11.dtd">
<svg version="1.1" id="Capa_1" xmlns="http://www.w3.org/2000/svg" xmlns:xlink="http://www.w3.org/1999/xlink" x="0px" y="0px"
	 width="495.27px" height="495.27px" viewBox="0 0 495.27 495.27" style="enable-background:new 0 0 495.27 495.27;"
	 xml:space="preserve">
<g>
	<path d="M463.201,157.89c0,18.717-15.176,33.892-33.893,33.892h-90.934h-4.133h-51.013c-5.966-11.772-13.861-22.621-23.536-32.124
		c-23.055-22.64-53.547-35.111-85.862-35.107c-7.281,0-14.405,0.674-21.34,1.897c4.693-25.832,27.26-45.436,54.444-45.436
		c13.557,0,25.971,4.877,35.597,12.964C243.558,41.905,286.059,0,338.375,0c52.959,0,95.893,42.932,95.893,95.892
		c0,9.796-1.477,19.243-4.205,28.145C448.43,124.441,463.201,139.427,463.201,157.89z M386.01,293.146
		c0-34.738-28.164-62.901-62.902-62.901c-15.393,0-29.49,5.538-40.426,14.724c-0.379-19.399-5.857-37.54-15.107-53.183
		c-18.949-32.042-53.814-53.546-93.741-53.546c-7.564,0-14.945,0.773-22.074,2.242c-49.564,10.204-86.832,54.081-86.832,106.664
		c0,11.124,1.678,21.854,4.776,31.963c-20.857,0.459-37.635,17.479-37.635,38.446c0,21.259,17.234,38.491,38.493,38.491h103.271
		h4.695h144.58C357.846,356.048,386.01,327.886,386.01,293.146z M96.362,385.824l35.587,70.881l24.469-12.286l-35.586-70.879
		L96.362,385.824z M175.015,424.368l35.588,70.882l24.469-12.285l-35.588-70.882L175.015,424.368z M253.668,385.828l35.586,70.879
		l24.469-12.286l-35.586-70.878L253.668,385.828z M332.35,424.388l35.588,70.882l24.473-12.284l-35.588-70.884L332.35,424.388z"/>
</g>
<g>
</g>
<g>
</g>
<g>
</g>
<g>
</g>
<g>
</g>
<g>
</g>
<g>
</g>
<g>
</g>
<g>
</g>
<g>
</g>
<g>
</g>
<g>
</g>
<g>
</g>
<g>
</g>
<g>
</g>
</svg>
