<?xml version="1.0" encoding="iso-8859-1"?>
<!-- Generator: Adobe Illustrator 16.0.0, SVG Export Plug-In . SVG Version: 6.00 Build 0)  -->
<!DOCTYPE svg PUBLIC "-//W3C//DTD SVG 1.1//EN" "http://www.w3.org/Graphics/SVG/1.1/DTD/svg11.dtd">
<svg version="1.1" id="Capa_1" xmlns="http://www.w3.org/2000/svg" xmlns:xlink="http://www.w3.org/1999/xlink" x="0px" y="0px"
	 width="496.547px" height="496.547px" viewBox="0 0 496.547 496.547" style="enable-background:new 0 0 496.547 496.547;"
	 xml:space="preserve">
<g>
	<g>
		<path d="M496.547,260.691c0-29.418-23.535-53.295-52.801-53.94c4.35-14.181,6.701-29.235,6.701-44.84
			c0-84.382-68.404-152.784-152.784-152.784c-83.356,0-151.074,66.763-152.707,149.729c-15.338-12.882-35.114-20.652-56.711-20.652
			C39.507,138.204,0,177.714,0,226.45c0,48.734,39.509,88.246,88.245,88.246h202.831h6.584h144.881
			C472.371,314.691,496.547,290.516,496.547,260.691z"/>
		<rect x="71.091" y="342.781" width="42.46" height="93.688"/>
		<rect x="175.061" y="393.732" width="42.459" height="93.688"/>
		<rect x="279.029" y="342.781" width="42.461" height="93.688"/>
		<rect x="383" y="393.732" width="42.459" height="93.688"/>
	</g>
</g>
<g>
</g>
<g>
</g>
<g>
</g>
<g>
</g>
<g>
</g>
<g>
</g>
<g>
</g>
<g>
</g>
<g>
</g>
<g>
</g>
<g>
</g>
<g>
</g>
<g>
</g>
<g>
</g>
<g>
</g>
</svg>
