<?xml version="1.0" encoding="iso-8859-1"?>
<!-- Generator: Adobe Illustrator 16.0.0, SVG Export Plug-In . SVG Version: 6.00 Build 0)  -->
<!DOCTYPE svg PUBLIC "-//W3C//DTD SVG 1.1//EN" "http://www.w3.org/Graphics/SVG/1.1/DTD/svg11.dtd">
<svg version="1.1" id="Capa_1" xmlns="http://www.w3.org/2000/svg" xmlns:xlink="http://www.w3.org/1999/xlink" x="0px" y="0px"
	 width="489px" height="489px" viewBox="0 0 489 489" style="enable-background:new 0 0 489 489;" xml:space="preserve">
<g>
	<g>
		<path d="M489,0H0v489h489V0L489,0z M458.574,247.001c0,0,19.649,44.322-15.688,64.31c0,0-13.584,13.6-57.683,9.486l-43.273-75.021
			l86.554-50.277L458.574,247.001z M307.377,27.252c0,0,22.821,0.657,48.078,41.349l27.495,46.588l19.438-10.497l-20.147,44.045
			l-20.119,44.064l-47.869-7.324l-47.894-7.329l28.097-15.184l-48.208-89.257c0,0-18.478-42.017-52.192-46.308L307.377,27.252z
			 M83.002,405.267l-57.446-97.642c0,0-10.991-20.016,11.326-62.377l26.251-47.315l-18.89-11.443l48.192-4.938l48.195-4.927
			l17.895,45.001l17.932,45.01l-27.306-16.567L96.55,336.831C96.551,336.824,69.645,374.049,83.002,405.267z M204.6,437.662
			l-59.68-0.991c0,0-48.078-6.132-46.867-46.731c0,0-4.57-18.674,21.821-54.244l86.587,1.867L204.6,437.662z M190.037,164.464
			l-85.374-52.263l31.047-50.962c0,0,29.629-38.35,64.014-16.777c0,0,18.432,5.519,35.764,46.275L190.037,164.464z M412.443,414.96
			c0,0-11.429,19.739-59.229,22.628l-54.081,2.042v22.115l-29.188-38.663l-29.2-38.654l29.2-38.646l29.188-38.655v31.956h101.469
			c0,0,45.752,3.69,65.549-23.917L412.443,414.96z"/>
	</g>
</g>
<g>
</g>
<g>
</g>
<g>
</g>
<g>
</g>
<g>
</g>
<g>
</g>
<g>
</g>
<g>
</g>
<g>
</g>
<g>
</g>
<g>
</g>
<g>
</g>
<g>
</g>
<g>
</g>
<g>
</g>
</svg>
