<?xml version="1.0" encoding="iso-8859-1"?>
<!-- Generator: Adobe Illustrator 16.0.0, SVG Export Plug-In . SVG Version: 6.00 Build 0)  -->
<!DOCTYPE svg PUBLIC "-//W3C//DTD SVG 1.1//EN" "http://www.w3.org/Graphics/SVG/1.1/DTD/svg11.dtd">
<svg version="1.1" id="Capa_1" xmlns="http://www.w3.org/2000/svg" xmlns:xlink="http://www.w3.org/1999/xlink" x="0px" y="0px"
	 width="493.451px" height="493.451px" viewBox="0 0 493.451 493.451" style="enable-background:new 0 0 493.451 493.451;"
	 xml:space="preserve">
<g>
	<g>
		<path d="M420.487,352.01H307.539v-35.567l-32.487,43.027l-32.507,43.02l32.507,43.027l32.487,43.035v-24.616l60.198-2.275
			c53.211-3.215,65.931-25.188,65.931-25.188l59.783-111.085C471.414,356.118,420.487,352.01,420.487,352.01z"/>
		<path d="M451.526,192.181l-96.347,55.964l48.167,83.509c49.089,4.577,64.209-10.561,64.209-10.561
			c39.335-22.249,17.459-71.586,17.459-71.586L451.526,192.181z"/>
		<path d="M66.956,425.68c-14.868-34.753,15.083-76.187,15.083-76.187l58.553-96.576l30.396,18.444l-19.966-50.102l-19.918-50.093
			l-53.647,5.485l-53.645,5.498l21.028,12.737l-29.22,52.668c-24.84,47.157-12.608,69.435-12.608,69.435L66.956,425.68z"/>
		<path d="M83.707,408.618c-1.347,45.192,52.169,52.021,52.169,52.021l66.432,1.099l2.072-111.424l-96.383-2.076
			C78.622,387.831,83.707,408.618,83.707,408.618z"/>
		<path d="M324.365,181.026l53.285,8.152l22.395-49.049l22.43-49.027l-21.639,11.685l-30.604-51.862
			C342.119,5.628,316.715,4.899,316.715,4.899L190.573,5.062c37.53,4.774,58.099,51.547,58.099,51.547l53.657,99.358l-31.273,16.901
			L324.365,181.026z"/>
		<path d="M236.691,75.568c-19.295-45.371-39.812-51.511-39.812-51.511c-38.274-24.011-71.256,18.677-71.256,18.677L91.066,99.459
			l95.033,58.174L236.691,75.568z"/>
	</g>
</g>
<g>
</g>
<g>
</g>
<g>
</g>
<g>
</g>
<g>
</g>
<g>
</g>
<g>
</g>
<g>
</g>
<g>
</g>
<g>
</g>
<g>
</g>
<g>
</g>
<g>
</g>
<g>
</g>
<g>
</g>
</svg>
