<?xml version="1.0" encoding="iso-8859-1"?>
<!-- Generator: Adobe Illustrator 16.0.0, SVG Export Plug-In . SVG Version: 6.00 Build 0)  -->
<!DOCTYPE svg PUBLIC "-//W3C//DTD SVG 1.1//EN" "http://www.w3.org/Graphics/SVG/1.1/DTD/svg11.dtd">
<svg version="1.1" id="Capa_1" xmlns="http://www.w3.org/2000/svg" xmlns:xlink="http://www.w3.org/1999/xlink" x="0px" y="0px"
	 width="494.727px" height="494.727px" viewBox="0 0 494.727 494.727" style="enable-background:new 0 0 494.727 494.727;"
	 xml:space="preserve">
<g>
	<g>
		<path d="M109.914,309.974L86.912,451.953c-3.526,21.779,10.043,32.369,30.31,23.652l124.322-53.476l124.428,53.226
			c20.288,8.678,33.085-1.353,28.592-22.953l-15.393-73.519h-40.24h-13.408v-14.322v-56.805v-12.133h13.41h42.882l90.649-83.472
			c16.29-14.882,11.896-30.466-9.812-34.406l-135.873-24.813L260.222,30.611c-10.553-19.377-27.625-19.401-38.135-0.002
			l-66.314,122.352l-135.82,24.916c-21.704,3.98-26.434,19.632-10.566,34.965L109.914,309.974z"/>
		<polygon points="338.951,309.054 338.951,365.455 376.378,365.455 494.727,365.455 494.727,309.054 367.117,309.054 		"/>
	</g>
</g>
<g>
</g>
<g>
</g>
<g>
</g>
<g>
</g>
<g>
</g>
<g>
</g>
<g>
</g>
<g>
</g>
<g>
</g>
<g>
</g>
<g>
</g>
<g>
</g>
<g>
</g>
<g>
</g>
<g>
</g>
</svg>
