<?xml version="1.0" encoding="iso-8859-1"?>
<!-- Generator: Adobe Illustrator 16.0.0, SVG Export Plug-In . SVG Version: 6.00 Build 0)  -->
<!DOCTYPE svg PUBLIC "-//W3C//DTD SVG 1.1//EN" "http://www.w3.org/Graphics/SVG/1.1/DTD/svg11.dtd">
<svg version="1.1" id="Capa_1" xmlns="http://www.w3.org/2000/svg" xmlns:xlink="http://www.w3.org/1999/xlink" x="0px" y="0px"
	 width="496.01px" height="496.01px" viewBox="0 0 496.01 496.01" style="enable-background:new 0 0 496.01 496.01;"
	 xml:space="preserve">
<g>
	<g>
		<path d="M8.753,320.386c8.641,7.425,23.411,11.133,43.504,11.133c30.541,0,73.053-13.68,130.484-30.788v-2.494
			c-7.832-11.077-13.149-24.305-13.149-38.508c0-12.845,3.503-24.884,10.207-35.264c-14.261-16.076-93.647-99.746-179.794-36.884
			v115.292C0.005,303.891-0.512,312.426,8.753,320.386z M13.303,293.495c21.159-14.92,69.986-36.359,150.623-1.507
			C17.17,346.036,12.507,303.64,13.303,293.495z"/>
		<path d="M316.21,224.465c6.704,10.379,10.207,22.419,10.207,35.264c0,14.207-5.317,27.435-13.149,38.508v2.494
			c57.433,17.108,99.944,30.788,130.484,30.788c20.091,0,34.861-3.707,43.506-11.133c9.264-7.96,8.747-16.495,8.747-17.514V187.581
			C409.857,124.719,330.471,208.389,316.21,224.465z M332.084,291.988c80.637-34.854,129.465-13.413,150.622,1.507
			C483.503,303.64,478.841,346.036,332.084,291.988z"/>
		<path d="M248.005,317.107c35.986,0,65.262-25.739,65.262-57.376c0-31.638-29.276-57.377-65.262-57.377
			s-65.263,25.74-65.263,57.377C182.742,291.368,212.02,317.107,248.005,317.107z"/>
	</g>
</g>
<g>
</g>
<g>
</g>
<g>
</g>
<g>
</g>
<g>
</g>
<g>
</g>
<g>
</g>
<g>
</g>
<g>
</g>
<g>
</g>
<g>
</g>
<g>
</g>
<g>
</g>
<g>
</g>
<g>
</g>
</svg>
