<?xml version="1.0" encoding="iso-8859-1"?>
<!-- Generator: Adobe Illustrator 16.0.0, SVG Export Plug-In . SVG Version: 6.00 Build 0)  -->
<!DOCTYPE svg PUBLIC "-//W3C//DTD SVG 1.1//EN" "http://www.w3.org/Graphics/SVG/1.1/DTD/svg11.dtd">
<svg version="1.1" id="Capa_1" xmlns="http://www.w3.org/2000/svg" xmlns:xlink="http://www.w3.org/1999/xlink" x="0px" y="0px"
	 width="494.418px" height="494.418px" viewBox="0 0 494.418 494.418" style="enable-background:new 0 0 494.418 494.418;"
	 xml:space="preserve">
<g>
	<g>
		<path d="M180.005,245.616l-72.876,100.892l55.69-1.947l15.613,53.453l70.695-97.875l70.694,97.875l15.612-53.453l55.691,1.947
			l-74.58-103.255c-0.834,9.312-8.669,16.64-18.192,16.64h-31.712h-35.022h-33.795C189.125,259.891,181.838,253.771,180.005,245.616
			z"/>
		<path d="M179.548,233.311v-76.807C165.587,140.731,84.655,56.469,0.083,119.497v115.31c-0.146,1.019-0.971,9.556,8.295,17.516
			c8.643,7.426,23.057,11.137,43.153,11.137C81.687,263.456,124.184,250.116,179.548,233.311z"/>
		<path d="M494.332,119.497c-81.521-60.755-159.666,15.35-177.699,35.046v79.301c54.497,16.549,96.42,29.61,126.255,29.613
			c20.095,0,34.509-3.708,43.153-11.137c9.266-7.959,8.439-16.497,8.294-17.515V119.497H494.332z"/>
		<path d="M248.569,246.835h1.122h48.662c2.885,0,5.223-2.339,5.223-5.222v-16.32v-84.21c0-2.882-2.338-5.222-5.223-5.222H197.824
			c-2.885,0-5.222,2.34-5.222,5.222v87.092v13.438c0,2.882,2.336,5.222,5.222,5.222H248.569L248.569,246.835z"/>
	</g>
</g>
<g>
</g>
<g>
</g>
<g>
</g>
<g>
</g>
<g>
</g>
<g>
</g>
<g>
</g>
<g>
</g>
<g>
</g>
<g>
</g>
<g>
</g>
<g>
</g>
<g>
</g>
<g>
</g>
<g>
</g>
</svg>
