<?xml version="1.0" encoding="iso-8859-1"?>
<!-- Generator: Adobe Illustrator 16.0.0, SVG Export Plug-In . SVG Version: 6.00 Build 0)  -->
<!DOCTYPE svg PUBLIC "-//W3C//DTD SVG 1.1//EN" "http://www.w3.org/Graphics/SVG/1.1/DTD/svg11.dtd">
<svg version="1.1" id="Capa_1" xmlns="http://www.w3.org/2000/svg" xmlns:xlink="http://www.w3.org/1999/xlink" x="0px" y="0px"
	 width="485.417px" height="485.417px" viewBox="0 0 485.417 485.417" style="enable-background:new 0 0 485.417 485.417;"
	 xml:space="preserve">
<g>
	<g>
		<path d="M306.349,223.693c-3.288,3.72-8.082,6.08-13.425,6.08h-98.7c-5.088,0-9.677-2.138-12.945-5.549
			C150.938,270.23,47.892,345.232,47.892,345.232h64.084v70.922c79.062-37.875,115.357-97.771,132.013-143.673
			c16.657,45.897,52.952,105.798,132.015,143.673v-70.922h64.085C440.088,345.232,336.245,269.653,306.349,223.693z"/>
		<path d="M8.226,222.346c8.485,7.291,22.638,10.93,42.367,10.93c29.607,0,71.332-13.098,125.69-29.599V128.27
			c-13.708-15.487-93.17-98.215-176.201-36.333v113.208C-0.062,206.146-0.875,214.529,8.226,222.346z M12.246,195.938
			c20.776-14.649,68.721-35.703,147.901-1.479C16.042,247.533,11.463,205.898,12.246,195.938z"/>
		<path d="M485.334,91.937c-80.036-59.648-156.761,15.07-174.467,34.408v77.857c53.506,16.252,94.666,29.07,123.957,29.073
			c19.729,0,33.881-3.64,42.368-10.93c9.097-7.814,8.286-16.2,8.144-17.198V91.937H485.334z M325.269,194.459
			c79.181-34.225,127.126-13.171,147.901,1.479C473.952,205.898,469.374,247.533,325.269,194.459z"/>
		<path d="M292.924,216.958c2.833,0,5.127-2.294,5.127-5.126v-8.29v-90.41c0-2.833-2.294-5.127-5.127-5.127h-98.7
			c-2.832,0-5.126,2.294-5.126,5.127v94.596v4.104c0,2.833,2.294,5.126,5.126,5.126H292.924z"/>
	</g>
</g>
<g>
</g>
<g>
</g>
<g>
</g>
<g>
</g>
<g>
</g>
<g>
</g>
<g>
</g>
<g>
</g>
<g>
</g>
<g>
</g>
<g>
</g>
<g>
</g>
<g>
</g>
<g>
</g>
<g>
</g>
</svg>
