<?xml version="1.0" encoding="iso-8859-1"?>
<!-- Generator: Adobe Illustrator 16.0.0, SVG Export Plug-In . SVG Version: 6.00 Build 0)  -->
<!DOCTYPE svg PUBLIC "-//W3C//DTD SVG 1.1//EN" "http://www.w3.org/Graphics/SVG/1.1/DTD/svg11.dtd">
<svg version="1.1" id="Capa_1" xmlns="http://www.w3.org/2000/svg" xmlns:xlink="http://www.w3.org/1999/xlink" x="0px" y="0px"
	 width="496.828px" height="496.827px" viewBox="0 0 496.828 496.827" style="enable-background:new 0 0 496.828 496.827;"
	 xml:space="preserve">
<g>
	<g>
		<circle cx="348.026" cy="90.039" r="38.421"/>
		<path d="M97.415,277.408c-46.338,0-83.901,37.563-83.901,83.901c0,46.337,37.563,83.899,83.901,83.899
			c46.337,0,83.9-37.562,83.9-83.899C181.315,314.972,143.752,277.408,97.415,277.408z M97.415,406.53
			c-24.936,0-45.222-20.286-45.222-45.221c0-24.937,20.286-45.223,45.222-45.223c24.935,0,45.221,20.286,45.221,45.223
			C142.636,386.244,122.35,406.53,97.415,406.53z"/>
		<path d="M12.882,309.168c4.139,0,8.202-1.987,10.693-5.678c16.609-24.585,44.213-39.263,73.836-39.263
			c29.61,0,57.207,14.666,73.816,39.232c3.989,5.9,12.006,7.449,17.903,3.459c5.9-3.99,7.447-12.005,3.458-17.904
			c-21.411-31.664-56.99-50.575-95.174-50.575c-38.203,0-73.792,18.918-95.203,50.614c-3.986,5.902-2.434,13.914,3.465,17.899
			C7.89,308.45,10.399,309.168,12.882,309.168z"/>
		<path d="M399.438,277.408c-46.339,0-83.899,37.563-83.899,83.901c0,46.337,37.562,83.899,83.898,83.899
			c46.34,0,83.9-37.562,83.9-83.899C483.338,314.972,445.777,277.408,399.438,277.408z M399.438,406.53
			c-24.937,0-45.222-20.286-45.222-45.221c0-24.937,20.285-45.223,45.222-45.223c24.936,0,45.222,20.286,45.222,45.223
			C444.66,386.244,424.374,406.53,399.438,406.53z"/>
		<path d="M399.438,238.441c-38.202,0-73.792,18.919-95.203,50.615c-3.986,5.901-2.434,13.914,3.467,17.898
			c2.212,1.496,4.724,2.21,7.207,2.21c4.139,0,8.202-1.988,10.692-5.676c16.608-24.587,44.214-39.263,73.837-39.263
			c29.609,0,57.203,14.664,73.814,39.231c3.989,5.899,12.009,7.446,17.903,3.457c5.899-3.988,7.446-12.002,3.458-17.903
			C473.203,257.349,437.623,238.441,399.438,238.441z"/>
		<path d="M349.178,220.84c2.13,2.313,6.183,3.136,9.046,1.833l75.043-32.818c9.192-4.387,13.084-15.397,8.698-24.588
			c-4.382-9.195-15.405-13.094-24.588-8.698L368.5,180.84c-2.818,1.397-6.854,0.678-9.014-1.607l-82.32-81.489
			c-2.161-2.288-5.755-2.38-8.032-0.207l-114.292,114.97c-2.274,2.174-2.189,5.599,0.196,7.651
			c14.484,12.475,61.361,52.88,77.547,67.137c2.362,2.077,3.206,6.11,1.909,8.976l-39.183,86.564
			c-1.297,2.864-0.846,7.25,1.006,9.792l26.095,35.801c4.469,6.134,11.246,9.589,18.265,10.052
			c5.547,0.365,11.25-1.142,16.096-4.668c10.973-8,13.384-23.384,5.382-34.355l-9.224-12.65c-1.854-2.543-2.359-6.951-1.13-9.847
			l39.523-93.112c1.229-2.895,0.392-7.017-1.876-9.199c-9.359-9.032-32.363-31.186-43.545-41.601
			c-2.303-2.146-2.365-5.629-0.106-7.821l49.737-48.287c2.256-2.192,5.814-2.092,7.944,0.222L349.178,220.84z"/>
	</g>
</g>
<g>
</g>
<g>
</g>
<g>
</g>
<g>
</g>
<g>
</g>
<g>
</g>
<g>
</g>
<g>
</g>
<g>
</g>
<g>
</g>
<g>
</g>
<g>
</g>
<g>
</g>
<g>
</g>
<g>
</g>
</svg>
