<?xml version="1.0" encoding="iso-8859-1"?>
<!-- Generator: Adobe Illustrator 16.0.0, SVG Export Plug-In . SVG Version: 6.00 Build 0)  -->
<!DOCTYPE svg PUBLIC "-//W3C//DTD SVG 1.1//EN" "http://www.w3.org/Graphics/SVG/1.1/DTD/svg11.dtd">
<svg version="1.1" id="Capa_1" xmlns="http://www.w3.org/2000/svg" xmlns:xlink="http://www.w3.org/1999/xlink" x="0px" y="0px"
	 width="490.333px" height="490.333px" viewBox="0 0 490.333 490.333" style="enable-background:new 0 0 490.333 490.333;"
	 xml:space="preserve">
<g>
	<g>
		<polygon points="170.623,213.472 170.623,445.588 132.52,445.588 132.52,490.333 276.464,490.333 276.464,445.588 238.36,445.588 
			238.36,213.472 		"/>
		<path d="M238.36,88.56V56.318h12.702c14.03,0,25.401-12.606,25.401-28.159C276.463,12.607,265.089,0,251.062,0H157.92
			c-14.031,0-25.402,12.607-25.402,28.159c0,15.552,11.374,28.159,25.402,28.159h12.702V88.56H238.36z"/>
		<polygon points="288.39,102.543 238.36,102.543 170.623,102.543 57.205,102.543 57.205,199.489 170.623,199.489 238.36,199.489 
			288.39,199.489 288.39,228.638 433.128,148.22 288.39,67.801 		"/>
	</g>
</g>
<g>
</g>
<g>
</g>
<g>
</g>
<g>
</g>
<g>
</g>
<g>
</g>
<g>
</g>
<g>
</g>
<g>
</g>
<g>
</g>
<g>
</g>
<g>
</g>
<g>
</g>
<g>
</g>
<g>
</g>
</svg>
