<?xml version="1.0" encoding="iso-8859-1"?>
<!-- Generator: Adobe Illustrator 16.0.0, SVG Export Plug-In . SVG Version: 6.00 Build 0)  -->
<!DOCTYPE svg PUBLIC "-//W3C//DTD SVG 1.1//EN" "http://www.w3.org/Graphics/SVG/1.1/DTD/svg11.dtd">
<svg version="1.1" id="Capa_1" xmlns="http://www.w3.org/2000/svg" xmlns:xlink="http://www.w3.org/1999/xlink" x="0px" y="0px"
	 width="485.75px" height="485.75px" viewBox="0 0 485.75 485.75" style="enable-background:new 0 0 485.75 485.75;"
	 xml:space="preserve">
<g>
	<g>
		<path d="M448.905,279.721c0-86.058-53.055-159.919-128.158-190.7l-27.509,37.903c64.128,21.192,110.55,81.657,110.55,152.797
			c0,88.729-72.186,160.913-160.914,160.913S81.96,368.448,81.96,279.721c0-71.14,46.421-131.604,110.546-152.797l-27.509-37.903
			c-75.1,30.78-128.153,104.642-128.153,190.7c0,113.604,92.425,206.029,206.03,206.029S448.905,393.325,448.905,279.721z"/>
		<polygon points="207.994,122.659 222.607,142.798 242.875,141.364 263.142,142.798 277.755,122.659 306.067,83.645 
			339.122,38.099 308.218,0 242.875,0 177.532,0 146.626,38.099 179.683,83.645 		"/>
	</g>
</g>
<g>
</g>
<g>
</g>
<g>
</g>
<g>
</g>
<g>
</g>
<g>
</g>
<g>
</g>
<g>
</g>
<g>
</g>
<g>
</g>
<g>
</g>
<g>
</g>
<g>
</g>
<g>
</g>
<g>
</g>
</svg>
