<?xml version="1.0" encoding="iso-8859-1"?>
<!-- Generator: Adobe Illustrator 16.0.0, SVG Export Plug-In . SVG Version: 6.00 Build 0)  -->
<!DOCTYPE svg PUBLIC "-//W3C//DTD SVG 1.1//EN" "http://www.w3.org/Graphics/SVG/1.1/DTD/svg11.dtd">
<svg version="1.1" id="Capa_1" xmlns="http://www.w3.org/2000/svg" xmlns:xlink="http://www.w3.org/1999/xlink" x="0px" y="0px"
	 width="483.289px" height="483.289px" viewBox="0 0 483.289 483.289" style="enable-background:new 0 0 483.289 483.289;"
	 xml:space="preserve">
<g>
	<g>
		<path d="M17.561,259.208c0,123.56,100.524,224.081,224.084,224.081c123.559,0,224.084-100.521,224.084-224.081
			c0-85.095-47.685-159.257-117.731-197.189l-10.152,45.921c49.944,31.877,83.166,87.747,83.166,151.268
			c0,98.901-80.464,179.364-179.365,179.364c-98.903,0-179.367-80.463-179.367-179.364c0-63.407,33.102-119.193,82.902-151.098
			l-11.286-45.306C64.616,100.959,17.561,174.683,17.561,259.208z"/>
		<polygon points="158.468,100.369 162.402,116.264 320.886,116.264 324.416,100.161 334.26,55.244 346.366,0 345.984,0 133.617,0 
			147.47,55.95 		"/>
	</g>
</g>
<g>
</g>
<g>
</g>
<g>
</g>
<g>
</g>
<g>
</g>
<g>
</g>
<g>
</g>
<g>
</g>
<g>
</g>
<g>
</g>
<g>
</g>
<g>
</g>
<g>
</g>
<g>
</g>
<g>
</g>
</svg>
