<?xml version="1.0" encoding="iso-8859-1"?>
<!-- Generator: Adobe Illustrator 16.0.0, SVG Export Plug-In . SVG Version: 6.00 Build 0)  -->
<!DOCTYPE svg PUBLIC "-//W3C//DTD SVG 1.1//EN" "http://www.w3.org/Graphics/SVG/1.1/DTD/svg11.dtd">
<svg version="1.1" id="Capa_1" xmlns="http://www.w3.org/2000/svg" xmlns:xlink="http://www.w3.org/1999/xlink" x="0px" y="0px"
	 width="483.91px" height="483.91px" viewBox="0 0 483.91 483.91" style="enable-background:new 0 0 483.91 483.91;"
	 xml:space="preserve">
<g>
	<g>
		<path d="M241.955,483.91c113.176,0,205.25-92.074,205.25-205.25c0-85.731-52.853-159.313-127.672-189.977l-27.404,37.76
			c63.886,21.112,110.131,81.348,110.131,152.217c0,88.393-71.912,160.305-160.305,160.305
			c-88.393,0-160.305-71.912-160.305-160.305c0-70.869,46.246-131.105,110.127-152.217l-27.404-37.76
			C89.558,119.348,36.705,192.929,36.705,278.66C36.705,391.836,128.78,483.91,241.955,483.91z"/>
		<polygon points="207.206,122.194 221.766,142.254 241.955,140.828 262.145,142.254 276.703,122.194 304.909,83.328 
			337.838,37.955 307.051,0 241.955,0 176.859,0 146.072,37.955 179.002,83.328 		"/>
	</g>
</g>
<g>
</g>
<g>
</g>
<g>
</g>
<g>
</g>
<g>
</g>
<g>
</g>
<g>
</g>
<g>
</g>
<g>
</g>
<g>
</g>
<g>
</g>
<g>
</g>
<g>
</g>
<g>
</g>
<g>
</g>
</svg>
