<?xml version="1.0" encoding="iso-8859-1"?>
<!-- Generator: Adobe Illustrator 16.0.0, SVG Export Plug-In . SVG Version: 6.00 Build 0)  -->
<!DOCTYPE svg PUBLIC "-//W3C//DTD SVG 1.1//EN" "http://www.w3.org/Graphics/SVG/1.1/DTD/svg11.dtd">
<svg version="1.1" id="Capa_1" xmlns="http://www.w3.org/2000/svg" xmlns:xlink="http://www.w3.org/1999/xlink" x="0px" y="0px"
	 width="481px" height="481px" viewBox="0 0 481 481" style="enable-background:new 0 0 481 481;" xml:space="preserve">
<g>
	<g>
		<path d="M481,0H0v481h481V0z M130.047,399.951c-25.602,0-46.358-20.754-46.358-46.357s20.754-46.359,46.358-46.359
			c25.601,0,46.358,20.756,46.358,46.359C176.406,379.197,155.651,399.951,130.047,399.951z M249.18,399.951
			c0-91.249-74.239-165.487-165.491-165.487v-42.286c114.568,0,207.776,93.208,207.776,207.773H249.18L249.18,399.951z
			 M368.961,399.951c0-157.301-127.972-285.27-285.272-285.27V72.396c180.616,0,327.558,146.943,327.558,327.556L368.961,399.951
			L368.961,399.951z"/>
	</g>
</g>
<g>
</g>
<g>
</g>
<g>
</g>
<g>
</g>
<g>
</g>
<g>
</g>
<g>
</g>
<g>
</g>
<g>
</g>
<g>
</g>
<g>
</g>
<g>
</g>
<g>
</g>
<g>
</g>
<g>
</g>
</svg>
