<?xml version="1.0" encoding="iso-8859-1"?>
<!-- Generator: Adobe Illustrator 16.0.0, SVG Export Plug-In . SVG Version: 6.00 Build 0)  -->
<!DOCTYPE svg PUBLIC "-//W3C//DTD SVG 1.1//EN" "http://www.w3.org/Graphics/SVG/1.1/DTD/svg11.dtd">
<svg version="1.1" id="Capa_1" xmlns="http://www.w3.org/2000/svg" xmlns:xlink="http://www.w3.org/1999/xlink" x="0px" y="0px"
	 width="488.211px" height="488.211px" viewBox="0 0 488.211 488.211" style="enable-background:new 0 0 488.211 488.211;"
	 xml:space="preserve">
<g>
	<g>
		<polygon points="270.778,287.721 252.956,297.234 261.308,305.586 		"/>
		<path d="M181.294,143.488c-0.929-15.953-3.291-31.881-7.136-47.701c-13.443-55.338-35.27-86.126-66.728-94.123
			C103.087,0.56,98.841,0,94.81,0C61.45,0,44.474,38.881,42.815,75.006c-1.833,39.947,10.142,81.009,33.721,115.62
			c2.697,3.959,6.746,6.136,11.403,6.136c5.415,0,10.647-3.019,13.022-7.514c2.09-3.954,1.727-8.355-1.027-12.397
			c-17.516-25.713-27.52-54.136-29.731-84.482c-1.069-14.684,0.166-45.962,12.501-59.226c3.665-3.943,7.914-5.859,12.992-5.859
			c3.239,0,6.837,0.811,10.694,2.404c14.246,5.89,21.957,20.786,29.236,36.841c5.97,13.17,10.72,28.243,14.522,46.086
			c2.352,11.035,3.815,22.438,4.392,34.018l-45.22,5.318L93.629,285.391l202.819,202.82l149.131-149.132L242.76,136.258
			L181.294,143.488z M153.564,182.146c-0.807,7.792-2.004,15.581-3.59,23.319c-0.854,4.163,0.081,8.179,2.635,11.307
			c2.723,3.338,7.151,5.412,11.554,5.412c6.216,0,10.874-3.873,12.153-10.105c1.869-9.118,3.24-18.263,4.147-27.418
			c1.36,0.942,2.656,1.998,3.85,3.193c5.22,5.22,8.096,12.16,8.096,19.542c0,7.383-2.876,14.323-8.096,19.541
			c-5.22,5.218-12.161,8.096-19.543,8.096s-14.323-2.876-19.54-8.096c-10.775-10.775-10.775-28.309,0-39.087
			C147.669,185.414,150.498,183.505,153.564,182.146z M372.099,369.328l-8.119,8.115l-19.711-19.711l-6.045,6.043l18.285,18.283
			l-7.756,7.756l-18.283-18.283l-7.498,7.496l20.283,20.281l-8.609,8.609l-32.057-32.059l38.02-38.021L372.099,369.328z
			 M316.958,314.189l-28.659,28.66l18.337,18.334l-9.363,9.362l-30.086-30.086l38.021-38.021L316.958,314.189z M287.188,284.418
			l-23.735,52.309l-12.304-12.303l4.373-8.178l-13.338-13.34l-8.13,4.423l-11.995-11.995l52.314-23.732L287.188,284.418z
			 M246.048,264.65l-11.722-10.426c1.417-2.006,2.045-3.869,1.879-5.59c-0.164-1.722-1.078-3.41-2.736-5.07
			c-1.366-1.365-2.684-2.105-3.956-2.217c-1.272-0.112-2.32,0.247-3.151,1.077c-0.604,0.604-0.864,1.436-0.779,2.489
			c0.052,1.055,0.898,2.835,2.541,5.343c4.028,6.242,6.589,11.04,7.678,14.394c1.091,3.354,1.301,6.377,0.637,9.063
			c-0.665,2.688-2.036,5.071-4.112,7.146c-2.437,2.438-5.36,4.01-8.765,4.72c-3.405,0.708-6.851,0.383-10.336-0.974
			c-3.483-1.358-7.068-3.877-10.751-7.562c-6.466-6.465-9.7-12.189-9.7-17.171s1.754-9.552,5.264-13.722l11.878,10.479
			c-1.573,2.06-2.463,3.937-2.67,5.627c-0.33,2.75,0.63,5.246,2.878,7.497c1.677,1.678,3.364,2.576,5.056,2.697
			c1.695,0.121,3.061-0.336,4.099-1.373c0.987-0.987,1.436-2.299,1.35-3.941c-0.085-1.645-1.357-4.383-3.813-8.222
			c-3.995-6.312-6.128-11.522-6.406-15.64c-0.294-4.133,1.046-7.687,4.021-10.66c1.955-1.952,4.366-3.235,7.237-3.84
			s5.939-0.27,9.207,1.013c3.268,1.279,6.881,3.898,10.842,7.856c4.858,4.859,7.659,9.467,8.402,13.827
			C250.86,255.831,249.505,260.225,246.048,264.65z"/>
	</g>
</g>
<g>
</g>
<g>
</g>
<g>
</g>
<g>
</g>
<g>
</g>
<g>
</g>
<g>
</g>
<g>
</g>
<g>
</g>
<g>
</g>
<g>
</g>
<g>
</g>
<g>
</g>
<g>
</g>
<g>
</g>
</svg>
