<?xml version="1.0" encoding="iso-8859-1"?>
<!-- Generator: Adobe Illustrator 16.0.0, SVG Export Plug-In . SVG Version: 6.00 Build 0)  -->
<!DOCTYPE svg PUBLIC "-//W3C//DTD SVG 1.1//EN" "http://www.w3.org/Graphics/SVG/1.1/DTD/svg11.dtd">
<svg version="1.1" id="Capa_1" xmlns="http://www.w3.org/2000/svg" xmlns:xlink="http://www.w3.org/1999/xlink" x="0px" y="0px"
	 width="491px" height="491px" viewBox="0 0 491 491" style="enable-background:new 0 0 491 491;" xml:space="preserve">
<g>
	<g>
		<path d="M82.695,159.575V112.3c6.321-5.45,10.337-13.498,10.337-22.499c0-16.412-13.306-29.718-29.719-29.718
			c-16.412,0-29.718,13.306-29.718,29.718c0,9.001,4.016,17.048,10.337,22.499v47.275H82.695z"/>
		<path d="M444.484,159.575V112.3c6.32-5.45,10.337-13.498,10.337-22.499c0-16.412-13.307-29.718-29.72-29.718
			c-16.412,0-29.719,13.306-29.719,29.718c0,9.001,4.017,17.048,10.337,22.499v47.275H444.484z"/>
		<polygon points="188.296,317.212 212.417,317.212 200.294,277.735 		"/>
		<path d="M405.721,172.496H82.695H43.932H0v258.421h491V172.496h-46.516H405.721z M129.019,342.578
			c-3.895,5.944-9.339,10.45-16.329,13.521c-6.991,3.069-15.805,4.607-26.442,4.607c-18.676,0-31.61-3.596-38.802-10.787
			c-7.192-7.191-11.262-16.329-12.21-27.415l32.285-2.021c0.701,5.242,2.122,9.238,4.27,11.984c3.496,4.445,8.489,6.668,14.98,6.668
			c4.843,0,8.577-1.138,11.197-3.408c2.621-2.271,3.934-4.908,3.934-7.902c0-2.846-1.249-5.395-3.745-7.643
			c-2.497-2.248-8.291-4.369-17.379-6.367c-14.882-3.347-25.494-7.791-31.835-13.334c-6.393-5.543-9.588-12.608-9.588-21.198
			c0-5.644,1.636-10.976,4.908-15.993c3.271-5.02,8.189-8.966,14.756-11.836c6.566-2.871,15.567-4.309,27.005-4.309
			c14.032,0,24.73,2.609,32.098,7.828c7.365,5.219,11.748,13.521,13.146,24.905l-31.985,1.874c-0.85-4.943-2.633-8.538-5.357-10.786
			c-2.721-2.248-6.479-3.371-11.272-3.371c-3.946,0-6.915,0.839-8.913,2.511c-1.998,1.672-2.995,3.709-2.995,6.106
			c0,1.746,0.824,3.32,2.473,4.718c1.597,1.448,5.393,2.797,11.386,4.045c14.831,3.196,25.457,6.43,31.874,9.701
			s11.086,7.329,14.006,12.172c2.92,4.846,4.383,10.262,4.383,16.256C134.862,330.144,132.914,336.638,129.019,342.578z
			 M224.951,358.56l-5.494-18.09h-38.528l-5.357,18.09H140.93l41.275-108.537h37.014L260.48,358.56H224.951z M359.205,358.56
			h-87.863V250.022h33.595v82.693h54.27L359.205,358.56L359.205,358.56z M465.158,250.022v23.258h-56.854v15.505h51.685v23.258
			h-51.685v20.674h56.854v25.843h-90.447V250.022H465.158z"/>
	</g>
</g>
<g>
</g>
<g>
</g>
<g>
</g>
<g>
</g>
<g>
</g>
<g>
</g>
<g>
</g>
<g>
</g>
<g>
</g>
<g>
</g>
<g>
</g>
<g>
</g>
<g>
</g>
<g>
</g>
<g>
</g>
</svg>
