<?xml version="1.0" encoding="iso-8859-1"?>
<!-- Generator: Adobe Illustrator 16.0.0, SVG Export Plug-In . SVG Version: 6.00 Build 0)  -->
<!DOCTYPE svg PUBLIC "-//W3C//DTD SVG 1.1//EN" "http://www.w3.org/Graphics/SVG/1.1/DTD/svg11.dtd">
<svg version="1.1" id="Capa_1" xmlns="http://www.w3.org/2000/svg" xmlns:xlink="http://www.w3.org/1999/xlink" x="0px" y="0px"
	 width="486.895px" height="486.895px" viewBox="0 0 486.895 486.895" style="enable-background:new 0 0 486.895 486.895;"
	 xml:space="preserve">
<g>
	<g>
		<polygon points="370.178,200.104 265.146,200.104 259.082,273.64 350.91,273.64 		"/>
		<polygon points="39.273,287.821 50.851,332.007 132.203,332.007 128.558,287.821 		"/>
		<polygon points="120.151,185.922 116.194,137.924 0,137.924 12.576,185.922 		"/>
		<polygon points="250.92,200.104 135.55,200.104 141.616,273.64 244.855,273.64 		"/>
		<polygon points="16.291,200.104 35.558,273.64 127.386,273.64 121.323,200.104 		"/>
		<polygon points="134.381,185.922 252.089,185.922 256.049,137.924 130.422,137.924 		"/>
		<path d="M408.395,69.634c-1.809,0.979-3.574,2.269-5.26,3.957c-19.213,19.236-38.424,38.471-57.637,57.707
			c-2.104,2.107-3.596,4.345-4.613,6.629h-70.611l-3.959,47.999h107.576l8.113-30.976c15.336-15.356,30.674-30.709,46.01-46.065
			h38.305c27.436,0,27.436-42.544,0-42.544h-46.326C415.326,66.338,411.471,67.589,408.395,69.634z"/>
		<polygon points="254.269,332.007 335.617,332.007 347.195,287.821 257.914,287.821 		"/>
		<polygon points="240.042,332.007 243.684,287.821 142.785,287.821 146.429,332.007 		"/>
		<circle cx="93.816" cy="383.061" r="37.493"/>
		<circle cx="292.65" cy="383.061" r="37.493"/>
	</g>
</g>
<g>
</g>
<g>
</g>
<g>
</g>
<g>
</g>
<g>
</g>
<g>
</g>
<g>
</g>
<g>
</g>
<g>
</g>
<g>
</g>
<g>
</g>
<g>
</g>
<g>
</g>
<g>
</g>
<g>
</g>
</svg>
