<?xml version="1.0" encoding="iso-8859-1"?>
<!-- Generator: Adobe Illustrator 16.0.0, SVG Export Plug-In . SVG Version: 6.00 Build 0)  -->
<!DOCTYPE svg PUBLIC "-//W3C//DTD SVG 1.1//EN" "http://www.w3.org/Graphics/SVG/1.1/DTD/svg11.dtd">
<svg version="1.1" id="Capa_1" xmlns="http://www.w3.org/2000/svg" xmlns:xlink="http://www.w3.org/1999/xlink" x="0px" y="0px"
	 width="497px" height="497px" viewBox="0 0 497 497" style="enable-background:new 0 0 497 497;" xml:space="preserve">
<g>
	<g>
		<rect x="189.461" y="301.22" width="121.347" height="96.457"/>
		<polygon points="173.113,471.792 173.113,414.025 50.259,414.025 65.395,471.792 		"/>
		<rect x="189.461" y="222.2" width="121.347" height="62.671"/>
		<rect x="189.461" y="414.025" width="121.347" height="57.767"/>
		<polygon points="476.296,301.22 327.156,301.22 327.156,397.677 451.024,397.677 		"/>
		<polygon points="327.156,471.792 431.605,471.792 446.74,414.025 327.156,414.025 		"/>
		<polygon points="173.113,301.22 20.704,301.22 45.976,397.677 173.113,397.677 		"/>
		<path d="M0,222.2l16.421,62.671h156.692V222.2h-60.398l84.234-110.586c-17.271-2.678-31.874-13.867-39.008-29.732L51.06,222.2H0z"
			/>
		<path d="M239.433,52.533c-3.802-16.31-18.333-27.325-34.391-27.325c-2.658,0-5.359,0.301-8.057,0.933
			c-18.118,4.224-29.666,21.688-26.877,39.772c0.137,0.89,0.275,1.782,0.484,2.675c3.802,16.31,18.333,27.325,34.391,27.325
			c1.364,0,2.737-0.085,4.117-0.249c1.311-0.153,2.625-0.376,3.94-0.683c16.312-3.803,27.292-18.341,27.292-34.401
			c0-0.513-0.039-1.023-0.023-1.537C240.211,56.889,239.94,54.711,239.433,52.533z"/>
		<path d="M339.055,81.886c-7.134,15.865-21.732,27.051-39.004,29.729L384.286,222.2h-57.133v62.671h153.423L497,222.2h-51.064
			L339.055,81.886z"/>
		<path d="M257.566,52.533c-0.506,2.181-0.777,4.355-0.873,6.514c0.017,0.513-0.025,1.023-0.021,1.537
			c-0.004,16.057,10.979,30.595,27.292,34.4c1.313,0.307,2.629,0.529,3.938,0.684c1.381,0.163,2.754,0.248,4.117,0.248
			c16.059,0,30.586-11.016,34.393-27.325c0.209-0.893,0.346-1.782,0.482-2.671c2.792-18.088-8.757-35.552-26.877-39.776
			c-2.701-0.632-5.397-0.932-8.057-0.932C275.9,25.208,261.369,36.224,257.566,52.533z"/>
	</g>
</g>
<g>
</g>
<g>
</g>
<g>
</g>
<g>
</g>
<g>
</g>
<g>
</g>
<g>
</g>
<g>
</g>
<g>
</g>
<g>
</g>
<g>
</g>
<g>
</g>
<g>
</g>
<g>
</g>
<g>
</g>
</svg>
