<?xml version="1.0" encoding="iso-8859-1"?>
<!-- Generator: Adobe Illustrator 16.0.0, SVG Export Plug-In . SVG Version: 6.00 Build 0)  -->
<!DOCTYPE svg PUBLIC "-//W3C//DTD SVG 1.1//EN" "http://www.w3.org/Graphics/SVG/1.1/DTD/svg11.dtd">
<svg version="1.1" id="Capa_1" xmlns="http://www.w3.org/2000/svg" xmlns:xlink="http://www.w3.org/1999/xlink" x="0px" y="0px"
	 width="493.75px" height="493.75px" viewBox="0 0 493.75 493.75" style="enable-background:new 0 0 493.75 493.75;"
	 xml:space="preserve">
<g>
	<g>
		<polygon points="493.75,121.448 56.14,121.448 113.72,342.647 436.17,342.647 		"/>
		<circle cx="159.785" cy="393.806" r="34.55"/>
		<circle cx="390.104" cy="393.806" r="34.55"/>
		<path d="M40.456,108.281c5.19-5.267,8.487-11.044,8.487-18.443c0-13.515-10.957-24.443-24.471-24.443
			C10.957,65.395,0,76.366,0,89.881c0,13.518,10.957,24.48,24.472,24.48c5.585,0,10.718-1.946,14.833-5.098l0.013-0.005
			C39.708,108.96,40.087,108.281,40.456,108.281h-1.349h-0.029H40.456z"/>
	</g>
</g>
<g>
</g>
<g>
</g>
<g>
</g>
<g>
</g>
<g>
</g>
<g>
</g>
<g>
</g>
<g>
</g>
<g>
</g>
<g>
</g>
<g>
</g>
<g>
</g>
<g>
</g>
<g>
</g>
<g>
</g>
</svg>
