<?xml version="1.0" encoding="iso-8859-1"?>
<!-- Generator: Adobe Illustrator 16.0.0, SVG Export Plug-In . SVG Version: 6.00 Build 0)  -->
<!DOCTYPE svg PUBLIC "-//W3C//DTD SVG 1.1//EN" "http://www.w3.org/Graphics/SVG/1.1/DTD/svg11.dtd">
<svg version="1.1" id="Capa_1" xmlns="http://www.w3.org/2000/svg" xmlns:xlink="http://www.w3.org/1999/xlink" x="0px" y="0px"
	 width="496.799px" height="496.799px" viewBox="0 0 496.799 496.799" style="enable-background:new 0 0 496.799 496.799;"
	 xml:space="preserve">
<g>
	<path d="M496.759,436.499c-0.394-5.511-5.067-55.28-10.182-55.28c-0.439-1.27-6.638-16.473-7.453-19.462l-80.979-329.43
		c-1.497-2.711-5.047-4.851-8.132-4.579c-48.375,4.264-96.943,6.309-145.508,6.247c-24.663-0.031-49.326-0.604-73.963-1.702
		c-12.332-0.549-24.657-1.228-36.975-2.038c-8.791-0.577-21.722,1.136-30.081-1.104c-1.752-0.471-3.255,1.542-4.556,4.354
		c-3.225,6.979-79.846,327.832-79.846,327.832c-1.122,2.886-4.108,6.692-5.205,9.592C7.389,388.1,3.326,406.132,1.288,424.377
		c-0.457,4.079-0.99,8.316-1.275,12.509c-0.21,3.09,2.207,6.298,5.176,7.175c6.166,1.816,12.362,3.647,18.693,4.826
		c22.636,5.606,45.597,10.09,68.681,13.407c24.59,3.529,49.368,5.643,74.19,6.438c7.186,0.229,14.313,0.312,21.478,0.333
		c3.099,0.011,6.738-2.232,8.171-4.977c2.627-5.043,5.386-10.297,7.441-15.736c8.494-22.402,7.035-46.305,15.153-68.176
		c8.383-22.587,17.412-44.93,26.561-67.212c1.178-2.865,4.167-3.729,5.647-1.009c5.889,10.819,15.113,39.23,16.949,43.907
		c3.96,10.063,7.781,20.188,11.367,30.395c3.373,9.593,2.924,19.938,4.509,29.979c2.22,14.104,5.95,27.821,11.924,40.786
		c1.111,2.423,2.66,5.002,4.123,7.32c1.653,2.618,5.526,4.744,8.624,4.731c7.225-0.023,14.446-0.176,21.667-0.396
		c41.505-0.959,83.054-6.446,123.58-15.35c9.752-2.14,19.655-4.148,29.244-6.944C490.539,444.24,497.39,445.454,496.759,436.499z"/>
</g>
<g>
</g>
<g>
</g>
<g>
</g>
<g>
</g>
<g>
</g>
<g>
</g>
<g>
</g>
<g>
</g>
<g>
</g>
<g>
</g>
<g>
</g>
<g>
</g>
<g>
</g>
<g>
</g>
<g>
</g>
</svg>
