<?xml version="1.0" encoding="iso-8859-1"?>
<!-- Generator: Adobe Illustrator 16.0.0, SVG Export Plug-In . SVG Version: 6.00 Build 0)  -->
<!DOCTYPE svg PUBLIC "-//W3C//DTD SVG 1.1//EN" "http://www.w3.org/Graphics/SVG/1.1/DTD/svg11.dtd">
<svg version="1.1" id="Capa_1" xmlns="http://www.w3.org/2000/svg" xmlns:xlink="http://www.w3.org/1999/xlink" x="0px" y="0px"
	 width="499.121px" height="499.121px" viewBox="0 0 499.121 499.121" style="enable-background:new 0 0 499.121 499.121;"
	 xml:space="preserve">
<g>
	<g>
		<polygon points="242.341,304.014 242.341,76.318 122.854,76.318 0,390.201 176,468.195 		"/>
		<path d="M256.779,198.667c40.814-21.802,43.561-77.233,44.337-118.708c0.026-1.447,0.429-2.642,1.036-3.641h-45.375v122.349
			H256.779z"/>
		<path d="M314.656,76.318c0.572,0.997,0.928,2.192,0.896,3.641c-0.941,50.363-6.971,111.962-58.773,134.59v89.464l66.34,164.182
			l176.002-77.994L376.266,76.318H314.656z"/>
		<polygon points="376.396,30.926 122.724,30.926 122.724,64.258 242.341,64.258 256.779,64.258 376.396,64.258 		"/>
	</g>
</g>
<g>
</g>
<g>
</g>
<g>
</g>
<g>
</g>
<g>
</g>
<g>
</g>
<g>
</g>
<g>
</g>
<g>
</g>
<g>
</g>
<g>
</g>
<g>
</g>
<g>
</g>
<g>
</g>
<g>
</g>
</svg>
