<?xml version="1.0" encoding="iso-8859-1"?>
<!-- Generator: Adobe Illustrator 16.0.0, SVG Export Plug-In . SVG Version: 6.00 Build 0)  -->
<!DOCTYPE svg PUBLIC "-//W3C//DTD SVG 1.1//EN" "http://www.w3.org/Graphics/SVG/1.1/DTD/svg11.dtd">
<svg version="1.1" id="Capa_1" xmlns="http://www.w3.org/2000/svg" xmlns:xlink="http://www.w3.org/1999/xlink" x="0px" y="0px"
	 width="493.806px" height="493.807px" viewBox="0 0 493.806 493.807" style="enable-background:new 0 0 493.806 493.807;"
	 xml:space="preserve">
<g>
	<g>
		<path d="M415.309,88.476l-0.059,44.913l-24.792-14.287l-7.104-12.307l-41.628,24.053l32.452-56.226l-42.441,25.222V50.112
			l-32.154,55.699V58.676h-14.111l-24.756-14.311l38.912-22.519V5.657l-45.92,26.572V0h-13.995v32.194L193.823,5.657l0.069,16.19
			l38.893,22.495l-24.776,14.335h-14.196v48.084l-32.468-56.236l0.625,49.368l-43.064-24.88l32.155,55.71l-40.822-23.561
			l-7.058,12.217l-24.78,14.266l-0.012-44.958l-14.023-8.069l0.029,53.076l-27.901-16.132l-7.018,12.123l27.889,16.098
			l-45.926,26.458l14.072,8.024l38.908-22.417l0.024,28.622l-7.105,12.296l41.627,24.053H34.054l43.052,24.135l-43.052,24.855
			h64.318l-40.819,23.561l7.041,12.228l-0.024,28.599l-38.948-22.442l-14.018,8.094l45.995,26.492l-27.923,16.13l7.001,12.123
			l27.894-16.107l-0.046,52.996l13.974-8.162l0.045-44.902l24.802,14.29l7.082,12.282l41.646-24.043l-32.458,56.236l42.44-25.221
			v49.711l32.16-55.686v47.145h14.112l24.73,14.312l-38.884,22.52v16.166l45.904-26.561v32.238h14.042v-32.195l45.841,26.516
			l-0.068-16.168l-38.868-22.496l24.772-14.332h14.181v-48.073l32.475,56.226l-0.612-49.365l43.053,24.855l-32.159-55.699
			l40.82,23.561l7.06-12.202l24.791-14.29l0.019,44.938l14.049,8.119l-0.074-53.078l27.946,16.13l6.997-12.134l-27.882-16.098
			l45.909-26.443l-14.062-8.049l-38.908,22.418l-0.02-28.623l7.081-12.295l-41.639-24.031h64.936l-43.074-24.135l43.074-24.879
			h-64.318l40.818-23.561l-7.045-12.203l0.028-28.601l38.919,22.439l14.032-8.094l-45.984-26.493l27.922-16.131l-6.993-12.123
			l-27.873,16.107l0.051-52.996L415.309,88.476z M222.201,94.842l24.642-14.654l24.364,14.654v57.552l-24.409-14.677l-24.597,14.677
			V94.842L222.201,94.842z M127.364,149.828l49.847,28.771l-24.919,13.795l0.412,28.656l-49.843-28.792l-0.383-28.68
			L127.364,149.828z M127.567,344.306l-25.05-13.987l0.557-28.439l49.835-28.779l-0.521,28.482l25.031,13.943L127.567,344.306z
			 M271.593,398.963l-24.63,14.68l-24.37-14.68v-57.551l24.409,14.679l24.591-14.679V398.963z M302.134,262.941l2.686,17.414
			l-16.471,6.492l-27.782-16.052v32.011L246.8,313.843l-13.864-11.036v-32.078l-27.712,15.98l-16.412-6.365l2.622-17.541
			l27.763-16.052l-27.713-15.983l-2.65-17.423l16.48-6.491l27.768,16.028v-31.998l13.761-11.026l13.854,11.026v32.114l27.725-16.007
			l16.429,6.39l-2.646,17.516l-27.755,16.052L302.134,262.941z M366.232,149.475l25.049,14.003l-0.55,28.438l-49.847,28.771
			l0.497-28.459l-24.999-13.968L366.232,149.475z M366.437,343.977l-49.842-28.771l24.925-13.796l-0.438-28.656l49.86,28.771
			l0.377,28.7L366.437,343.977z"/>
	</g>
</g>
<g>
</g>
<g>
</g>
<g>
</g>
<g>
</g>
<g>
</g>
<g>
</g>
<g>
</g>
<g>
</g>
<g>
</g>
<g>
</g>
<g>
</g>
<g>
</g>
<g>
</g>
<g>
</g>
<g>
</g>
</svg>
