<?xml version="1.0" encoding="iso-8859-1"?>
<!-- Generator: Adobe Illustrator 16.0.0, SVG Export Plug-In . SVG Version: 6.00 Build 0)  -->
<!DOCTYPE svg PUBLIC "-//W3C//DTD SVG 1.1//EN" "http://www.w3.org/Graphics/SVG/1.1/DTD/svg11.dtd">
<svg version="1.1" id="Capa_1" xmlns="http://www.w3.org/2000/svg" xmlns:xlink="http://www.w3.org/1999/xlink" x="0px" y="0px"
	 width="496.739px" height="496.739px" viewBox="0 0 496.739 496.739" style="enable-background:new 0 0 496.739 496.739;"
	 xml:space="preserve">
<g>
	<g>
		<path d="M494.881,227.936h-15.807l14.908-41.021l-24.559,2.936l-13.873,38.086h-14.887l13.18-36.23l-24.582,2.975l-12.086,33.255
			h-14.908l11.438-31.389l-24.582,2.924l-10.355,28.464h-24.631l17.986-31.128l56.332-32.457l22.689,4.83l12.318-44.957
			l-45.08-11.799l-7.305,22.526l-55.635,32.022h-36.467l12.281-21.295l29.82,5.251l14.848-19.825l-32.902-5.774l7.439-12.906
			l34.875,6.134l14.834-19.803l-37.975-6.697l7.441-12.893l39.928,7.057l14.838-19.838l-42.99-7.567l7.904-13.705l-35.42-20.424
			l-7.902,13.666l-28.053-33.43l-9.732,22.739l26.051,31.079l-7.455,12.906l-24.779-29.536l-9.723,22.739l22.75,27.121
			l-7.455,12.892l-21.471-25.602l-9.747,22.788l19.468,23.174l-12.309,21.307l-17.985-31.127l0.073-64.982l15.533-17.263L248.404,0
			l-32.755,33.141l15.832,17.625l-0.075,64.173l-18.246,31.587l-12.284-21.295l19.454-23.174l-9.732-22.788l-21.468,25.603
			l-7.456-12.893l22.752-27.12l-9.732-22.739l-24.77,29.535l-7.453-12.906l26.049-31.078l-9.744-22.739l-28.04,33.43l-7.916-13.666
			l-35.429,20.418l7.926,13.704l-43.012,7.567l14.848,19.839l39.902-7.055l7.442,12.893l-37.936,6.697l14.848,19.803l34.836-6.135
			l7.442,12.906l-32.893,5.772l14.848,19.825l29.807-5.251l12.333,21.334h-35.978l-56.257-32.549l-7.168-22.08l-45.098,11.774
			l12.322,44.957l23.157-4.891l55.548,32.136l18.233,31.577H117.96l-10.344-28.464l-24.592-2.924l11.437,31.388H79.565
			l-12.111-33.258l-24.575-2.975l13.191,36.23H41.161l-13.865-38.086L2.74,186.912l14.923,41.021H1.858v40.885h15.806L2.739,309.859
			l24.556-2.949l13.864-38.086h14.909l-13.191,36.229l24.575-2.959l12.109-33.271h14.898l-11.437,31.401l24.592-2.959l10.344-28.438
			h24.645l-17.986,31.151l-56.332,32.436l-22.72-4.83l-12.322,44.969l45.087,11.789l7.317-22.529l55.623-32.022h36.479
			l-12.297,21.308l-29.807-5.266l-14.848,19.814l32.895,5.799l-7.441,12.893l-34.837-6.135l-14.848,19.803l37.936,6.697
			l-7.442,12.906l-39.902-7.045l-14.849,19.839l43.013,7.553l-7.927,13.69l35.421,20.446l7.916-13.715l28.04,33.469l9.744-22.753
			l-26.049-31.027l7.431-12.942l24.794,29.572l9.733-22.789L181.672,404.8l7.456-12.905l21.467,25.589l9.733-22.738l-19.454-23.199
			l12.322-21.346l17.972,31.178l-0.075,64.957l-15.518,17.274l32.746,33.13l32.77-33.13l-15.847-17.563l0.088-64.184l18.222-31.603
			l12.297,21.282l-19.468,23.198l9.747,22.739l21.47-25.591l7.457,12.907l-22.751,27.106l9.722,22.788l24.781-29.571l7.455,12.943
			l-26.053,31.027l9.732,22.752l28.055-33.468l7.902,13.715l35.42-20.448l-7.904-13.689l42.99-7.553l-14.848-19.839l-39.916,7.046
			l-7.443-12.907l37.975-6.696l-14.832-19.803l-34.877,6.134l-7.439-12.892l32.904-5.801l-14.848-19.814l-29.822,5.268
			l-12.307-21.347h35.969l56.242,32.585l7.168,22.09l45.094-11.822l-12.309-44.955l-23.178,4.916l-55.521-32.121l-18.232-31.612
			h24.58l10.355,28.438l24.582,2.959l-11.438-31.401h14.908l12.086,33.271l24.582,2.959l-13.184-36.229h14.889l13.875,38.086
			l24.559,2.949l-14.91-41.035h15.807v-40.888H494.881L494.881,227.936z M306.219,307.682l-19.764-34.179l-35.387,20.448
			l19.74,34.217l-22.425,38.844l-22.443-38.881l19.715-34.177l-35.41-20.448l-19.753,34.217h-44.854l22.454-38.895h39.454v-40.892
			h-39.5l-22.415-38.855h44.893l19.729,34.177l35.41-20.448l-19.77-34.203l22.454-38.858l22.454,38.895l-19.733,34.163
			l35.387,20.449l19.764-34.228h44.869l-22.453,38.905h-39.454v40.886h39.507l22.426,38.856h-44.895V307.682L306.219,307.682z"/>
	</g>
</g>
<g>
</g>
<g>
</g>
<g>
</g>
<g>
</g>
<g>
</g>
<g>
</g>
<g>
</g>
<g>
</g>
<g>
</g>
<g>
</g>
<g>
</g>
<g>
</g>
<g>
</g>
<g>
</g>
<g>
</g>
</svg>
