<?xml version="1.0" encoding="iso-8859-1"?>
<!-- Generator: Adobe Illustrator 16.0.0, SVG Export Plug-In . SVG Version: 6.00 Build 0)  -->
<!DOCTYPE svg PUBLIC "-//W3C//DTD SVG 1.1//EN" "http://www.w3.org/Graphics/SVG/1.1/DTD/svg11.dtd">
<svg version="1.1" id="Capa_1" xmlns="http://www.w3.org/2000/svg" xmlns:xlink="http://www.w3.org/1999/xlink" x="0px" y="0px"
	 width="492.5px" height="492.5px" viewBox="0 0 492.5 492.5" style="enable-background:new 0 0 492.5 492.5;" xml:space="preserve"
	>
<g>
	<g>
		<path d="M492.5,232.646h-50.828l42.986-42.986l-19.237-19.237l-62.224,62.224H386.12l16.005-16.005l-19.237-19.237l-35.245,35.242
			h-26.899c-1.956-10.786-6.189-20.775-12.197-29.449l19.017-19.017h49.845v-27.21h-22.635l12.073-12.076h88.003v-27.21h-60.793
			l35.939-35.939l-19.238-19.237l-35.938,35.939V37.654h-27.21v88.003l-12.076,12.076V115.1h-27.21v49.843l-19.017,19.017
			c-8.676-6.008-18.664-10.239-29.449-12.198v-26.9L295.1,109.62l-19.24-19.238l-16.004,16V89.304l62.223-62.224L302.842,7.843
			l-42.986,42.983V0.001h-27.209V50.83L189.66,7.843L170.42,27.08l62.226,62.227v17.074l-16.002-16.002l-19.24,19.237l35.242,35.245
			v26.897c-10.786,1.957-20.775,6.19-29.449,12.198l-19.02-19.02v-49.841h-27.21v22.631l-12.073-12.07V37.654h-27.21v60.793
			l-35.94-35.939l-19.24,19.237l35.938,35.939H37.653v27.21h87.999l12.076,12.076h-22.633v27.21h49.843l19.017,19.017
			c-6.008,8.674-10.239,18.663-12.198,29.449h-26.9l-35.24-35.242l-19.24,19.237l16.002,16.005H89.306l-62.227-62.224l-19.24,19.237
			l42.986,42.986H0v27.209h50.825L7.839,302.841l19.24,19.236l62.227-62.223h17.074L90.375,275.86l19.24,19.238l35.242-35.242h26.9
			c1.957,10.785,6.19,20.773,12.198,29.449l-19.017,19.016h-49.843v27.209h22.633l-12.076,12.078H37.653v27.209h60.789
			l-35.938,35.938l19.24,19.238l35.939-35.939v60.793h27.21v-88.003l12.073-12.074v22.633h27.21v-49.842l19.02-19.02
			c8.674,6.007,18.663,10.238,29.449,12.197v26.896l-35.242,35.245l19.24,19.237l16.002-15.999v17.074l-62.226,62.227l19.24,19.237
			l42.986-42.986v50.828h27.21v-50.825l42.985,42.986l19.236-19.238l-62.224-62.226v-17.075l16.006,16.005l19.236-19.236
			l-35.242-35.244v-26.901c10.787-1.956,20.774-6.188,29.449-12.198l19.018,19.018v49.844h27.21v-22.635l12.076,12.078v88h27.21
			v-60.795l35.938,35.939l19.238-19.238l-35.939-35.938h60.793v-27.211h-88.003l-12.074-12.076h22.636v-27.211h-49.846
			l-19.016-19.016c6.008-8.675,10.238-18.662,12.197-29.449h26.899l35.242,35.242l19.238-19.236l-16.006-16.006h17.077
			l62.224,62.224l19.238-19.236l-42.984-42.985h50.828v-27.212H492.5z"/>
	</g>
</g>
<g>
</g>
<g>
</g>
<g>
</g>
<g>
</g>
<g>
</g>
<g>
</g>
<g>
</g>
<g>
</g>
<g>
</g>
<g>
</g>
<g>
</g>
<g>
</g>
<g>
</g>
<g>
</g>
<g>
</g>
</svg>
