<?xml version="1.0" encoding="iso-8859-1"?>
<!-- Generator: Adobe Illustrator 16.0.0, SVG Export Plug-In . SVG Version: 6.00 Build 0)  -->
<!DOCTYPE svg PUBLIC "-//W3C//DTD SVG 1.1//EN" "http://www.w3.org/Graphics/SVG/1.1/DTD/svg11.dtd">
<svg version="1.1" id="Capa_1" xmlns="http://www.w3.org/2000/svg" xmlns:xlink="http://www.w3.org/1999/xlink" x="0px" y="0px"
	 width="489.575px" height="489.575px" viewBox="0 0 489.575 489.575" style="enable-background:new 0 0 489.575 489.575;"
	 xml:space="preserve">
<g>
	<g>
		<circle cx="218.236" cy="417.677" r="22.074"/>
		<circle cx="257.289" cy="367.166" r="16.979"/>
		<circle cx="218.236" cy="302.859" r="11.886"/>
		<circle cx="218.236" cy="215.63" r="22.073"/>
		<path d="M253.953,21.789c-4.34,5.316-4.335,11.552-4.332,17.971c0,1.113,0.002,13.327,0.007,30.967h-113.3v418.849h207.464V70.726
			h-55.965l-0.004-21.592l50.521-11.395c10.292-2.32,16.75-12.545,14.432-22.837C350.455,4.61,340.23-1.848,329.94,0.472
			c-4.438,1-54.902,12.383-62.144,14.019C262.405,15.704,257.59,17.329,253.953,21.789z M301.434,157.901v287.791H179.185V157.901
			h70.463c0.008,33.91,0.016,62.642,0.016,65.553c0.003,5.71,0.007,29.642,0.007,30.577c0.003,10.549,8.556,19.099,19.107,19.096
			c1.448,0,2.858-0.163,4.214-0.468c8.52-1.924,14.884-9.538,14.881-18.639l-0.021-96.119H301.434z"/>
	</g>
</g>
<g>
</g>
<g>
</g>
<g>
</g>
<g>
</g>
<g>
</g>
<g>
</g>
<g>
</g>
<g>
</g>
<g>
</g>
<g>
</g>
<g>
</g>
<g>
</g>
<g>
</g>
<g>
</g>
<g>
</g>
</svg>
