<?xml version="1.0" encoding="iso-8859-1"?>
<!-- Generator: Adobe Illustrator 16.0.0, SVG Export Plug-In . SVG Version: 6.00 Build 0)  -->
<!DOCTYPE svg PUBLIC "-//W3C//DTD SVG 1.1//EN" "http://www.w3.org/Graphics/SVG/1.1/DTD/svg11.dtd">
<svg version="1.1" id="Capa_1" xmlns="http://www.w3.org/2000/svg" xmlns:xlink="http://www.w3.org/1999/xlink" x="0px" y="0px"
	 width="487.232px" height="487.232px" viewBox="0 0 487.232 487.232" style="enable-background:new 0 0 487.232 487.232;"
	 xml:space="preserve">
<g>
	<g>
		<polygon points="0,337.8 82.991,337.8 82.991,374.169 313.322,469.284 313.322,243.616 313.322,17.949 82.991,113.064 
			82.991,149.432 0,149.432 		"/>
		<path d="M335.479,116.368c19.387,35.45,30.062,80.642,30.062,127.248c0,46.606-10.675,91.798-30.062,127.248l36.813,20.133
			c22.705-41.517,35.21-93.858,35.21-147.384c0-53.525-12.505-105.866-35.21-147.384L335.479,116.368z"/>
		<path d="M445.27,243.616c0,64.771-14.884,127.662-41.904,177.089l36.816,20.128c30.344-55.487,47.051-125.53,47.051-197.217
			c0-71.687-16.709-141.728-47.051-197.217l-36.816,20.128C430.388,115.954,445.27,178.845,445.27,243.616z"/>
	</g>
</g>
<g>
</g>
<g>
</g>
<g>
</g>
<g>
</g>
<g>
</g>
<g>
</g>
<g>
</g>
<g>
</g>
<g>
</g>
<g>
</g>
<g>
</g>
<g>
</g>
<g>
</g>
<g>
</g>
<g>
</g>
</svg>
