<?xml version="1.0" encoding="iso-8859-1"?>
<!-- Generator: Adobe Illustrator 16.0.0, SVG Export Plug-In . SVG Version: 6.00 Build 0)  -->
<!DOCTYPE svg PUBLIC "-//W3C//DTD SVG 1.1//EN" "http://www.w3.org/Graphics/SVG/1.1/DTD/svg11.dtd">
<svg version="1.1" id="Capa_1" xmlns="http://www.w3.org/2000/svg" xmlns:xlink="http://www.w3.org/1999/xlink" x="0px" y="0px"
	 width="491.646px" height="491.646px" viewBox="0 0 491.646 491.646" style="enable-background:new 0 0 491.646 491.646;"
	 xml:space="preserve">
<g>
	<g>
		<path d="M485.127,297.785c-16.458-9.629-27.926-25.709-31.466-44.119c-3.468-18.031,0.892-36.015,12.273-50.636
			c3.416-4.388,3.978-10.034,1.498-15.102c-2.394-4.893-7.171-8.18-11.891-8.18c-2.422,0-5.959,0.832-9.042,4.791
			c-16.419,21.09-23.259,47.263-19.163,72.629c-31.909-16.965-67.135-26.067-102.246-26.37h-0.399
			c-1.719,0-29.166,1.665-35.281,2.827l-0.021-0.126c-17.733,2.805-35.89,7.784-55.507,15.226
			c-3.378,1.281-6.803,2.616-10.267,3.965c-22.851,8.896-46.477,18.096-70.249,18.096c-6.223,0-12.26-0.656-17.951-1.951
			c-19.05-4.338-36.47-13.955-48.985-26.691c1.077,0.521,2.167,1.014,3.271,1.484c9.113,3.864,18.889,5.825,29.057,5.825
			c30.529,0,64.527-19.221,70.441-55.957c2.565-15.93-2.324-32.527-13.407-45.54c-10.241-12.021-24.25-18.916-38.433-18.916
			c-8.162,0-16.122,2.229-23.658,6.623c-15.575,9.083-31.072,32.275-19.657,52.2c5.766,10.064,16.128,16.316,27.038,16.316
			c7.635,0,14.57-3.038,20.051-8.785c3.798-3.98,4.805-9.298,2.694-14.227c-2.218-5.18-7.429-8.798-12.671-8.798
			c-3.381,0-6.529,1.426-9.102,4.122c-1.29,1.352-1.931,1.389-1.937,1.389c-0.102-0.051-0.703-0.621-1.179-2.345
			c-0.961-3.478-0.563-8.409,0.833-10.343c2.702-3.747,6.489-6.478,10.389-7.498c2.774-0.725,5.524-1.093,8.175-1.093
			c4.676,0,11.299,1.185,16.3,6.819c6.478,7.302,9.212,16.721,7.7,26.527c-1.62,10.509-8.109,20.086-17.353,25.616
			c-7.493,4.483-16.026,6.757-25.361,6.757c-12.252,0-25.568-3.916-38.51-11.323c-7.193-4.117-12.341-12.824-14.125-23.889
			c-2.401-14.897,1.252-37.745,18.704-57.198c12.881-14.356,32.758-22.926,53.175-22.926c9.22,0,18.024,1.722,26.17,5.12
			C192.5,123.557,209.767,151.39,208,181.362c-0.218,3.679,0.862,6.89,3.121,9.285c2.345,2.487,5.871,3.917,9.672,3.917
			c6.609,0,13.56-4.426,14.057-12.884c0.581-9.859-0.137-18.821-2.133-26.634c-5.581-21.854-18.08-40.606-36.149-54.228
			c-17.227-12.986-38.393-20.138-59.604-20.138c-20.151,0-39.526,6.387-56.03,18.466c-26.444,19.359-42.666,51.252-43.396,85.32
			c-0.72,33.578,13.327,64.403,38.543,84.575c15.701,12.564,33.316,21.068,51.907,25.177c-16.877-0.104-31.603-3.8-45-11.282
			c-28.321-15.824-46.398-38.271-53.728-66.727c-8.868-34.434-0.878-75.177,21.923-111.778c2.56-4.108,2.769-8.731,0.575-12.684
			c-2.433-4.383-7.506-7.327-12.628-7.327c-4.593,0-8.52,2.249-11.06,6.328C2.47,131.823-6.306,181.759,4.587,224.323
			c8.847,34.567,30.166,62.205,61.651,79.923c19.485,10.967,40.444,16.298,64.076,16.298c17.294,0,35.653-2.876,56.129-8.79
			c19.82-5.727,39.392-13.094,58.317-21.951c-14.838,23.635-18.612,51.904-9.953,77.454c13.55,39.978,50.426,66.833,91.764,66.833
			c9.368,0,18.773-1.367,27.956-4.064c7.59-2.229,10.157-9.002,9.333-14.727c-0.841-5.836-5.422-11.744-12.56-11.744
			c-1.305,0-2.649,0.201-4.002,0.6c-6.636,1.949-13.526,2.938-20.479,2.938c-32.411,0-60.059-20.893-67.229-50.803
			c-0.473-1.975-0.861-3.957-1.164-5.939c6.673,15.842,18.829,28.387,35.128,35.754c7.597,3.432,15.701,5.172,24.101,5.172
			c16.99,0,34.047-7.451,45.626-19.929c10.748-11.582,16.028-26.483,14.868-41.958c-1.89-25.189-24.299-40.24-44.874-40.24
			c-14.538,0-31.664,8.002-36.125,30.457c-0.825,4.148,0.136,8.158,2.703,11.284c2.729,3.324,7.12,5.388,11.461,5.388
			c6.077,0,10.604-3.801,11.821-9.918c1.602-8.061,7.933-10.925,12.865-10.92c5.623,0,10.669,3.342,13.171,8.723
			c5.462,11.759,0.8,26.891-10.392,33.732c-6.448,3.945-13.67,6.029-20.882,6.029c-13.821,0-26.177-7.514-33.046-20.096
			c-12.497-22.891-4.482-54.062,17.503-68.068c10.177-6.482,23.229-9.635,39.906-9.635c7.985,0,16.865,0.742,27.148,2.265
			c37.101,5.495,71.62,24.05,97.208,52.24c2.539,2.799,5.683,4.278,9.088,4.278c3.357,0,6.76-1.494,9.387-4.105
			c4.056-2.663,6.618-7.434,6.554-12.246C491.583,304.035,489.268,300.209,485.127,297.785z"/>
		<path d="M58.637,70.986c0,3.456,1.152,6.701,3.247,9.137c2.415,2.81,5.814,4.292,9.83,4.292c8.586,0,13.077-6.755,13.077-13.429
			c0-3.457-1.152-6.701-3.247-9.137c-2.415-2.81-5.814-4.292-9.83-4.292C63.13,57.557,58.637,64.311,58.637,70.986z"/>
	</g>
</g>
<g>
</g>
<g>
</g>
<g>
</g>
<g>
</g>
<g>
</g>
<g>
</g>
<g>
</g>
<g>
</g>
<g>
</g>
<g>
</g>
<g>
</g>
<g>
</g>
<g>
</g>
<g>
</g>
<g>
</g>
</svg>
