<?xml version="1.0" encoding="iso-8859-1"?>
<!-- Generator: Adobe Illustrator 16.0.0, SVG Export Plug-In . SVG Version: 6.00 Build 0)  -->
<!DOCTYPE svg PUBLIC "-//W3C//DTD SVG 1.1//EN" "http://www.w3.org/Graphics/SVG/1.1/DTD/svg11.dtd">
<svg version="1.1" id="Capa_1" xmlns="http://www.w3.org/2000/svg" xmlns:xlink="http://www.w3.org/1999/xlink" x="0px" y="0px"
	 width="488.424px" height="488.424px" viewBox="0 0 488.424 488.424" style="enable-background:new 0 0 488.424 488.424;"
	 xml:space="preserve">
<g>
	<g>
		<path d="M444.682,151.394l-104.152-19.096l-50.926-93.936c-10.228-18.866-26.677-29.686-45.129-29.686
			c-18.427,0-34.866,10.796-45.104,29.613l-51.079,93.854L44.108,151.066c-21.409,3.886-36.776,16.263-42.157,33.956
			c-5.381,17.694,0.491,36.531,16.113,51.683l76.065,73.766L76.418,418.543c-2.838,17.321,0.979,33.194,10.747,44.693
			c8.924,10.507,21.766,16.296,36.156,16.299h0.003c7.922,0,16.082-1.774,24.244-5.267l96.598-41.342l96.523,41.497
			c8.223,3.533,16.395,5.324,24.294,5.324c14.462,0,27.229-5.897,35.956-16.605c9.592-11.77,12.885-27.896,9.274-45.405
			l-22.07-107.015l81.017-73.751c16.25-14.791,22.646-33.491,17.551-51.309C481.612,167.845,466.292,155.355,444.682,151.394z
			 M317.488,287.742l24.088,116.793l-97.355-41.854L143.958,405.59l19.331-117.973L82.88,209.633l107.34-19.496l54.224-99.623
			l54.056,99.712l104.971,19.243L317.488,287.742z"/>
	</g>
</g>
<g>
</g>
<g>
</g>
<g>
</g>
<g>
</g>
<g>
</g>
<g>
</g>
<g>
</g>
<g>
</g>
<g>
</g>
<g>
</g>
<g>
</g>
<g>
</g>
<g>
</g>
<g>
</g>
<g>
</g>
</svg>
