<?xml version="1.0" encoding="iso-8859-1"?>
<!-- Generator: Adobe Illustrator 16.0.0, SVG Export Plug-In . SVG Version: 6.00 Build 0)  -->
<!DOCTYPE svg PUBLIC "-//W3C//DTD SVG 1.1//EN" "http://www.w3.org/Graphics/SVG/1.1/DTD/svg11.dtd">
<svg version="1.1" id="Capa_1" xmlns="http://www.w3.org/2000/svg" xmlns:xlink="http://www.w3.org/1999/xlink" x="0px" y="0px"
	 width="495.777px" height="495.777px" viewBox="0 0 495.777 495.777" style="enable-background:new 0 0 495.777 495.777;"
	 xml:space="preserve">
<g>
	<g>
		<path d="M149.75,434.854c4.097,18.156,18.052,22.169,31.168,8.964l80.458-80.999l38.514,0.835l7.721-58.98l-43.559-39.602
			c-7.544-6.856-10.608-15.464-8.415-23.614c2.194-8.15,9.168-14.055,19.134-16.198l57.351-12.338l26.6-52.865
			c0.604-1.204,1.265-2.332,1.971-3.4l15.085-31.394c8.063-16.778-0.181-27.333-18.413-23.582l-114.099,23.492l-90.583-74.708
			c-14.358-11.842-27.715-6.453-29.834,12.039l-13.363,116.655L11.04,241.431c-15.731,9.951-14.503,23.695,2.742,30.7
			l109.263,44.365L149.75,434.854z"/>
		<path d="M486.272,231.889l-64.399-9.669l-33.127-56.665c-2.566-4.391-5.804-6.574-8.983-6.574c-3.327,0-6.599,2.389-8.989,7.141
			l-29.503,58.636l-14.841,3.192l-48.824,10.507c-10.176,2.188-12.177,9.637-4.479,16.635l48.778,44.346l-8.443,64.516l-0.358,2.739
			c-1.01,7.719,2.401,12.347,8.128,12.347c1.932,0,4.121-0.523,6.496-1.633l26.914-12.56l30.923-14.432l9.514,3.729l49.901,19.574
			c2.17,0.85,4.147,1.254,5.886,1.254c6.021,0,9.142-4.843,7.258-12.694l-15.995-66.62l49.262-47.84
			C498.853,240.563,496.565,233.433,486.272,231.889z"/>
	</g>
</g>
<g>
</g>
<g>
</g>
<g>
</g>
<g>
</g>
<g>
</g>
<g>
</g>
<g>
</g>
<g>
</g>
<g>
</g>
<g>
</g>
<g>
</g>
<g>
</g>
<g>
</g>
<g>
</g>
<g>
</g>
</svg>
