<?xml version="1.0" encoding="iso-8859-1"?>
<!-- Generator: Adobe Illustrator 16.0.0, SVG Export Plug-In . SVG Version: 6.00 Build 0)  -->
<!DOCTYPE svg PUBLIC "-//W3C//DTD SVG 1.1//EN" "http://www.w3.org/Graphics/SVG/1.1/DTD/svg11.dtd">
<svg version="1.1" id="Capa_1" xmlns="http://www.w3.org/2000/svg" xmlns:xlink="http://www.w3.org/1999/xlink" x="0px" y="0px"
	 width="490.553px" height="490.553px" viewBox="0 0 490.553 490.553" style="enable-background:new 0 0 490.553 490.553;"
	 xml:space="preserve">
<g>
	<g>
		<path d="M376.135,152.326c-33.299,0-60.387,27.088-60.387,60.385c0,33.296,27.088,60.385,60.387,60.385
			c33.295,0,60.387-27.089,60.387-60.385C436.521,179.414,409.434,152.326,376.135,152.326z"/>
		<path d="M490.553,96.387H261.718v335.62h228.835V96.387z M376.135,400.546c-16.676,0-30.195-13.518-30.195-30.193
			c0-16.674,13.518-30.193,30.195-30.193c16.674,0,30.191,13.519,30.191,30.193C406.328,387.026,392.811,400.546,376.135,400.546z
			 M376.135,301.702c-49.146,0-88.992-39.842-88.992-88.991c0-49.15,39.842-88.992,88.992-88.992
			c49.146,0,88.99,39.841,88.99,88.992C465.125,261.86,425.283,301.702,376.135,301.702z"/>
		<path d="M72.937,77.515c0-10.477-8.493-18.969-18.969-18.969h-8.431c-10.477,0-18.969,8.493-18.969,18.969
			c0,1.851,0.276,3.634,0.772,5.323h44.828C72.661,81.15,72.937,79.366,72.937,77.515z"/>
		<path d="M0,432.007h228.834V96.387H55.889h-12.27H0V432.007z M114.418,400.546c-16.674,0-30.194-13.518-30.194-30.193
			c0-16.674,13.517-30.193,30.194-30.193c16.674,0,30.194,13.519,30.194,30.193C144.609,387.026,131.092,400.546,114.418,400.546z
			 M114.418,123.722c49.147,0,88.991,39.841,88.991,88.991c0,49.149-39.841,88.991-88.991,88.991
			c-49.147,0-88.991-39.842-88.991-88.991C25.427,163.564,65.269,123.722,114.418,123.722z"/>
		<path d="M114.418,273.099c33.297,0,60.388-27.09,60.388-60.386c0-33.297-27.088-60.385-60.388-60.385
			c-33.296,0-60.385,27.088-60.385,60.385C54.033,246.009,81.119,273.099,114.418,273.099z"/>
	</g>
</g>
<g>
</g>
<g>
</g>
<g>
</g>
<g>
</g>
<g>
</g>
<g>
</g>
<g>
</g>
<g>
</g>
<g>
</g>
<g>
</g>
<g>
</g>
<g>
</g>
<g>
</g>
<g>
</g>
<g>
</g>
</svg>
