<?xml version="1.0" encoding="iso-8859-1"?>
<!-- Generator: Adobe Illustrator 16.0.0, SVG Export Plug-In . SVG Version: 6.00 Build 0)  -->
<!DOCTYPE svg PUBLIC "-//W3C//DTD SVG 1.1//EN" "http://www.w3.org/Graphics/SVG/1.1/DTD/svg11.dtd">
<svg version="1.1" id="Capa_1" xmlns="http://www.w3.org/2000/svg" xmlns:xlink="http://www.w3.org/1999/xlink" x="0px" y="0px"
	 width="495.182px" height="495.182px" viewBox="0 0 495.182 495.182" style="enable-background:new 0 0 495.182 495.182;"
	 xml:space="preserve">
<g>
	<g>
		<polygon points="277.858,310.924 241.244,310.924 261.702,269.342 211.717,269.342 206.201,269.342 183.908,269.342 
			137.169,364.34 178.864,364.34 126.94,495.182 		"/>
		<path d="M39.536,210.816c0,24.993,20.259,45.254,45.252,45.254h105.65h15.763h5.519h56.513h113.461
			c40.842,0,73.951-33.109,73.951-73.953c0-40.841-33.105-73.951-73.951-73.951c-18.098,0-34.67,6.512-47.523,17.308
			C332.8,55.947,276.054,0,206.201,0C135.491,0,78.168,57.324,78.168,128.033c0,13.079,1.972,25.694,5.615,37.579
			C59.259,166.153,39.536,186.163,39.536,210.816z"/>
	</g>
</g>
<g>
</g>
<g>
</g>
<g>
</g>
<g>
</g>
<g>
</g>
<g>
</g>
<g>
</g>
<g>
</g>
<g>
</g>
<g>
</g>
<g>
</g>
<g>
</g>
<g>
</g>
<g>
</g>
<g>
</g>
</svg>
