<?xml version="1.0" encoding="iso-8859-1"?>
<!-- Generator: Adobe Illustrator 16.0.0, SVG Export Plug-In . SVG Version: 6.00 Build 0)  -->
<!DOCTYPE svg PUBLIC "-//W3C//DTD SVG 1.1//EN" "http://www.w3.org/Graphics/SVG/1.1/DTD/svg11.dtd">
<svg version="1.1" id="Capa_1" xmlns="http://www.w3.org/2000/svg" xmlns:xlink="http://www.w3.org/1999/xlink" x="0px" y="0px"
	 width="496.057px" height="496.057px" viewBox="0 0 496.057 496.057" style="enable-background:new 0 0 496.057 496.057;"
	 xml:space="preserve">
<g>
	<g>
		<path d="M328.371,292.105c1.814,0.098,3.641,0.146,5.48,0.146c57.072,0,103.344-46.269,103.344-103.342
			c0-57.073-46.271-103.342-103.344-103.342c-56.205,0-101.899,44.881-103.277,100.755c21.183,7.271,40.652,19.214,57.07,35.34
			C307.648,241.311,321.555,265.586,328.371,292.105z"/>
		<polygon points="362.881,72.141 333.852,26.704 304.818,72.141 		"/>
		<polygon points="450.619,217.943 496.057,188.913 450.619,159.882 		"/>
		<path d="M217.081,159.882l-28.775,18.386c9.791,0.456,19.415,1.845,28.775,4.109V159.882z"/>
		<polygon points="395.893,85.815 436.947,126.87 448.547,74.214 		"/>
		<polygon points="436.947,250.954 395.893,292.008 448.547,303.608 		"/>
		<polygon points="230.755,126.87 271.809,85.815 219.153,74.214 		"/>
		<path d="M371.771,308.649c-3.836,0-7.605,0.275-11.295,0.796c-15.238,2.147-29.102,8.567-40.342,18.013
			c-0.148-7.416-0.895-14.686-2.156-21.773c-0.928-5.211-2.162-10.307-3.652-15.297c-12.33-41.301-43.295-74.528-83.159-89.934
			c-4.584-1.771-9.283-3.314-14.086-4.599c-11.481-3.07-23.54-4.735-35.993-4.735c-1.932,0-3.847,0.067-5.759,0.146
			c-74.158,3.023-133.358,64.071-133.358,138.969c0,14.211,2.142,27.919,6.101,40.83C21.431,371.658,0,393.395,0,420.184
			c0,27.151,22.015,49.169,49.169,49.169h131.92h5.996h184.688c44.377,0,80.348-35.978,80.348-80.353
			C452.119,344.627,416.148,308.649,371.771,308.649z"/>
	</g>
</g>
<g>
</g>
<g>
</g>
<g>
</g>
<g>
</g>
<g>
</g>
<g>
</g>
<g>
</g>
<g>
</g>
<g>
</g>
<g>
</g>
<g>
</g>
<g>
</g>
<g>
</g>
<g>
</g>
<g>
</g>
</svg>
