<?xml version="1.0" encoding="iso-8859-1"?>
<!-- Generator: Adobe Illustrator 16.0.0, SVG Export Plug-In . SVG Version: 6.00 Build 0)  -->
<!DOCTYPE svg PUBLIC "-//W3C//DTD SVG 1.1//EN" "http://www.w3.org/Graphics/SVG/1.1/DTD/svg11.dtd">
<svg version="1.1" id="Capa_1" xmlns="http://www.w3.org/2000/svg" xmlns:xlink="http://www.w3.org/1999/xlink" x="0px" y="0px"
	 width="490.5px" height="490.5px" viewBox="0 0 490.5 490.5" style="enable-background:new 0 0 490.5 490.5;" xml:space="preserve"
	>
<g>
	<path d="M408.75,245.25c0,90.299-73.202,163.5-163.5,163.5c-90.299,0-163.5-73.201-163.5-163.5c0-90.298,73.201-163.5,163.5-163.5
		C335.548,81.75,408.75,154.952,408.75,245.25z M266.034,0h-41.568v58.195h41.568V0z M432.305,224.466v41.568H490.5v-41.568H432.305
		z M224.466,490.5h41.568v-58.194h-41.568V490.5z M58.195,224.466H0v41.568h58.194L58.195,224.466L58.195,224.466z M433.365,86.526
		l-29.395-29.393l-41.15,41.151l29.394,29.394L433.365,86.526z M362.826,392.215l41.15,41.152l29.395-29.395L392.22,362.82
		L362.826,392.215z M57.128,403.967l29.395,29.396l41.15-41.15l-29.395-29.396L57.128,403.967z M127.682,98.286L86.531,57.135
		L57.136,86.529l41.151,41.151L127.682,98.286z M357.529,26.22l-38.465-15.768l-22.074,53.85l38.464,15.768L357.529,26.22z
		 M410.446,335.439l53.849,22.074l15.768-38.464l-53.85-22.073L410.446,335.439z M132.979,464.302l38.464,15.769l22.073-53.85
		l-38.464-15.768L132.979,464.302z M80.054,155.052l-53.849-22.073l-15.767,38.464l53.849,22.073L80.054,155.052z M425.832,192.224
		l53.688-22.464l-16.046-38.35l-53.688,22.465L425.832,192.224z M298.295,425.797l22.465,53.688l38.351-16.046l-22.466-53.688
		L298.295,425.797z M64.671,298.273l-53.687,22.465l16.046,38.349l53.687-22.464L64.671,298.273z M192.22,64.656l-22.464-53.688
		l-38.35,16.046l22.465,53.687L192.22,64.656z"/>
</g>
<g>
</g>
<g>
</g>
<g>
</g>
<g>
</g>
<g>
</g>
<g>
</g>
<g>
</g>
<g>
</g>
<g>
</g>
<g>
</g>
<g>
</g>
<g>
</g>
<g>
</g>
<g>
</g>
<g>
</g>
</svg>
