<?xml version="1.0" encoding="iso-8859-1"?>
<!-- Generator: Adobe Illustrator 16.0.0, SVG Export Plug-In . SVG Version: 6.00 Build 0)  -->
<!DOCTYPE svg PUBLIC "-//W3C//DTD SVG 1.1//EN" "http://www.w3.org/Graphics/SVG/1.1/DTD/svg11.dtd">
<svg version="1.1" id="Capa_1" xmlns="http://www.w3.org/2000/svg" xmlns:xlink="http://www.w3.org/1999/xlink" x="0px" y="0px"
	 width="493.763px" height="493.762px" viewBox="0 0 493.763 493.762" style="enable-background:new 0 0 493.763 493.762;"
	 xml:space="preserve">
<g>
	<g>
		<path d="M22.605,458.219h72.341c12.483,0,22.607-10.12,22.607-22.607v-56.41h258.656v56.41c0,12.483,10.12,22.607,22.606,22.607
			h72.342c12.483,0,22.605-10.12,22.605-22.607v-56.41l0,0V208.667l-49.804-54.073l-16.463-87.805h-125.94V35.543H192.21v31.24
			H66.27L49.807,154.59L0,208.667v158.508V379.2v56.41C0,448.095,10.12,458.219,22.605,458.219z M449.382,288.081v51.785h-98.507
			v-51.785H449.382L449.382,288.081z M93.636,98.751h306.492l11.851,79.99H81.785L93.636,98.751z M44.382,288.081h98.507v51.785
			H44.382V288.081z"/>
	</g>
</g>
<g>
</g>
<g>
</g>
<g>
</g>
<g>
</g>
<g>
</g>
<g>
</g>
<g>
</g>
<g>
</g>
<g>
</g>
<g>
</g>
<g>
</g>
<g>
</g>
<g>
</g>
<g>
</g>
<g>
</g>
</svg>
