<?xml version="1.0" encoding="iso-8859-1"?>
<!-- Generator: Adobe Illustrator 16.0.0, SVG Export Plug-In . SVG Version: 6.00 Build 0)  -->
<!DOCTYPE svg PUBLIC "-//W3C//DTD SVG 1.1//EN" "http://www.w3.org/Graphics/SVG/1.1/DTD/svg11.dtd">
<svg version="1.1" id="Capa_1" xmlns="http://www.w3.org/2000/svg" xmlns:xlink="http://www.w3.org/1999/xlink" x="0px" y="0px"
	 width="484.503px" height="484.503px" viewBox="0 0 484.503 484.503" style="enable-background:new 0 0 484.503 484.503;"
	 xml:space="preserve">
<g>
	<g>
		<path d="M419.476,484.5v-39.239h30.4V85.635h-58.174c0-7.578-2.08-14.657-5.647-20.757l54.243-41.683
			c5.664-4.354,6.729-12.476,2.375-18.142c-4.354-5.661-12.47-6.729-18.142-2.375l-58.357,44.844
			c-4.838-1.994-10.128-3.107-15.686-3.107c-5.559,0-10.853,1.115-15.689,3.11l-58.36-44.842
			c-5.662-4.349-13.785-3.288-18.142,2.375c-4.354,5.663-3.288,13.787,2.375,18.142l54.242,41.683
			c-3.569,6.101-5.648,13.18-5.648,20.755H34.626v359.625h30.4v39.239h51.745v-39.239h250.96v39.239h51.743L419.476,484.5
			L419.476,484.5z M72.124,125.308h340.259v212.153H72.124V125.308z M300.464,415.939c-13.338,0-24.146-10.81-24.146-24.146
			c0-13.338,10.812-24.146,24.146-24.146s24.146,10.812,24.146,24.146C324.61,405.127,313.801,415.939,300.464,415.939z
			 M356.523,391.793c0-13.338,10.812-24.146,24.146-24.146s24.146,10.812,24.146,24.146s-10.812,24.146-24.146,24.146
			C367.333,415.939,356.523,405.13,356.523,391.793z"/>
	</g>
</g>
<g>
</g>
<g>
</g>
<g>
</g>
<g>
</g>
<g>
</g>
<g>
</g>
<g>
</g>
<g>
</g>
<g>
</g>
<g>
</g>
<g>
</g>
<g>
</g>
<g>
</g>
<g>
</g>
<g>
</g>
</svg>
