<?xml version="1.0" encoding="iso-8859-1"?>
<!-- Generator: Adobe Illustrator 16.0.0, SVG Export Plug-In . SVG Version: 6.00 Build 0)  -->
<!DOCTYPE svg PUBLIC "-//W3C//DTD SVG 1.1//EN" "http://www.w3.org/Graphics/SVG/1.1/DTD/svg11.dtd">
<svg version="1.1" id="Capa_1" xmlns="http://www.w3.org/2000/svg" xmlns:xlink="http://www.w3.org/1999/xlink" x="0px" y="0px"
	 width="489px" height="489px" viewBox="0 0 489 489" style="enable-background:new 0 0 489 489;" xml:space="preserve">
<g>
	<g>
		<rect y="16.558" width="489" height="311.67"/>
		<path d="M45.195,420.437c0.516,0.615,1.238,0.957,2.033,0.957h61.913c0.795,0,1.518-0.342,2.034-0.961
			c1.658-1.98,3.555-3.695,5.603-5.18c0.217-1.666,0.368-3.352,0.368-5.078c0-21.516-17.443-38.959-38.959-38.959
			s-38.958,17.443-38.958,38.959c0,1.727,0.15,3.412,0.368,5.082C41.64,416.739,43.537,418.452,45.195,420.437z"/>
		<path d="M211.509,420.437c0.516,0.615,1.239,0.957,2.034,0.957h61.913c0.796,0,1.519-0.342,2.036-0.961
			c1.658-1.98,3.552-3.695,5.597-5.176c0.218-1.666,0.369-3.354,0.369-5.08c0-21.516-17.442-38.959-38.959-38.959
			c-21.516,0-38.959,17.443-38.959,38.959c0,1.727,0.15,3.414,0.368,5.08C207.957,416.737,209.851,418.452,211.509,420.437z"/>
		<path d="M379.858,421.394h61.911c0.797,0,1.52-0.342,2.037-0.961c2.367-2.828,5.191-5.145,8.307-6.938
			c0.093-1.096,0.166-2.197,0.166-3.318c0-21.516-17.442-38.958-38.959-38.958s-38.959,17.442-38.959,38.958
			c0,2.541,0.262,5.016,0.727,7.42c0.959,0.891,1.881,1.82,2.731,2.84C378.338,421.052,379.062,421.394,379.858,421.394z"/>
		<path d="M21.484,420.108c-4.56,0-9.149,1.539-12.918,4.695c-8.537,7.141-9.67,19.852-2.528,28.385
			c10.234,12.238,25.248,19.254,41.191,19.254h61.913c15.944,0,30.955-7.02,41.191-19.258c7.142-8.535,6.008-21.242-2.528-28.383
			c-3.772-3.15-8.358-4.691-12.918-4.691c-5.76,0-11.48,2.457-15.467,7.223c-2.284,2.73-5.517,4.408-9.012,4.74
			c-0.419,0.039-0.841,0.068-1.266,0.068H47.229c-0.424,0-0.846-0.029-1.263-0.068c-3.495-0.332-6.73-2.012-9.012-4.736
			C32.964,422.567,27.245,420.108,21.484,420.108z"/>
		<path d="M201.769,425.735c-0.172-0.168-0.357-0.314-0.532-0.473c-0.357-0.32-0.718-0.639-1.094-0.932
			c-0.221-0.17-0.449-0.324-0.677-0.486c-0.349-0.25-0.702-0.494-1.064-0.717c-0.247-0.154-0.502-0.293-0.755-0.436
			c-0.357-0.201-0.717-0.395-1.085-0.57c-0.266-0.125-0.532-0.246-0.801-0.361c-0.371-0.16-0.744-0.307-1.123-0.441
			c-0.274-0.1-0.548-0.195-0.825-0.281c-0.389-0.121-0.782-0.225-1.174-0.322c-0.274-0.066-0.545-0.137-0.82-0.191
			c-0.418-0.086-0.84-0.146-1.265-0.205c-0.255-0.035-0.51-0.082-0.769-0.105c-0.492-0.049-0.986-0.066-1.478-0.08
			c-0.169-0.002-0.338-0.025-0.507-0.025c-0.016,0-0.032,0.002-0.049,0.002c-1.023,0.002-2.047,0.102-3.063,0.262
			c-0.161,0.025-0.323,0.045-0.484,0.072c-0.978,0.176-1.948,0.432-2.899,0.758c-0.174,0.059-0.349,0.121-0.521,0.188
			c-0.951,0.354-1.886,0.773-2.791,1.281c-0.129,0.072-0.256,0.154-0.382,0.23c-0.943,0.557-1.862,1.174-2.729,1.898
			c-8.537,7.139-9.67,19.852-2.528,28.385c10.234,12.238,25.248,19.254,41.191,19.254h61.912c15.941,0,30.955-7.02,41.189-19.254
			c7.142-8.537,6.011-21.246-2.523-28.385c-0.868-0.725-1.786-1.344-2.729-1.898c-0.13-0.076-0.252-0.16-0.381-0.23
			c-0.905-0.506-1.841-0.928-2.792-1.281c-0.172-0.064-0.345-0.127-0.519-0.186c-0.954-0.326-1.924-0.584-2.904-0.76
			c-0.159-0.029-0.32-0.051-0.479-0.072c-1.019-0.16-2.042-0.26-3.068-0.262c-0.017,0-0.032-0.002-0.049-0.002
			c-0.161,0-0.322,0.02-0.482,0.025c-0.503,0.014-1.006,0.029-1.505,0.08c-0.253,0.023-0.503,0.07-0.753,0.105
			c-0.427,0.059-0.854,0.119-1.278,0.207c-0.271,0.057-0.541,0.125-0.81,0.189c-0.397,0.096-0.795,0.201-1.188,0.324
			c-0.272,0.088-0.545,0.18-0.815,0.279c-0.384,0.137-0.759,0.285-1.132,0.443c-0.266,0.115-0.531,0.234-0.797,0.359
			c-0.366,0.178-0.729,0.371-1.088,0.572c-0.254,0.141-0.506,0.279-0.752,0.434c-0.36,0.223-0.713,0.471-1.062,0.717
			c-0.229,0.162-0.458,0.316-0.682,0.488c-0.373,0.291-0.732,0.607-1.088,0.928c-0.178,0.158-0.362,0.307-0.537,0.475
			c-0.521,0.502-1.022,1.029-1.496,1.596c-2.287,2.73-5.521,4.41-9.016,4.742c-0.419,0.039-0.841,0.068-1.266,0.068H213.54
			c-0.425,0-0.846-0.029-1.263-0.068c-3.496-0.332-6.73-2.012-9.012-4.736C202.792,426.767,202.29,426.237,201.769,425.735z"/>
		<path d="M369.579,427.331c-3.986-4.764-9.708-7.223-15.468-7.223c-4.562,0-9.146,1.543-12.919,4.699
			c-8.535,7.139-9.667,19.85-2.522,28.385c10.233,12.234,25.245,19.25,41.188,19.25h61.911c15.941,0,30.955-7.02,41.189-19.254
			c7.142-8.535,6.011-21.244-2.523-28.385c-3.771-3.156-8.357-4.695-12.921-4.695c-5.76,0-11.478,2.455-15.463,7.223
			c-1.638,1.959-3.769,3.375-6.128,4.145c-1.324,0.434-2.722,0.666-4.149,0.666h-60.623h-1.293
			C375.882,432.14,372.138,430.386,369.579,427.331z"/>
	</g>
</g>
<g>
</g>
<g>
</g>
<g>
</g>
<g>
</g>
<g>
</g>
<g>
</g>
<g>
</g>
<g>
</g>
<g>
</g>
<g>
</g>
<g>
</g>
<g>
</g>
<g>
</g>
<g>
</g>
<g>
</g>
</svg>
