<?xml version="1.0" encoding="iso-8859-1"?>
<!-- Generator: Adobe Illustrator 16.0.0, SVG Export Plug-In . SVG Version: 6.00 Build 0)  -->
<!DOCTYPE svg PUBLIC "-//W3C//DTD SVG 1.1//EN" "http://www.w3.org/Graphics/SVG/1.1/DTD/svg11.dtd">
<svg version="1.1" id="Capa_1" xmlns="http://www.w3.org/2000/svg" xmlns:xlink="http://www.w3.org/1999/xlink" x="0px" y="0px"
	 width="485.764px" height="485.764px" viewBox="0 0 485.764 485.764" style="enable-background:new 0 0 485.764 485.764;"
	 xml:space="preserve">
<g>
	<g>
		<path d="M101.813,469.114h282.133l12.592,16.649h45.535l-75.23-99.495H321.31l9.844,13.022H154.607l9.845-13.022h-45.533
			L43.69,485.764h45.535L101.813,469.114z M134.81,425.475H350.95l13.199,17.457h-242.54L134.81,425.475z"/>
		<path d="M429.452,0H64.633v373.178H429.45V0H429.452z M141.067,25.251h211.951v23.447H141.067V25.251L141.067,25.251z
			 M157.54,330.496H93.493v-33.67h64.046V330.496z M400.593,330.496h-64.045v-33.67h64.045V330.496z M400.593,261.389H93.492V78.261
			h307.104v183.127L400.593,261.389L400.593,261.389z"/>
	</g>
</g>
<g>
</g>
<g>
</g>
<g>
</g>
<g>
</g>
<g>
</g>
<g>
</g>
<g>
</g>
<g>
</g>
<g>
</g>
<g>
</g>
<g>
</g>
<g>
</g>
<g>
</g>
<g>
</g>
<g>
</g>
</svg>
