<?xml version="1.0" encoding="iso-8859-1"?>
<!-- Generator: Adobe Illustrator 16.0.0, SVG Export Plug-In . SVG Version: 6.00 Build 0)  -->
<!DOCTYPE svg PUBLIC "-//W3C//DTD SVG 1.1//EN" "http://www.w3.org/Graphics/SVG/1.1/DTD/svg11.dtd">
<svg version="1.1" id="Capa_1" xmlns="http://www.w3.org/2000/svg" xmlns:xlink="http://www.w3.org/1999/xlink" x="0px" y="0px"
	 width="489.43px" height="489.429px" viewBox="0 0 489.43 489.429" style="enable-background:new 0 0 489.43 489.429;"
	 xml:space="preserve">
<g>
	<g>
		<path d="M65.089,388.895c52.327,6.112,95.633-47.708,137.592-70.458c4.89-2.654,20.346-11.682,24.958-4.191
			c4.269,6.946,1.936,19.047,1.794,26.873c-0.324,19.206-1.236,38.417-2.151,57.604c-1.067,22.883-2.257,59.369-3.728,82.224h42.322
			c-1.47-22.851-2.663-59.341-3.728-82.224c-0.915-19.187-1.826-38.396-2.15-57.604c-0.14-7.826-2.475-19.93,1.794-26.873
			c4.609-7.487,20.068,1.54,24.958,4.191c41.958,22.752,85.262,76.57,137.592,70.458c28.605-3.351,46.027-29.165,54.726-54.359
			c17.08-49.501,17.637-141.017-34.068-172.188C366.31,114.903,340.161,264.989,273.26,270.774
			c-12.687,1.089-10.844-3.821-7.226-15.913c6.113-20.367,17.81-39.925,30.65-56.782c27.741-36.389,64.655-83.541,56.75-132.663
			c-7.23-45.003-60.896-57.949-108.724-56.871c-47.823-1.078-101.492,11.868-108.715,56.871
			c-7.906,49.122,29.011,96.274,56.751,132.663c12.842,16.857,24.538,36.414,30.649,56.782c3.621,12.092,5.461,17.002-7.226,15.913
			c-66.9-5.785-93.049-155.871-171.738-108.426c-51.706,31.167-51.15,122.684-34.069,172.185
			C19.06,359.73,36.481,385.544,65.089,388.895z"/>
	</g>
</g>
<g>
</g>
<g>
</g>
<g>
</g>
<g>
</g>
<g>
</g>
<g>
</g>
<g>
</g>
<g>
</g>
<g>
</g>
<g>
</g>
<g>
</g>
<g>
</g>
<g>
</g>
<g>
</g>
<g>
</g>
</svg>
