<?xml version="1.0" encoding="iso-8859-1"?>
<!-- Generator: Adobe Illustrator 16.0.0, SVG Export Plug-In . SVG Version: 6.00 Build 0)  -->
<!DOCTYPE svg PUBLIC "-//W3C//DTD SVG 1.1//EN" "http://www.w3.org/Graphics/SVG/1.1/DTD/svg11.dtd">
<svg version="1.1" id="Capa_1" xmlns="http://www.w3.org/2000/svg" xmlns:xlink="http://www.w3.org/1999/xlink" x="0px" y="0px"
	 width="485.621px" height="485.621px" viewBox="0 0 485.621 485.621" style="enable-background:new 0 0 485.621 485.621;"
	 xml:space="preserve">
<g>
	<g>
		<path d="M330.676,485.621V328.154c-1.562,0.057-3.123,0.119-4.703,0.119c-12.537,0-24.912-1.826-36.865-5.441
			c-14.935,7.529-30.93,12.879-47.391,15.936v31.871l-18.712-18.711l-26.959,26.957l45.668,45.67v61.066H330.676L330.676,485.621z"
			/>
		<path d="M355.963,89.903C328.758,36.557,273.338,0,209.348,0C118.482,0,44.822,73.662,44.822,164.526
			c0,90.867,73.662,164.529,164.526,164.529c11.082,0,21.902-1.113,32.37-3.201c16.424-3.278,31.971-8.988,46.236-16.762
			c11.901,4.176,24.69,6.475,38.021,6.475c1.576,0,3.139-0.057,4.703-0.119c61.23-2.469,110.121-52.866,110.121-114.705
			C440.795,147.708,404.828,103.094,355.963,89.903z"/>
	</g>
</g>
<g>
</g>
<g>
</g>
<g>
</g>
<g>
</g>
<g>
</g>
<g>
</g>
<g>
</g>
<g>
</g>
<g>
</g>
<g>
</g>
<g>
</g>
<g>
</g>
<g>
</g>
<g>
</g>
<g>
</g>
</svg>
