<?xml version="1.0" encoding="iso-8859-1"?>
<!-- Generator: Adobe Illustrator 16.0.0, SVG Export Plug-In . SVG Version: 6.00 Build 0)  -->
<!DOCTYPE svg PUBLIC "-//W3C//DTD SVG 1.1//EN" "http://www.w3.org/Graphics/SVG/1.1/DTD/svg11.dtd">
<svg version="1.1" id="Capa_1" xmlns="http://www.w3.org/2000/svg" xmlns:xlink="http://www.w3.org/1999/xlink" x="0px" y="0px"
	 width="492.518px" height="492.518px" viewBox="0 0 492.518 492.518" style="enable-background:new 0 0 492.518 492.518;"
	 xml:space="preserve">
<g>
	<g>
		<path d="M239.156,334.921c-10.627,0-21.015-1.007-31.12-2.839c-5.373,3.503-11.025,6.603-16.922,9.266v151.17h96.083V426.56
			l49.326-49.325l-29.117-29.119l-20.211,20.211v-40.191C271.637,332.582,255.446,334.921,239.156,334.921z"/>
		<path d="M27.438,226.654c0,61.899,50.18,112.081,112.08,112.081c17.61,0,34.27-4.074,49.096-11.311
			c-71.547-21.721-123.781-88.277-123.781-166.827c0-6.19,0.338-12.304,0.969-18.33C42.302,162.81,27.438,192.989,27.438,226.654z"
			/>
		<path d="M382.268,87.755C355.711,35.683,301.618,0,239.156,0C167.052,0,106.05,47.518,85.75,112.945
			c-0.912,2.937-1.716,5.921-2.46,8.927c-0.73,2.954-1.367,5.941-1.93,8.956c-1.809,9.651-2.8,19.592-2.8,29.769
			c0,71.958,47.331,132.856,112.556,153.281c4.566,1.431,9.229,2.636,13.962,3.659c2.974,0.643,5.971,1.222,9.002,1.697
			c3.044,0.478,6.116,0.869,9.216,1.174c5.218,0.515,10.508,0.789,15.864,0.789c16.738,0,32.872-2.578,48.041-7.33
			c10.019-3.139,19.622-7.215,28.687-12.153c11.617,4.077,24.102,6.319,37.113,6.319c61.898,0,112.08-50.181,112.08-112.081
			C465.076,144.178,429.967,100.63,382.268,87.755z"/>
	</g>
</g>
<g>
</g>
<g>
</g>
<g>
</g>
<g>
</g>
<g>
</g>
<g>
</g>
<g>
</g>
<g>
</g>
<g>
</g>
<g>
</g>
<g>
</g>
<g>
</g>
<g>
</g>
<g>
</g>
<g>
</g>
</svg>
