<?xml version="1.0" encoding="iso-8859-1"?>
<!-- Generator: Adobe Illustrator 16.0.0, SVG Export Plug-In . SVG Version: 6.00 Build 0)  -->
<!DOCTYPE svg PUBLIC "-//W3C//DTD SVG 1.1//EN" "http://www.w3.org/Graphics/SVG/1.1/DTD/svg11.dtd">
<svg version="1.1" id="Capa_1" xmlns="http://www.w3.org/2000/svg" xmlns:xlink="http://www.w3.org/1999/xlink" x="0px" y="0px"
	 width="496.115px" height="496.115px" viewBox="0 0 496.115 496.115" style="enable-background:new 0 0 496.115 496.115;"
	 xml:space="preserve">
<g>
	<g>
		<path d="M212.553,40.22l-18.654-24.278l-87.622,67.333L18.655,15.941L0,40.22l61.566,47.308l1.99,1.53H9.326v353.611h35.719v1.53
			v35.975h61.231v-35.975v-1.53H403.25v1.53v35.975h61.23v-35.975v-1.53h31.635V89.058h-347.12l1.99-1.53L212.553,40.22z
			 M432.842,237.29c15.783,0,28.574,12.794,28.574,28.574c0,15.778-12.795,28.574-28.574,28.574s-28.572-12.792-28.572-28.574
			C404.27,250.08,417.062,237.29,432.842,237.29z M404.27,170.955c0-15.783,12.793-28.573,28.572-28.573
			s28.574,12.794,28.574,28.573s-12.795,28.574-28.574,28.574C417.062,199.53,404.27,186.738,404.27,170.955z M356.303,398.302
			H56.269V133.429h300.034V398.302z"/>
	</g>
</g>
<g>
</g>
<g>
</g>
<g>
</g>
<g>
</g>
<g>
</g>
<g>
</g>
<g>
</g>
<g>
</g>
<g>
</g>
<g>
</g>
<g>
</g>
<g>
</g>
<g>
</g>
<g>
</g>
<g>
</g>
</svg>
