<?xml version="1.0" encoding="iso-8859-1"?>
<!-- Generator: Adobe Illustrator 16.0.0, SVG Export Plug-In . SVG Version: 6.00 Build 0)  -->
<!DOCTYPE svg PUBLIC "-//W3C//DTD SVG 1.1//EN" "http://www.w3.org/Graphics/SVG/1.1/DTD/svg11.dtd">
<svg version="1.1" id="Capa_1" xmlns="http://www.w3.org/2000/svg" xmlns:xlink="http://www.w3.org/1999/xlink" x="0px" y="0px"
	 width="494.993px" height="494.994px" viewBox="0 0 494.993 494.994" style="enable-background:new 0 0 494.993 494.994;"
	 xml:space="preserve">
<g>
	<g>
		<path d="M456.836,191.458c3.145-10.249,4.844-21.126,4.844-32.404c0-60.975-49.432-110.408-110.407-110.408
			c-60.237,0-109.173,48.247-110.351,108.201c-11.083-9.31-25.375-14.925-40.983-14.925c-27.823,0-51.471,17.824-60.18,42.672
			c7.633-1.31,15.465-2.03,23.466-2.03c36.48,0,70.901,14.075,96.921,39.634c13.873,13.625,24.512,29.706,31.541,47.264h54.826
			h4.762h104.695c21.553,0,39.022-17.471,39.022-39.022C494.991,209.181,477.982,191.927,456.836,191.458z"/>
		<path d="M44.314,446.347h118.907h5.405h166.467c39.998,0,72.427-32.426,72.427-72.426c0-39.996-32.426-72.426-72.427-72.426
			c-17.726,0-33.956,6.379-46.544,16.953c-0.343-17.438-4.264-33.99-11.023-48.986c-19.641-43.562-63.409-73.899-114.3-73.899
			c-9.141,0-18.045,1.004-26.629,2.863c-56.455,12.214-98.762,62.422-98.762,122.53c0,12.81,1.932,25.162,5.499,36.804
			C19.315,358.291,0,377.884,0,402.029C-0.004,426.503,19.838,446.347,44.314,446.347z"/>
	</g>
</g>
<g>
</g>
<g>
</g>
<g>
</g>
<g>
</g>
<g>
</g>
<g>
</g>
<g>
</g>
<g>
</g>
<g>
</g>
<g>
</g>
<g>
</g>
<g>
</g>
<g>
</g>
<g>
</g>
<g>
</g>
</svg>
