<?xml version="1.0" encoding="iso-8859-1"?>
<!-- Generator: Adobe Illustrator 16.0.0, SVG Export Plug-In . SVG Version: 6.00 Build 0)  -->
<!DOCTYPE svg PUBLIC "-//W3C//DTD SVG 1.1//EN" "http://www.w3.org/Graphics/SVG/1.1/DTD/svg11.dtd">
<svg version="1.1" id="Capa_1" xmlns="http://www.w3.org/2000/svg" xmlns:xlink="http://www.w3.org/1999/xlink" x="0px" y="0px"
	 width="485.001px" height="485.002px" viewBox="0 0 485.001 485.002" style="enable-background:new 0 0 485.001 485.002;"
	 xml:space="preserve">
<g>
	<g>
		<path d="M49.183,399.806l-17.668,17.668l37.274,37.273l17.668-17.668c16.341,11.247,35.117,19.191,55.375,22.931v24.992h52.714
			V460.01c20.256-3.737,39.031-11.684,55.372-22.931l17.667,17.668l37.274-37.273l-17.668-17.668
			c11.246-16.345,19.191-35.116,22.931-55.374h24.993v-52.716h-24.993c-3.738-20.255-11.685-39.028-22.931-55.374l17.668-17.667
			l-37.275-37.274l-17.667,17.667c-16.341-11.246-35.116-19.191-55.372-22.931v-24.993h-52.714v24.993
			c-20.255,3.739-39.03,11.685-55.375,22.931l-17.667-17.667l-37.274,37.276l17.668,17.667
			c-11.246,16.346-19.192,35.116-22.93,55.374H1.259v52.716h24.992C29.993,364.689,37.938,383.464,49.183,399.806z M168.188,211.478
			c58.873,0,106.597,47.725,106.597,106.599c0,58.873-47.724,106.598-106.597,106.598c-58.874,0-106.598-47.725-106.598-106.598
			C61.586,259.203,109.314,211.478,168.188,211.478z"/>
		<path d="M467.533,94.713l15.719-6.702l-16.591-38.896l-15.717,6.705c-6.765-9.516-15.055-17.637-24.704-24.197l6.376-15.85
			L393.384,0l-6.375,15.85c-11.435-1.923-23.188-1.8-34.576,0.363l-6.704-15.719L306.833,17.08l6.705,15.719
			c-9.518,6.761-17.639,15.052-24.198,24.702l-15.851-6.375l-15.774,39.233l15.851,6.373c-1.944,11.506-1.82,23.111,0.365,34.578
			l-15.717,6.702l16.587,38.896l15.716-6.704c6.762,9.513,15.053,17.634,24.702,24.197l-6.373,15.85l39.231,15.773l6.372-15.85
			c11.432,1.92,23.188,1.799,34.578-0.363l6.705,15.718l38.896-16.586l-6.706-15.718c9.517-6.764,17.637-15.052,24.197-24.702
			l15.851,6.375l15.772-39.233l-15.849-6.373C469.84,117.785,469.716,106.181,467.533,94.713z M396.634,173.749
			c-8.263,3.525-16.968,5.312-25.871,5.312c-26.515,0-50.367-15.76-60.771-40.146c-14.281-33.491,1.344-72.357,34.836-86.639
			c8.263-3.525,16.965-5.312,25.868-5.312c26.518,0,50.369,15.76,60.771,40.145C445.749,120.599,430.124,159.467,396.634,173.749z"
			/>
	</g>
</g>
<g>
</g>
<g>
</g>
<g>
</g>
<g>
</g>
<g>
</g>
<g>
</g>
<g>
</g>
<g>
</g>
<g>
</g>
<g>
</g>
<g>
</g>
<g>
</g>
<g>
</g>
<g>
</g>
<g>
</g>
</svg>
