<?xml version="1.0" encoding="iso-8859-1"?>
<!-- Generator: Adobe Illustrator 16.0.0, SVG Export Plug-In . SVG Version: 6.00 Build 0)  -->
<!DOCTYPE svg PUBLIC "-//W3C//DTD SVG 1.1//EN" "http://www.w3.org/Graphics/SVG/1.1/DTD/svg11.dtd">
<svg version="1.1" id="Capa_1" xmlns="http://www.w3.org/2000/svg" xmlns:xlink="http://www.w3.org/1999/xlink" x="0px" y="0px"
	 width="493.828px" height="493.827px" viewBox="0 0 493.828 493.827" style="enable-background:new 0 0 493.828 493.827;"
	 xml:space="preserve">
<g>
	<g>
		<path d="M438.36,364.708c7.326,14.576,8.536,31.132,3.409,46.621c-5.128,15.49-15.979,28.052-30.551,35.378
			c-30.094,15.118-66.879,2.944-82.004-27.146l-60.95-121.284c-12.053,5.912-23.852,12.633-35.361,20.109l60.015,119.417
			c17.838,35.493,53.776,56.023,91.036,56.023c15.337,0,30.896-3.479,45.508-10.82c50.105-25.183,70.383-86.436,45.199-136.544
			L438.36,364.708z"/>
		<path d="M97.335,48.649c8.445-5.766,17.28-11.075,26.548-15.787c2.944-1.463,5.91-2.836,8.889-4.172L118.355,0L82.058,18.244
			L97.335,48.649z"/>
		<path d="M407.649,252.448c13.899,0,28.272,0.835,43.146,2.622c1.884-37.137-5.544-75.256-23.432-110.854
			C388.341,66.573,309.973,21.74,228.623,21.735c-30.131-0.002-60.652,6.167-89.757,19.073c-2.998,1.33-5.988,2.705-8.954,4.179
			c-9.306,4.731-18.1,10.07-26.437,15.872C14.193,123-18.222,242.863,32.05,342.891c17.891,35.602,44.049,64.302,74.971,84.953
			c0,0,39.694-70.087,119.755-121.652c11.037-7.108,22.824-13.868,35.396-20.041C302.661,266.271,351.132,252.451,407.649,252.448z"
			/>
	</g>
</g>
<g>
</g>
<g>
</g>
<g>
</g>
<g>
</g>
<g>
</g>
<g>
</g>
<g>
</g>
<g>
</g>
<g>
</g>
<g>
</g>
<g>
</g>
<g>
</g>
<g>
</g>
<g>
</g>
<g>
</g>
</svg>
