<?xml version="1.0" encoding="iso-8859-1"?>
<!-- Generator: Adobe Illustrator 16.0.0, SVG Export Plug-In . SVG Version: 6.00 Build 0)  -->
<!DOCTYPE svg PUBLIC "-//W3C//DTD SVG 1.1//EN" "http://www.w3.org/Graphics/SVG/1.1/DTD/svg11.dtd">
<svg version="1.1" id="Capa_1" xmlns="http://www.w3.org/2000/svg" xmlns:xlink="http://www.w3.org/1999/xlink" x="0px" y="0px"
	 width="495.947px" height="495.947px" viewBox="0 0 495.947 495.947" style="enable-background:new 0 0 495.947 495.947;"
	 xml:space="preserve">
<g>
	<g>
		<path d="M265.307,292.012c-5.826-2.955-12.286-4.728-18.813-4.888c-0.36-0.007-0.721-0.013-1.075-0.013
			c-7.409,0-14.485,1.929-20.688,5.396l0.262,203.439l40.576-0.055L265.307,292.012z"/>
		<path d="M248.808,26.304c1.409,0,2.815,0.014,4.357,0.046c3.955,0.116,7.888,0.374,11.799,0.706L264.929,0l-40.578,0.054
			l0.035,27.73c8.051-0.942,16.19-1.48,24.408-1.48H248.808z"/>
		<path d="M264.981,40.652c-4.038-0.371-8.101-0.663-12.209-0.782c-1.329-0.026-2.649-0.041-3.976-0.041
			c-8.261,0-16.392,0.576-24.392,1.586C130.77,53.209,57.255,131.887,54.851,229.106c-0.636,25.766,3.779,50.486,12.34,73.205
			c2.313,6.143,4.713,8.974,7.272,8.974c2.903,0,6.014-3.646,9.438-10.252c9.338-17.996,28.142-30.21,49.661-30.21
			c0.468,0,0.939,0.004,1.41,0.018c22.103,0.545,40.896,13.84,49.518,32.68c2.926,6.396,4.13,9.576,5.418,9.576
			c1.277,0,2.64-3.115,5.846-9.299c6.168-11.886,16.477-21.218,28.956-26.207c6.416-2.562,13.398-4.003,20.707-4.003
			c0.469,0,0.939,0.007,1.409,0.017c6.398,0.156,12.624,1.449,18.46,3.617c14.179,5.266,26.017,15.85,32.057,28.983
			c2.978,6.474,4.189,9.724,5.521,9.724c1.287,0,2.688-3.029,5.896-9.117c9.529-18.072,26.997-30.459,48.523-30.459
			c0.462,0,0.928,0.006,1.396,0.018c22.104,0.545,40.896,13.842,49.519,32.682c1.941,4.24,3.153,8.391,3.913,12.037
			c0.782,3.752,2.005,5.725,3.481,5.725c1.224,0,2.622-1.354,4.088-4.178c1.724-3.322,3.625-7.226,5.472-11.476
			c9.678-22.271,15.311-46.742,15.945-72.508C443.636,135.912,365.843,49.911,264.981,40.652z"/>
	</g>
</g>
<g>
</g>
<g>
</g>
<g>
</g>
<g>
</g>
<g>
</g>
<g>
</g>
<g>
</g>
<g>
</g>
<g>
</g>
<g>
</g>
<g>
</g>
<g>
</g>
<g>
</g>
<g>
</g>
<g>
</g>
</svg>
