<?xml version="1.0" encoding="iso-8859-1"?>
<!-- Generator: Adobe Illustrator 16.0.0, SVG Export Plug-In . SVG Version: 6.00 Build 0)  -->
<!DOCTYPE svg PUBLIC "-//W3C//DTD SVG 1.1//EN" "http://www.w3.org/Graphics/SVG/1.1/DTD/svg11.dtd">
<svg version="1.1" id="Capa_1" xmlns="http://www.w3.org/2000/svg" xmlns:xlink="http://www.w3.org/1999/xlink" x="0px" y="0px"
	 width="499.243px" height="499.243px" viewBox="0 0 499.243 499.243" style="enable-background:new 0 0 499.243 499.243;"
	 xml:space="preserve">
<g>
	<g>
		<path d="M371.845,28.099c3.513,1.629,6.996,3.316,10.436,5.114c9.74,5.214,18.998,11.064,27.803,17.428l15.824-29.896L386.717,0
			L371.845,28.099z"/>
		<path d="M60.284,486.987c15.362,8.129,32.107,12.256,49.009,12.256c10.381,0,20.824-1.559,31.028-4.7
			c26.813-8.253,48.811-26.456,61.936-51.252l62.032-117.201c-4.342-10.859-12.424-20.025-23.253-25.762
			c-3.468-1.834-7.18-3.248-11.029-4.252l-66.936,126.473c-15.658,29.58-52.464,40.913-82.042,25.253
			c-29.583-15.656-40.909-52.461-25.255-82.044L16.585,345.02C-10.507,396.207,9.1,459.894,60.284,486.987z"/>
		<path d="M403.098,63.839c-8.711-6.429-17.97-12.335-27.794-17.594c-3.432-1.797-6.896-3.473-10.376-5.076
			c-30.467-14.043-62.616-20.765-94.363-20.765c-81.136,0-159.574,43.754-200.173,120.46c-14.058,26.562-22.3,54.65-25.172,82.814
			c-0.547,5.374-0.843,10.429-0.984,14.789c-0.15,4.587,0.877,6.831,2.754,6.831c1.472,0,3.467-1.377,5.827-4.085
			c2.853-3.276,6.456-6.802,10.848-10.006c11.182-8.155,24.726-12.557,38.537-12.557c10.29,0,20.727,2.442,30.454,7.592
			c22.85,12.095,34.02,35.113,33.378,59.438c-0.236,8.971-0.591,12.76,1.331,12.76c1.572,0,4.676-2.541,10.624-6.859
			c10.845-7.879,24.501-12.046,38.394-12.046c6.946,0,13.946,1.056,20.691,3.194c3.721,1.18,7.369,2.679,10.878,4.537
			c10.504,5.562,18.832,13.601,24.717,22.998c6.878,10.986,10.4,23.836,9.973,36.846c-0.299,9.05-0.751,12.912,1.159,12.912
			c1.53,0,4.581-2.483,10.455-6.769c11.183-8.155,24.727-12.553,38.536-12.553c10.289,0,20.729,2.44,30.457,7.59
			c22.784,12.06,35.486,35.702,34.69,59.843c-0.347,10.517,1.314,16.343,5.888,16.343c2.521,0,5.927-1.771,10.37-5.505
			c21.673-18.211,40.269-40.822,54.326-67.382C521.6,251.303,491.709,129.232,403.098,63.839z"/>
	</g>
</g>
<g>
</g>
<g>
</g>
<g>
</g>
<g>
</g>
<g>
</g>
<g>
</g>
<g>
</g>
<g>
</g>
<g>
</g>
<g>
</g>
<g>
</g>
<g>
</g>
<g>
</g>
<g>
</g>
<g>
</g>
</svg>
