<?xml version="1.0" encoding="iso-8859-1"?>
<!-- Generator: Adobe Illustrator 16.0.0, SVG Export Plug-In . SVG Version: 6.00 Build 0)  -->
<!DOCTYPE svg PUBLIC "-//W3C//DTD SVG 1.1//EN" "http://www.w3.org/Graphics/SVG/1.1/DTD/svg11.dtd">
<svg version="1.1" id="Capa_1" xmlns="http://www.w3.org/2000/svg" xmlns:xlink="http://www.w3.org/1999/xlink" x="0px" y="0px"
	 width="491.445px" height="491.445px" viewBox="0 0 491.445 491.445" style="enable-background:new 0 0 491.445 491.445;"
	 xml:space="preserve">
<g>
	<g>
		<path d="M489.946,241.724C473.407,129.056,380.809,41.162,265.954,31.842V10.353H225.49v21.489
			C110.637,41.165,18.039,129.059,1.5,241.724c-2.574,17.523-2.417,17.043,5.155,1.033c13.184-27.88,41.563-47.165,74.449-47.165
			c34.39,0,63.855,21.093,76.165,51.045c6.73,16.382,5.56,16.382,12.291,0c9.808-23.869,30.526-42.069,55.932-48.495v198.585
			c0,24.208-19.695,43.902-43.904,43.902h-12.827c-24.208,0-43.904-19.694-43.904-43.902H84.392
			c0,46.52,37.848,84.366,84.368,84.366h12.827c46.52,0,84.369-37.848,84.369-84.366V198.142
			c25.405,6.426,46.123,24.626,55.933,48.495c6.73,16.382,5.561,16.382,12.291,0c12.309-29.954,41.771-51.045,76.164-51.045
			c32.887,0,61.266,19.285,74.451,47.165C492.363,258.767,492.52,259.247,489.946,241.724z"/>
	</g>
</g>
<g>
</g>
<g>
</g>
<g>
</g>
<g>
</g>
<g>
</g>
<g>
</g>
<g>
</g>
<g>
</g>
<g>
</g>
<g>
</g>
<g>
</g>
<g>
</g>
<g>
</g>
<g>
</g>
<g>
</g>
</svg>
