<?xml version="1.0" encoding="iso-8859-1"?>
<!-- Generator: Adobe Illustrator 16.0.0, SVG Export Plug-In . SVG Version: 6.00 Build 0)  -->
<!DOCTYPE svg PUBLIC "-//W3C//DTD SVG 1.1//EN" "http://www.w3.org/Graphics/SVG/1.1/DTD/svg11.dtd">
<svg version="1.1" id="Capa_1" xmlns="http://www.w3.org/2000/svg" xmlns:xlink="http://www.w3.org/1999/xlink" x="0px" y="0px"
	 width="490.72px" height="490.721px" viewBox="0 0 490.72 490.721" style="enable-background:new 0 0 490.72 490.721;"
	 xml:space="preserve">
<g>
	<g>
		<path d="M224.686,398.377c0,28.119-22.876,50.996-50.994,50.996c-28.119,0-50.995-22.877-50.995-50.996H81.349
			c0,50.918,41.424,92.344,92.343,92.344c50.918,0,92.342-41.426,92.342-92.344v-67.559h-41.348V398.377L224.686,398.377z"/>
		<path d="M275.222,27.272c-3.04-0.48-6.104-0.882-9.188-1.222V0h-41.348v26.075c-97.921,10.75-174.118,93.692-174.118,194.479
			c0,35.082,9.23,68.007,25.396,96.481h157.912h41.348h139.533c16.162-28.475,25.396-61.399,25.396-96.481
			C440.152,122.939,368.684,42.038,275.222,27.272z"/>
	</g>
</g>
<g>
</g>
<g>
</g>
<g>
</g>
<g>
</g>
<g>
</g>
<g>
</g>
<g>
</g>
<g>
</g>
<g>
</g>
<g>
</g>
<g>
</g>
<g>
</g>
<g>
</g>
<g>
</g>
<g>
</g>
</svg>
