<?xml version="1.0" encoding="iso-8859-1"?>
<!-- Generator: Adobe Illustrator 16.0.0, SVG Export Plug-In . SVG Version: 6.00 Build 0)  -->
<!DOCTYPE svg PUBLIC "-//W3C//DTD SVG 1.1//EN" "http://www.w3.org/Graphics/SVG/1.1/DTD/svg11.dtd">
<svg version="1.1" id="Capa_1" xmlns="http://www.w3.org/2000/svg" xmlns:xlink="http://www.w3.org/1999/xlink" x="0px" y="0px"
	 width="495.412px" height="495.412px" viewBox="0 0 495.412 495.412" style="enable-background:new 0 0 495.412 495.412;"
	 xml:space="preserve">
<g>
	<path d="M439.143,150.497c8.09,8.089,8.09,21.206,0,29.296l-88.458,88.456c-8.089,8.09-14.646,14.815-14.646,15.017
		c0,0.203-35.75,67.43-88.09,101.778c-52.344,34.348-37.621,62.154-37.621,89.96c0,23.425-29.021,29.436-48.924,3.363
		c-6.941-9.092-13.758-26.729-15.12-38.085c-4.137-34.518,18.437-57.509,26.738-69.962c5.617-8.428,8.857-24.047,3.01-43.463H41.939
		c-26.521,0-40.864-20.416-31.875-45.367L78.292,92.121c3.862-10.718,16.343-19.487,27.735-19.487h161.126
		c11.395,0,27.309-6.592,35.363-14.646l7.412-7.412c8.09-8.09,21.206-8.09,29.296,0L439.143,150.497z M369.569,0l-27.12,27.12
		L460.91,145.582l27.121-27.12L369.569,0z"/>
</g>
<g>
</g>
<g>
</g>
<g>
</g>
<g>
</g>
<g>
</g>
<g>
</g>
<g>
</g>
<g>
</g>
<g>
</g>
<g>
</g>
<g>
</g>
<g>
</g>
<g>
</g>
<g>
</g>
<g>
</g>
</svg>
