<?xml version="1.0" encoding="iso-8859-1"?>
<!-- Generator: Adobe Illustrator 16.0.0, SVG Export Plug-In . SVG Version: 6.00 Build 0)  -->
<!DOCTYPE svg PUBLIC "-//W3C//DTD SVG 1.1//EN" "http://www.w3.org/Graphics/SVG/1.1/DTD/svg11.dtd">
<svg version="1.1" id="Capa_1" xmlns="http://www.w3.org/2000/svg" xmlns:xlink="http://www.w3.org/1999/xlink" x="0px" y="0px"
	 width="486.5px" height="486.5px" viewBox="0 0 486.5 486.5" style="enable-background:new 0 0 486.5 486.5;" xml:space="preserve"
	>
<g>
	<g>
		<path d="M420.757,218.268V66.94C420.757,30.347,392.3,0,355.708,0h-221.71C97.405,0,68.373,30.347,68.373,66.94v85.584h52.595
			V66.94c0-7.595,5.436-14.345,13.03-14.345h221.71c7.595,0,12.454,6.75,12.454,14.345v151.328H420.757z"/>
		<path d="M368.162,231.416H21.038V486.5h444.424V231.416h-44.705H368.162z M260.344,378.165v61h-34.187v-61
			c-13.148-6.547-23.21-20.407-23.21-36.492c0-22.389,17.914-40.54,40.303-40.54c22.39,0,40.304,18.151,40.304,40.54
			C283.554,357.758,273.492,371.616,260.344,378.165z"/>
	</g>
</g>
<g>
</g>
<g>
</g>
<g>
</g>
<g>
</g>
<g>
</g>
<g>
</g>
<g>
</g>
<g>
</g>
<g>
</g>
<g>
</g>
<g>
</g>
<g>
</g>
<g>
</g>
<g>
</g>
<g>
</g>
</svg>
