<?xml version="1.0" encoding="iso-8859-1"?>
<!-- Generator: Adobe Illustrator 16.0.0, SVG Export Plug-In . SVG Version: 6.00 Build 0)  -->
<!DOCTYPE svg PUBLIC "-//W3C//DTD SVG 1.1//EN" "http://www.w3.org/Graphics/SVG/1.1/DTD/svg11.dtd">
<svg version="1.1" id="Capa_1" xmlns="http://www.w3.org/2000/svg" xmlns:xlink="http://www.w3.org/1999/xlink" x="0px" y="0px"
	 width="485.738px" height="485.738px" viewBox="0 0 485.738 485.738" style="enable-background:new 0 0 485.738 485.738;"
	 xml:space="preserve">
<g>
	<g>
		<path d="M232.602,364.715c0-73.354,59.678-133.032,133.03-133.032c16.712,0,32.701,3.129,47.451,8.781V0.92H56.287v0.023
			C41.954,1.168,27.588,4.04,16.965,14.113C0.56,29.663-0.811,51.025,0.286,72.378c0.845,16.479,26.537,16.562,25.687,0
			c-0.69-13.453-2.583-31.349,9.76-40.461c5.794-4.276,13.091-5.579,20.552-5.688v70.615c-14.333,0.225-28.699,3.097-39.323,13.171
			C0.56,125.563-0.811,146.925,0.286,168.279c0.845,16.48,26.537,16.562,25.687,0c-0.69-13.45-2.583-31.349,9.76-40.46
			c5.794-4.277,13.091-5.58,20.552-5.688v70.614c-14.333,0.225-28.699,3.098-39.323,13.171
			C0.557,221.467-0.811,242.828,0.286,264.182c0.845,16.479,26.537,16.562,25.687,0c-0.69-13.451-2.583-31.351,9.76-40.461
			c5.794-4.276,13.091-5.579,20.552-5.688v70.614c-14.333,0.227-28.699,3.099-39.323,13.172
			C0.557,317.368-0.811,338.73,0.286,360.084c0.845,16.479,26.537,16.562,25.687,0c-0.69-13.451-2.583-31.35,9.76-40.46
			c5.794-4.276,13.091-5.58,20.552-5.688v70.615c-14.333,0.226-28.699,3.098-39.323,13.17
			C0.557,413.272-0.811,434.634,0.286,455.984c0.845,16.479,26.537,16.562,25.687,0c-0.69-13.45-2.583-31.351,9.76-40.46
			c5.794-4.276,13.091-5.579,20.552-5.688v51.79h218.347C248.79,437.338,232.602,402.892,232.602,364.715z M137.729,48.995h193.912
			v103.419H137.729V48.995L137.729,48.995z"/>
		<path d="M413.084,254.365c-14.557-6.27-30.594-9.755-47.451-9.755c-66.329,0-120.104,53.772-120.104,120.104
			c0,39.795,19.369,75.053,49.177,96.906c19.877,14.571,44.391,23.197,70.928,23.197c66.33,0,120.104-53.773,120.104-120.104
			C485.736,315.238,455.812,272.764,413.084,254.365z M413.084,360.891l-43.862,43.861l-29.892,29.892l-29.891-29.892
			l-28.807-28.808l29.891-29.894l28.807,28.811l73.754-73.754l2.493-2.489l29.891,29.892L413.084,360.891z"/>
	</g>
</g>
<g>
</g>
<g>
</g>
<g>
</g>
<g>
</g>
<g>
</g>
<g>
</g>
<g>
</g>
<g>
</g>
<g>
</g>
<g>
</g>
<g>
</g>
<g>
</g>
<g>
</g>
<g>
</g>
<g>
</g>
</svg>
