<?xml version="1.0" encoding="iso-8859-1"?>
<!-- Generator: Adobe Illustrator 16.0.0, SVG Export Plug-In . SVG Version: 6.00 Build 0)  -->
<!DOCTYPE svg PUBLIC "-//W3C//DTD SVG 1.1//EN" "http://www.w3.org/Graphics/SVG/1.1/DTD/svg11.dtd">
<svg version="1.1" id="Capa_1" xmlns="http://www.w3.org/2000/svg" xmlns:xlink="http://www.w3.org/1999/xlink" x="0px" y="0px"
	 width="494.551px" height="494.551px" viewBox="0 0 494.551 494.551" style="enable-background:new 0 0 494.551 494.551;"
	 xml:space="preserve">
<g>
	<g>
		<polygon points="494.551,87.519 252.832,87.519 252.832,134.751 233.383,134.751 233.383,201.432 252.832,201.432 
			252.832,245.885 494.551,245.885 		"/>
		<rect x="25.004" y="18.059" width="38.898" height="22.228"/>
		<path d="M111.134,201.641c23.097,0,41.888-18.791,41.888-41.885c0-23.093-18.791-41.884-41.888-41.884
			c-23.097,0-41.886,18.791-41.886,41.884C69.249,182.85,88.038,201.641,111.134,201.641z"/>
		<path d="M0,476.492h219.492V201.432V134.75V54.177H0V476.492z M111.134,76.196c46.077,0,83.563,37.483,83.563,83.56
			s-37.486,83.561-83.563,83.561c-46.076,0-83.562-37.483-83.562-83.561C27.573,113.679,65.058,76.196,111.134,76.196z"/>
	</g>
</g>
<g>
</g>
<g>
</g>
<g>
</g>
<g>
</g>
<g>
</g>
<g>
</g>
<g>
</g>
<g>
</g>
<g>
</g>
<g>
</g>
<g>
</g>
<g>
</g>
<g>
</g>
<g>
</g>
<g>
</g>
</svg>
