<?xml version="1.0" encoding="iso-8859-1"?>
<!-- Generator: Adobe Illustrator 16.0.0, SVG Export Plug-In . SVG Version: 6.00 Build 0)  -->
<!DOCTYPE svg PUBLIC "-//W3C//DTD SVG 1.1//EN" "http://www.w3.org/Graphics/SVG/1.1/DTD/svg11.dtd">
<svg version="1.1" id="Capa_1" xmlns="http://www.w3.org/2000/svg" xmlns:xlink="http://www.w3.org/1999/xlink" x="0px" y="0px"
	 width="487.922px" height="487.922px" viewBox="0 0 487.922 487.922" style="enable-background:new 0 0 487.922 487.922;"
	 xml:space="preserve">
<g>
	<g>
		<path d="M314.995,131.745l22.099-33.081c-26.244-17.528-59.317-27.182-93.133-27.182c-33.815,0-66.891,9.654-93.129,27.182
			l22.098,33.081c19.769-13.205,44.997-20.48,71.031-20.48S295.22,118.54,314.995,131.745z"/>
		<path d="M243.959,0c-44.674,0-88.329,12.724-122.921,35.831l22.098,33.081c28.124-18.783,63.929-29.126,100.823-29.126
			c36.894,0,72.703,10.343,100.827,29.126l22.098-33.081C332.291,12.724,288.635,0,243.959,0z"/>
		<rect x="123.983" y="304.92" width="238.697" height="183.002"/>
		<path d="M123.983,250.157v41.502h114.045V177.614h-41.08C157.006,177.614,123.983,210.216,123.983,250.157z"/>
		<path d="M362.681,250.157c0-39.941-31.768-72.543-71.711-72.543h-39.681v114.045h111.392V250.157z"/>
	</g>
</g>
<g>
</g>
<g>
</g>
<g>
</g>
<g>
</g>
<g>
</g>
<g>
</g>
<g>
</g>
<g>
</g>
<g>
</g>
<g>
</g>
<g>
</g>
<g>
</g>
<g>
</g>
<g>
</g>
<g>
</g>
</svg>
