<?xml version="1.0" encoding="iso-8859-1"?>
<!-- Generator: Adobe Illustrator 16.0.0, SVG Export Plug-In . SVG Version: 6.00 Build 0)  -->
<!DOCTYPE svg PUBLIC "-//W3C//DTD SVG 1.1//EN" "http://www.w3.org/Graphics/SVG/1.1/DTD/svg11.dtd">
<svg version="1.1" id="Capa_1" xmlns="http://www.w3.org/2000/svg" xmlns:xlink="http://www.w3.org/1999/xlink" x="0px" y="0px"
	 width="487.5px" height="487.5px" viewBox="0 0 487.5 487.5" style="enable-background:new 0 0 487.5 487.5;" xml:space="preserve"
	>
<g>
	<g>
		<path d="M0,446.985h487.5V220.55H0V446.985z M402.254,425.673H82.582V383.05h319.672V425.673z M61.271,359.075v-42.623h42.623
			v42.623H61.271z M125.205,359.075v-42.623h42.623v42.623H125.205z M189.139,359.075v-42.623h42.623v42.623H189.139z
			 M253.074,359.075v-42.623h42.621v42.623H253.074z M317.008,359.075v-42.623h42.623v42.623H317.008z M423.565,359.075h-42.623
			v-42.623h42.623V359.075z M412.91,252.519h42.623v42.622H412.91V252.519z M348.976,252.519h42.623v42.622h-42.623V252.519z
			 M285.041,252.519h42.623v42.622h-42.623V252.519L285.041,252.519z M221.106,252.519h42.623v42.622h-42.623V252.519z
			 M157.172,252.519h42.623v42.622h-42.623V252.519z M93.238,252.519h42.623v42.622H93.238V252.519z M29.303,252.519h42.623v42.622
			H29.303V252.519z"/>
		<path d="M91.213,149.964l19.172,35.057c33.763-18.46,76.793-28.625,121.172-28.625c44.378,0,87.41,10.166,121.17,28.625
			l19.173-35.057c-39.54-21.621-89.383-33.528-140.346-33.528C180.59,116.437,130.754,128.343,91.213,149.964z"/>
		<path d="M419.359,85.318C366.52,56.422,299.824,40.515,231.56,40.515S96.6,56.426,43.76,85.318l19.167,35.058
			c47.066-25.731,106.951-39.903,168.632-39.903s121.565,14.172,168.632,39.903L419.359,85.318z"/>
	</g>
</g>
<g>
</g>
<g>
</g>
<g>
</g>
<g>
</g>
<g>
</g>
<g>
</g>
<g>
</g>
<g>
</g>
<g>
</g>
<g>
</g>
<g>
</g>
<g>
</g>
<g>
</g>
<g>
</g>
<g>
</g>
</svg>
