<?xml version="1.0" encoding="iso-8859-1"?>
<!-- Generator: Adobe Illustrator 16.0.0, SVG Export Plug-In . SVG Version: 6.00 Build 0)  -->
<!DOCTYPE svg PUBLIC "-//W3C//DTD SVG 1.1//EN" "http://www.w3.org/Graphics/SVG/1.1/DTD/svg11.dtd">
<svg version="1.1" id="Capa_1" xmlns="http://www.w3.org/2000/svg" xmlns:xlink="http://www.w3.org/1999/xlink" x="0px" y="0px"
	 width="494.266px" height="494.266px" viewBox="0 0 494.266 494.266" style="enable-background:new 0 0 494.266 494.266;"
	 xml:space="preserve">
<g>
	<g>
		<circle cx="193.948" cy="49.428" r="49.428"/>
		<polygon points="53.26,294.322 91.763,294.322 121.522,186.137 136.742,186.199 84.206,382.501 128.058,382.501 128.232,494.266 
			185.526,494.266 185.526,382.501 202.375,382.501 202.375,494.266 260.338,494.266 260.398,382.501 303.691,382.501 
			249.691,187.618 265.933,187.714 284.75,249.583 371.909,249.934 371.909,231.687 340.792,231.687 332.392,231.687 
			332.392,223.286 332.392,212.341 306.724,212.48 286.227,117.953 104.662,117.953 		"/>
		<polygon points="340.792,175.012 340.792,212.297 340.792,223.286 371.909,223.286 436.629,223.286 436.629,175.012 
			401.191,175.012 401.191,200.979 388.406,192.269 375.595,200.979 375.595,175.012 		"/>
		<path d="M336.413,142.543v24.065h0.177h4.199h95.84h4.2h0.177v-24.065v-11.411h-24.863c1.293-0.524,2.575-1.076,3.836-1.681
			c1.396-0.672,3.143-1.52,4.915-2.518c2.107-1.188,4.245-2.596,5.877-4.201c2.912-2.865,4.206-6.351,0.748-10.33
			c-2.873-3.304-8.514-2.369-12.236-1.633c-3.89,0.767-7.68,1.977-11.26,3.69c-4.489,2.151-8.524,4.943-12.093,8.272
			c-1.408,1.317-2.738,2.719-3.995,4.201c-0.904,1.067-1.785,2.162-2.607,3.31c-0.114,0.16-0.197,0.323-0.28,0.479
			c-0.081-0.159-0.165-0.319-0.279-0.479c-0.821-1.15-1.702-2.242-2.606-3.31c-1.254-1.481-2.588-2.887-3.995-4.201
			c-3.565-3.329-7.604-6.121-12.092-8.272c-3.579-1.714-7.37-2.923-11.261-3.69c-3.728-0.734-9.363-1.671-12.236,1.633
			c-3.459,3.976-2.164,7.464,0.747,10.33c1.633,1.608,3.77,3.013,5.878,4.201c1.772,1,3.521,1.849,4.915,2.518
			c1.261,0.607,2.542,1.16,3.837,1.681h-25.558v11.411H336.413L336.413,142.543z M406.688,122.731
			c0.66-0.41,1.322-0.815,2.005-1.183c4.69-2.511,11.246-5.351,16.719-4.824c3.29,0.316-0.828,2.567-1.823,3.183
			c-1.285,0.796-2.583,1.58-3.92,2.283c-0.364,0.191-0.739,0.353-1.105,0.541c-2.414,1.226-4.873,2.357-7.44,3.228
			c-1.108,0.375-2.232,0.655-3.35,0.973c-2.885,0.82-5.786,1.515-8.735,1.935c0.65-0.669,1.332-1.313,2.025-1.935
			C402.811,125.366,404.697,123.963,406.688,122.731z M366.988,125.959c-2.566-0.873-5.025-2.001-7.439-3.228
			c-0.366-0.185-0.742-0.35-1.106-0.541c-1.339-0.703-2.635-1.487-3.921-2.283c-0.992-0.616-5.112-2.864-1.821-3.183
			c5.473-0.527,12.028,2.313,16.718,4.824c0.683,0.368,1.343,0.773,2.005,1.183c1.993,1.231,3.878,2.635,5.626,4.2
			c0.697,0.625,1.377,1.266,2.027,1.935c-2.951-0.42-5.856-1.115-8.74-1.935C369.22,126.614,368.099,126.334,366.988,125.959z"/>
	</g>
</g>
<g>
</g>
<g>
</g>
<g>
</g>
<g>
</g>
<g>
</g>
<g>
</g>
<g>
</g>
<g>
</g>
<g>
</g>
<g>
</g>
<g>
</g>
<g>
</g>
<g>
</g>
<g>
</g>
<g>
</g>
</svg>
