<?xml version="1.0" encoding="iso-8859-1"?>
<!-- Generator: Adobe Illustrator 16.0.0, SVG Export Plug-In . SVG Version: 6.00 Build 0)  -->
<!DOCTYPE svg PUBLIC "-//W3C//DTD SVG 1.1//EN" "http://www.w3.org/Graphics/SVG/1.1/DTD/svg11.dtd">
<svg version="1.1" id="Capa_1" xmlns="http://www.w3.org/2000/svg" xmlns:xlink="http://www.w3.org/1999/xlink" x="0px" y="0px"
	 width="495.566px" height="495.566px" viewBox="0 0 495.566 495.566" style="enable-background:new 0 0 495.566 495.566;"
	 xml:space="preserve">
<g>
	<g>
		<path d="M495.566,426.708l-124.221-124.22c-8.484,13.809-18.621,26.736-30.369,38.484c-11.749,11.75-24.679,21.886-38.485,30.371
			l124.219,124.221L495.566,426.708z"/>
		<path d="M330.845,330.846c11.893-11.891,21.908-24.944,30.064-38.793c43.747-74.292,33.731-171.492-30.064-235.287
			c-37.842-37.844-87.44-56.764-137.042-56.764c-49.598,0-99.198,18.92-137.041,56.763c-75.684,75.684-75.684,198.396,0,274.081
			c37.843,37.844,87.44,56.766,137.041,56.766c34.015,0,68.026-8.906,98.246-26.704C305.9,352.754,318.954,342.738,330.845,330.846z
			 M75.523,116.445l-2.87-1.882l-5.989-3.926c22.752-34.696,57.657-58.459,98.279-66.905c40.625-8.449,82.108-0.564,116.803,22.185
			c66.797,43.801,88.722,130.655,53.289,200.267c-2.562,5.035-5.396,9.986-8.566,14.818l-11.977-7.853l0,0
			c3.757-5.729,7.014-11.64,9.835-17.673c29.205-62.442,8.861-138.699-50.434-177.58c-31.502-20.659-69.163-27.812-106.035-20.141
			c-36.878,7.668-68.563,29.237-89.217,60.739L75.523,116.445z"/>
	</g>
</g>
<g>
</g>
<g>
</g>
<g>
</g>
<g>
</g>
<g>
</g>
<g>
</g>
<g>
</g>
<g>
</g>
<g>
</g>
<g>
</g>
<g>
</g>
<g>
</g>
<g>
</g>
<g>
</g>
<g>
</g>
</svg>
