<?xml version="1.0" encoding="iso-8859-1"?>
<!-- Generator: Adobe Illustrator 16.0.0, SVG Export Plug-In . SVG Version: 6.00 Build 0)  -->
<!DOCTYPE svg PUBLIC "-//W3C//DTD SVG 1.1//EN" "http://www.w3.org/Graphics/SVG/1.1/DTD/svg11.dtd">
<svg version="1.1" id="Capa_1" xmlns="http://www.w3.org/2000/svg" xmlns:xlink="http://www.w3.org/1999/xlink" x="0px" y="0px"
	 width="490.566px" height="490.566px" viewBox="0 0 490.566 490.566" style="enable-background:new 0 0 490.566 490.566;"
	 xml:space="preserve">
<g>
	<g>
		<path d="M337.533,337.536c-11.631,11.629-24.429,21.663-38.099,30.063l122.967,122.967l68.165-68.165L367.55,299.385
			C359.24,312.958,349.271,325.797,337.533,337.536z"/>
		<path d="M191.852,383.701c33.672,0,67.665-8.814,97.582-26.434c13.709-8.072,26.467-17.988,38.239-29.762
			c11.771-11.771,21.604-24.601,29.68-38.312l-0.056-0.052c43.271-73.537,33.346-169.817-29.789-232.952
			C290.046,18.729,240.95,0,191.849,0C142.751,0,93.651,18.729,56.19,56.191c-74.921,74.924-74.921,196.395,0,271.314
			C93.654,364.971,142.751,383.701,191.852,383.701z M80.555,156.635h76.552V80.084h70.88v76.551h76.55v70.88h-9.044h-10.813
			h-56.692v57.163v10.813v8.574h-70.88v-76.551H80.555V156.635z"/>
	</g>
</g>
<g>
</g>
<g>
</g>
<g>
</g>
<g>
</g>
<g>
</g>
<g>
</g>
<g>
</g>
<g>
</g>
<g>
</g>
<g>
</g>
<g>
</g>
<g>
</g>
<g>
</g>
<g>
</g>
<g>
</g>
</svg>
