<?xml version="1.0" encoding="iso-8859-1"?>
<!-- Generator: Adobe Illustrator 16.0.0, SVG Export Plug-In . SVG Version: 6.00 Build 0)  -->
<!DOCTYPE svg PUBLIC "-//W3C//DTD SVG 1.1//EN" "http://www.w3.org/Graphics/SVG/1.1/DTD/svg11.dtd">
<svg version="1.1" id="Capa_1" xmlns="http://www.w3.org/2000/svg" xmlns:xlink="http://www.w3.org/1999/xlink" x="0px" y="0px"
	 width="488.566px" height="488.566px" viewBox="0 0 488.566 488.566" style="enable-background:new 0 0 488.566 488.566;"
	 xml:space="preserve">
<g>
	<g>
		<path d="M336.155,336.145c-11.582,11.584-24.328,21.576-37.94,29.941l122.464,122.465l67.888-67.885L366.05,298.152
			C357.774,311.673,347.847,324.457,336.155,336.145z"/>
		<path d="M326.171,326.23c11.726-11.723,21.601-24.568,29.641-38.223C398.94,214.765,389.067,118.891,326.171,56
			C288.862,18.692,239.966,0.016,191.066,0.016c-48.897,0-97.797,18.642-135.105,55.951c-74.615,74.618-74.615,195.588,0,270.203
			c37.309,37.31,86.206,55.959,135.105,55.959c33.522,0,67.042-8.775,96.829-26.309l0.028,0.028
			C301.578,347.808,314.447,337.957,326.171,326.23z M80.226,226.577v-70.591h223.067v70.591h-9.007h-10.77H80.226z
			 M221.016,288.986L221.016,288.986l1.025,1.022L221.016,288.986z"/>
	</g>
</g>
<g>
</g>
<g>
</g>
<g>
</g>
<g>
</g>
<g>
</g>
<g>
</g>
<g>
</g>
<g>
</g>
<g>
</g>
<g>
</g>
<g>
</g>
<g>
</g>
<g>
</g>
<g>
</g>
<g>
</g>
</svg>
